  0
SECTION
  2
HEADER
  9
$ACADVER
  1
AC1014
  9
$ACADMAINTVER
 70
     9
  9
$DWGCODEPAGE
  3
ANSI_1252
  9
$INSBASE
 10
0.0
 20
0.0
 30
0.0
  9
$EXTMIN
 10
1.000000000000000E+20
 20
1.000000000000000E+20
 30
1.000000000000000E+20
  9
$EXTMAX
 10
-1.000000000000000E+20
 20
-1.000000000000000E+20
 30
-1.000000000000000E+20
  9
$LIMMIN
 10
0.0
 20
0.0
  9
$LIMMAX
 10
12.0
 20
9.0
  9
$ORTHOMODE
 70
     0
  9
$REGENMODE
 70
     1
  9
$FILLMODE
 70
     1
  9
$QTEXTMODE
 70
     0
  9
$MIRRTEXT
 70
     1
  9
$DRAGMODE
 70
     2
  9
$LTSCALE
 40
1.0
  9
$OSMODE
 70
    37
  9
$ATTMODE
 70
     1
  9
$TEXTSIZE
 40
0.2
  9
$TRACEWID
 40
0.05
  9
$TEXTSTYLE
  7
STANDARD
  9
$CLAYER
  8
0
  9
$CELTYPE
  6
BYLAYER
  9
$CECOLOR
 62
   256
  9
$CELTSCALE
 40
1.0
  9
$DELOBJ
 70
     1
  9
$DISPSILH
 70
     0
  9
$DIMSCALE
 40
1.0
  9
$DIMASZ
 40
0.18
  9
$DIMEXO
 40
0.0625
  9
$DIMDLI
 40
0.38
  9
$DIMRND
 40
0.0
  9
$DIMDLE
 40
0.0
  9
$DIMEXE
 40
0.18
  9
$DIMTP
 40
0.0
  9
$DIMTM
 40
0.0
  9
$DIMTXT
 40
0.18
  9
$DIMCEN
 40
0.09
  9
$DIMTSZ
 40
0.0
  9
$DIMTOL
 70
     0
  9
$DIMLIM
 70
     0
  9
$DIMTIH
 70
     1
  9
$DIMTOH
 70
     1
  9
$DIMSE1
 70
     0
  9
$DIMSE2
 70
     0
  9
$DIMTAD
 70
     0
  9
$DIMZIN
 70
     0
  9
$DIMBLK
  1

  9
$DIMASO
 70
     1
  9
$DIMSHO
 70
     1
  9
$DIMPOST
  1

  9
$DIMAPOST
  1

  9
$DIMALT
 70
     0
  9
$DIMALTD
 70
     2
  9
$DIMALTF
 40
25.4
  9
$DIMLFAC
 40
1.0
  9
$DIMTOFL
 70
     0
  9
$DIMTVP
 40
0.0
  9
$DIMTIX
 70
     0
  9
$DIMSOXD
 70
     0
  9
$DIMSAH
 70
     0
  9
$DIMBLK1
  1

  9
$DIMBLK2
  1

  9
$DIMSTYLE
  2
STANDARD
  9
$DIMCLRD
 70
     0
  9
$DIMCLRE
 70
     0
  9
$DIMCLRT
 70
     0
  9
$DIMTFAC
 40
1.0
  9
$DIMGAP
 40
0.09
  9
$DIMJUST
 70
     0
  9
$DIMSD1
 70
     0
  9
$DIMSD2
 70
     0
  9
$DIMTOLJ
 70
     1
  9
$DIMTZIN
 70
     0
  9
$DIMALTZ
 70
     0
  9
$DIMALTTZ
 70
     0
  9
$DIMFIT
 70
     3
  9
$DIMUPT
 70
     0
  9
$DIMUNIT
 70
     2
  9
$DIMDEC
 70
     4
  9
$DIMTDEC
 70
     4
  9
$DIMALTU
 70
     2
  9
$DIMALTTD
 70
     2
  9
$DIMTXSTY
  7
STANDARD
  9
$DIMAUNIT
 70
     0
  9
$LUNITS
 70
     2
  9
$LUPREC
 70
     4
  9
$SKETCHINC
 40
0.1
  9
$FILLETRAD
 40
0.5
  9
$AUNITS
 70
     0
  9
$AUPREC
 70
     0
  9
$MENU
  1
.
  9
$ELEVATION
 40
0.0
  9
$PELEVATION
 40
0.0
  9
$THICKNESS
 40
0.0
  9
$LIMCHECK
 70
     0
  9
$CHAMFERA
 40
0.5
  9
$CHAMFERB
 40
0.5
  9
$CHAMFERC
 40
1.0
  9
$CHAMFERD
 40
0.0
  9
$SKPOLY
 70
     0
  9
$TDCREATE
 40
2455098.041198276
  9
$TDUPDATE
 40
2455098.041198287
  9
$TDINDWG
 40
0.0000000116
  9
$TDUSRTIMER
 40
0.0000000116
  9
$USRTIMER
 70
     1
  9
$ANGBASE
 50
0.0
  9
$ANGDIR
 70
     0
  9
$PDMODE
 70
     0
  9
$PDSIZE
 40
0.0
  9
$PLINEWID
 40
0.0
  9
$COORDS
 70
     1
  9
$SPLFRAME
 70
     0
  9
$SPLINETYPE
 70
     6
  9
$SPLINESEGS
 70
     8
  9
$ATTDIA
 70
     0
  9
$ATTREQ
 70
     1
  9
$HANDLING
 70
     1
  9
$HANDSEED
  5
332
  9
$SURFTAB1
 70
     6
  9
$SURFTAB2
 70
     6
  9
$SURFTYPE
 70
     6
  9
$SURFU
 70
     6
  9
$SURFV
 70
     6
  9
$UCSNAME
  2

  9
$UCSORG
 10
0.0
 20
0.0
 30
0.0
  9
$UCSXDIR
 10
1.0
 20
0.0
 30
0.0
  9
$UCSYDIR
 10
0.0
 20
1.0
 30
0.0
  9
$PUCSNAME
  2

  9
$PUCSORG
 10
0.0
 20
0.0
 30
0.0
  9
$PUCSXDIR
 10
1.0
 20
0.0
 30
0.0
  9
$PUCSYDIR
 10
0.0
 20
1.0
 30
0.0
  9
$USERI1
 70
     0
  9
$USERI2
 70
     0
  9
$USERI3
 70
     0
  9
$USERI4
 70
     0
  9
$USERI5
 70
     0
  9
$USERR1
 40
0.0
  9
$USERR2
 40
0.0
  9
$USERR3
 40
0.0
  9
$USERR4
 40
0.0
  9
$USERR5
 40
0.0
  9
$WORLDVIEW
 70
     1
  9
$SHADEDGE
 70
     3
  9
$SHADEDIF
 70
    70
  9
$TILEMODE
 70
     1
  9
$MAXACTVP
 70
    64
  9
$PINSBASE
 10
0.0
 20
0.0
 30
0.0
  9
$PLIMCHECK
 70
     0
  9
$PEXTMIN
 10
1.000000000000000E+20
 20
1.000000000000000E+20
 30
1.000000000000000E+20
  9
$PEXTMAX
 10
-1.000000000000000E+20
 20
-1.000000000000000E+20
 30
-1.000000000000000E+20
  9
$PLIMMIN
 10
0.0
 20
0.0
  9
$PLIMMAX
 10
12.0
 20
9.0
  9
$UNITMODE
 70
     0
  9
$VISRETAIN
 70
     1
  9
$PLINEGEN
 70
     0
  9
$PSLTSCALE
 70
     1
  9
$TREEDEPTH
 70
  3020
  9
$PICKSTYLE
 70
     1
  9
$CMLSTYLE
  2
STANDARD
  9
$CMLJUST
 70
     0
  9
$CMLSCALE
 40
1.0
  9
$PROXYGRAPHICS
 70
     1
  9
$MEASUREMENT
 70
     0
  0
ENDSEC
  0
SECTION
  2
CLASSES
  0
CLASS
  1
ACDBDICTIONARYWDFLT
  2
AcDbDictionaryWithDefault
  3
ObjectDBX Classes
 90
        0
280
     0
281
     0
  0
CLASS
  1
VISUALSTYLE
  2
AcDbVisualStyle
  3
ObjectDBX Classes
 90
     4095
280
     0
281
     0
  0
CLASS
  1
XRECORD
  2
AcDbXrecord
  3
AutoCAD 2000
 90
        0
280
     0
281
     0
  0
CLASS
  1
LWPOLYLINE
  2
AcDbPolyline
  3
AutoCAD 2000
 90
        0
280
     0
281
     1
  0
CLASS
  1
HATCH
  2
AcDbHatch
  3
AutoCAD 2000
 90
        0
280
     0
281
     1
  0
CLASS
  1
ACDBPLACEHOLDER
  2
AcDbPlaceHolder
  3
ObjectDBX Classes
 90
        0
280
     0
281
     0
  0
CLASS
  1
LAYOUT
  2
AcDbLayout
  3
ObjectDBX Classes
 90
        0
280
     0
281
     0
  0
ENDSEC
  0
SECTION
  2
TABLES
  0
TABLE
  2
VPORT
  5
8
330
0
100
AcDbSymbolTable
 70
     1
  0
VPORT
  5
29
330
8
100
AcDbSymbolTableRecord
100
AcDbViewportTableRecord
  2
*ACTIVE
 70
     0
 10
0.0
 20
0.0
 11
1.0
 21
1.0
 12
0.0
 22
0.0
 13
0.0
 23
0.0
 14
0.5
 24
0.5
 15
0.5
 25
0.5
 16
0.0
 26
0.0
 36
1.0
 17
0.0
 27
0.0
 37
-1000.0
 40
11.47557925820053
 41
2.030075187969925
 42
50.0
 43
18.19794376470795
 44
23.67287084360388
 50
0.0
 51
0.0
 71
     0
 72
   100
 73
     1
 74
     3
 75
     0
 76
     0
 77
     0
 78
     0
  0
ENDTAB
  0
TABLE
  2
LTYPE
  5
5
330
0
100
AcDbSymbolTable
 70
     1
  0
LTYPE
  5
14
330
5
100
AcDbSymbolTableRecord
100
AcDbLinetypeTableRecord
  2
BYBLOCK
 70
     0
  3

 72
    65
 73
     0
 40
0.0
  0
LTYPE
  5
15
330
5
100
AcDbSymbolTableRecord
100
AcDbLinetypeTableRecord
  2
BYLAYER
 70
     0
  3

 72
    65
 73
     0
 40
0.0
  0
LTYPE
  5
16
330
5
100
AcDbSymbolTableRecord
100
AcDbLinetypeTableRecord
  2
CONTINUOUS
 70
     0
  3
Solid line
 72
    65
 73
     0
 40
0.0
  0
ENDTAB
  0
TABLE
  2
LAYER
  5
2
330
0
100
AcDbSymbolTable
 70
     3
  0
LAYER
  5
10
330
2
100
AcDbSymbolTableRecord
100
AcDbLayerTableRecord
  2
0
 70
     0
 62
     7
  6
CONTINUOUS
  0
LAYER
  5
3B
330
2
100
AcDbSymbolTableRecord
100
AcDbLayerTableRecord
  2
PROFILEEDGES
 70
     0
 62
     7
  6
CONTINUOUS
  0
LAYER
  5
3C
330
2
100
AcDbSymbolTableRecord
100
AcDbLayerTableRecord
  2
SECTIONCUTEDGES
 70
     0
 62
     7
  6
CONTINUOUS
  0
ENDTAB
  0
TABLE
  2
STYLE
  5
3
330
0
100
AcDbSymbolTable
 70
     2
  0
STYLE
  5
11
330
3
100
AcDbSymbolTableRecord
100
AcDbTextStyleTableRecord
  2
STANDARD
 70
     0
 40
0.0
 41
1.0
 50
0.0
 71
     0
 42
0.2
  3
txt
  4

  0
STYLE
  5
30D
330
3
100
AcDbSymbolTableRecord
100
AcDbTextStyleTableRecord
  2
TAHOMA
 70
     0
 40
0.2
 41
1.0
 50
0.0
 71
     0
 42
0.2
  3
Tahoma
  4

1001
ACAD
1000
Tahoma
1071
       34
  0
ENDTAB
  0
TABLE
  2
VIEW
  5
6
330
0
100
AcDbSymbolTable
 70
     0
  0
ENDTAB
  0
TABLE
  2
UCS
  5
7
330
0
100
AcDbSymbolTable
 70
     0
  0
ENDTAB
  0
TABLE
  2
APPID
  5
9
330
0
100
AcDbSymbolTable
 70
     1
  0
APPID
  5
12
330
9
100
AcDbSymbolTableRecord
100
AcDbRegAppTableRecord
  2
ACAD
 70
     0
  0
ENDTAB
  0
TABLE
  2
DIMSTYLE
  5
A
330
0
100
AcDbSymbolTable
 70
     1
  0
DIMSTYLE
105
27
330
A
100
AcDbSymbolTableRecord
100
AcDbDimStyleTableRecord
  2
STANDARD
 70
     0
  3

  4

  5

  6

  7

 40
1.0
 41
0.18
 42
0.0625
 43
0.38
 44
0.18
 45
0.0
 46
0.0
 47
0.0
 48
0.0
140
0.18
141
0.09
142
0.0
143
25.4
144
1.0
145
0.0
146
1.0
147
0.09
 71
     0
 72
     0
 73
     1
 74
     1
 75
     0
 76
     0
 77
     0
 78
     0
170
     0
171
     2
172
     0
173
     0
174
     0
175
     0
176
     0
177
     0
178
     0
270
     2
271
     4
272
     4
273
     2
274
     2
340
11
275
     0
280
     0
281
     0
282
     0
283
     1
284
     0
285
     0
286
     0
287
     3
288
     0
  0
ENDTAB
  0
TABLE
  2
BLOCK_RECORD
  5
1
330
0
100
AcDbSymbolTable
 70
     1
  0
BLOCK_RECORD
  5
1F
330
1
100
AcDbSymbolTableRecord
100
AcDbBlockTableRecord
  2
*MODEL_SPACE
  0
BLOCK_RECORD
  5
1B
330
1
100
AcDbSymbolTableRecord
100
AcDbBlockTableRecord
  2
*PAPER_SPACE
  0
ENDTAB
  0
ENDSEC
  0
SECTION
  2
BLOCKS
  0
BLOCK
  5
20
330
1F
100
AcDbEntity
  8
0
100
AcDbBlockBegin
  2
*MODEL_SPACE
 70
     0
 10
0.0
 20
0.0
 30
0.0
  3
*MODEL_SPACE
  1

  0
ENDBLK
  5
21
330
1F
100
AcDbEntity
  8
0
100
AcDbBlockEnd
  0
BLOCK
  5
1C
330
1B
100
AcDbEntity
 67
     1
  8
0
100
AcDbBlockBegin
  2
*PAPER_SPACE
 70
     0
 10
0.0
 20
0.0
 30
0.0
  3
*PAPER_SPACE
  1

  0
ENDBLK
  5
1D
330
1B
100
AcDbEntity
 67
     1
  8
0
100
AcDbBlockEnd
  0
ENDSEC
  0
SECTION
  2
ENTITIES
  0
LINE
  5
3D
330
1F
100
AcDbEntity
  8
0
100
AcDbLine
 10
4.490566249476166
 20
1.265896447161817
 30
0.0
 11
3.63985503880768
 21
1.265896447161819
 31
0.0
  0
LINE
  5
3E
330
1F
100
AcDbEntity
  8
0
100
AcDbLine
 10
4.490566249476166
 20
1.265896447161817
 30
0.0
 11
4.490566249476166
 21
1.124111245383734
 31
0.0
  0
LINE
  5
3F
330
1F
100
AcDbEntity
  8
0
100
AcDbLine
 10
4.490566249476162
 20
-0.4356394023365797
 30
0.0
 11
4.490566249476166
 21
-0.2938542005584967
 31
0.0
  0
LINE
  5
40
330
1F
100
AcDbEntity
  8
0
100
AcDbLine
 10
3.072714231695356
 20
1.265896447161817
 30
0.0
 11
2.22200302102687
 21
1.265896447161815
 31
0.0
  0
LINE
  5
41
330
1F
100
AcDbEntity
  8
0
100
AcDbLine
 10
3.072714231695356
 20
1.265896447161817
 30
0.0
 11
3.072714231695356
 21
1.124111245383736
 31
0.0
  0
LINE
  5
42
330
1F
100
AcDbEntity
  8
0
100
AcDbLine
 10
3.072714231695356
 20
1.124111245383736
 30
0.0
 11
3.639855038807676
 21
1.124111245383736
 31
0.0
  0
LINE
  5
43
330
1F
100
AcDbEntity
  8
0
100
AcDbLine
 10
3.639855038807676
 20
1.124111245383736
 30
0.0
 11
3.63985503880768
 21
1.265896447161819
 31
0.0
  0
LINE
  5
44
330
1F
100
AcDbEntity
  8
0
100
AcDbLine
 10
3.639855038807676
 20
-0.4356394023365817
 30
0.0
 11
4.490566249476162
 21
-0.4356394023365797
 31
0.0
  0
LINE
  5
45
330
1F
100
AcDbEntity
  8
0
100
AcDbLine
 10
3.639855038807676
 20
-0.4356394023365817
 30
0.0
 11
3.63985503880768
 21
-0.2938542005584967
 31
0.0
  0
LINE
  5
46
330
1F
100
AcDbEntity
  8
0
100
AcDbLine
 10
3.63985503880768
 20
-0.2938542005584967
 30
0.0
 11
3.072714231695356
 21
-0.2938542005584967
 31
0.0
  0
LINE
  5
47
330
1F
100
AcDbEntity
  8
0
100
AcDbLine
 10
3.072714231695356
 20
-0.2938542005584967
 30
0.0
 11
3.072714231695356
 21
-0.4356394023365777
 31
0.0
  0
LINE
  5
48
330
1F
100
AcDbEntity
  8
0
100
AcDbLine
 10
-0.3301306109785844
 20
1.124111245383734
 30
0.0
 11
-2.031553032315561
 21
1.124111245383734
 31
0.0
  0
LINE
  5
49
330
1F
100
AcDbEntity
  8
0
100
AcDbLine
 10
-0.3301306109785844
 20
1.124111245383734
 30
0.0
 11
-0.3301306109785844
 21
1.265896447161815
 31
0.0
  0
LINE
  5
4A
330
1F
100
AcDbEntity
  8
0
100
AcDbLine
 10
-0.3301306109785844
 20
1.265896447161815
 30
0.0
 11
0.2370101961337397
 21
1.265896447161819
 31
0.0
  0
LINE
  5
4B
330
1F
100
AcDbEntity
  8
0
100
AcDbLine
 10
0.2370101961337397
 20
1.265896447161819
 30
0.0
 11
0.2370101961337397
 21
1.124111245383736
 31
0.0
  0
LINE
  5
4C
330
1F
100
AcDbEntity
  8
0
100
AcDbLine
 10
0.2370101961337397
 20
-0.2938542005584946
 30
0.0
 11
0.2370101961337356
 21
-0.4356394023365797
 31
0.0
  0
LINE
  5
4D
330
1F
100
AcDbEntity
  8
0
100
AcDbLine
 10
0.2370101961337356
 20
-0.4356394023365797
 30
0.0
 11
-0.3301306109785844
 21
-0.4356394023365797
 31
0.0
  0
LINE
  5
4E
330
1F
100
AcDbEntity
  8
0
100
AcDbLine
 10
-0.3301306109785844
 20
-0.4356394023365797
 30
0.0
 11
-0.3301306109785844
 21
-0.2938542005584946
 31
0.0
  0
LINE
  5
4F
330
1F
100
AcDbEntity
  8
0
100
AcDbLine
 10
-2.598693839427883
 20
1.124111245383736
 30
0.0
 11
-4.300116260764857
 21
1.124111245383734
 31
0.0
  0
LINE
  5
50
330
1F
100
AcDbEntity
  8
0
100
AcDbLine
 10
-2.598693839427883
 20
1.124111245383736
 30
0.0
 11
-2.598693839427883
 21
1.265896447161817
 31
0.0
  0
LINE
  5
51
330
1F
100
AcDbEntity
  8
0
100
AcDbLine
 10
-2.598693839427883
 20
1.265896447161817
 30
0.0
 11
-2.031553032315561
 21
1.265896447161815
 31
0.0
  0
LINE
  5
52
330
1F
100
AcDbEntity
  8
0
100
AcDbLine
 10
-2.031553032315561
 20
1.265896447161815
 30
0.0
 11
-2.031553032315561
 21
1.124111245383734
 31
0.0
  0
LINE
  5
53
330
1F
100
AcDbEntity
  8
0
100
AcDbLine
 10
-2.031553032315558
 20
-0.2938542005584987
 30
0.0
 11
-0.3301306109785844
 21
-0.2938542005584946
 31
0.0
  0
LINE
  5
54
330
1F
100
AcDbEntity
  8
0
100
AcDbLine
 10
-2.031553032315558
 20
-0.2938542005584987
 30
0.0
 11
-2.031553032315558
 21
-0.4356394023365777
 31
0.0
  0
LINE
  5
55
330
1F
100
AcDbEntity
  8
0
100
AcDbLine
 10
-2.031553032315558
 20
-0.4356394023365777
 30
0.0
 11
-2.598693839427883
 21
-0.4356394023365797
 31
0.0
  0
LINE
  5
56
330
1F
100
AcDbEntity
  8
0
100
AcDbLine
 10
-2.598693839427883
 20
-0.4356394023365797
 30
0.0
 11
-2.598693839427885
 21
-0.2938542005584987
 31
0.0
  0
LINE
  5
57
330
1F
100
AcDbEntity
  8
0
100
AcDbLine
 10
-4.867257067877179
 20
1.124111245383734
 30
0.0
 11
-5.434397874989503
 21
1.124111245383736
 31
0.0
  0
LINE
  5
58
330
1F
100
AcDbEntity
  8
0
100
AcDbLine
 10
-4.867257067877179
 20
1.124111245383734
 30
0.0
 11
-4.867257067877179
 21
1.265896447161817
 31
0.0
  0
LINE
  5
59
330
1F
100
AcDbEntity
  8
0
100
AcDbLine
 10
-4.867257067877179
 20
1.265896447161817
 30
0.0
 11
-4.300116260764857
 21
1.265896447161815
 31
0.0
  0
LINE
  5
5A
330
1F
100
AcDbEntity
  8
0
100
AcDbLine
 10
-4.300116260764857
 20
1.265896447161815
 30
0.0
 11
-4.300116260764857
 21
1.124111245383734
 31
0.0
  0
LINE
  5
5B
330
1F
100
AcDbEntity
  8
0
100
AcDbLine
 10
-4.300116260764855
 20
-0.2938542005584987
 30
0.0
 11
-2.598693839427885
 21
-0.2938542005584987
 31
0.0
  0
LINE
  5
5C
330
1F
100
AcDbEntity
  8
0
100
AcDbLine
 10
-4.300116260764855
 20
-0.2938542005584987
 30
0.0
 11
-4.300116260764855
 21
-0.4356394023365777
 31
0.0
  0
LINE
  5
5D
330
1F
100
AcDbEntity
  8
0
100
AcDbLine
 10
-4.300116260764855
 20
-0.4356394023365777
 30
0.0
 11
-4.867257067877179
 21
-0.4356394023365797
 31
0.0
  0
LINE
  5
5E
330
1F
100
AcDbEntity
  8
0
100
AcDbLine
 10
-4.867257067877179
 20
-0.4356394023365797
 30
0.0
 11
-4.867257067877179
 21
-0.2938542005584967
 31
0.0
  0
LINE
  5
5F
330
1F
100
AcDbEntity
  8
0
100
AcDbLine
 10
-8.270101910551125
 20
-0.4356394023365797
 30
0.0
 11
-8.270101910551123
 21
1.265896447161817
 31
0.0
  0
LINE
  5
60
330
1F
100
AcDbEntity
  8
0
100
AcDbLine
 10
-8.270101910551123
 20
1.265896447161817
 30
0.0
 11
-5.434397874989503
 21
1.265896447161815
 31
0.0
  0
LINE
  5
61
330
1F
100
AcDbEntity
  8
0
100
AcDbLine
 10
-5.434397874989503
 20
1.265896447161815
 30
0.0
 11
-5.434397874989503
 21
1.124111245383736
 31
0.0
  0
LINE
  5
62
330
1F
100
AcDbEntity
  8
0
100
AcDbLine
 10
-5.434397874989503
 20
-0.2938542005584987
 30
0.0
 11
-4.867257067877179
 21
-0.2938542005584967
 31
0.0
  0
LINE
  5
63
330
1F
100
AcDbEntity
  8
0
100
AcDbLine
 10
-5.434397874989503
 20
-0.2938542005584987
 30
0.0
 11
-5.434397874989503
 21
-0.4356394023365797
 31
0.0
  0
LINE
  5
64
330
1F
100
AcDbEntity
  8
0
100
AcDbLine
 10
-5.434397874989503
 20
-0.4356394023365797
 30
0.0
 11
-8.270101910551125
 21
-0.4356394023365797
 31
0.0
  0
LINE
  5
65
330
1F
100
AcDbEntity
  8
0
100
AcDbLine
 10
2.761456933501776
 20
0.9231308748039008
 30
0.0
 11
2.768539134283043
 21
0.9060329296263155
 31
0.0
  0
LINE
  5
66
330
1F
100
AcDbEntity
  8
0
100
AcDbLine
 10
3.951112337001256
 20
-0.1295705405125278
 30
0.0
 11
3.953527943798771
 21
-0.1112221852455908
 31
0.0
  0
LINE
  5
67
330
1F
100
AcDbEntity
  8
0
100
AcDbLine
 10
3.821240549599467
 20
-0.1466684856901131
 30
0.0
 11
3.832506704085138
 21
-0.1613508240701872
 31
0.0
  0
LINE
  5
68
330
1F
100
AcDbEntity
  8
0
100
AcDbLine
 10
2.794487627148782
 20
0.8800844367605768
 30
0.0
 11
2.811585572326373
 21
0.8730022359793064
 31
0.0
  0
LINE
  5
69
330
1F
100
AcDbEntity
  8
0
100
AcDbLine
 10
2.779805288768713
 20
0.9916078688954303
 30
0.0
 11
2.768539134283043
 21
0.976925530515354
 31
0.0
  0
LINE
  5
6A
330
1F
100
AcDbEntity
  8
0
100
AcDbLine
 10
3.292065391817242
 20
0.1754590430922725
 30
0.0
 11
3.356284635251518
 21
0.1670044193009777
 31
0.0
  0
LINE
  5
6B
330
1F
100
AcDbEntity
  8
0
100
AcDbLine
 10
3.953527943798771
 20
0.9414792300708379
 30
0.0
 11
3.951112337001256
 21
0.9598275853377688
 31
0.0
  0
LINE
  5
6C
330
1F
100
AcDbEntity
  8
0
100
AcDbLine
 10
2.829933927593306
 20
1.012371830959878
 30
0.0
 11
2.811585572326369
 21
1.009956224162365
 31
0.0
  0
LINE
  5
6D
330
1F
100
AcDbEntity
  8
0
100
AcDbLine
 10
3.951112337001256
 20
0.9598275853377688
 30
0.0
 11
3.944030136219989
 21
0.9769255305153561
 31
0.0
  0
LINE
  5
6E
330
1F
100
AcDbEntity
  8
0
100
AcDbLine
 10
3.108160532139876
 20
0.4151285224126195
 30
0.0
 11
3.116615155931169
 21
0.350909278978346
 31
0.0
  0
LINE
  5
6F
330
1F
100
AcDbEntity
  8
0
100
AcDbLine
 10
3.141402858665607
 20
0.5391905739684424
 30
0.0
 11
3.116615155931173
 21
0.4793477658468971
 31
0.0
  0
LINE
  5
70
330
1F
100
AcDbEntity
  8
0
100
AcDbLine
 10
3.882635342909734
 20
-0.1821147861346333
 30
0.0
 11
3.900983698176667
 21
-0.1796991793371202
 31
0.0
  0
LINE
  5
71
330
1F
100
AcDbEntity
  8
0
100
AcDbLine
 10
3.832506704085138
 20
0.9916078688954283
 30
0.0
 11
3.821240549599467
 21
0.9769255305153561
 31
0.0
  0
LINE
  5
72
330
1F
100
AcDbEntity
  8
0
100
AcDbLine
 10
2.761456933501776
 20
0.9598275853377708
 30
0.0
 11
2.759041326704265
 21
0.9414792300708379
 31
0.0
  0
LINE
  5
73
330
1F
100
AcDbEntity
  8
0
100
AcDbLine
 10
3.84718904246521
 20
1.002874023381095
 30
0.0
 11
3.832506704085138
 21
0.9916078688954283
 31
0.0
  0
LINE
  5
74
330
1F
100
AcDbEntity
  8
0
100
AcDbLine
 10
3.864286987642793
 20
0.8730022359793084
 30
0.0
 11
3.882635342909726
 21
0.8705866291817953
 31
0.0
  0
LINE
  5
75
330
1F
100
AcDbEntity
  8
0
100
AcDbLine
 10
3.932763981734323
 20
0.9916078688954283
 30
0.0
 11
3.918081643354251
 21
1.002874023381099
 31
0.0
  0
LINE
  5
76
330
1F
100
AcDbEntity
  8
0
100
AcDbLine
 10
2.759041326704265
 20
0.9414792300708379
 30
0.0
 11
2.761456933501776
 21
0.9231308748039008
 31
0.0
  0
LINE
  5
77
330
1F
100
AcDbEntity
  8
0
100
AcDbLine
 10
3.864286987642793
 20
1.009956224162363
 30
0.0
 11
3.84718904246521
 21
1.002874023381095
 31
0.0
  0
LINE
  5
78
330
1F
100
AcDbEntity
  8
0
100
AcDbLine
 10
3.918081643354247
 20
-0.1726169785558559
 30
0.0
 11
3.932763981734323
 21
-0.1613508240701892
 31
0.0
  0
LINE
  5
79
330
1F
100
AcDbEntity
  8
0
100
AcDbLine
 10
3.900983698176667
 20
-0.1796991793371202
 30
0.0
 11
3.918081643354247
 21
-0.1726169785558559
 31
0.0
  0
LINE
  5
7A
330
1F
100
AcDbEntity
  8
0
100
AcDbLine
 10
3.944030136219989
 20
0.9769255305153561
 30
0.0
 11
3.932763981734323
 21
0.9916078688954283
 31
0.0
  0
LINE
  5
7B
330
1F
100
AcDbEntity
  8
0
100
AcDbLine
 10
3.864286987642793
 20
-0.1796991793371243
 30
0.0
 11
3.882635342909734
 21
-0.1821147861346333
 31
0.0
  0
LINE
  5
7C
330
1F
100
AcDbEntity
  8
0
100
AcDbLine
 10
3.292065391817242
 20
0.6547980017329665
 30
0.0
 11
3.232222583695697
 21
0.6300102989985301
 31
0.0
  0
LINE
  5
7D
330
1F
100
AcDbEntity
  8
0
100
AcDbLine
 10
3.847189042465206
 20
-0.0498273919353358
 30
0.0
 11
3.832506704085138
 21
-0.0610935464210024
 31
0.0
  0
LINE
  5
7E
330
1F
100
AcDbEntity
  8
0
100
AcDbLine
 10
3.918081643354251
 20
1.002874023381099
 30
0.0
 11
3.900983698176663
 21
1.009956224162363
 31
0.0
  0
LINE
  5
7F
330
1F
100
AcDbEntity
  8
0
100
AcDbLine
 10
2.779805288768709
 20
0.8913505912462414
 30
0.0
 11
2.794487627148782
 21
0.8800844367605768
 31
0.0
  0
LINE
  5
80
330
1F
100
AcDbEntity
  8
0
100
AcDbLine
 10
3.180834399365449
 20
0.5905787582986889
 30
0.0
 11
3.141402858665607
 21
0.5391905739684424
 31
0.0
  0
LINE
  5
81
330
1F
100
AcDbEntity
  8
0
100
AcDbLine
 10
3.882635342909726
 20
1.012371830959874
 30
0.0
 11
3.864286987642793
 21
1.009956224162363
 31
0.0
  0
LINE
  5
82
330
1F
100
AcDbEntity
  8
0
100
AcDbLine
 10
3.180834399365449
 20
0.239678286526548
 30
0.0
 11
3.232222583695697
 21
0.2002467458267089
 31
0.0
  0
LINE
  5
83
330
1F
100
AcDbEntity
  8
0
100
AcDbLine
 10
2.768539134283043
 20
0.9060329296263155
 30
0.0
 11
2.779805288768709
 21
0.8913505912462414
 31
0.0
  0
LINE
  5
84
330
1F
100
AcDbEntity
  8
0
100
AcDbLine
 10
2.768539134283043
 20
0.976925530515354
 30
0.0
 11
2.761456933501776
 21
0.9598275853377708
 31
0.0
  0
LINE
  5
85
330
1F
100
AcDbEntity
  8
0
100
AcDbLine
 10
3.814158348818201
 20
-0.1295705405125298
 30
0.0
 11
3.821240549599467
 21
-0.1466684856901131
 31
0.0
  0
LINE
  5
86
330
1F
100
AcDbEntity
  8
0
100
AcDbLine
 10
2.811585572326373
 20
0.8730022359793064
 30
0.0
 11
2.829933927593306
 21
0.8705866291817993
 31
0.0
  0
LINE
  5
87
330
1F
100
AcDbEntity
  8
0
100
AcDbLine
 10
2.794487627148786
 20
1.002874023381099
 30
0.0
 11
2.779805288768713
 21
0.9916078688954303
 31
0.0
  0
LINE
  5
88
330
1F
100
AcDbEntity
  8
0
100
AcDbLine
 10
3.932763981734323
 20
0.8913505912462454
 30
0.0
 11
3.944030136219989
 21
0.9060329296263155
 31
0.0
  0
LINE
  5
89
330
1F
100
AcDbEntity
  8
0
100
AcDbLine
 10
3.232222583695697
 20
0.6300102989985301
 30
0.0
 11
3.180834399365449
 21
0.5905787582986889
 31
0.0
  0
LINE
  5
8A
330
1F
100
AcDbEntity
  8
0
100
AcDbLine
 10
3.944030136219993
 20
-0.1466684856901131
 30
0.0
 11
3.951112337001256
 21
-0.1295705405125278
 31
0.0
  0
LINE
  5
8B
330
1F
100
AcDbEntity
  8
0
100
AcDbLine
 10
3.814158348818201
 20
0.9598275853377729
 30
0.0
 11
3.81174274202069
 21
0.9414792300708358
 31
0.0
  0
LINE
  5
8C
330
1F
100
AcDbEntity
  8
0
100
AcDbLine
 10
3.847189042465206
 20
-0.1726169785558579
 30
0.0
 11
3.864286987642793
 21
-0.1796991793371243
 31
0.0
  0
LINE
  5
8D
330
1F
100
AcDbEntity
  8
0
100
AcDbLine
 10
3.832506704085138
 20
-0.0610935464210024
 30
0.0
 11
3.821240549599467
 21
-0.0757758848010766
 31
0.0
  0
LINE
  5
8E
330
1F
100
AcDbEntity
  8
0
100
AcDbLine
 10
3.116615155931169
 20
0.350909278978346
 30
0.0
 11
3.141402858665607
 21
0.2910664708567986
 31
0.0
  0
LINE
  5
8F
330
1F
100
AcDbEntity
  8
0
100
AcDbLine
 10
2.811585572326369
 20
1.009956224162365
 30
0.0
 11
2.794487627148786
 21
1.002874023381099
 31
0.0
  0
LINE
  5
90
330
1F
100
AcDbEntity
  8
0
100
AcDbLine
 10
3.900983698176663
 20
1.009956224162363
 30
0.0
 11
3.882635342909726
 21
1.012371830959874
 31
0.0
  0
LINE
  5
91
330
1F
100
AcDbEntity
  8
0
100
AcDbLine
 10
3.932763981734323
 20
-0.1613508240701892
 30
0.0
 11
3.944030136219993
 21
-0.1466684856901131
 31
0.0
  0
LINE
  5
92
330
1F
100
AcDbEntity
  8
0
100
AcDbLine
 10
3.356284635251514
 20
0.6632526255242612
 30
0.0
 11
3.292065391817242
 21
0.6547980017329665
 31
0.0
  0
LINE
  5
93
330
1F
100
AcDbEntity
  8
0
100
AcDbLine
 10
3.141402858665607
 20
0.2910664708567986
 30
0.0
 11
3.180834399365449
 21
0.239678286526548
 31
0.0
  0
LINE
  5
94
330
1F
100
AcDbEntity
  8
0
100
AcDbLine
 10
3.882635342909726
 20
0.8705866291817953
 30
0.0
 11
3.900983698176667
 21
0.8730022359793104
 31
0.0
  0
LINE
  5
95
330
1F
100
AcDbEntity
  8
0
100
AcDbLine
 10
3.821240549599467
 20
0.9769255305153561
 30
0.0
 11
3.814158348818201
 21
0.9598275853377729
 31
0.0
  0
LINE
  5
96
330
1F
100
AcDbEntity
  8
0
100
AcDbLine
 10
3.821240549599467
 20
0.9060329296263175
 30
0.0
 11
3.832506704085138
 21
0.8913505912462434
 31
0.0
  0
LINE
  5
97
330
1F
100
AcDbEntity
  8
0
100
AcDbLine
 10
3.232222583695697
 20
0.2002467458267089
 30
0.0
 11
3.292065391817242
 21
0.1754590430922725
 31
0.0
  0
LINE
  5
98
330
1F
100
AcDbEntity
  8
0
100
AcDbLine
 10
3.81174274202069
 20
-0.1112221852455948
 30
0.0
 11
3.814158348818201
 21
-0.1295705405125298
 31
0.0
  0
LINE
  5
99
330
1F
100
AcDbEntity
  8
0
100
AcDbLine
 10
3.480346686807335
 20
0.6300102989985281
 30
0.0
 11
3.420503878685794
 21
0.6547980017329685
 31
0.0
  0
LINE
  5
9A
330
1F
100
AcDbEntity
  8
0
100
AcDbLine
 10
3.832506704085138
 20
-0.1613508240701872
 30
0.0
 11
3.847189042465206
 21
-0.1726169785558579
 31
0.0
  0
LINE
  5
9B
330
1F
100
AcDbEntity
  8
0
100
AcDbLine
 10
3.821240549599467
 20
-0.0757758848010766
 30
0.0
 11
3.814158348818201
 21
-0.0928738299786598
 31
0.0
  0
LINE
  5
9C
330
1F
100
AcDbEntity
  8
0
100
AcDbLine
 10
3.116615155931173
 20
0.4793477658468971
 30
0.0
 11
3.108160532139876
 21
0.4151285224126195
 31
0.0
  0
LINE
  5
9D
330
1F
100
AcDbEntity
  8
0
100
AcDbLine
 10
3.480346686807335
 20
0.2002467458267089
 30
0.0
 11
3.531734871137588
 21
0.239678286526546
 31
0.0
  0
LINE
  5
9E
330
1F
100
AcDbEntity
  8
0
100
AcDbLine
 10
2.761456933501776
 20
-0.0928738299786618
 30
0.0
 11
2.759041326704261
 21
-0.1112221852455989
 31
0.0
  0
LINE
  5
9F
330
1F
100
AcDbEntity
  8
0
100
AcDbLine
 10
2.768539134283043
 20
-0.1466684856901171
 30
0.0
 11
2.779805288768709
 21
-0.1613508240701872
 31
0.0
  0
LINE
  5
A0
330
1F
100
AcDbEntity
  8
0
100
AcDbLine
 10
2.759041326704261
 20
-0.1112221852455989
 30
0.0
 11
2.761456933501776
 21
-0.1295705405125339
 31
0.0
  0
LINE
  5
A1
330
1F
100
AcDbEntity
  8
0
100
AcDbLine
 10
2.768539134283043
 20
-0.0757758848010806
 30
0.0
 11
2.761456933501776
 21
-0.0928738299786618
 31
0.0
  0
LINE
  5
A2
330
1F
100
AcDbEntity
  8
0
100
AcDbLine
 10
2.811585572326365
 20
-0.0427451911540714
 30
0.0
 11
2.794487627148782
 21
-0.0498273919353358
 31
0.0
  0
LINE
  5
A3
330
1F
100
AcDbEntity
  8
0
100
AcDbLine
 10
2.779805288768709
 20
-0.0610935464210064
 30
0.0
 11
2.768539134283043
 21
-0.0757758848010806
 31
0.0
  0
LINE
  5
A4
330
1F
100
AcDbEntity
  8
0
100
AcDbLine
 10
2.779805288768709
 20
-0.1613508240701872
 30
0.0
 11
2.794487627148782
 21
-0.1726169785558579
 31
0.0
  0
LINE
  5
A5
330
1F
100
AcDbEntity
  8
0
100
AcDbLine
 10
2.829933927593302
 20
-0.0403295843565604
 30
0.0
 11
2.811585572326365
 21
-0.0427451911540714
 31
0.0
  0
LINE
  5
A6
330
1F
100
AcDbEntity
  8
0
100
AcDbLine
 10
2.811585572326365
 20
-0.1796991793371283
 30
0.0
 11
2.829933927593302
 21
-0.1821147861346414
 31
0.0
  0
LINE
  5
A7
330
1F
100
AcDbEntity
  8
0
100
AcDbLine
 10
2.900826528482342
 20
-0.1112221852455989
 30
0.0
 11
2.898410921684831
 21
-0.0928738299786638
 31
0.0
  0
LINE
  5
A8
330
1F
100
AcDbEntity
  8
0
100
AcDbLine
 10
2.794487627148782
 20
-0.0498273919353358
 30
0.0
 11
2.779805288768709
 21
-0.0610935464210064
 31
0.0
  0
LINE
  5
A9
330
1F
100
AcDbEntity
  8
0
100
AcDbLine
 10
2.794487627148782
 20
-0.1726169785558579
 30
0.0
 11
2.811585572326365
 21
-0.1796991793371283
 31
0.0
  0
LINE
  5
AA
330
1F
100
AcDbEntity
  8
0
100
AcDbLine
 10
2.761456933501776
 20
-0.1295705405125339
 30
0.0
 11
2.768539134283043
 21
-0.1466684856901171
 31
0.0
  0
LINE
  5
AB
330
1F
100
AcDbEntity
  8
0
100
AcDbLine
 10
3.81174274202069
 20
0.9414792300708358
 30
0.0
 11
3.814158348818205
 21
0.9231308748039008
 31
0.0
  0
LINE
  5
AC
330
1F
100
AcDbEntity
  8
0
100
AcDbLine
 10
3.814158348818205
 20
0.9231308748039008
 30
0.0
 11
3.821240549599467
 21
0.9060329296263175
 31
0.0
  0
LINE
  5
AD
330
1F
100
AcDbEntity
  8
0
100
AcDbLine
 10
3.832506704085138
 20
0.8913505912462434
 30
0.0
 11
3.847189042465206
 21
0.8800844367605748
 31
0.0
  0
LINE
  5
AE
330
1F
100
AcDbEntity
  8
0
100
AcDbLine
 10
3.847189042465206
 20
0.8800844367605748
 30
0.0
 11
3.864286987642793
 21
0.8730022359793084
 31
0.0
  0
LINE
  5
AF
330
1F
100
AcDbEntity
  8
0
100
AcDbLine
 10
3.900983698176667
 20
0.8730022359793104
 30
0.0
 11
3.918081643354247
 21
0.8800844367605768
 31
0.0
  0
LINE
  5
B0
330
1F
100
AcDbEntity
  8
0
100
AcDbLine
 10
3.918081643354247
 20
0.8800844367605768
 30
0.0
 11
3.932763981734323
 21
0.8913505912462454
 31
0.0
  0
LINE
  5
B1
330
1F
100
AcDbEntity
  8
0
100
AcDbLine
 10
3.944030136219989
 20
0.9060329296263155
 30
0.0
 11
3.951112337001256
 21
0.9231308748038988
 31
0.0
  0
LINE
  5
B2
330
1F
100
AcDbEntity
  8
0
100
AcDbLine
 10
3.951112337001256
 20
0.9231308748038988
 30
0.0
 11
3.953527943798771
 21
0.9414792300708379
 31
0.0
  0
LINE
  5
B3
330
1F
100
AcDbEntity
  8
0
100
AcDbLine
 10
3.81174274202069
 20
-0.1112221852455948
 30
0.0
 11
3.814158348818201
 21
-0.0928738299786598
 31
0.0
  0
LINE
  5
B4
330
1F
100
AcDbEntity
  8
0
100
AcDbLine
 10
3.847189042465206
 20
-0.0498273919353358
 30
0.0
 11
3.864286987642797
 21
-0.0427451911540654
 31
0.0
  0
LINE
  5
B5
330
1F
100
AcDbEntity
  8
0
100
AcDbLine
 10
3.864286987642797
 20
-0.0427451911540654
 30
0.0
 11
3.882635342909726
 21
-0.0403295843565563
 31
0.0
  0
LINE
  5
B6
330
1F
100
AcDbEntity
  8
0
100
AcDbLine
 10
3.882635342909726
 20
-0.0403295843565563
 30
0.0
 11
3.900983698176663
 21
-0.0427451911540674
 31
0.0
  0
LINE
  5
B7
330
1F
100
AcDbEntity
  8
0
100
AcDbLine
 10
3.900983698176663
 20
-0.0427451911540674
 30
0.0
 11
3.918081643354251
 21
-0.0498273919353358
 31
0.0
  0
LINE
  5
B8
330
1F
100
AcDbEntity
  8
0
100
AcDbLine
 10
3.918081643354251
 20
-0.0498273919353358
 30
0.0
 11
3.932763981734323
 21
-0.0610935464210024
 31
0.0
  0
LINE
  5
B9
330
1F
100
AcDbEntity
  8
0
100
AcDbLine
 10
3.932763981734323
 20
-0.0610935464210024
 30
0.0
 11
3.944030136219989
 21
-0.0757758848010766
 31
0.0
  0
LINE
  5
BA
330
1F
100
AcDbEntity
  8
0
100
AcDbLine
 10
3.944030136219989
 20
-0.0757758848010766
 30
0.0
 11
3.951112337001256
 21
-0.0928738299786598
 31
0.0
  0
LINE
  5
BB
330
1F
100
AcDbEntity
  8
0
100
AcDbLine
 10
3.951112337001256
 20
-0.0928738299786598
 30
0.0
 11
3.953527943798771
 21
-0.1112221852455908
 31
0.0
  0
LINE
  5
BC
330
1F
100
AcDbEntity
  8
0
100
AcDbLine
 10
3.356284635251514
 20
0.6632526255242612
 30
0.0
 11
3.420503878685794
 21
0.6547980017329685
 31
0.0
  0
LINE
  5
BD
330
1F
100
AcDbEntity
  8
0
100
AcDbLine
 10
3.480346686807335
 20
0.6300102989985281
 30
0.0
 11
3.531734871137584
 21
0.5905787582986889
 31
0.0
  0
LINE
  5
BE
330
1F
100
AcDbEntity
  8
0
100
AcDbLine
 10
3.531734871137584
 20
0.5905787582986889
 30
0.0
 11
3.571166411837428
 21
0.5391905739684444
 31
0.0
  0
LINE
  5
BF
330
1F
100
AcDbEntity
  8
0
100
AcDbLine
 10
3.571166411837428
 20
0.5391905739684444
 30
0.0
 11
3.595954114571859
 21
0.479347765846895
 31
0.0
  0
LINE
  5
C0
330
1F
100
AcDbEntity
  8
0
100
AcDbLine
 10
3.595954114571859
 20
0.479347765846895
 30
0.0
 11
3.604408738363156
 21
0.4151285224126195
 31
0.0
  0
LINE
  5
C1
330
1F
100
AcDbEntity
  8
0
100
AcDbLine
 10
3.604408738363156
 20
0.4151285224126195
 30
0.0
 11
3.595954114571863
 21
0.350909278978346
 31
0.0
  0
LINE
  5
C2
330
1F
100
AcDbEntity
  8
0
100
AcDbLine
 10
3.595954114571863
 20
0.350909278978346
 30
0.0
 11
3.571166411837424
 21
0.2910664708567986
 31
0.0
  0
LINE
  5
C3
330
1F
100
AcDbEntity
  8
0
100
AcDbLine
 10
3.571166411837424
 20
0.2910664708567986
 30
0.0
 11
3.531734871137588
 21
0.239678286526546
 31
0.0
  0
LINE
  5
C4
330
1F
100
AcDbEntity
  8
0
100
AcDbLine
 10
3.480346686807335
 20
0.2002467458267089
 30
0.0
 11
3.42050387868579
 21
0.1754590430922705
 31
0.0
  0
LINE
  5
C5
330
1F
100
AcDbEntity
  8
0
100
AcDbLine
 10
3.42050387868579
 20
0.1754590430922705
 30
0.0
 11
3.356284635251518
 21
0.1670044193009777
 31
0.0
  0
LINE
  5
C6
330
1F
100
AcDbEntity
  8
0
100
AcDbLine
 10
2.829933927593306
 20
1.012371830959878
 30
0.0
 11
2.848282282860239
 21
1.009956224162365
 31
0.0
  0
LINE
  5
C7
330
1F
100
AcDbEntity
  8
0
100
AcDbLine
 10
2.848282282860239
 20
1.009956224162365
 30
0.0
 11
2.865380228037826
 21
1.002874023381097
 31
0.0
  0
LINE
  5
C8
330
1F
100
AcDbEntity
  8
0
100
AcDbLine
 10
2.865380228037826
 20
1.002874023381097
 30
0.0
 11
2.880062566417894
 21
0.9916078688954283
 31
0.0
  0
LINE
  5
C9
330
1F
100
AcDbEntity
  8
0
100
AcDbLine
 10
2.880062566417894
 20
0.9916078688954283
 30
0.0
 11
2.891328720903565
 21
0.9769255305153581
 31
0.0
  0
LINE
  5
CA
330
1F
100
AcDbEntity
  8
0
100
AcDbLine
 10
2.891328720903565
 20
0.9769255305153581
 30
0.0
 11
2.898410921684831
 21
0.9598275853377708
 31
0.0
  0
LINE
  5
CB
330
1F
100
AcDbEntity
  8
0
100
AcDbLine
 10
2.898410921684831
 20
0.9598275853377708
 30
0.0
 11
2.900826528482346
 21
0.9414792300708379
 31
0.0
  0
LINE
  5
CC
330
1F
100
AcDbEntity
  8
0
100
AcDbLine
 10
2.900826528482346
 20
0.9414792300708379
 30
0.0
 11
2.898410921684835
 21
0.9231308748039008
 31
0.0
  0
LINE
  5
CD
330
1F
100
AcDbEntity
  8
0
100
AcDbLine
 10
2.898410921684835
 20
0.9231308748039008
 30
0.0
 11
2.891328720903569
 21
0.9060329296263175
 31
0.0
  0
LINE
  5
CE
330
1F
100
AcDbEntity
  8
0
100
AcDbLine
 10
2.891328720903569
 20
0.9060329296263175
 30
0.0
 11
2.880062566417894
 21
0.8913505912462434
 31
0.0
  0
LINE
  5
CF
330
1F
100
AcDbEntity
  8
0
100
AcDbLine
 10
2.880062566417894
 20
0.8913505912462434
 30
0.0
 11
2.865380228037822
 21
0.8800844367605728
 31
0.0
  0
LINE
  5
D0
330
1F
100
AcDbEntity
  8
0
100
AcDbLine
 10
2.865380228037822
 20
0.8800844367605728
 30
0.0
 11
2.848282282860239
 21
0.8730022359793084
 31
0.0
  0
LINE
  5
D1
330
1F
100
AcDbEntity
  8
0
100
AcDbLine
 10
2.848282282860239
 20
0.8730022359793084
 30
0.0
 11
2.829933927593306
 21
0.8705866291817993
 31
0.0
  0
LINE
  5
D2
330
1F
100
AcDbEntity
  8
0
100
AcDbLine
 10
2.829933927593302
 20
-0.0403295843565604
 30
0.0
 11
2.848282282860239
 21
-0.0427451911540714
 31
0.0
  0
LINE
  5
D3
330
1F
100
AcDbEntity
  8
0
100
AcDbLine
 10
2.848282282860239
 20
-0.0427451911540714
 30
0.0
 11
2.865380228037822
 21
-0.0498273919353378
 31
0.0
  0
LINE
  5
D4
330
1F
100
AcDbEntity
  8
0
100
AcDbLine
 10
2.865380228037822
 20
-0.0498273919353378
 30
0.0
 11
2.880062566417898
 21
-0.0610935464210044
 31
0.0
  0
LINE
  5
D5
330
1F
100
AcDbEntity
  8
0
100
AcDbLine
 10
2.880062566417898
 20
-0.0610935464210044
 30
0.0
 11
2.891328720903565
 21
-0.0757758848010766
 31
0.0
  0
LINE
  5
D6
330
1F
100
AcDbEntity
  8
0
100
AcDbLine
 10
2.891328720903565
 20
-0.0757758848010766
 30
0.0
 11
2.898410921684831
 21
-0.0928738299786638
 31
0.0
  0
LINE
  5
D7
330
1F
100
AcDbEntity
  8
0
100
AcDbLine
 10
2.900826528482342
 20
-0.1112221852455989
 30
0.0
 11
2.898410921684831
 21
-0.1295705405125379
 31
0.0
  0
LINE
  5
D8
330
1F
100
AcDbEntity
  8
0
100
AcDbLine
 10
2.898410921684831
 20
-0.1295705405125379
 30
0.0
 11
2.891328720903565
 21
-0.1466684856901191
 31
0.0
  0
LINE
  5
D9
330
1F
100
AcDbEntity
  8
0
100
AcDbLine
 10
2.891328720903565
 20
-0.1466684856901191
 30
0.0
 11
2.880062566417894
 21
-0.1613508240701913
 31
0.0
  0
LINE
  5
DA
330
1F
100
AcDbEntity
  8
0
100
AcDbLine
 10
2.880062566417894
 20
-0.1613508240701913
 30
0.0
 11
2.865380228037822
 21
-0.1726169785558599
 31
0.0
  0
LINE
  5
DB
330
1F
100
AcDbEntity
  8
0
100
AcDbLine
 10
2.865380228037822
 20
-0.1726169785558599
 30
0.0
 11
2.848282282860235
 21
-0.1796991793371263
 31
0.0
  0
LINE
  5
DC
330
1F
100
AcDbEntity
  8
0
100
AcDbLine
 10
2.848282282860235
 20
-0.1796991793371263
 30
0.0
 11
2.829933927593302
 21
-0.1821147861346414
 31
0.0
  0
LINE
  5
DD
330
1F
100
AcDbEntity
  8
0
100
AcDbLine
 10
4.774122298345437
 20
1.124111245383736
 30
0.0
 11
4.774136653032328
 21
-0.2938542005584967
 31
0.0
  0
LINE
  5
DE
330
1F
100
AcDbEntity
  8
0
100
AcDbLine
 10
7.585081568898083
 20
0.9417423392472307
 30
0.0
 11
7.585081568898083
 21
-0.1925392749774134
 31
0.0
  0
LINE
  5
DF
330
1F
100
AcDbEntity
  8
0
100
AcDbLine
 10
7.585081568898083
 20
-0.1925392749774134
 30
0.0
 11
8.71936318312273
 21
-0.1925392749774134
 31
0.0
  0
LINE
  5
E0
330
1F
100
AcDbEntity
  8
0
100
AcDbLine
 10
8.71936318312273
 20
-0.1925392749774134
 30
0.0
 11
8.71936318312273
 21
0.9417423392472307
 31
0.0
  0
LINE
  5
E1
330
1F
100
AcDbEntity
  8
0
100
AcDbLine
 10
8.71936318312273
 20
0.9417423392472307
 30
0.0
 11
7.585081568898083
 21
0.9417423392472307
 31
0.0
  0
LINE
  5
E2
330
1F
100
AcDbEntity
  8
0
100
AcDbLine
 10
2.22200302102687
 20
-0.4356394023365797
 30
0.0
 11
3.072714231695356
 21
-0.4356394023365777
 31
0.0
  0
LINE
  5
E3
330
1F
100
AcDbEntity
  8
0
100
AcDbLine
 10
2.22200302102687
 20
-0.4356394023365797
 30
0.0
 11
2.22200302102687
 21
-0.2938542005584987
 31
0.0
  0
LINE
  5
E4
330
1F
100
AcDbEntity
  8
0
100
AcDbLine
 10
2.22200302102687
 20
1.124111245383734
 30
0.0
 11
2.22200302102687
 21
1.265896447161815
 31
0.0
  0
LINE
  5
E5
330
1F
100
AcDbEntity
  8
0
100
AcDbLine
 10
-7.206712897215516
 20
0.4172323955185439
 30
0.0
 11
-7.204297290418003
 21
0.3988840402516089
 31
0.0
  0
LINE
  5
E6
330
1F
100
AcDbEntity
  8
0
100
AcDbLine
 10
-7.085691657501883
 20
0.4673610343431384
 30
0.0
 11
-7.100373995881955
 21
0.478627188828805
 31
0.0
  0
LINE
  5
E7
330
1F
100
AcDbEntity
  8
0
100
AcDbLine
 10
-7.197215089636736
 20
0.3817860950740237
 30
0.0
 11
-7.185948935151067
 21
0.3671037566939535
 31
0.0
  0
LINE
  5
E8
330
1F
100
AcDbEntity
  8
0
100
AcDbLine
 10
-7.171266596770995
 20
0.478627188828807
 30
0.0
 11
-7.185948935151067
 21
0.4673610343431404
 31
0.0
  0
LINE
  5
E9
330
1F
100
AcDbEntity
  8
0
100
AcDbLine
 10
-7.204297290418003
 20
0.435580750785481
 30
0.0
 11
-7.206712897215516
 21
0.4172323955185439
 31
0.0
  0
LINE
  5
EA
330
1F
100
AcDbEntity
  8
0
100
AcDbLine
 10
-7.074425503016216
 20
0.4526786959630662
 30
0.0
 11
-7.085691657501883
 21
0.4673610343431384
 31
0.0
  0
LINE
  5
EB
330
1F
100
AcDbEntity
  8
0
100
AcDbLine
 10
-7.15416865159341
 20
0.3487554014270185
 30
0.0
 11
-7.135820296326475
 21
0.3463397946295054
 31
0.0
  0
LINE
  5
EC
330
1F
100
AcDbEntity
  8
0
100
AcDbLine
 10
-7.154168651593412
 20
0.4857093896100734
 30
0.0
 11
-7.171266596770995
 21
0.478627188828807
 31
0.0
  0
LINE
  5
ED
330
1F
100
AcDbEntity
  8
0
100
AcDbLine
 10
-7.11747194105954
 20
0.4857093896100734
 30
0.0
 11
-7.135820296326475
 21
0.4881249964075885
 31
0.0
  0
LINE
  5
EE
330
1F
100
AcDbEntity
  8
0
100
AcDbLine
 10
-7.067343302234947
 20
0.435580750785481
 30
0.0
 11
-7.074425503016216
 21
0.4526786959630662
 31
0.0
  0
LINE
  5
EF
330
1F
100
AcDbEntity
  8
0
100
AcDbLine
 10
-7.064927695437435
 20
0.417232395518546
 30
0.0
 11
-7.067343302234947
 21
0.435580750785481
 31
0.0
  0
LINE
  5
F0
330
1F
100
AcDbEntity
  8
0
100
AcDbLine
 10
-7.185948935151067
 20
0.4673610343431404
 30
0.0
 11
-7.197215089636735
 21
0.4526786959630642
 31
0.0
  0
LINE
  5
F1
330
1F
100
AcDbEntity
  8
0
100
AcDbLine
 10
-7.185948935151067
 20
0.3671037566939535
 30
0.0
 11
-7.171266596770995
 21
0.3558376022082849
 31
0.0
  0
LINE
  5
F2
330
1F
100
AcDbEntity
  8
0
100
AcDbLine
 10
-7.204297290418003
 20
0.3988840402516089
 30
0.0
 11
-7.197215089636736
 21
0.3817860950740237
 31
0.0
  0
LINE
  5
F3
330
1F
100
AcDbEntity
  8
0
100
AcDbLine
 10
-7.197215089636735
 20
0.4526786959630642
 30
0.0
 11
-7.204297290418003
 21
0.435580750785481
 31
0.0
  0
LINE
  5
F4
330
1F
100
AcDbEntity
  8
0
100
AcDbLine
 10
-7.100373995881955
 20
0.478627188828805
 30
0.0
 11
-7.11747194105954
 21
0.4857093896100734
 31
0.0
  0
LINE
  5
F5
330
1F
100
AcDbEntity
  8
0
100
AcDbLine
 10
-7.135820296326475
 20
0.4881249964075885
 30
0.0
 11
-7.154168651593412
 21
0.4857093896100734
 31
0.0
  0
LINE
  5
F6
330
1F
100
AcDbEntity
  8
0
100
AcDbLine
 10
-7.171266596770995
 20
0.3558376022082849
 30
0.0
 11
-7.15416865159341
 21
0.3487554014270185
 31
0.0
  0
LINE
  5
F7
330
1F
100
AcDbEntity
  8
0
100
AcDbLine
 10
-7.135820296326475
 20
0.3463397946295054
 30
0.0
 11
-7.117471941059538
 21
0.3487554014270185
 31
0.0
  0
LINE
  5
F8
330
1F
100
AcDbEntity
  8
0
100
AcDbLine
 10
-7.085691657501883
 20
0.3671037566939535
 30
0.0
 11
-7.074425503016216
 21
0.3817860950740237
 31
0.0
  0
LINE
  5
F9
330
1F
100
AcDbEntity
  8
0
100
AcDbLine
 10
-7.06734330223495
 20
0.3988840402516089
 30
0.0
 11
-7.064927695437435
 21
0.417232395518546
 31
0.0
  0
LINE
  5
FA
330
1F
100
AcDbEntity
  8
0
100
AcDbLine
 10
-7.074425503016216
 20
0.3817860950740237
 30
0.0
 11
-7.06734330223495
 21
0.3988840402516089
 31
0.0
  0
LINE
  5
FB
330
1F
100
AcDbEntity
  8
0
100
AcDbLine
 10
-7.100373995881955
 20
0.3558376022082849
 30
0.0
 11
-7.085691657501883
 21
0.3671037566939535
 31
0.0
  0
LINE
  5
FC
330
1F
100
AcDbEntity
  8
0
100
AcDbLine
 10
-7.117471941059538
 20
0.3487554014270185
 30
0.0
 11
-7.100373995881955
 21
0.3558376022082849
 31
0.0
  0
LINE
  5
FD
330
1F
100
AcDbEntity
  8
0
100
AcDbLine
 10
-6.34650387896825
 20
0.4526786959630642
 30
0.0
 11
-6.353586079749516
 21
0.435580750785481
 31
0.0
  0
LINE
  5
FE
330
1F
100
AcDbEntity
  8
0
100
AcDbLine
 10
-6.216632091566463
 20
0.3988840402516089
 30
0.0
 11
-6.214216484768949
 21
0.417232395518546
 31
0.0
  0
LINE
  5
FF
330
1F
100
AcDbEntity
  8
0
100
AcDbLine
 10
-6.266760730391052
 20
0.3487554014270185
 30
0.0
 11
-6.249662785213469
 21
0.3558376022082849
 31
0.0
  0
LINE
  5
100
330
1F
100
AcDbEntity
  8
0
100
AcDbLine
 10
-6.353586079749516
 20
0.3988840402516089
 30
0.0
 11
-6.34650387896825
 21
0.3817860950740237
 31
0.0
  0
LINE
  5
101
330
1F
100
AcDbEntity
  8
0
100
AcDbLine
 10
-6.335237724482582
 20
0.4673610343431404
 30
0.0
 11
-6.34650387896825
 21
0.4526786959630642
 31
0.0
  0
LINE
  5
102
330
1F
100
AcDbEntity
  8
0
100
AcDbLine
 10
-6.249662785213469
 20
0.3558376022082849
 30
0.0
 11
-6.234980446833396
 21
0.3671037566939535
 31
0.0
  0
LINE
  5
103
330
1F
100
AcDbEntity
  8
0
100
AcDbLine
 10
-6.266760730391054
 20
0.4857093896100734
 30
0.0
 11
-6.285109085657989
 21
0.4881249964075885
 31
0.0
  0
LINE
  5
104
330
1F
100
AcDbEntity
  8
0
100
AcDbLine
 10
-6.285109085657989
 20
0.3463397946295054
 30
0.0
 11
-6.266760730391052
 21
0.3487554014270185
 31
0.0
  0
LINE
  5
105
330
1F
100
AcDbEntity
  8
0
100
AcDbLine
 10
-6.22371429234773
 20
0.4526786959630662
 30
0.0
 11
-6.234980446833396
 21
0.4673610343431384
 31
0.0
  0
LINE
  5
106
330
1F
100
AcDbEntity
  8
0
100
AcDbLine
 10
-6.353586079749516
 20
0.435580750785481
 30
0.0
 11
-6.35600168654703
 21
0.4172323955185439
 31
0.0
  0
LINE
  5
107
330
1F
100
AcDbEntity
  8
0
100
AcDbLine
 10
-6.216632091566462
 20
0.435580750785481
 30
0.0
 11
-6.22371429234773
 21
0.4526786959630662
 31
0.0
  0
LINE
  5
108
330
1F
100
AcDbEntity
  8
0
100
AcDbLine
 10
-6.214216484768949
 20
0.417232395518546
 30
0.0
 11
-6.216632091566462
 21
0.435580750785481
 31
0.0
  0
LINE
  5
109
330
1F
100
AcDbEntity
  8
0
100
AcDbLine
 10
-6.22371429234773
 20
0.3817860950740237
 30
0.0
 11
-6.216632091566463
 21
0.3988840402516089
 31
0.0
  0
LINE
  5
10A
330
1F
100
AcDbEntity
  8
0
100
AcDbLine
 10
-6.335237724482582
 20
0.3671037566939535
 30
0.0
 11
-6.32055538610251
 21
0.3558376022082849
 31
0.0
  0
LINE
  5
10B
330
1F
100
AcDbEntity
  8
0
100
AcDbLine
 10
-6.32055538610251
 20
0.3558376022082849
 30
0.0
 11
-6.303457440924924
 21
0.3487554014270185
 31
0.0
  0
LINE
  5
10C
330
1F
100
AcDbEntity
  8
0
100
AcDbLine
 10
-6.32055538610251
 20
0.478627188828807
 30
0.0
 11
-6.335237724482582
 21
0.4673610343431404
 31
0.0
  0
LINE
  5
10D
330
1F
100
AcDbEntity
  8
0
100
AcDbLine
 10
-6.249662785213469
 20
0.478627188828805
 30
0.0
 11
-6.266760730391054
 21
0.4857093896100734
 31
0.0
  0
LINE
  5
10E
330
1F
100
AcDbEntity
  8
0
100
AcDbLine
 10
-6.34650387896825
 20
0.3817860950740237
 30
0.0
 11
-6.335237724482582
 21
0.3671037566939535
 31
0.0
  0
LINE
  5
10F
330
1F
100
AcDbEntity
  8
0
100
AcDbLine
 10
-6.303457440924926
 20
0.4857093896100734
 30
0.0
 11
-6.32055538610251
 21
0.478627188828807
 31
0.0
  0
LINE
  5
110
330
1F
100
AcDbEntity
  8
0
100
AcDbLine
 10
-6.35600168654703
 20
0.4172323955185439
 30
0.0
 11
-6.353586079749516
 21
0.3988840402516089
 31
0.0
  0
LINE
  5
111
330
1F
100
AcDbEntity
  8
0
100
AcDbLine
 10
-6.234980446833396
 20
0.4673610343431384
 30
0.0
 11
-6.249662785213469
 21
0.478627188828805
 31
0.0
  0
LINE
  5
112
330
1F
100
AcDbEntity
  8
0
100
AcDbLine
 10
-6.303457440924924
 20
0.3487554014270185
 30
0.0
 11
-6.285109085657989
 21
0.3463397946295054
 31
0.0
  0
LINE
  5
113
330
1F
100
AcDbEntity
  8
0
100
AcDbLine
 10
-6.234980446833396
 20
0.3671037566939535
 30
0.0
 11
-6.22371429234773
 21
0.3817860950740237
 31
0.0
  0
LINE
  5
114
330
1F
100
AcDbEntity
  8
0
100
AcDbLine
 10
-6.285109085657989
 20
0.4881249964075885
 30
0.0
 11
-6.303457440924926
 21
0.4857093896100734
 31
0.0
  0
LINE
  5
115
330
1F
100
AcDbEntity
  8
0
100
AcDbLine
 10
-7.918054513080668
 20
0.3988840402516089
 30
0.0
 11
-7.915638906283154
 21
0.417232395518546
 31
0.0
  0
LINE
  5
116
330
1F
100
AcDbEntity
  8
0
100
AcDbLine
 10
-7.951085206727674
 20
0.478627188828805
 30
0.0
 11
-7.968183151905259
 21
0.4857093896100734
 31
0.0
  0
LINE
  5
117
330
1F
100
AcDbEntity
  8
0
100
AcDbLine
 10
-7.986531507172194
 20
0.4881249964075885
 30
0.0
 11
-8.00487986243913
 21
0.4857093896100734
 31
0.0
  0
LINE
  5
118
330
1F
100
AcDbEntity
  8
0
100
AcDbLine
 10
-8.055008501263721
 20
0.435580750785481
 30
0.0
 11
-8.057424108061234
 21
0.4172323955185439
 31
0.0
  0
LINE
  5
119
330
1F
100
AcDbEntity
  8
0
100
AcDbLine
 10
-7.986531507172194
 20
0.3463397946295054
 30
0.0
 11
-7.968183151905257
 21
0.3487554014270185
 31
0.0
  0
LINE
  5
11A
330
1F
100
AcDbEntity
  8
0
100
AcDbLine
 10
-7.925136713861935
 20
0.4526786959630662
 30
0.0
 11
-7.936402868347601
 21
0.4673610343431384
 31
0.0
  0
LINE
  5
11B
330
1F
100
AcDbEntity
  8
0
100
AcDbLine
 10
-8.036660145996786
 20
0.4673610343431404
 30
0.0
 11
-8.047926300482453
 21
0.4526786959630642
 31
0.0
  0
LINE
  5
11C
330
1F
100
AcDbEntity
  8
0
100
AcDbLine
 10
-8.057424108061234
 20
0.4172323955185439
 30
0.0
 11
-8.055008501263721
 21
0.3988840402516089
 31
0.0
  0
LINE
  5
11D
330
1F
100
AcDbEntity
  8
0
100
AcDbLine
 10
-8.00487986243913
 20
0.4857093896100734
 30
0.0
 11
-8.021977807616715
 21
0.478627188828807
 31
0.0
  0
LINE
  5
11E
330
1F
100
AcDbEntity
  8
0
100
AcDbLine
 10
-7.951085206727674
 20
0.3558376022082849
 30
0.0
 11
-7.936402868347601
 21
0.3671037566939535
 31
0.0
  0
LINE
  5
11F
330
1F
100
AcDbEntity
  8
0
100
AcDbLine
 10
-7.918054513080667
 20
0.435580750785481
 30
0.0
 11
-7.925136713861935
 21
0.4526786959630662
 31
0.0
  0
LINE
  5
120
330
1F
100
AcDbEntity
  8
0
100
AcDbLine
 10
-8.004879862439129
 20
0.3487554014270185
 30
0.0
 11
-7.986531507172194
 21
0.3463397946295054
 31
0.0
  0
LINE
  5
121
330
1F
100
AcDbEntity
  8
0
100
AcDbLine
 10
-8.036660145996786
 20
0.3671037566939535
 30
0.0
 11
-8.021977807616715
 21
0.3558376022082849
 31
0.0
  0
LINE
  5
122
330
1F
100
AcDbEntity
  8
0
100
AcDbLine
 10
-7.968183151905259
 20
0.4857093896100734
 30
0.0
 11
-7.986531507172194
 21
0.4881249964075885
 31
0.0
  0
LINE
  5
123
330
1F
100
AcDbEntity
  8
0
100
AcDbLine
 10
-8.047926300482453
 20
0.4526786959630642
 30
0.0
 11
-8.055008501263721
 21
0.435580750785481
 31
0.0
  0
LINE
  5
124
330
1F
100
AcDbEntity
  8
0
100
AcDbLine
 10
-8.021977807616715
 20
0.478627188828807
 30
0.0
 11
-8.036660145996786
 21
0.4673610343431404
 31
0.0
  0
LINE
  5
125
330
1F
100
AcDbEntity
  8
0
100
AcDbLine
 10
-8.047926300482455
 20
0.3817860950740237
 30
0.0
 11
-8.036660145996786
 21
0.3671037566939535
 31
0.0
  0
LINE
  5
126
330
1F
100
AcDbEntity
  8
0
100
AcDbLine
 10
-7.936402868347601
 20
0.4673610343431384
 30
0.0
 11
-7.951085206727674
 21
0.478627188828805
 31
0.0
  0
LINE
  5
127
330
1F
100
AcDbEntity
  8
0
100
AcDbLine
 10
-8.055008501263721
 20
0.3988840402516089
 30
0.0
 11
-8.047926300482455
 21
0.3817860950740237
 31
0.0
  0
LINE
  5
128
330
1F
100
AcDbEntity
  8
0
100
AcDbLine
 10
-7.915638906283154
 20
0.417232395518546
 30
0.0
 11
-7.918054513080667
 21
0.435580750785481
 31
0.0
  0
LINE
  5
129
330
1F
100
AcDbEntity
  8
0
100
AcDbLine
 10
-8.021977807616715
 20
0.3558376022082849
 30
0.0
 11
-8.004879862439129
 21
0.3487554014270185
 31
0.0
  0
LINE
  5
12A
330
1F
100
AcDbEntity
  8
0
100
AcDbLine
 10
-7.968183151905257
 20
0.3487554014270185
 30
0.0
 11
-7.951085206727674
 21
0.3558376022082849
 31
0.0
  0
LINE
  5
12B
330
1F
100
AcDbEntity
  8
0
100
AcDbLine
 10
-7.936402868347601
 20
0.3671037566939535
 30
0.0
 11
-7.925136713861935
 21
0.3817860950740237
 31
0.0
  0
LINE
  5
12C
330
1F
100
AcDbEntity
  8
0
100
AcDbLine
 10
-7.925136713861935
 20
0.3817860950740237
 30
0.0
 11
-7.918054513080668
 21
0.3988840402516089
 31
0.0
  0
LINE
  5
12D
330
1F
100
AcDbEntity
  8
0
100
AcDbLine
 10
-7.561175901660718
 20
3.676131449227768
 30
0.0
 11
-7.579524256927655
 21
3.678547056025283
 31
0.0
  0
LINE
  5
12E
330
1F
100
AcDbEntity
  8
0
100
AcDbLine
 10
-3.165834646540207
 20
3.534346247449689
 30
0.0
 11
-3.165834646540207
 21
3.39256104567161
 31
0.0
  0
LINE
  5
12F
330
1F
100
AcDbEntity
  8
0
100
AcDbLine
 10
3.072714231695356
 20
2.825420238559284
 30
0.0
 11
2.22200302102687
 21
2.825420238559284
 31
0.0
  0
LINE
  5
130
330
1F
100
AcDbEntity
  8
0
100
AcDbLine
 10
4.753372690967884
 20
3.41398903999825
 30
0.0
 11
4.738690352587808
 21
3.402722885512584
 31
0.0
  0
LINE
  5
131
330
1F
100
AcDbEntity
  8
0
100
AcDbLine
 10
4.634767058051763
 20
3.445769323555908
 30
0.0
 11
4.632351451254247
 21
3.464117678822845
 31
0.0
  0
LINE
  5
132
330
1F
100
AcDbEntity
  8
0
100
AcDbLine
 10
-4.559228586174668
 20
2.40503956866329
 30
0.0
 11
-4.57391092455474
 21
2.393773414177623
 31
0.0
  0
LINE
  5
133
330
1F
100
AcDbEntity
  8
0
100
AcDbLine
 10
-4.57391092455474
 20
2.393773414177623
 30
0.0
 11
-4.591008869732326
 21
2.386691213396355
 31
0.0
  0
LINE
  5
134
330
1F
100
AcDbEntity
  8
0
100
AcDbLine
 10
-7.492698907569193
 20
3.765372405383747
 30
0.0
 11
-7.490283300771678
 21
3.74702405011681
 31
0.0
  0
LINE
  5
135
330
1F
100
AcDbEntity
  8
0
100
AcDbLine
 10
4.738690352587808
 20
3.525512472133106
 30
0.0
 11
4.753372690967884
 21
3.514246317647437
 31
0.0
  0
LINE
  5
136
330
1F
100
AcDbEntity
  8
0
100
AcDbLine
 10
-7.61130454048531
 20
3.797152688941403
 30
0.0
 11
-7.596622202105238
 21
3.808418843427071
 31
0.0
  0
LINE
  5
137
330
1F
100
AcDbEntity
  8
0
100
AcDbLine
 10
-7.629652895752246
 20
3.728675694849875
 30
0.0
 11
-7.632068502549759
 21
3.747024050116812
 31
0.0
  0
LINE
  5
138
330
1F
100
AcDbEntity
  8
0
100
AcDbLine
 10
-7.61130454048531
 20
3.696895411292216
 30
0.0
 11
-7.622570694970978
 21
3.711577749672292
 31
0.0
  0
LINE
  5
139
330
1F
100
AcDbEntity
  8
0
100
AcDbLine
 10
-7.561175901660718
 20
3.817916651005851
 30
0.0
 11
-7.542827546393781
 21
3.815501044208338
 31
0.0
  0
LINE
  5
13A
330
1F
100
AcDbEntity
  8
0
100
AcDbLine
 10
-7.511047262836126
 20
3.797152688941403
 30
0.0
 11
-7.499781108350459
 21
3.782470350561332
 31
0.0
  0
LINE
  5
13B
330
1F
100
AcDbEntity
  8
0
100
AcDbLine
 10
1.97387891791523
 20
3.402058853250389
 30
0.0
 11
1.956780972737645
 21
3.394976652469121
 31
0.0
  0
LINE
  5
13C
330
1F
100
AcDbEntity
  8
0
100
AcDbLine
 10
-5.010645010598116
 20
2.232258483307379
 30
0.0
 11
-4.941338409338162
 21
2.210418618336869
 31
0.0
  0
LINE
  5
13D
330
1F
100
AcDbEntity
  8
0
100
AcDbLine
 10
-7.525729601216198
 20
3.685629256806551
 30
0.0
 11
-7.542827546393783
 21
3.678547056025283
 31
0.0
  0
LINE
  5
13E
330
1F
100
AcDbEntity
  8
0
100
AcDbLine
 10
-7.525729601216198
 20
3.808418843427071
 30
0.0
 11
-7.511047262836126
 21
3.797152688941403
 31
0.0
  0
LINE
  5
13F
330
1F
100
AcDbEntity
  8
0
100
AcDbLine
 10
-7.499781108350459
 20
3.71157774967229
 30
0.0
 11
-7.511047262836126
 21
3.696895411292218
 31
0.0
  0
LINE
  5
140
330
1F
100
AcDbEntity
  8
0
100
AcDbLine
 10
-7.579524256927655
 20
3.678547056025283
 30
0.0
 11
-7.596622202105238
 21
3.685629256806549
 31
0.0
  0
LINE
  5
141
330
1F
100
AcDbEntity
  8
0
100
AcDbLine
 10
4.641849258833025
 20
3.428671378378325
 30
0.0
 11
4.634767058051763
 21
3.445769323555908
 31
0.0
  0
LINE
  5
142
330
1F
100
AcDbEntity
  8
0
100
AcDbLine
 10
4.72159240741022
 20
3.395640684731315
 30
0.0
 11
4.703244052143288
 21
3.393225077933804
 31
0.0
  0
LINE
  5
143
330
1F
100
AcDbEntity
  8
0
100
AcDbLine
 10
1.988561256295302
 20
3.413325007736056
 30
0.0
 11
1.97387891791523
 21
3.402058853250389
 31
0.0
  0
LINE
  5
144
330
1F
100
AcDbEntity
  8
0
100
AcDbLine
 10
1.93843261747071
 20
3.392561045671606
 30
0.0
 11
1.920084262203773
 21
3.394976652469121
 31
0.0
  0
LINE
  5
145
330
1F
100
AcDbEntity
  8
0
100
AcDbLine
 10
-7.490283300771678
 20
3.74702405011681
 30
0.0
 11
-7.492698907569191
 21
3.728675694849875
 31
0.0
  0
LINE
  5
146
330
1F
100
AcDbEntity
  8
0
100
AcDbLine
 10
-5.141593561233509
 20
2.294926922019092
 30
0.0
 11
-5.077594021202233
 21
2.260511176263382
 31
0.0
  0
LINE
  5
147
330
1F
100
AcDbEntity
  8
0
100
AcDbLine
 10
-7.542827546393783
 20
3.678547056025283
 30
0.0
 11
-7.561175901660718
 21
3.676131449227768
 31
0.0
  0
LINE
  5
148
330
1F
100
AcDbEntity
  8
0
100
AcDbLine
 10
-4.798118752012964
 20
2.186691294852615
 30
0.0
 11
-4.725471866099098
 21
2.185013603833983
 31
0.0
  0
LINE
  5
149
330
1F
100
AcDbEntity
  8
0
100
AcDbLine
 10
4.684895696876352
 20
2.52364520157941
 30
0.0
 11
4.703244052143288
 21
2.526060808376922
 31
0.0
  0
LINE
  5
14A
330
1F
100
AcDbEntity
  8
0
100
AcDbLine
 10
4.721592407410225
 20
3.532594672914372
 30
0.0
 11
4.738690352587808
 21
3.525512472133106
 31
0.0
  0
LINE
  5
14B
330
1F
100
AcDbEntity
  8
0
100
AcDbLine
 10
-4.547962431689002
 20
2.490614507932404
 30
0.0
 11
-4.540880230907735
 21
2.473516562754819
 31
0.0
  0
LINE
  5
14C
330
1F
100
AcDbEntity
  8
0
100
AcDbLine
 10
3.639855038807676
 20
2.825420238559281
 30
0.0
 11
3.639855038807676
 21
2.967205440337367
 31
0.0
  0
LINE
  5
14D
330
1F
100
AcDbEntity
  8
0
100
AcDbLine
 10
4.490566249476166
 20
2.967205440337362
 30
0.0
 11
4.490566249476162
 21
2.825420238559284
 31
0.0
  0
LINE
  5
14E
330
1F
100
AcDbEntity
  8
0
100
AcDbLine
 10
3.639855038807676
 20
2.967205440337367
 30
0.0
 11
4.490566249476166
 21
2.967205440337362
 31
0.0
  0
LINE
  5
14F
330
1F
100
AcDbEntity
  8
0
100
AcDbLine
 10
4.703244052143288
 20
3.535010279711884
 30
0.0
 11
4.721592407410225
 21
3.532594672914372
 31
0.0
  0
LINE
  5
150
330
1F
100
AcDbEntity
  8
0
100
AcDbLine
 10
4.771721046234813
 20
3.482466034089782
 30
0.0
 11
4.774136653032328
 21
3.464117678822845
 31
0.0
  0
LINE
  5
151
330
1F
100
AcDbEntity
  8
0
100
AcDbLine
 10
1.988561256295302
 20
3.513582285385241
 30
0.0
 11
1.999827410780969
 21
3.49889994700517
 31
0.0
  0
LINE
  5
152
330
1F
100
AcDbEntity
  8
0
100
AcDbLine
 10
1.93843261747071
 20
3.534346247449689
 30
0.0
 11
1.956780972737647
 21
3.531930640652176
 31
0.0
  0
LINE
  5
153
330
1F
100
AcDbEntity
  8
0
100
AcDbLine
 10
-3.732975453652531
 20
3.744650823392874
 30
0.0
 11
-5.434397874989503
 21
4.385057458118175
 31
0.0
  0
LINE
  5
154
330
1F
100
AcDbEntity
  8
0
100
AcDbLine
 10
-7.511047262836126
 20
3.696895411292218
 30
0.0
 11
-7.525729601216198
 21
3.685629256806551
 31
0.0
  0
LINE
  5
155
330
1F
100
AcDbEntity
  8
0
100
AcDbLine
 10
-7.629652895752246
 20
3.765372405383747
 30
0.0
 11
-7.622570694970979
 21
3.782470350561332
 31
0.0
  0
LINE
  5
156
330
1F
100
AcDbEntity
  8
0
100
AcDbLine
 10
4.771721046234817
 20
3.445769323555906
 30
0.0
 11
4.764638845453547
 21
3.428671378378325
 31
0.0
  0
LINE
  5
157
330
1F
100
AcDbEntity
  8
0
100
AcDbLine
 10
-4.941338409338162
 20
2.210418618336869
 30
0.0
 11
-4.870286940224867
 21
2.195184662285382
 31
0.0
  0
LINE
  5
158
330
1F
100
AcDbEntity
  8
0
100
AcDbLine
 10
-7.622570694970978
 20
3.711577749672292
 30
0.0
 11
-7.629652895752246
 21
3.728675694849875
 31
0.0
  0
LINE
  5
159
330
1F
100
AcDbEntity
  8
0
100
AcDbLine
 10
-4.725471866099098
 20
2.185013603833983
 30
0.0
 11
-4.441901462542936
 21
2.185013603833983
 31
0.0
  0
LINE
  5
15A
330
1F
100
AcDbEntity
  8
0
100
AcDbLine
 10
-4.644803525443781
 20
2.393773414177621
 30
0.0
 11
-4.659485863823853
 21
2.405039568663288
 31
0.0
  0
LINE
  5
15B
330
1F
100
AcDbEntity
  8
0
100
AcDbLine
 10
-4.659485863823853
 20
2.405039568663288
 30
0.0
 11
-4.670752018309522
 21
2.419721907043364
 31
0.0
  0
LINE
  5
15C
330
1F
100
AcDbEntity
  8
0
100
AcDbLine
 10
-7.632068502549759
 20
3.747024050116812
 30
0.0
 11
-7.629652895752246
 21
3.765372405383747
 31
0.0
  0
LINE
  5
15D
330
1F
100
AcDbEntity
  8
0
100
AcDbLine
 10
-7.579524256927654
 20
3.815501044208338
 30
0.0
 11
-7.561175901660718
 21
3.817916651005851
 31
0.0
  0
LINE
  5
15E
330
1F
100
AcDbEntity
  8
0
100
AcDbLine
 10
1.920084262203775
 20
3.531930640652176
 30
0.0
 11
1.93843261747071
 21
3.534346247449689
 31
0.0
  0
LINE
  5
15F
330
1F
100
AcDbEntity
  8
0
100
AcDbLine
 10
2.22200302102687
 20
2.825420238559284
 30
0.0
 11
2.22200302102687
 21
2.967205440337367
 31
0.0
  0
LINE
  5
160
330
1F
100
AcDbEntity
  8
0
100
AcDbLine
 10
2.00932521835975
 20
3.463453646560648
 30
0.0
 11
2.006909611562237
 21
3.445105291293713
 31
0.0
  0
LINE
  5
161
330
1F
100
AcDbEntity
  8
0
100
AcDbLine
 10
4.774136653032328
 20
2.455168207487882
 30
0.0
 11
4.771721046234815
 21
2.436819852220947
 31
0.0
  0
LINE
  5
162
330
1F
100
AcDbEntity
  8
0
100
AcDbLine
 10
4.771721046234815
 20
2.436819852220947
 30
0.0
 11
4.764638845453547
 21
2.419721907043362
 31
0.0
  0
LINE
  5
163
330
1F
100
AcDbEntity
  8
0
100
AcDbLine
 10
-4.870286940224867
 20
2.195184662285382
 30
0.0
 11
-4.798118752012964
 21
2.186691294852615
 31
0.0
  0
LINE
  5
164
330
1F
100
AcDbEntity
  8
0
100
AcDbLine
 10
-5.077594021202233
 20
2.260511176263382
 30
0.0
 11
-5.010645010598116
 21
2.232258483307379
 31
0.0
  0
LINE
  5
165
330
1F
100
AcDbEntity
  8
0
100
AcDbLine
 10
-5.202077826326794
 20
2.335201459338117
 30
0.0
 11
-5.141593561233509
 21
2.294926922019092
 31
0.0
  0
LINE
  5
166
330
1F
100
AcDbEntity
  8
0
100
AcDbLine
 10
-5.258512089807557
 20
2.380978730833042
 30
0.0
 11
-5.202077826326794
 21
2.335201459338117
 31
0.0
  0
LINE
  5
167
330
1F
100
AcDbEntity
  8
0
100
AcDbLine
 10
-5.310397430080338
 20
2.431854030782174
 30
0.0
 11
-5.258512089807557
 21
2.380978730833042
 31
0.0
  0
LINE
  5
168
330
1F
100
AcDbEntity
  8
0
100
AcDbLine
 10
-5.357275141473202
 20
2.487377583034382
 30
0.0
 11
-5.310397430080338
 21
2.431854030782174
 31
0.0
  0
LINE
  5
169
330
1F
100
AcDbEntity
  8
0
100
AcDbLine
 10
-5.398730789543007
 20
2.547058517370641
 30
0.0
 11
-5.357275141473202
 21
2.487377583034382
 31
0.0
  0
LINE
  5
16A
330
1F
100
AcDbEntity
  8
0
100
AcDbLine
 10
-5.434397874989503
 20
2.610369209168226
 30
0.0
 11
-5.398730789543007
 21
2.547058517370641
 31
0.0
  0
LINE
  5
16B
330
1F
100
AcDbEntity
  8
0
100
AcDbLine
 10
-5.434397874989503
 20
2.967205440337365
 30
0.0
 11
-5.434397874989503
 21
2.610369209168226
 31
0.0
  0
LINE
  5
16C
330
1F
100
AcDbEntity
  8
0
100
AcDbLine
 10
-8.270101910551123
 20
2.967205440337365
 30
0.0
 11
-5.434397874989503
 21
2.967205440337365
 31
0.0
  0
LINE
  5
16D
330
1F
100
AcDbEntity
  8
0
100
AcDbLine
 10
-8.270101910551123
 20
4.385057458118175
 30
0.0
 11
-8.270101910551123
 21
2.967205440337365
 31
0.0
  0
LINE
  5
16E
330
1F
100
AcDbEntity
  8
0
100
AcDbLine
 10
-5.434397874989503
 20
4.385057458118175
 30
0.0
 11
-8.270101910551123
 21
4.385057458118175
 31
0.0
  0
LINE
  5
16F
330
1F
100
AcDbEntity
  8
0
100
AcDbLine
 10
-3.732975453652531
 20
3.744650823392874
 30
0.0
 11
4.774136653032328
 21
3.744650823392878
 31
0.0
  0
LINE
  5
170
330
1F
100
AcDbEntity
  8
0
100
AcDbLine
 10
-3.732975453652531
 20
2.610369209168226
 30
0.0
 11
-3.768642539099026
 21
2.547058517370641
 31
0.0
  0
LINE
  5
171
330
1F
100
AcDbEntity
  8
0
100
AcDbLine
 10
-3.768642539099026
 20
2.547058517370641
 30
0.0
 11
-3.810098187168832
 21
2.487377583034382
 31
0.0
  0
LINE
  5
172
330
1F
100
AcDbEntity
  8
0
100
AcDbLine
 10
-3.810098187168832
 20
2.487377583034382
 30
0.0
 11
-3.856975898561696
 21
2.431854030782174
 31
0.0
  0
LINE
  5
173
330
1F
100
AcDbEntity
  8
0
100
AcDbLine
 10
-3.856975898561696
 20
2.431854030782174
 30
0.0
 11
-3.908861238834476
 21
2.380978730833042
 31
0.0
  0
LINE
  5
174
330
1F
100
AcDbEntity
  8
0
100
AcDbLine
 10
-3.908861238834476
 20
2.380978730833042
 30
0.0
 11
-3.96529550231524
 21
2.335201459338117
 31
0.0
  0
LINE
  5
175
330
1F
100
AcDbEntity
  8
0
100
AcDbLine
 10
-3.96529550231524
 20
2.335201459338117
 30
0.0
 11
-4.025779767408525
 21
2.294926922019092
 31
0.0
  0
LINE
  5
176
330
1F
100
AcDbEntity
  8
0
100
AcDbLine
 10
-4.025779767408525
 20
2.294926922019092
 30
0.0
 11
-4.0897793074398
 21
2.260511176263382
 31
0.0
  0
LINE
  5
177
330
1F
100
AcDbEntity
  8
0
100
AcDbLine
 10
-4.0897793074398
 20
2.260511176263382
 30
0.0
 11
-4.156728318043917
 21
2.232258483307379
 31
0.0
  0
LINE
  5
178
330
1F
100
AcDbEntity
  8
0
100
AcDbLine
 10
-4.156728318043917
 20
2.232258483307379
 30
0.0
 11
-4.226034919303872
 21
2.210418618336869
 31
0.0
  0
LINE
  5
179
330
1F
100
AcDbEntity
  8
0
100
AcDbLine
 10
-4.226034919303872
 20
2.210418618336869
 30
0.0
 11
-4.297086388417168
 21
2.195184662285382
 31
0.0
  0
LINE
  5
17A
330
1F
100
AcDbEntity
  8
0
100
AcDbLine
 10
-4.297086388417168
 20
2.195184662285382
 30
0.0
 11
-4.369254576629069
 21
2.186691294852615
 31
0.0
  0
LINE
  5
17B
330
1F
100
AcDbEntity
  8
0
100
AcDbLine
 10
-4.369254576629069
 20
2.186691294852615
 30
0.0
 11
-4.441901462542936
 21
2.185013603833983
 31
0.0
  0
LINE
  5
17C
330
1F
100
AcDbEntity
  8
0
100
AcDbLine
 10
-4.867257067877179
 20
2.967205440337367
 30
0.0
 11
-4.300116260764855
 21
2.967205440337365
 31
0.0
  0
LINE
  5
17D
330
1F
100
AcDbEntity
  8
0
100
AcDbLine
 10
-4.867257067877179
 20
2.825420238559281
 30
0.0
 11
-4.867257067877179
 21
2.967205440337367
 31
0.0
  0
LINE
  5
17E
330
1F
100
AcDbEntity
  8
0
100
AcDbLine
 10
-4.300116260764855
 20
2.825420238559285
 30
0.0
 11
-4.867257067877179
 21
2.825420238559281
 31
0.0
  0
LINE
  5
17F
330
1F
100
AcDbEntity
  8
0
100
AcDbLine
 10
-4.300116260764855
 20
2.967205440337365
 30
0.0
 11
-4.300116260764855
 21
2.825420238559285
 31
0.0
  0
LINE
  5
180
330
1F
100
AcDbEntity
  8
0
100
AcDbLine
 10
3.072714231695356
 20
2.967205440337362
 30
0.0
 11
3.072714231695356
 21
2.825420238559284
 31
0.0
  0
LINE
  5
181
330
1F
100
AcDbEntity
  8
0
100
AcDbLine
 10
2.22200302102687
 20
2.967205440337367
 30
0.0
 11
3.072714231695356
 21
2.967205440337362
 31
0.0
  0
LINE
  5
182
330
1F
100
AcDbEntity
  8
0
100
AcDbLine
 10
0.2370101961337397
 20
2.967205440337365
 30
0.0
 11
0.2370101961337397
 21
2.825420238559281
 31
0.0
  0
LINE
  5
183
330
1F
100
AcDbEntity
  8
0
100
AcDbLine
 10
-0.3301306109785844
 20
2.967205440337362
 30
0.0
 11
0.2370101961337397
 21
2.967205440337365
 31
0.0
  0
LINE
  5
184
330
1F
100
AcDbEntity
  8
0
100
AcDbLine
 10
-0.3301306109785844
 20
2.825420238559281
 30
0.0
 11
-0.3301306109785844
 21
2.967205440337362
 31
0.0
  0
LINE
  5
185
330
1F
100
AcDbEntity
  8
0
100
AcDbLine
 10
0.2370101961337397
 20
2.825420238559281
 30
0.0
 11
-0.3301306109785844
 21
2.825420238559281
 31
0.0
  0
LINE
  5
186
330
1F
100
AcDbEntity
  8
0
100
AcDbLine
 10
-2.598693839427883
 20
2.825420238559284
 30
0.0
 11
-2.598693839427883
 21
2.967205440337365
 31
0.0
  0
LINE
  5
187
330
1F
100
AcDbEntity
  8
0
100
AcDbLine
 10
-2.031553032315561
 20
2.825420238559284
 30
0.0
 11
-2.598693839427883
 21
2.825420238559284
 31
0.0
  0
LINE
  5
188
330
1F
100
AcDbEntity
  8
0
100
AcDbLine
 10
-2.031553032315558
 20
2.967205440337367
 30
0.0
 11
-2.031553032315561
 21
2.825420238559284
 31
0.0
  0
LINE
  5
189
330
1F
100
AcDbEntity
  8
0
100
AcDbLine
 10
-2.598693839427883
 20
2.967205440337365
 30
0.0
 11
-2.031553032315558
 21
2.967205440337367
 31
0.0
  0
LINE
  5
18A
330
1F
100
AcDbEntity
  8
0
100
AcDbLine
 10
-7.499781108350459
 20
3.782470350561332
 30
0.0
 11
-7.492698907569193
 21
3.765372405383747
 31
0.0
  0
LINE
  5
18B
330
1F
100
AcDbEntity
  8
0
100
AcDbLine
 10
-7.542827546393781
 20
3.815501044208338
 30
0.0
 11
-7.525729601216198
 21
3.808418843427071
 31
0.0
  0
LINE
  5
18C
330
1F
100
AcDbEntity
  8
0
100
AcDbLine
 10
-7.596622202105238
 20
3.808418843427071
 30
0.0
 11
-7.579524256927654
 21
3.815501044208338
 31
0.0
  0
LINE
  5
18D
330
1F
100
AcDbEntity
  8
0
100
AcDbLine
 10
-7.622570694970979
 20
3.782470350561332
 30
0.0
 11
-7.61130454048531
 21
3.797152688941403
 31
0.0
  0
LINE
  5
18E
330
1F
100
AcDbEntity
  8
0
100
AcDbLine
 10
-7.596622202105238
 20
3.685629256806549
 30
0.0
 11
-7.61130454048531
 21
3.696895411292216
 31
0.0
  0
LINE
  5
18F
330
1F
100
AcDbEntity
  8
0
100
AcDbLine
 10
-7.492698907569191
 20
3.728675694849875
 30
0.0
 11
-7.499781108350459
 21
3.71157774967229
 31
0.0
  0
LINE
  5
190
330
1F
100
AcDbEntity
  8
0
100
AcDbLine
 10
4.490566249476162
 20
2.825420238559284
 30
0.0
 11
3.639855038807676
 21
2.825420238559281
 31
0.0
  0
LINE
  5
191
330
1F
100
AcDbEntity
  8
0
100
AcDbLine
 10
4.68489569687635
 20
3.53259467291437
 30
0.0
 11
4.703244052143288
 21
3.535010279711884
 31
0.0
  0
LINE
  5
192
330
1F
100
AcDbEntity
  8
0
100
AcDbLine
 10
4.667797751698771
 20
3.525512472133104
 30
0.0
 11
4.68489569687635
 21
3.53259467291437
 31
0.0
  0
LINE
  5
193
330
1F
100
AcDbEntity
  8
0
100
AcDbLine
 10
4.653115413318695
 20
3.514246317647435
 30
0.0
 11
4.667797751698771
 21
3.525512472133104
 31
0.0
  0
LINE
  5
194
330
1F
100
AcDbEntity
  8
0
100
AcDbLine
 10
4.641849258833025
 20
3.499563979267363
 30
0.0
 11
4.653115413318695
 21
3.514246317647435
 31
0.0
  0
LINE
  5
195
330
1F
100
AcDbEntity
  8
0
100
AcDbLine
 10
4.634767058051758
 20
3.48246603408978
 30
0.0
 11
4.641849258833025
 21
3.499563979267363
 31
0.0
  0
LINE
  5
196
330
1F
100
AcDbEntity
  8
0
100
AcDbLine
 10
4.632351451254247
 20
3.464117678822845
 30
0.0
 11
4.634767058051758
 21
3.48246603408978
 31
0.0
  0
LINE
  5
197
330
1F
100
AcDbEntity
  8
0
100
AcDbLine
 10
4.653115413318695
 20
3.413989039998253
 30
0.0
 11
4.641849258833025
 21
3.428671378378325
 31
0.0
  0
LINE
  5
198
330
1F
100
AcDbEntity
  8
0
100
AcDbLine
 10
4.667797751698767
 20
3.402722885512584
 30
0.0
 11
4.653115413318695
 21
3.413989039998253
 31
0.0
  0
LINE
  5
199
330
1F
100
AcDbEntity
  8
0
100
AcDbLine
 10
4.68489569687635
 20
3.395640684731318
 30
0.0
 11
4.667797751698767
 21
3.402722885512584
 31
0.0
  0
LINE
  5
19A
330
1F
100
AcDbEntity
  8
0
100
AcDbLine
 10
4.703244052143288
 20
3.393225077933804
 30
0.0
 11
4.68489569687635
 21
3.395640684731318
 31
0.0
  0
LINE
  5
19B
330
1F
100
AcDbEntity
  8
0
100
AcDbLine
 10
4.738690352587808
 20
3.402722885512584
 30
0.0
 11
4.72159240741022
 21
3.395640684731315
 31
0.0
  0
LINE
  5
19C
330
1F
100
AcDbEntity
  8
0
100
AcDbLine
 10
4.764638845453547
 20
3.428671378378325
 30
0.0
 11
4.753372690967884
 21
3.41398903999825
 31
0.0
  0
LINE
  5
19D
330
1F
100
AcDbEntity
  8
0
100
AcDbLine
 10
4.774136653032328
 20
3.464117678822845
 30
0.0
 11
4.771721046234817
 21
3.445769323555906
 31
0.0
  0
LINE
  5
19E
330
1F
100
AcDbEntity
  8
0
100
AcDbLine
 10
4.76463884545355
 20
3.499563979267365
 30
0.0
 11
4.771721046234813
 21
3.482466034089782
 31
0.0
  0
LINE
  5
19F
330
1F
100
AcDbEntity
  8
0
100
AcDbLine
 10
4.753372690967884
 20
3.514246317647437
 30
0.0
 11
4.76463884545355
 21
3.499563979267365
 31
0.0
  0
LINE
  5
1A0
330
1F
100
AcDbEntity
  8
0
100
AcDbLine
 10
-3.732975453652531
 20
3.534346247449691
 30
0.0
 11
-3.165834646540207
 21
3.534346247449689
 31
0.0
  0
LINE
  5
1A1
330
1F
100
AcDbEntity
  8
0
100
AcDbLine
 10
-3.732975453652531
 20
3.392561045671606
 30
0.0
 11
-3.732975453652531
 21
3.534346247449691
 31
0.0
  0
LINE
  5
1A2
330
1F
100
AcDbEntity
  8
0
100
AcDbLine
 10
-3.165834646540207
 20
3.39256104567161
 30
0.0
 11
-3.732975453652531
 21
3.392561045671606
 31
0.0
  0
LINE
  5
1A3
330
1F
100
AcDbEntity
  8
0
100
AcDbLine
 10
-0.8972714180909105
 20
3.534346247449689
 30
0.0
 11
-0.8972714180909105
 21
3.39256104567161
 31
0.0
  0
LINE
  5
1A4
330
1F
100
AcDbEntity
  8
0
100
AcDbLine
 10
-1.464412225203235
 20
3.534346247449691
 30
0.0
 11
-0.8972714180909105
 21
3.534346247449689
 31
0.0
  0
LINE
  5
1A5
330
1F
100
AcDbEntity
  8
0
100
AcDbLine
 10
-1.464412225203235
 20
3.392561045671606
 30
0.0
 11
-1.464412225203235
 21
3.534346247449691
 31
0.0
  0
LINE
  5
1A6
330
1F
100
AcDbEntity
  8
0
100
AcDbLine
 10
-0.8972714180909105
 20
3.39256104567161
 30
0.0
 11
-1.464412225203235
 21
3.392561045671606
 31
0.0
  0
LINE
  5
1A7
330
1F
100
AcDbEntity
  8
0
100
AcDbLine
 10
2.006909611562235
 20
3.481802001827585
 30
0.0
 11
2.00932521835975
 21
3.463453646560648
 31
0.0
  0
LINE
  5
1A8
330
1F
100
AcDbEntity
  8
0
100
AcDbLine
 10
1.999827410780969
 20
3.49889994700517
 30
0.0
 11
2.006909611562235
 21
3.481802001827585
 31
0.0
  0
LINE
  5
1A9
330
1F
100
AcDbEntity
  8
0
100
AcDbLine
 10
1.97387891791523
 20
3.524848439870909
 30
0.0
 11
1.988561256295302
 21
3.513582285385241
 31
0.0
  0
LINE
  5
1AA
330
1F
100
AcDbEntity
  8
0
100
AcDbLine
 10
1.956780972737647
 20
3.531930640652176
 30
0.0
 11
1.97387891791523
 21
3.524848439870909
 31
0.0
  0
LINE
  5
1AB
330
1F
100
AcDbEntity
  8
0
100
AcDbLine
 10
1.90298631702619
 20
3.524848439870909
 30
0.0
 11
1.920084262203775
 21
3.531930640652176
 31
0.0
  0
LINE
  5
1AC
330
1F
100
AcDbEntity
  8
0
100
AcDbLine
 10
1.888303978646117
 20
3.513582285385241
 30
0.0
 11
1.90298631702619
 21
3.524848439870909
 31
0.0
  0
LINE
  5
1AD
330
1F
100
AcDbEntity
  8
0
100
AcDbLine
 10
1.877037824160449
 20
3.49889994700517
 30
0.0
 11
1.888303978646117
 21
3.513582285385241
 31
0.0
  0
LINE
  5
1AE
330
1F
100
AcDbEntity
  8
0
100
AcDbLine
 10
1.869955623379182
 20
3.481802001827585
 30
0.0
 11
1.877037824160449
 21
3.49889994700517
 31
0.0
  0
LINE
  5
1AF
330
1F
100
AcDbEntity
  8
0
100
AcDbLine
 10
1.867540016581669
 20
3.46345364656065
 30
0.0
 11
1.869955623379182
 21
3.481802001827585
 31
0.0
  0
LINE
  5
1B0
330
1F
100
AcDbEntity
  8
0
100
AcDbLine
 10
1.869955623379182
 20
3.445105291293713
 30
0.0
 11
1.867540016581669
 21
3.46345364656065
 31
0.0
  0
LINE
  5
1B1
330
1F
100
AcDbEntity
  8
0
100
AcDbLine
 10
1.877037824160451
 20
3.42800734611613
 30
0.0
 11
1.869955623379182
 21
3.445105291293713
 31
0.0
  0
LINE
  5
1B2
330
1F
100
AcDbEntity
  8
0
100
AcDbLine
 10
1.888303978646117
 20
3.413325007736054
 30
0.0
 11
1.877037824160451
 21
3.42800734611613
 31
0.0
  0
LINE
  5
1B3
330
1F
100
AcDbEntity
  8
0
100
AcDbLine
 10
1.90298631702619
 20
3.402058853250387
 30
0.0
 11
1.888303978646117
 21
3.413325007736054
 31
0.0
  0
LINE
  5
1B4
330
1F
100
AcDbEntity
  8
0
100
AcDbLine
 10
1.920084262203773
 20
3.394976652469121
 30
0.0
 11
1.90298631702619
 21
3.402058853250387
 31
0.0
  0
LINE
  5
1B5
330
1F
100
AcDbEntity
  8
0
100
AcDbLine
 10
1.956780972737645
 20
3.394976652469121
 30
0.0
 11
1.93843261747071
 21
3.392561045671606
 31
0.0
  0
LINE
  5
1B6
330
1F
100
AcDbEntity
  8
0
100
AcDbLine
 10
1.999827410780969
 20
3.428007346116128
 30
0.0
 11
1.988561256295302
 21
3.413325007736056
 31
0.0
  0
LINE
  5
1B7
330
1F
100
AcDbEntity
  8
0
100
AcDbLine
 10
2.006909611562237
 20
3.445105291293713
 30
0.0
 11
1.999827410780969
 21
3.428007346116128
 31
0.0
  0
LINE
  5
1B8
330
1F
100
AcDbEntity
  8
0
100
AcDbLine
 10
-4.53846462411022
 20
2.455168207487882
 30
0.0
 11
-4.540880230907733
 21
2.436819852220947
 31
0.0
  0
LINE
  5
1B9
330
1F
100
AcDbEntity
  8
0
100
AcDbLine
 10
-4.540880230907735
 20
2.473516562754819
 30
0.0
 11
-4.53846462411022
 21
2.455168207487882
 31
0.0
  0
LINE
  5
1BA
330
1F
100
AcDbEntity
  8
0
100
AcDbLine
 10
-4.559228586174668
 20
2.505296846312475
 30
0.0
 11
-4.547962431689002
 21
2.490614507932404
 31
0.0
  0
LINE
  5
1BB
330
1F
100
AcDbEntity
  8
0
100
AcDbLine
 10
-4.57391092455474
 20
2.516563000798143
 30
0.0
 11
-4.559228586174668
 21
2.505296846312475
 31
0.0
  0
LINE
  5
1BC
330
1F
100
AcDbEntity
  8
0
100
AcDbLine
 10
-4.591008869732324
 20
2.52364520157941
 30
0.0
 11
-4.57391092455474
 21
2.516563000798143
 31
0.0
  0
LINE
  5
1BD
330
1F
100
AcDbEntity
  8
0
100
AcDbLine
 10
-4.60935722499926
 20
2.526060808376922
 30
0.0
 11
-4.591008869732324
 21
2.52364520157941
 31
0.0
  0
LINE
  5
1BE
330
1F
100
AcDbEntity
  8
0
100
AcDbLine
 10
-4.627705580266196
 20
2.52364520157941
 30
0.0
 11
-4.60935722499926
 21
2.526060808376922
 31
0.0
  0
LINE
  5
1BF
330
1F
100
AcDbEntity
  8
0
100
AcDbLine
 10
-4.644803525443781
 20
2.516563000798143
 30
0.0
 11
-4.627705580266196
 21
2.52364520157941
 31
0.0
  0
LINE
  5
1C0
330
1F
100
AcDbEntity
  8
0
100
AcDbLine
 10
-4.659485863823853
 20
2.505296846312475
 30
0.0
 11
-4.644803525443781
 21
2.516563000798143
 31
0.0
  0
LINE
  5
1C1
330
1F
100
AcDbEntity
  8
0
100
AcDbLine
 10
-4.670752018309522
 20
2.490614507932404
 30
0.0
 11
-4.659485863823853
 21
2.505296846312475
 31
0.0
  0
LINE
  5
1C2
330
1F
100
AcDbEntity
  8
0
100
AcDbLine
 10
-4.677834219090788
 20
2.473516562754819
 30
0.0
 11
-4.670752018309522
 21
2.490614507932404
 31
0.0
  0
LINE
  5
1C3
330
1F
100
AcDbEntity
  8
0
100
AcDbLine
 10
-4.680249825888301
 20
2.455168207487884
 30
0.0
 11
-4.677834219090788
 21
2.473516562754819
 31
0.0
  0
LINE
  5
1C4
330
1F
100
AcDbEntity
  8
0
100
AcDbLine
 10
-4.677834219090788
 20
2.436819852220947
 30
0.0
 11
-4.680249825888301
 21
2.455168207487884
 31
0.0
  0
LINE
  5
1C5
330
1F
100
AcDbEntity
  8
0
100
AcDbLine
 10
-4.670752018309522
 20
2.419721907043364
 30
0.0
 11
-4.677834219090788
 21
2.436819852220947
 31
0.0
  0
LINE
  5
1C6
330
1F
100
AcDbEntity
  8
0
100
AcDbLine
 10
-4.627705580266197
 20
2.386691213396355
 30
0.0
 11
-4.644803525443781
 21
2.393773414177621
 31
0.0
  0
LINE
  5
1C7
330
1F
100
AcDbEntity
  8
0
100
AcDbLine
 10
-4.60935722499926
 20
2.38427560659884
 30
0.0
 11
-4.627705580266197
 21
2.386691213396355
 31
0.0
  0
LINE
  5
1C8
330
1F
100
AcDbEntity
  8
0
100
AcDbLine
 10
-4.591008869732326
 20
2.386691213396355
 30
0.0
 11
-4.60935722499926
 21
2.38427560659884
 31
0.0
  0
LINE
  5
1C9
330
1F
100
AcDbEntity
  8
0
100
AcDbLine
 10
-4.547962431689002
 20
2.419721907043362
 30
0.0
 11
-4.559228586174668
 21
2.40503956866329
 31
0.0
  0
LINE
  5
1CA
330
1F
100
AcDbEntity
  8
0
100
AcDbLine
 10
-4.540880230907733
 20
2.436819852220947
 30
0.0
 11
-4.547962431689002
 21
2.419721907043362
 31
0.0
  0
LINE
  5
1CB
330
1F
100
AcDbEntity
  8
0
100
AcDbLine
 10
4.771721046234813
 20
2.473516562754819
 30
0.0
 11
4.774136653032328
 21
2.455168207487882
 31
0.0
  0
LINE
  5
1CC
330
1F
100
AcDbEntity
  8
0
100
AcDbLine
 10
4.764638845453547
 20
2.490614507932404
 30
0.0
 11
4.771721046234813
 21
2.473516562754819
 31
0.0
  0
LINE
  5
1CD
330
1F
100
AcDbEntity
  8
0
100
AcDbLine
 10
4.75337269096788
 20
2.505296846312475
 30
0.0
 11
4.764638845453547
 21
2.490614507932404
 31
0.0
  0
LINE
  5
1CE
330
1F
100
AcDbEntity
  8
0
100
AcDbLine
 10
4.738690352587808
 20
2.516563000798143
 30
0.0
 11
4.75337269096788
 21
2.505296846312475
 31
0.0
  0
LINE
  5
1CF
330
1F
100
AcDbEntity
  8
0
100
AcDbLine
 10
4.721592407410225
 20
2.52364520157941
 30
0.0
 11
4.738690352587808
 21
2.516563000798143
 31
0.0
  0
LINE
  5
1D0
330
1F
100
AcDbEntity
  8
0
100
AcDbLine
 10
4.703244052143288
 20
2.526060808376922
 30
0.0
 11
4.721592407410225
 21
2.52364520157941
 31
0.0
  0
LINE
  5
1D1
330
1F
100
AcDbEntity
  8
0
100
AcDbLine
 10
4.667797751698767
 20
2.516563000798143
 30
0.0
 11
4.684895696876352
 21
2.52364520157941
 31
0.0
  0
LINE
  5
1D2
330
1F
100
AcDbEntity
  8
0
100
AcDbLine
 10
4.653115413318695
 20
2.505296846312475
 30
0.0
 11
4.667797751698767
 21
2.516563000798143
 31
0.0
  0
LINE
  5
1D3
330
1F
100
AcDbEntity
  8
0
100
AcDbLine
 10
4.641849258833027
 20
2.490614507932404
 30
0.0
 11
4.653115413318695
 21
2.505296846312475
 31
0.0
  0
LINE
  5
1D4
330
1F
100
AcDbEntity
  8
0
100
AcDbLine
 10
4.63476705805176
 20
2.473516562754819
 30
0.0
 11
4.641849258833027
 21
2.490614507932404
 31
0.0
  0
LINE
  5
1D5
330
1F
100
AcDbEntity
  8
0
100
AcDbLine
 10
4.632351451254247
 20
2.455168207487884
 30
0.0
 11
4.63476705805176
 21
2.473516562754819
 31
0.0
  0
LINE
  5
1D6
330
1F
100
AcDbEntity
  8
0
100
AcDbLine
 10
4.63476705805176
 20
2.436819852220947
 30
0.0
 11
4.632351451254247
 21
2.455168207487884
 31
0.0
  0
LINE
  5
1D7
330
1F
100
AcDbEntity
  8
0
100
AcDbLine
 10
4.641849258833028
 20
2.419721907043364
 30
0.0
 11
4.63476705805176
 21
2.436819852220947
 31
0.0
  0
LINE
  5
1D8
330
1F
100
AcDbEntity
  8
0
100
AcDbLine
 10
4.653115413318695
 20
2.405039568663288
 30
0.0
 11
4.641849258833028
 21
2.419721907043364
 31
0.0
  0
LINE
  5
1D9
330
1F
100
AcDbEntity
  8
0
100
AcDbLine
 10
4.667797751698767
 20
2.393773414177621
 30
0.0
 11
4.653115413318695
 21
2.405039568663288
 31
0.0
  0
LINE
  5
1DA
330
1F
100
AcDbEntity
  8
0
100
AcDbLine
 10
4.68489569687635
 20
2.386691213396355
 30
0.0
 11
4.667797751698767
 21
2.393773414177621
 31
0.0
  0
LINE
  5
1DB
330
1F
100
AcDbEntity
  8
0
100
AcDbLine
 10
4.703244052143288
 20
2.38427560659884
 30
0.0
 11
4.68489569687635
 21
2.386691213396355
 31
0.0
  0
LINE
  5
1DC
330
1F
100
AcDbEntity
  8
0
100
AcDbLine
 10
4.721592407410222
 20
2.386691213396355
 30
0.0
 11
4.703244052143288
 21
2.38427560659884
 31
0.0
  0
LINE
  5
1DD
330
1F
100
AcDbEntity
  8
0
100
AcDbLine
 10
4.738690352587808
 20
2.393773414177623
 30
0.0
 11
4.721592407410222
 21
2.386691213396355
 31
0.0
  0
LINE
  5
1DE
330
1F
100
AcDbEntity
  8
0
100
AcDbLine
 10
4.75337269096788
 20
2.40503956866329
 30
0.0
 11
4.738690352587808
 21
2.393773414177623
 31
0.0
  0
LINE
  5
1DF
330
1F
100
AcDbEntity
  8
0
100
AcDbLine
 10
4.764638845453547
 20
2.419721907043362
 30
0.0
 11
4.75337269096788
 21
2.40503956866329
 31
0.0
  0
LINE
  5
1E0
330
1F
100
AcDbEntity
  8
0
100
AcDbLine
 10
4.774136653032328
 20
3.744650823392878
 30
0.0
 11
4.808904780955616
 21
3.742371999893182
 31
0.0
  0
LINE
  5
1E1
330
1F
100
AcDbEntity
  8
0
100
AcDbLine
 10
4.808904780955616
 20
3.742371999893182
 30
0.0
 11
4.84307801657059
 21
3.735574520695987
 31
0.0
  0
LINE
  5
1E2
330
1F
100
AcDbEntity
  8
0
100
AcDbLine
 10
4.84307801657059
 20
3.735574520695987
 30
0.0
 11
4.876071646341269
 21
3.724374692554967
 31
0.0
  0
LINE
  5
1E3
330
1F
100
AcDbEntity
  8
0
100
AcDbLine
 10
4.876071646341269
 20
3.724374692554967
 30
0.0
 11
4.907321140114711
 21
3.708964147634799
 31
0.0
  0
LINE
  5
1E4
330
1F
100
AcDbEntity
  8
0
100
AcDbLine
 10
4.907321140114711
 20
3.708964147634799
 30
0.0
 11
4.936291810388458
 21
3.689606564631679
 31
0.0
  0
LINE
  5
1E5
330
1F
100
AcDbEntity
  8
0
100
AcDbLine
 10
4.936291810388458
 20
3.689606564631679
 30
0.0
 11
4.962487960961938
 21
3.666633157157722
 31
0.0
  0
LINE
  5
1E6
330
1F
100
AcDbEntity
  8
0
100
AcDbLine
 10
4.962487960961938
 20
3.666633157157722
 30
0.0
 11
4.985461368435894
 21
3.640437006584243
 31
0.0
  0
LINE
  5
1E7
330
1F
100
AcDbEntity
  8
0
100
AcDbLine
 10
4.985461368435894
 20
3.640437006584243
 30
0.0
 11
5.004818951439015
 21
3.611466336310496
 31
0.0
  0
LINE
  5
1E8
330
1F
100
AcDbEntity
  8
0
100
AcDbLine
 10
5.004818951439015
 20
3.611466336310496
 30
0.0
 11
5.020229496359182
 21
3.580216842537054
 31
0.0
  0
LINE
  5
1E9
330
1F
100
AcDbEntity
  8
0
100
AcDbLine
 10
5.020229496359182
 20
3.580216842537054
 30
0.0
 11
5.031429324500202
 21
3.547223212766375
 31
0.0
  0
LINE
  5
1EA
330
1F
100
AcDbEntity
  8
0
100
AcDbLine
 10
5.031429324500202
 20
3.547223212766375
 30
0.0
 11
5.038226803697397
 21
3.5130499771514
 31
0.0
  0
LINE
  5
1EB
330
1F
100
AcDbEntity
  8
0
100
AcDbLine
 10
5.038226803697397
 20
3.5130499771514
 30
0.0
 11
5.040505627197094
 21
3.478281849228113
 31
0.0
  0
LINE
  5
1EC
330
1F
100
AcDbEntity
  8
0
100
AcDbLine
 10
4.774136653032328
 20
2.185013603833987
 30
0.0
 11
4.808904780955616
 21
2.187292427333683
 31
0.0
  0
LINE
  5
1ED
330
1F
100
AcDbEntity
  8
0
100
AcDbLine
 10
4.808904780955616
 20
2.187292427333683
 30
0.0
 11
4.84307801657059
 21
2.194089906530879
 31
0.0
  0
LINE
  5
1EE
330
1F
100
AcDbEntity
  8
0
100
AcDbLine
 10
4.84307801657059
 20
2.194089906530879
 30
0.0
 11
4.876071646341269
 21
2.205289734671899
 31
0.0
  0
LINE
  5
1EF
330
1F
100
AcDbEntity
  8
0
100
AcDbLine
 10
4.876071646341269
 20
2.205289734671899
 30
0.0
 11
4.907321140114711
 21
2.220700279592066
 31
0.0
  0
LINE
  5
1F0
330
1F
100
AcDbEntity
  8
0
100
AcDbLine
 10
4.907321140114711
 20
2.220700279592066
 30
0.0
 11
4.936291810388458
 21
2.240057862595187
 31
0.0
  0
LINE
  5
1F1
330
1F
100
AcDbEntity
  8
0
100
AcDbLine
 10
4.936291810388458
 20
2.240057862595187
 30
0.0
 11
4.962487960961938
 21
2.263031270069143
 31
0.0
  0
LINE
  5
1F2
330
1F
100
AcDbEntity
  8
0
100
AcDbLine
 10
4.962487960961938
 20
2.263031270069143
 30
0.0
 11
4.985461368435894
 21
2.289227420642622
 31
0.0
  0
LINE
  5
1F3
330
1F
100
AcDbEntity
  8
0
100
AcDbLine
 10
4.985461368435894
 20
2.289227420642622
 30
0.0
 11
5.004818951439015
 21
2.31819809091637
 31
0.0
  0
LINE
  5
1F4
330
1F
100
AcDbEntity
  8
0
100
AcDbLine
 10
5.004818951439015
 20
2.31819809091637
 30
0.0
 11
5.020229496359182
 21
2.349447584689811
 31
0.0
  0
LINE
  5
1F5
330
1F
100
AcDbEntity
  8
0
100
AcDbLine
 10
5.020229496359182
 20
2.349447584689811
 30
0.0
 11
5.031429324500202
 21
2.382441214460491
 31
0.0
  0
LINE
  5
1F6
330
1F
100
AcDbEntity
  8
0
100
AcDbLine
 10
5.031429324500202
 20
2.382441214460491
 30
0.0
 11
5.038226803697397
 21
2.416614450075465
 31
0.0
  0
LINE
  5
1F7
330
1F
100
AcDbEntity
  8
0
100
AcDbLine
 10
5.038226803697397
 20
2.416614450075465
 30
0.0
 11
5.040505627197094
 21
2.451382577998753
 31
0.0
  0
LINE
  5
1F8
330
1F
100
AcDbEntity
  8
0
100
AcDbLine
 10
5.040505627197094
 20
2.451382577998753
 30
0.0
 11
5.040505627197094
 21
3.478281849228113
 31
0.0
  0
LINE
  5
1F9
330
1F
100
AcDbEntity
  8
0
100
AcDbLine
 10
1.710504622762973
 20
2.610369209168228
 30
0.0
 11
-3.732975453652531
 21
2.610369209168226
 31
0.0
  0
LINE
  5
1FA
330
1F
100
AcDbEntity
  8
0
100
AcDbLine
 10
1.710504622762973
 20
2.397691406501107
 30
0.0
 11
1.712324110847503
 21
2.36993138274924
 31
0.0
  0
LINE
  5
1FB
330
1F
100
AcDbEntity
  8
0
100
AcDbLine
 10
1.712324110847503
 20
2.36993138274924
 30
0.0
 11
1.717751443155512
 21
2.3426463407003
 31
0.0
  0
LINE
  5
1FC
330
1F
100
AcDbEntity
  8
0
100
AcDbLine
 10
1.717751443155512
 20
2.3426463407003
 30
0.0
 11
1.726693756526466
 21
2.316303134988587
 31
0.0
  0
LINE
  5
1FD
330
1F
100
AcDbEntity
  8
0
100
AcDbLine
 10
1.726693756526466
 20
2.316303134988587
 30
0.0
 11
1.738998045499313
 21
2.291352505167546
 31
0.0
  0
LINE
  5
1FE
330
1F
100
AcDbEntity
  8
0
100
AcDbLine
 10
1.738998045499313
 20
2.291352505167546
 30
0.0
 11
1.754453780278334
 21
2.268221363431035
 31
0.0
  0
LINE
  5
1FF
330
1F
100
AcDbEntity
  8
0
100
AcDbLine
 10
1.754453780278334
 20
2.268221363431035
 30
0.0
 11
1.772796508956318
 21
2.247305490027331
 31
0.0
  0
LINE
  5
200
330
1F
100
AcDbEntity
  8
0
100
AcDbLine
 10
1.772796508956318
 20
2.247305490027331
 30
0.0
 11
1.793712382360023
 21
2.228962761349345
 31
0.0
  0
LINE
  5
201
330
1F
100
AcDbEntity
  8
0
100
AcDbLine
 10
1.793712382360023
 20
2.228962761349345
 30
0.0
 11
1.816843524096533
 21
2.213507026570325
 31
0.0
  0
LINE
  5
202
330
1F
100
AcDbEntity
  8
0
100
AcDbLine
 10
1.816843524096533
 20
2.213507026570325
 30
0.0
 11
1.841794153917575
 21
2.201202737597479
 31
0.0
  0
LINE
  5
203
330
1F
100
AcDbEntity
  8
0
100
AcDbLine
 10
1.841794153917575
 20
2.201202737597479
 30
0.0
 11
1.868137359629287
 21
2.192260424226524
 31
0.0
  0
LINE
  5
204
330
1F
100
AcDbEntity
  8
0
100
AcDbLine
 10
1.868137359629287
 20
2.192260424226524
 30
0.0
 11
1.895422401678228
 21
2.186833091918515
 31
0.0
  0
LINE
  5
205
330
1F
100
AcDbEntity
  8
0
100
AcDbLine
 10
1.895422401678228
 20
2.186833091918515
 30
0.0
 11
1.923182425430094
 21
2.185013603833985
 31
0.0
  0
LINE
  5
206
330
1F
100
AcDbEntity
  8
0
100
AcDbLine
 10
1.710504622762973
 20
2.397691406501107
 30
0.0
 11
1.710504622762973
 21
2.610369209168228
 31
0.0
  0
LINE
  5
207
330
1F
100
AcDbEntity
  8
0
100
AcDbLine
 10
-3.856975898561696
 20
-1.394040240208851
 30
0.0
 11
-3.908861238834476
 21
-1.343164940259719
 31
0.0
  0
LINE
  5
208
330
1F
100
AcDbEntity
  8
0
100
AcDbLine
 10
-4.369254576629069
 20
-1.148877504279292
 30
0.0
 11
-4.441901462542936
 21
-1.14719981326066
 31
0.0
  0
LINE
  5
209
330
1F
100
AcDbEntity
  8
0
100
AcDbLine
 10
-4.867257067877179
 20
-1.929391649764043
 30
0.0
 11
-4.300116260764855
 21
-1.929391649764041
 31
0.0
  0
LINE
  5
20A
330
1F
100
AcDbEntity
  8
0
100
AcDbLine
 10
-7.542827546393781
 20
-2.777687253635014
 30
0.0
 11
-7.525729601216198
 21
-2.770605052853748
 31
0.0
  0
LINE
  5
20B
330
1F
100
AcDbEntity
  8
0
100
AcDbLine
 10
4.774136653032328
 20
-2.426303888249521
 30
0.0
 11
4.771721046234817
 21
-2.407955532982582
 31
0.0
  0
LINE
  5
20C
330
1F
100
AcDbEntity
  8
0
100
AcDbLine
 10
4.76463884545355
 20
-2.461750188694042
 30
0.0
 11
4.771721046234813
 21
-2.444652243516459
 31
0.0
  0
LINE
  5
20D
330
1F
100
AcDbEntity
  8
0
100
AcDbLine
 10
1.710504622762973
 20
-1.572555418594905
 30
0.0
 11
-3.732975453652531
 21
-1.572555418594903
 31
0.0
  0
LINE
  5
20E
330
1F
100
AcDbEntity
  8
0
100
AcDbLine
 10
1.895422401678228
 20
-1.149019301345192
 30
0.0
 11
1.923182425430094
 21
-1.147199813260662
 31
0.0
  0
LINE
  5
20F
330
1F
100
AcDbEntity
  8
0
100
AcDbLine
 10
1.868137359629287
 20
-1.154446633653201
 30
0.0
 11
1.895422401678228
 21
-1.149019301345192
 31
0.0
  0
LINE
  5
210
330
1F
100
AcDbEntity
  8
0
100
AcDbLine
 10
-2.598693839427883
 20
-1.929391649764041
 30
0.0
 11
-2.031553032315558
 21
-1.929391649764043
 31
0.0
  0
LINE
  5
211
330
1F
100
AcDbEntity
  8
0
100
AcDbLine
 10
-7.499781108350459
 20
-2.744656559988009
 30
0.0
 11
-7.492698907569193
 21
-2.727558614810424
 31
0.0
  0
LINE
  5
212
330
1F
100
AcDbEntity
  8
0
100
AcDbLine
 10
4.68489569687635
 20
-1.348877422823031
 30
0.0
 11
4.667797751698767
 21
-1.355959623604298
 31
0.0
  0
LINE
  5
213
330
1F
100
AcDbEntity
  8
0
100
AcDbLine
 10
4.703244052143288
 20
-1.346461816025516
 30
0.0
 11
4.68489569687635
 21
-1.348877422823031
 31
0.0
  0
LINE
  5
214
330
1F
100
AcDbEntity
  8
0
100
AcDbLine
 10
-2.031553032315561
 20
-1.78760644798596
 30
0.0
 11
-2.598693839427883
 21
-1.78760644798596
 31
0.0
  0
LINE
  5
215
330
1F
100
AcDbEntity
  8
0
100
AcDbLine
 10
-2.031553032315558
 20
-1.929391649764043
 30
0.0
 11
-2.031553032315561
 21
-1.78760644798596
 31
0.0
  0
LINE
  5
216
330
1F
100
AcDbEntity
  8
0
100
AcDbLine
 10
-7.511047262836126
 20
-2.659081620718895
 30
0.0
 11
-7.525729601216198
 21
-2.647815466233228
 31
0.0
  0
LINE
  5
217
330
1F
100
AcDbEntity
  8
0
100
AcDbLine
 10
4.771721046234817
 20
-2.407955532982582
 30
0.0
 11
4.764638845453547
 21
-2.390857587805001
 31
0.0
  0
LINE
  5
218
330
1F
100
AcDbEntity
  8
0
100
AcDbLine
 10
-4.559228586174668
 20
-1.367225778089966
 30
0.0
 11
-4.57391092455474
 21
-1.3559596236043
 31
0.0
  0
LINE
  5
219
330
1F
100
AcDbEntity
  8
0
100
AcDbLine
 10
-5.258512089807557
 20
-1.343164940259719
 30
0.0
 11
-5.202077826326794
 21
-1.297387668764794
 31
0.0
  0
LINE
  5
21A
330
1F
100
AcDbEntity
  8
0
100
AcDbLine
 10
-5.310397430080338
 20
-1.394040240208851
 30
0.0
 11
-5.258512089807557
 21
-1.343164940259719
 31
0.0
  0
LINE
  5
21B
330
1F
100
AcDbEntity
  8
0
100
AcDbLine
 10
-4.867257067877179
 20
-1.787606447985958
 30
0.0
 11
-4.867257067877179
 21
-1.929391649764043
 31
0.0
  0
LINE
  5
21C
330
1F
100
AcDbEntity
  8
0
100
AcDbLine
 10
-4.300116260764855
 20
-1.787606447985962
 30
0.0
 11
-4.867257067877179
 21
-1.787606447985958
 31
0.0
  0
LINE
  5
21D
330
1F
100
AcDbEntity
  8
0
100
AcDbLine
 10
-4.300116260764855
 20
-1.929391649764041
 30
0.0
 11
-4.300116260764855
 21
-1.787606447985962
 31
0.0
  0
LINE
  5
21E
330
1F
100
AcDbEntity
  8
0
100
AcDbLine
 10
-4.659485863823853
 20
-1.367225778089964
 30
0.0
 11
-4.670752018309522
 21
-1.38190811647004
 31
0.0
  0
LINE
  5
21F
330
1F
100
AcDbEntity
  8
0
100
AcDbLine
 10
1.999827410780969
 20
-2.390193555542805
 30
0.0
 11
1.988561256295302
 21
-2.375511217162732
 31
0.0
  0
LINE
  5
220
330
1F
100
AcDbEntity
  8
0
100
AcDbLine
 10
-4.53846462411022
 20
-1.417354416914559
 30
0.0
 11
-4.540880230907733
 21
-1.399006061647624
 31
0.0
  0
LINE
  5
221
330
1F
100
AcDbEntity
  8
0
100
AcDbLine
 10
4.721592407410222
 20
-1.348877422823031
 30
0.0
 11
4.703244052143288
 21
-1.346461816025516
 31
0.0
  0
LINE
  5
222
330
1F
100
AcDbEntity
  8
0
100
AcDbLine
 10
4.738690352587808
 20
-1.3559596236043
 30
0.0
 11
4.721592407410222
 21
-1.348877422823031
 31
0.0
  0
LINE
  5
223
330
1F
100
AcDbEntity
  8
0
100
AcDbLine
 10
4.75337269096788
 20
-1.367225778089966
 30
0.0
 11
4.738690352587808
 21
-1.3559596236043
 31
0.0
  0
LINE
  5
224
330
1F
100
AcDbEntity
  8
0
100
AcDbLine
 10
4.764638845453547
 20
-1.381908116470038
 30
0.0
 11
4.75337269096788
 21
-1.367225778089966
 31
0.0
  0
LINE
  5
225
330
1F
100
AcDbEntity
  8
0
100
AcDbLine
 10
4.63476705805176
 20
-1.399006061647624
 30
0.0
 11
4.632351451254247
 21
-1.417354416914561
 31
0.0
  0
LINE
  5
226
330
1F
100
AcDbEntity
  8
0
100
AcDbLine
 10
4.653115413318695
 20
-1.467483055739151
 30
0.0
 11
4.667797751698767
 21
-1.47874921022482
 31
0.0
  0
LINE
  5
227
330
1F
100
AcDbEntity
  8
0
100
AcDbLine
 10
4.641849258833027
 20
-1.452800717359081
 30
0.0
 11
4.653115413318695
 21
-1.467483055739151
 31
0.0
  0
LINE
  5
228
330
1F
100
AcDbEntity
  8
0
100
AcDbLine
 10
-7.561175901660718
 20
-2.780102860432527
 30
0.0
 11
-7.542827546393781
 21
-2.777687253635014
 31
0.0
  0
LINE
  5
229
330
1F
100
AcDbEntity
  8
0
100
AcDbLine
 10
4.63476705805176
 20
-1.435702772181496
 30
0.0
 11
4.641849258833027
 21
-1.452800717359081
 31
0.0
  0
LINE
  5
22A
330
1F
100
AcDbEntity
  8
0
100
AcDbLine
 10
4.632351451254247
 20
-1.417354416914561
 30
0.0
 11
4.63476705805176
 21
-1.435702772181496
 31
0.0
  0
LINE
  5
22B
330
1F
100
AcDbEntity
  8
0
100
AcDbLine
 10
4.641849258833028
 20
-1.38190811647004
 30
0.0
 11
4.63476705805176
 21
-1.399006061647624
 31
0.0
  0
LINE
  5
22C
330
1F
100
AcDbEntity
  8
0
100
AcDbLine
 10
4.653115413318695
 20
-1.367225778089964
 30
0.0
 11
4.641849258833028
 21
-1.38190811647004
 31
0.0
  0
LINE
  5
22D
330
1F
100
AcDbEntity
  8
0
100
AcDbLine
 10
-7.511047262836126
 20
-2.759338898368079
 30
0.0
 11
-7.499781108350459
 21
-2.744656559988009
 31
0.0
  0
LINE
  5
22E
330
1F
100
AcDbEntity
  8
0
100
AcDbLine
 10
1.712324110847503
 20
-1.332117592175917
 30
0.0
 11
1.717751443155512
 21
-1.304832550126976
 31
0.0
  0
LINE
  5
22F
330
1F
100
AcDbEntity
  8
0
100
AcDbLine
 10
1.710504622762973
 20
-1.359877615927783
 30
0.0
 11
1.712324110847503
 21
-1.332117592175917
 31
0.0
  0
LINE
  5
230
330
1F
100
AcDbEntity
  8
0
100
AcDbLine
 10
1.710504622762973
 20
-1.359877615927783
 30
0.0
 11
1.710504622762973
 21
-1.572555418594905
 31
0.0
  0
LINE
  5
231
330
1F
100
AcDbEntity
  8
0
100
AcDbLine
 10
-4.025779767408525
 20
-1.257113131445769
 30
0.0
 11
-4.0897793074398
 21
-1.222697385690058
 31
0.0
  0
LINE
  5
232
330
1F
100
AcDbEntity
  8
0
100
AcDbLine
 10
-4.0897793074398
 20
-1.222697385690058
 30
0.0
 11
-4.156728318043917
 21
-1.194444692734056
 31
0.0
  0
LINE
  5
233
330
1F
100
AcDbEntity
  8
0
100
AcDbLine
 10
-5.357275141473202
 20
-1.449563792461059
 30
0.0
 11
-5.310397430080338
 21
-1.394040240208851
 31
0.0
  0
LINE
  5
234
330
1F
100
AcDbEntity
  8
0
100
AcDbLine
 10
-5.398730789543007
 20
-1.509244726797317
 30
0.0
 11
-5.357275141473202
 21
-1.449563792461059
 31
0.0
  0
LINE
  5
235
330
1F
100
AcDbEntity
  8
0
100
AcDbLine
 10
4.634767058051763
 20
-2.407955532982585
 30
0.0
 11
4.632351451254247
 21
-2.426303888249521
 31
0.0
  0
LINE
  5
236
330
1F
100
AcDbEntity
  8
0
100
AcDbLine
 10
4.774136653032328
 20
-1.147199813260664
 30
0.0
 11
4.808904780955616
 21
-1.14947863676036
 31
0.0
  0
LINE
  5
237
330
1F
100
AcDbEntity
  8
0
100
AcDbLine
 10
4.808904780955616
 20
-1.14947863676036
 30
0.0
 11
4.84307801657059
 21
-1.156276115957556
 31
0.0
  0
LINE
  5
238
330
1F
100
AcDbEntity
  8
0
100
AcDbLine
 10
4.84307801657059
 20
-1.156276115957556
 30
0.0
 11
4.876071646341269
 21
-1.167475944098575
 31
0.0
  0
LINE
  5
239
330
1F
100
AcDbEntity
  8
0
100
AcDbLine
 10
4.876071646341269
 20
-1.167475944098575
 30
0.0
 11
4.907321140114711
 21
-1.182886489018742
 31
0.0
  0
LINE
  5
23A
330
1F
100
AcDbEntity
  8
0
100
AcDbLine
 10
4.907321140114711
 20
-1.182886489018742
 30
0.0
 11
4.936291810388458
 21
-1.202244072021863
 31
0.0
  0
LINE
  5
23B
330
1F
100
AcDbEntity
  8
0
100
AcDbLine
 10
4.936291810388458
 20
-1.202244072021863
 30
0.0
 11
4.962487960961938
 21
-1.225217479495819
 31
0.0
  0
LINE
  5
23C
330
1F
100
AcDbEntity
  8
0
100
AcDbLine
 10
4.962487960961938
 20
-1.225217479495819
 30
0.0
 11
4.985461368435894
 21
-1.251413630069299
 31
0.0
  0
LINE
  5
23D
330
1F
100
AcDbEntity
  8
0
100
AcDbLine
 10
4.985461368435894
 20
-1.251413630069299
 30
0.0
 11
5.004818951439015
 21
-1.280384300343046
 31
0.0
  0
LINE
  5
23E
330
1F
100
AcDbEntity
  8
0
100
AcDbLine
 10
5.004818951439015
 20
-1.280384300343046
 30
0.0
 11
5.020229496359182
 21
-1.311633794116488
 31
0.0
  0
LINE
  5
23F
330
1F
100
AcDbEntity
  8
0
100
AcDbLine
 10
5.020229496359182
 20
-1.311633794116488
 30
0.0
 11
5.031429324500202
 21
-1.344627423887167
 31
0.0
  0
LINE
  5
240
330
1F
100
AcDbEntity
  8
0
100
AcDbLine
 10
5.031429324500202
 20
-1.344627423887167
 30
0.0
 11
5.038226803697397
 21
-1.378800659502142
 31
0.0
  0
LINE
  5
241
330
1F
100
AcDbEntity
  8
0
100
AcDbLine
 10
5.038226803697397
 20
-1.378800659502142
 30
0.0
 11
5.040505627197094
 21
-1.413568787425429
 31
0.0
  0
LINE
  5
242
330
1F
100
AcDbEntity
  8
0
100
AcDbLine
 10
5.040505627197094
 20
-1.413568787425429
 30
0.0
 11
5.040505627197094
 21
-2.440468058654789
 31
0.0
  0
LINE
  5
243
330
1F
100
AcDbEntity
  8
0
100
AcDbLine
 10
5.038226803697397
 20
-2.475236186578077
 30
0.0
 11
5.040505627197094
 21
-2.440468058654789
 31
0.0
  0
LINE
  5
244
330
1F
100
AcDbEntity
  8
0
100
AcDbLine
 10
5.031429324500202
 20
-2.509409422193051
 30
0.0
 11
5.038226803697397
 21
-2.475236186578077
 31
0.0
  0
LINE
  5
245
330
1F
100
AcDbEntity
  8
0
100
AcDbLine
 10
5.020229496359182
 20
-2.54240305196373
 30
0.0
 11
5.031429324500202
 21
-2.509409422193051
 31
0.0
  0
LINE
  5
246
330
1F
100
AcDbEntity
  8
0
100
AcDbLine
 10
5.004818951439015
 20
-2.573652545737172
 30
0.0
 11
5.020229496359182
 21
-2.54240305196373
 31
0.0
  0
LINE
  5
247
330
1F
100
AcDbEntity
  8
0
100
AcDbLine
 10
4.985461368435894
 20
-2.60262321601092
 30
0.0
 11
5.004818951439015
 21
-2.573652545737172
 31
0.0
  0
LINE
  5
248
330
1F
100
AcDbEntity
  8
0
100
AcDbLine
 10
4.962487960961938
 20
-2.628819366584399
 30
0.0
 11
4.985461368435894
 21
-2.60262321601092
 31
0.0
  0
LINE
  5
249
330
1F
100
AcDbEntity
  8
0
100
AcDbLine
 10
4.936291810388458
 20
-2.651792774058356
 30
0.0
 11
4.962487960961938
 21
-2.628819366584399
 31
0.0
  0
LINE
  5
24A
330
1F
100
AcDbEntity
  8
0
100
AcDbLine
 10
4.907321140114711
 20
-2.671150357061476
 30
0.0
 11
4.936291810388458
 21
-2.651792774058356
 31
0.0
  0
LINE
  5
24B
330
1F
100
AcDbEntity
  8
0
100
AcDbLine
 10
4.876071646341269
 20
-2.686560901981643
 30
0.0
 11
4.907321140114711
 21
-2.671150357061476
 31
0.0
  0
LINE
  5
24C
330
1F
100
AcDbEntity
  8
0
100
AcDbLine
 10
4.84307801657059
 20
-2.697760730122663
 30
0.0
 11
4.876071646341269
 21
-2.686560901981643
 31
0.0
  0
LINE
  5
24D
330
1F
100
AcDbEntity
  8
0
100
AcDbLine
 10
4.808904780955616
 20
-2.704558209319859
 30
0.0
 11
4.84307801657059
 21
-2.697760730122663
 31
0.0
  0
LINE
  5
24E
330
1F
100
AcDbEntity
  8
0
100
AcDbLine
 10
4.774136653032328
 20
-2.706837032819555
 30
0.0
 11
4.808904780955616
 21
-2.704558209319859
 31
0.0
  0
LINE
  5
24F
330
1F
100
AcDbEntity
  8
0
100
AcDbLine
 10
-3.732975453652531
 20
-2.706837032819551
 30
0.0
 11
4.774136653032328
 21
-2.706837032819555
 31
0.0
  0
LINE
  5
250
330
1F
100
AcDbEntity
  8
0
100
AcDbLine
 10
-3.732975453652531
 20
-2.706837032819551
 30
0.0
 11
-5.434397874989503
 21
-3.347243667544851
 31
0.0
  0
LINE
  5
251
330
1F
100
AcDbEntity
  8
0
100
AcDbLine
 10
-5.434397874989503
 20
-3.347243667544851
 30
0.0
 11
-8.270101910551123
 21
-3.347243667544851
 31
0.0
  0
LINE
  5
252
330
1F
100
AcDbEntity
  8
0
100
AcDbLine
 10
-8.270101910551123
 20
-3.347243667544851
 30
0.0
 11
-8.270101910551123
 21
-1.929391649764041
 31
0.0
  0
LINE
  5
253
330
1F
100
AcDbEntity
  8
0
100
AcDbLine
 10
-8.270101910551123
 20
-1.929391649764041
 30
0.0
 11
-5.434397874989503
 21
-1.929391649764041
 31
0.0
  0
LINE
  5
254
330
1F
100
AcDbEntity
  8
0
100
AcDbLine
 10
-5.434397874989503
 20
-1.929391649764041
 30
0.0
 11
-5.434397874989503
 21
-1.572555418594903
 31
0.0
  0
LINE
  5
255
330
1F
100
AcDbEntity
  8
0
100
AcDbLine
 10
-5.434397874989503
 20
-1.572555418594903
 30
0.0
 11
-5.398730789543007
 21
-1.509244726797317
 31
0.0
  0
LINE
  5
256
330
1F
100
AcDbEntity
  8
0
100
AcDbLine
 10
-5.202077826326794
 20
-1.297387668764794
 30
0.0
 11
-5.141593561233509
 21
-1.257113131445769
 31
0.0
  0
LINE
  5
257
330
1F
100
AcDbEntity
  8
0
100
AcDbLine
 10
-5.141593561233509
 20
-1.257113131445769
 30
0.0
 11
-5.077594021202233
 21
-1.222697385690058
 31
0.0
  0
LINE
  5
258
330
1F
100
AcDbEntity
  8
0
100
AcDbLine
 10
-5.077594021202233
 20
-1.222697385690058
 30
0.0
 11
-5.010645010598116
 21
-1.194444692734056
 31
0.0
  0
LINE
  5
259
330
1F
100
AcDbEntity
  8
0
100
AcDbLine
 10
-5.010645010598116
 20
-1.194444692734056
 30
0.0
 11
-4.941338409338162
 21
-1.172604827763546
 31
0.0
  0
LINE
  5
25A
330
1F
100
AcDbEntity
  8
0
100
AcDbLine
 10
-4.941338409338162
 20
-1.172604827763546
 30
0.0
 11
-4.870286940224867
 21
-1.157370871712058
 31
0.0
  0
LINE
  5
25B
330
1F
100
AcDbEntity
  8
0
100
AcDbLine
 10
-4.870286940224867
 20
-1.157370871712058
 30
0.0
 11
-4.798118752012964
 21
-1.148877504279292
 31
0.0
  0
LINE
  5
25C
330
1F
100
AcDbEntity
  8
0
100
AcDbLine
 10
-4.798118752012964
 20
-1.148877504279292
 30
0.0
 11
-4.725471866099098
 21
-1.14719981326066
 31
0.0
  0
LINE
  5
25D
330
1F
100
AcDbEntity
  8
0
100
AcDbLine
 10
-4.725471866099098
 20
-1.14719981326066
 30
0.0
 11
-4.441901462542936
 21
-1.14719981326066
 31
0.0
  0
LINE
  5
25E
330
1F
100
AcDbEntity
  8
0
100
AcDbLine
 10
-4.297086388417168
 20
-1.157370871712058
 30
0.0
 11
-4.369254576629069
 21
-1.148877504279292
 31
0.0
  0
LINE
  5
25F
330
1F
100
AcDbEntity
  8
0
100
AcDbLine
 10
-4.226034919303872
 20
-1.172604827763546
 30
0.0
 11
-4.297086388417168
 21
-1.157370871712058
 31
0.0
  0
LINE
  5
260
330
1F
100
AcDbEntity
  8
0
100
AcDbLine
 10
-4.156728318043917
 20
-1.194444692734056
 30
0.0
 11
-4.226034919303872
 21
-1.172604827763546
 31
0.0
  0
LINE
  5
261
330
1F
100
AcDbEntity
  8
0
100
AcDbLine
 10
-3.96529550231524
 20
-1.297387668764794
 30
0.0
 11
-4.025779767408525
 21
-1.257113131445769
 31
0.0
  0
LINE
  5
262
330
1F
100
AcDbEntity
  8
0
100
AcDbLine
 10
-3.908861238834476
 20
-1.343164940259719
 30
0.0
 11
-3.96529550231524
 21
-1.297387668764794
 31
0.0
  0
LINE
  5
263
330
1F
100
AcDbEntity
  8
0
100
AcDbLine
 10
-3.810098187168832
 20
-1.449563792461059
 30
0.0
 11
-3.856975898561696
 21
-1.394040240208851
 31
0.0
  0
LINE
  5
264
330
1F
100
AcDbEntity
  8
0
100
AcDbLine
 10
-3.768642539099026
 20
-1.509244726797317
 30
0.0
 11
-3.810098187168832
 21
-1.449563792461059
 31
0.0
  0
LINE
  5
265
330
1F
100
AcDbEntity
  8
0
100
AcDbLine
 10
-3.732975453652531
 20
-1.572555418594903
 30
0.0
 11
-3.768642539099026
 21
-1.509244726797317
 31
0.0
  0
LINE
  5
266
330
1F
100
AcDbEntity
  8
0
100
AcDbLine
 10
1.717751443155512
 20
-1.304832550126976
 30
0.0
 11
1.726693756526466
 21
-1.278489344415264
 31
0.0
  0
LINE
  5
267
330
1F
100
AcDbEntity
  8
0
100
AcDbLine
 10
1.726693756526466
 20
-1.278489344415264
 30
0.0
 11
1.738998045499313
 21
-1.253538714594222
 31
0.0
  0
LINE
  5
268
330
1F
100
AcDbEntity
  8
0
100
AcDbLine
 10
1.738998045499313
 20
-1.253538714594222
 30
0.0
 11
1.754453780278332
 21
-1.230407572857711
 31
0.0
  0
LINE
  5
269
330
1F
100
AcDbEntity
  8
0
100
AcDbLine
 10
1.754453780278332
 20
-1.230407572857711
 30
0.0
 11
1.772796508956317
 21
-1.209491699454008
 31
0.0
  0
LINE
  5
26A
330
1F
100
AcDbEntity
  8
0
100
AcDbLine
 10
1.772796508956317
 20
-1.209491699454008
 30
0.0
 11
1.793712382360022
 21
-1.191148970776021
 31
0.0
  0
LINE
  5
26B
330
1F
100
AcDbEntity
  8
0
100
AcDbLine
 10
1.793712382360022
 20
-1.191148970776021
 30
0.0
 11
1.816843524096533
 21
-1.175693235997002
 31
0.0
  0
LINE
  5
26C
330
1F
100
AcDbEntity
  8
0
100
AcDbLine
 10
1.816843524096533
 20
-1.175693235997002
 30
0.0
 11
1.841794153917575
 21
-1.163388947024155
 31
0.0
  0
LINE
  5
26D
330
1F
100
AcDbEntity
  8
0
100
AcDbLine
 10
1.841794153917575
 20
-1.163388947024155
 30
0.0
 11
1.868137359629287
 21
-1.154446633653201
 31
0.0
  0
LINE
  5
26E
330
1F
100
AcDbEntity
  8
0
100
AcDbLine
 10
3.072714231695356
 20
-1.929391649764039
 30
0.0
 11
3.072714231695356
 21
-1.78760644798596
 31
0.0
  0
LINE
  5
26F
330
1F
100
AcDbEntity
  8
0
100
AcDbLine
 10
3.072714231695356
 20
-1.78760644798596
 30
0.0
 11
2.22200302102687
 21
-1.78760644798596
 31
0.0
  0
LINE
  5
270
330
1F
100
AcDbEntity
  8
0
100
AcDbLine
 10
2.22200302102687
 20
-1.78760644798596
 30
0.0
 11
2.22200302102687
 21
-1.929391649764043
 31
0.0
  0
LINE
  5
271
330
1F
100
AcDbEntity
  8
0
100
AcDbLine
 10
2.22200302102687
 20
-1.929391649764043
 30
0.0
 11
3.072714231695356
 21
-1.929391649764039
 31
0.0
  0
LINE
  5
272
330
1F
100
AcDbEntity
  8
0
100
AcDbLine
 10
0.2370101961337397
 20
-1.929391649764041
 30
0.0
 11
0.2370101961337397
 21
-1.787606447985958
 31
0.0
  0
LINE
  5
273
330
1F
100
AcDbEntity
  8
0
100
AcDbLine
 10
0.2370101961337397
 20
-1.787606447985958
 30
0.0
 11
-0.3301306109785844
 21
-1.787606447985958
 31
0.0
  0
LINE
  5
274
330
1F
100
AcDbEntity
  8
0
100
AcDbLine
 10
-0.3301306109785844
 20
-1.787606447985958
 30
0.0
 11
-0.3301306109785844
 21
-1.929391649764039
 31
0.0
  0
LINE
  5
275
330
1F
100
AcDbEntity
  8
0
100
AcDbLine
 10
-0.3301306109785844
 20
-1.929391649764039
 30
0.0
 11
0.2370101961337397
 21
-1.929391649764041
 31
0.0
  0
LINE
  5
276
330
1F
100
AcDbEntity
  8
0
100
AcDbLine
 10
-2.598693839427883
 20
-1.78760644798596
 30
0.0
 11
-2.598693839427883
 21
-1.929391649764041
 31
0.0
  0
LINE
  5
277
330
1F
100
AcDbEntity
  8
0
100
AcDbLine
 10
-7.490283300771678
 20
-2.709210259543487
 30
0.0
 11
-7.492698907569191
 21
-2.690861904276552
 31
0.0
  0
LINE
  5
278
330
1F
100
AcDbEntity
  8
0
100
AcDbLine
 10
-7.492698907569191
 20
-2.690861904276552
 30
0.0
 11
-7.499781108350459
 21
-2.673763959098967
 31
0.0
  0
LINE
  5
279
330
1F
100
AcDbEntity
  8
0
100
AcDbLine
 10
-7.499781108350459
 20
-2.673763959098967
 30
0.0
 11
-7.511047262836126
 21
-2.659081620718895
 31
0.0
  0
LINE
  5
27A
330
1F
100
AcDbEntity
  8
0
100
AcDbLine
 10
-7.525729601216198
 20
-2.647815466233228
 30
0.0
 11
-7.542827546393783
 21
-2.64073326545196
 31
0.0
  0
LINE
  5
27B
330
1F
100
AcDbEntity
  8
0
100
AcDbLine
 10
-7.542827546393783
 20
-2.64073326545196
 30
0.0
 11
-7.561175901660718
 21
-2.638317658654444
 31
0.0
  0
LINE
  5
27C
330
1F
100
AcDbEntity
  8
0
100
AcDbLine
 10
-7.561175901660718
 20
-2.638317658654444
 30
0.0
 11
-7.579524256927655
 21
-2.64073326545196
 31
0.0
  0
LINE
  5
27D
330
1F
100
AcDbEntity
  8
0
100
AcDbLine
 10
-7.579524256927655
 20
-2.64073326545196
 30
0.0
 11
-7.596622202105238
 21
-2.647815466233226
 31
0.0
  0
LINE
  5
27E
330
1F
100
AcDbEntity
  8
0
100
AcDbLine
 10
-7.596622202105238
 20
-2.647815466233226
 30
0.0
 11
-7.61130454048531
 21
-2.659081620718892
 31
0.0
  0
LINE
  5
27F
330
1F
100
AcDbEntity
  8
0
100
AcDbLine
 10
-7.61130454048531
 20
-2.659081620718892
 30
0.0
 11
-7.622570694970978
 21
-2.673763959098968
 31
0.0
  0
LINE
  5
280
330
1F
100
AcDbEntity
  8
0
100
AcDbLine
 10
-7.622570694970978
 20
-2.673763959098968
 30
0.0
 11
-7.629652895752246
 21
-2.690861904276552
 31
0.0
  0
LINE
  5
281
330
1F
100
AcDbEntity
  8
0
100
AcDbLine
 10
-7.629652895752246
 20
-2.690861904276552
 30
0.0
 11
-7.632068502549759
 21
-2.709210259543489
 31
0.0
  0
LINE
  5
282
330
1F
100
AcDbEntity
  8
0
100
AcDbLine
 10
-7.632068502549759
 20
-2.709210259543489
 30
0.0
 11
-7.629652895752246
 21
-2.727558614810424
 31
0.0
  0
LINE
  5
283
330
1F
100
AcDbEntity
  8
0
100
AcDbLine
 10
-7.629652895752246
 20
-2.727558614810424
 30
0.0
 11
-7.622570694970979
 21
-2.744656559988009
 31
0.0
  0
LINE
  5
284
330
1F
100
AcDbEntity
  8
0
100
AcDbLine
 10
-7.622570694970979
 20
-2.744656559988009
 30
0.0
 11
-7.61130454048531
 21
-2.759338898368079
 31
0.0
  0
LINE
  5
285
330
1F
100
AcDbEntity
  8
0
100
AcDbLine
 10
-7.61130454048531
 20
-2.759338898368079
 30
0.0
 11
-7.596622202105238
 21
-2.770605052853748
 31
0.0
  0
LINE
  5
286
330
1F
100
AcDbEntity
  8
0
100
AcDbLine
 10
-7.596622202105238
 20
-2.770605052853748
 30
0.0
 11
-7.579524256927654
 21
-2.777687253635014
 31
0.0
  0
LINE
  5
287
330
1F
100
AcDbEntity
  8
0
100
AcDbLine
 10
-7.579524256927654
 20
-2.777687253635014
 30
0.0
 11
-7.561175901660718
 21
-2.780102860432527
 31
0.0
  0
LINE
  5
288
330
1F
100
AcDbEntity
  8
0
100
AcDbLine
 10
-7.525729601216198
 20
-2.770605052853748
 30
0.0
 11
-7.511047262836126
 21
-2.759338898368079
 31
0.0
  0
LINE
  5
289
330
1F
100
AcDbEntity
  8
0
100
AcDbLine
 10
-7.492698907569193
 20
-2.727558614810424
 30
0.0
 11
-7.490283300771678
 21
-2.709210259543487
 31
0.0
  0
LINE
  5
28A
330
1F
100
AcDbEntity
  8
0
100
AcDbLine
 10
3.639855038807676
 20
-1.929391649764043
 30
0.0
 11
4.490566249476166
 21
-1.929391649764039
 31
0.0
  0
LINE
  5
28B
330
1F
100
AcDbEntity
  8
0
100
AcDbLine
 10
4.490566249476166
 20
-1.929391649764039
 30
0.0
 11
4.490566249476162
 21
-1.78760644798596
 31
0.0
  0
LINE
  5
28C
330
1F
100
AcDbEntity
  8
0
100
AcDbLine
 10
4.490566249476162
 20
-1.78760644798596
 30
0.0
 11
3.639855038807676
 21
-1.787606447985958
 31
0.0
  0
LINE
  5
28D
330
1F
100
AcDbEntity
  8
0
100
AcDbLine
 10
3.639855038807676
 20
-1.787606447985958
 30
0.0
 11
3.639855038807676
 21
-1.929391649764043
 31
0.0
  0
LINE
  5
28E
330
1F
100
AcDbEntity
  8
0
100
AcDbLine
 10
4.68489569687635
 20
-2.494780882341047
 30
0.0
 11
4.703244052143288
 21
-2.49719648913856
 31
0.0
  0
LINE
  5
28F
330
1F
100
AcDbEntity
  8
0
100
AcDbLine
 10
4.703244052143288
 20
-2.49719648913856
 30
0.0
 11
4.721592407410225
 21
-2.494780882341049
 31
0.0
  0
LINE
  5
290
330
1F
100
AcDbEntity
  8
0
100
AcDbLine
 10
4.721592407410225
 20
-2.494780882341049
 30
0.0
 11
4.738690352587808
 21
-2.487698681559782
 31
0.0
  0
LINE
  5
291
330
1F
100
AcDbEntity
  8
0
100
AcDbLine
 10
4.738690352587808
 20
-2.487698681559782
 30
0.0
 11
4.753372690967884
 21
-2.476432527074114
 31
0.0
  0
LINE
  5
292
330
1F
100
AcDbEntity
  8
0
100
AcDbLine
 10
4.753372690967884
 20
-2.476432527074114
 30
0.0
 11
4.76463884545355
 21
-2.461750188694042
 31
0.0
  0
LINE
  5
293
330
1F
100
AcDbEntity
  8
0
100
AcDbLine
 10
4.771721046234813
 20
-2.444652243516459
 30
0.0
 11
4.774136653032328
 21
-2.426303888249521
 31
0.0
  0
LINE
  5
294
330
1F
100
AcDbEntity
  8
0
100
AcDbLine
 10
4.764638845453547
 20
-2.390857587805001
 30
0.0
 11
4.753372690967884
 21
-2.376175249424927
 31
0.0
  0
LINE
  5
295
330
1F
100
AcDbEntity
  8
0
100
AcDbLine
 10
4.753372690967884
 20
-2.376175249424927
 30
0.0
 11
4.738690352587808
 21
-2.36490909493926
 31
0.0
  0
LINE
  5
296
330
1F
100
AcDbEntity
  8
0
100
AcDbLine
 10
4.738690352587808
 20
-2.36490909493926
 30
0.0
 11
4.72159240741022
 21
-2.357826894157992
 31
0.0
  0
LINE
  5
297
330
1F
100
AcDbEntity
  8
0
100
AcDbLine
 10
4.72159240741022
 20
-2.357826894157992
 30
0.0
 11
4.703244052143288
 21
-2.355411287360481
 31
0.0
  0
LINE
  5
298
330
1F
100
AcDbEntity
  8
0
100
AcDbLine
 10
4.703244052143288
 20
-2.355411287360481
 30
0.0
 11
4.68489569687635
 21
-2.357826894157994
 31
0.0
  0
LINE
  5
299
330
1F
100
AcDbEntity
  8
0
100
AcDbLine
 10
4.68489569687635
 20
-2.357826894157994
 30
0.0
 11
4.667797751698767
 21
-2.36490909493926
 31
0.0
  0
LINE
  5
29A
330
1F
100
AcDbEntity
  8
0
100
AcDbLine
 10
4.667797751698767
 20
-2.36490909493926
 30
0.0
 11
4.653115413318695
 21
-2.376175249424929
 31
0.0
  0
LINE
  5
29B
330
1F
100
AcDbEntity
  8
0
100
AcDbLine
 10
4.653115413318695
 20
-2.376175249424929
 30
0.0
 11
4.641849258833025
 21
-2.390857587805001
 31
0.0
  0
LINE
  5
29C
330
1F
100
AcDbEntity
  8
0
100
AcDbLine
 10
4.641849258833025
 20
-2.390857587805001
 30
0.0
 11
4.634767058051763
 21
-2.407955532982585
 31
0.0
  0
LINE
  5
29D
330
1F
100
AcDbEntity
  8
0
100
AcDbLine
 10
4.632351451254247
 20
-2.426303888249521
 30
0.0
 11
4.634767058051758
 21
-2.444652243516456
 31
0.0
  0
LINE
  5
29E
330
1F
100
AcDbEntity
  8
0
100
AcDbLine
 10
4.634767058051758
 20
-2.444652243516456
 30
0.0
 11
4.641849258833025
 21
-2.46175018869404
 31
0.0
  0
LINE
  5
29F
330
1F
100
AcDbEntity
  8
0
100
AcDbLine
 10
4.641849258833025
 20
-2.46175018869404
 30
0.0
 11
4.653115413318695
 21
-2.476432527074112
 31
0.0
  0
LINE
  5
2A0
330
1F
100
AcDbEntity
  8
0
100
AcDbLine
 10
4.653115413318695
 20
-2.476432527074112
 30
0.0
 11
4.667797751698771
 21
-2.487698681559781
 31
0.0
  0
LINE
  5
2A1
330
1F
100
AcDbEntity
  8
0
100
AcDbLine
 10
4.667797751698771
 20
-2.487698681559781
 30
0.0
 11
4.68489569687635
 21
-2.494780882341047
 31
0.0
  0
LINE
  5
2A2
330
1F
100
AcDbEntity
  8
0
100
AcDbLine
 10
-3.165834646540207
 20
-2.496532456876365
 30
0.0
 11
-3.165834646540207
 21
-2.354747255098286
 31
0.0
  0
LINE
  5
2A3
330
1F
100
AcDbEntity
  8
0
100
AcDbLine
 10
-3.165834646540207
 20
-2.354747255098286
 30
0.0
 11
-3.732975453652531
 21
-2.354747255098282
 31
0.0
  0
LINE
  5
2A4
330
1F
100
AcDbEntity
  8
0
100
AcDbLine
 10
-3.732975453652531
 20
-2.354747255098282
 30
0.0
 11
-3.732975453652531
 21
-2.496532456876367
 31
0.0
  0
LINE
  5
2A5
330
1F
100
AcDbEntity
  8
0
100
AcDbLine
 10
-3.732975453652531
 20
-2.496532456876367
 30
0.0
 11
-3.165834646540207
 21
-2.496532456876365
 31
0.0
  0
LINE
  5
2A6
330
1F
100
AcDbEntity
  8
0
100
AcDbLine
 10
-0.8972714180909105
 20
-2.496532456876365
 30
0.0
 11
-0.8972714180909105
 21
-2.354747255098286
 31
0.0
  0
LINE
  5
2A7
330
1F
100
AcDbEntity
  8
0
100
AcDbLine
 10
-0.8972714180909105
 20
-2.354747255098286
 30
0.0
 11
-1.464412225203235
 21
-2.354747255098282
 31
0.0
  0
LINE
  5
2A8
330
1F
100
AcDbEntity
  8
0
100
AcDbLine
 10
-1.464412225203235
 20
-2.354747255098282
 30
0.0
 11
-1.464412225203235
 21
-2.496532456876367
 31
0.0
  0
LINE
  5
2A9
330
1F
100
AcDbEntity
  8
0
100
AcDbLine
 10
-1.464412225203235
 20
-2.496532456876367
 30
0.0
 11
-0.8972714180909105
 21
-2.496532456876365
 31
0.0
  0
LINE
  5
2AA
330
1F
100
AcDbEntity
  8
0
100
AcDbLine
 10
2.00932521835975
 20
-2.425639855987325
 30
0.0
 11
2.006909611562237
 21
-2.40729150072039
 31
0.0
  0
LINE
  5
2AB
330
1F
100
AcDbEntity
  8
0
100
AcDbLine
 10
2.006909611562237
 20
-2.40729150072039
 30
0.0
 11
1.999827410780969
 21
-2.390193555542805
 31
0.0
  0
LINE
  5
2AC
330
1F
100
AcDbEntity
  8
0
100
AcDbLine
 10
1.988561256295302
 20
-2.375511217162732
 30
0.0
 11
1.97387891791523
 21
-2.364245062677066
 31
0.0
  0
LINE
  5
2AD
330
1F
100
AcDbEntity
  8
0
100
AcDbLine
 10
1.97387891791523
 20
-2.364245062677066
 30
0.0
 11
1.956780972737645
 21
-2.357162861895797
 31
0.0
  0
LINE
  5
2AE
330
1F
100
AcDbEntity
  8
0
100
AcDbLine
 10
1.956780972737645
 20
-2.357162861895797
 30
0.0
 11
1.93843261747071
 21
-2.354747255098282
 31
0.0
  0
LINE
  5
2AF
330
1F
100
AcDbEntity
  8
0
100
AcDbLine
 10
1.93843261747071
 20
-2.354747255098282
 30
0.0
 11
1.920084262203773
 21
-2.357162861895797
 31
0.0
  0
LINE
  5
2B0
330
1F
100
AcDbEntity
  8
0
100
AcDbLine
 10
1.920084262203773
 20
-2.357162861895797
 30
0.0
 11
1.90298631702619
 21
-2.364245062677064
 31
0.0
  0
LINE
  5
2B1
330
1F
100
AcDbEntity
  8
0
100
AcDbLine
 10
1.90298631702619
 20
-2.364245062677064
 30
0.0
 11
1.888303978646117
 21
-2.37551121716273
 31
0.0
  0
LINE
  5
2B2
330
1F
100
AcDbEntity
  8
0
100
AcDbLine
 10
1.888303978646117
 20
-2.37551121716273
 30
0.0
 11
1.877037824160451
 21
-2.390193555542806
 31
0.0
  0
LINE
  5
2B3
330
1F
100
AcDbEntity
  8
0
100
AcDbLine
 10
1.877037824160451
 20
-2.390193555542806
 30
0.0
 11
1.869955623379182
 21
-2.40729150072039
 31
0.0
  0
LINE
  5
2B4
330
1F
100
AcDbEntity
  8
0
100
AcDbLine
 10
1.869955623379182
 20
-2.40729150072039
 30
0.0
 11
1.867540016581669
 21
-2.425639855987327
 31
0.0
  0
LINE
  5
2B5
330
1F
100
AcDbEntity
  8
0
100
AcDbLine
 10
1.867540016581669
 20
-2.425639855987327
 30
0.0
 11
1.869955623379182
 21
-2.443988211254262
 31
0.0
  0
LINE
  5
2B6
330
1F
100
AcDbEntity
  8
0
100
AcDbLine
 10
1.869955623379182
 20
-2.443988211254262
 30
0.0
 11
1.877037824160449
 21
-2.461086156431847
 31
0.0
  0
LINE
  5
2B7
330
1F
100
AcDbEntity
  8
0
100
AcDbLine
 10
1.877037824160449
 20
-2.461086156431847
 30
0.0
 11
1.888303978646117
 21
-2.475768494811917
 31
0.0
  0
LINE
  5
2B8
330
1F
100
AcDbEntity
  8
0
100
AcDbLine
 10
1.888303978646117
 20
-2.475768494811917
 30
0.0
 11
1.90298631702619
 21
-2.487034649297586
 31
0.0
  0
LINE
  5
2B9
330
1F
100
AcDbEntity
  8
0
100
AcDbLine
 10
1.90298631702619
 20
-2.487034649297586
 30
0.0
 11
1.920084262203775
 21
-2.494116850078852
 31
0.0
  0
LINE
  5
2BA
330
1F
100
AcDbEntity
  8
0
100
AcDbLine
 10
1.920084262203775
 20
-2.494116850078852
 30
0.0
 11
1.93843261747071
 21
-2.496532456876365
 31
0.0
  0
LINE
  5
2BB
330
1F
100
AcDbEntity
  8
0
100
AcDbLine
 10
1.93843261747071
 20
-2.496532456876365
 30
0.0
 11
1.956780972737647
 21
-2.494116850078852
 31
0.0
  0
LINE
  5
2BC
330
1F
100
AcDbEntity
  8
0
100
AcDbLine
 10
1.956780972737647
 20
-2.494116850078852
 30
0.0
 11
1.97387891791523
 21
-2.487034649297586
 31
0.0
  0
LINE
  5
2BD
330
1F
100
AcDbEntity
  8
0
100
AcDbLine
 10
1.97387891791523
 20
-2.487034649297586
 30
0.0
 11
1.988561256295302
 21
-2.475768494811917
 31
0.0
  0
LINE
  5
2BE
330
1F
100
AcDbEntity
  8
0
100
AcDbLine
 10
1.988561256295302
 20
-2.475768494811917
 30
0.0
 11
1.999827410780969
 21
-2.461086156431847
 31
0.0
  0
LINE
  5
2BF
330
1F
100
AcDbEntity
  8
0
100
AcDbLine
 10
1.999827410780969
 20
-2.461086156431847
 30
0.0
 11
2.006909611562235
 21
-2.443988211254262
 31
0.0
  0
LINE
  5
2C0
330
1F
100
AcDbEntity
  8
0
100
AcDbLine
 10
2.006909611562235
 20
-2.443988211254262
 30
0.0
 11
2.00932521835975
 21
-2.425639855987325
 31
0.0
  0
LINE
  5
2C1
330
1F
100
AcDbEntity
  8
0
100
AcDbLine
 10
-4.540880230907733
 20
-1.399006061647624
 30
0.0
 11
-4.547962431689002
 21
-1.381908116470038
 31
0.0
  0
LINE
  5
2C2
330
1F
100
AcDbEntity
  8
0
100
AcDbLine
 10
-4.547962431689002
 20
-1.381908116470038
 30
0.0
 11
-4.559228586174668
 21
-1.367225778089966
 31
0.0
  0
LINE
  5
2C3
330
1F
100
AcDbEntity
  8
0
100
AcDbLine
 10
-4.57391092455474
 20
-1.3559596236043
 30
0.0
 11
-4.591008869732326
 21
-1.348877422823031
 31
0.0
  0
LINE
  5
2C4
330
1F
100
AcDbEntity
  8
0
100
AcDbLine
 10
-4.591008869732326
 20
-1.348877422823031
 30
0.0
 11
-4.60935722499926
 21
-1.346461816025516
 31
0.0
  0
LINE
  5
2C5
330
1F
100
AcDbEntity
  8
0
100
AcDbLine
 10
-4.60935722499926
 20
-1.346461816025516
 30
0.0
 11
-4.627705580266197
 21
-1.348877422823031
 31
0.0
  0
LINE
  5
2C6
330
1F
100
AcDbEntity
  8
0
100
AcDbLine
 10
-4.627705580266197
 20
-1.348877422823031
 30
0.0
 11
-4.644803525443781
 21
-1.355959623604298
 31
0.0
  0
LINE
  5
2C7
330
1F
100
AcDbEntity
  8
0
100
AcDbLine
 10
-4.644803525443781
 20
-1.355959623604298
 30
0.0
 11
-4.659485863823853
 21
-1.367225778089964
 31
0.0
  0
LINE
  5
2C8
330
1F
100
AcDbEntity
  8
0
100
AcDbLine
 10
-4.670752018309522
 20
-1.38190811647004
 30
0.0
 11
-4.677834219090788
 21
-1.399006061647624
 31
0.0
  0
LINE
  5
2C9
330
1F
100
AcDbEntity
  8
0
100
AcDbLine
 10
-4.677834219090788
 20
-1.399006061647624
 30
0.0
 11
-4.680249825888301
 21
-1.417354416914561
 31
0.0
  0
LINE
  5
2CA
330
1F
100
AcDbEntity
  8
0
100
AcDbLine
 10
-4.680249825888301
 20
-1.417354416914561
 30
0.0
 11
-4.677834219090788
 21
-1.435702772181496
 31
0.0
  0
LINE
  5
2CB
330
1F
100
AcDbEntity
  8
0
100
AcDbLine
 10
-4.677834219090788
 20
-1.435702772181496
 30
0.0
 11
-4.670752018309522
 21
-1.452800717359081
 31
0.0
  0
LINE
  5
2CC
330
1F
100
AcDbEntity
  8
0
100
AcDbLine
 10
-4.670752018309522
 20
-1.452800717359081
 30
0.0
 11
-4.659485863823853
 21
-1.467483055739151
 31
0.0
  0
LINE
  5
2CD
330
1F
100
AcDbEntity
  8
0
100
AcDbLine
 10
-4.659485863823853
 20
-1.467483055739151
 30
0.0
 11
-4.644803525443781
 21
-1.47874921022482
 31
0.0
  0
LINE
  5
2CE
330
1F
100
AcDbEntity
  8
0
100
AcDbLine
 10
-4.644803525443781
 20
-1.47874921022482
 30
0.0
 11
-4.627705580266196
 21
-1.485831411006086
 31
0.0
  0
LINE
  5
2CF
330
1F
100
AcDbEntity
  8
0
100
AcDbLine
 10
-4.627705580266196
 20
-1.485831411006086
 30
0.0
 11
-4.60935722499926
 21
-1.488247017803599
 31
0.0
  0
LINE
  5
2D0
330
1F
100
AcDbEntity
  8
0
100
AcDbLine
 10
-4.60935722499926
 20
-1.488247017803599
 30
0.0
 11
-4.591008869732324
 21
-1.485831411006086
 31
0.0
  0
LINE
  5
2D1
330
1F
100
AcDbEntity
  8
0
100
AcDbLine
 10
-4.591008869732324
 20
-1.485831411006086
 30
0.0
 11
-4.57391092455474
 21
-1.47874921022482
 31
0.0
  0
LINE
  5
2D2
330
1F
100
AcDbEntity
  8
0
100
AcDbLine
 10
-4.57391092455474
 20
-1.47874921022482
 30
0.0
 11
-4.559228586174668
 21
-1.467483055739151
 31
0.0
  0
LINE
  5
2D3
330
1F
100
AcDbEntity
  8
0
100
AcDbLine
 10
-4.559228586174668
 20
-1.467483055739151
 30
0.0
 11
-4.547962431689002
 21
-1.452800717359081
 31
0.0
  0
LINE
  5
2D4
330
1F
100
AcDbEntity
  8
0
100
AcDbLine
 10
-4.547962431689002
 20
-1.452800717359081
 30
0.0
 11
-4.540880230907735
 21
-1.435702772181496
 31
0.0
  0
LINE
  5
2D5
330
1F
100
AcDbEntity
  8
0
100
AcDbLine
 10
-4.540880230907735
 20
-1.435702772181496
 30
0.0
 11
-4.53846462411022
 21
-1.417354416914559
 31
0.0
  0
LINE
  5
2D6
330
1F
100
AcDbEntity
  8
0
100
AcDbLine
 10
4.774136653032328
 20
-1.417354416914559
 30
0.0
 11
4.771721046234815
 21
-1.399006061647624
 31
0.0
  0
LINE
  5
2D7
330
1F
100
AcDbEntity
  8
0
100
AcDbLine
 10
4.771721046234815
 20
-1.399006061647624
 30
0.0
 11
4.764638845453547
 21
-1.381908116470038
 31
0.0
  0
LINE
  5
2D8
330
1F
100
AcDbEntity
  8
0
100
AcDbLine
 10
4.667797751698767
 20
-1.355959623604298
 30
0.0
 11
4.653115413318695
 21
-1.367225778089964
 31
0.0
  0
LINE
  5
2D9
330
1F
100
AcDbEntity
  8
0
100
AcDbLine
 10
4.667797751698767
 20
-1.47874921022482
 30
0.0
 11
4.684895696876352
 21
-1.485831411006086
 31
0.0
  0
LINE
  5
2DA
330
1F
100
AcDbEntity
  8
0
100
AcDbLine
 10
4.684895696876352
 20
-1.485831411006086
 30
0.0
 11
4.703244052143288
 21
-1.488247017803599
 31
0.0
  0
LINE
  5
2DB
330
1F
100
AcDbEntity
  8
0
100
AcDbLine
 10
4.703244052143288
 20
-1.488247017803599
 30
0.0
 11
4.721592407410225
 21
-1.485831411006086
 31
0.0
  0
LINE
  5
2DC
330
1F
100
AcDbEntity
  8
0
100
AcDbLine
 10
4.721592407410225
 20
-1.485831411006086
 30
0.0
 11
4.738690352587808
 21
-1.47874921022482
 31
0.0
  0
LINE
  5
2DD
330
1F
100
AcDbEntity
  8
0
100
AcDbLine
 10
4.738690352587808
 20
-1.47874921022482
 30
0.0
 11
4.75337269096788
 21
-1.467483055739151
 31
0.0
  0
LINE
  5
2DE
330
1F
100
AcDbEntity
  8
0
100
AcDbLine
 10
4.75337269096788
 20
-1.467483055739151
 30
0.0
 11
4.764638845453547
 21
-1.452800717359081
 31
0.0
  0
LINE
  5
2DF
330
1F
100
AcDbEntity
  8
0
100
AcDbLine
 10
4.764638845453547
 20
-1.452800717359081
 30
0.0
 11
4.771721046234813
 21
-1.435702772181496
 31
0.0
  0
LINE
  5
2E0
330
1F
100
AcDbEntity
  8
0
100
AcDbLine
 10
4.771721046234813
 20
-1.435702772181496
 30
0.0
 11
4.774136653032328
 21
-1.417354416914559
 31
0.0
  0
LINE
  5
2E1
330
1F
100
AcDbEntity
  8
0
100
AcDbLine
 10
4.490566249476166
 20
1.124111245383734
 30
0.0
 11
4.774122298345437
 21
1.124111245383736
 31
0.0
  0
LINE
  5
2E2
330
1F
100
AcDbEntity
  8
0
100
AcDbLine
 10
4.490566249476166
 20
-0.2938542005584967
 30
0.0
 11
4.774136653032328
 21
-0.2938542005584967
 31
0.0
  0
LINE
  5
2E3
330
1F
100
AcDbEntity
  8
0
100
AcDbLine
 10
0.2370101961337397
 20
-0.2938542005584946
 30
0.0
 11
2.22200302102687
 21
-0.2938542005584987
 31
0.0
  0
LINE
  5
2E4
330
1F
100
AcDbEntity
  8
0
100
AcDbLine
 10
0.2370101961337397
 20
1.124111245383736
 30
0.0
 11
2.22200302102687
 21
1.124111245383734
 31
0.0
  0
LINE
  5
2E5
330
1F
100
AcDbEntity
  8
0
100
AcDbLine
 10
1.923182425430094
 20
2.185013603833985
 30
0.0
 11
4.774136653032328
 21
2.185013603833987
 31
0.0
  0
LINE
  5
2E6
330
1F
100
AcDbEntity
  8
0
100
AcDbLine
 10
4.774136653032328
 20
-1.147199813260664
 30
0.0
 11
1.923182425430094
 21
-1.147199813260662
 31
0.0
  0
LINE
  5
2E7
330
1F
100
AcDbEntity
  8
0
 62
   250
100
AcDbLine
 10
8.762504458529499
 20
-0.1925392749774134
 30
0.0
 11
9.208172083460505
 21
-0.1925392749774134
 31
0.0
  0
LINE
  5
2E8
330
1F
100
AcDbEntity
  8
0
 62
   250
100
AcDbLine
 10
8.762504458529502
 20
0.9417423392472307
 30
0.0
 11
9.208172083460505
 21
0.9417423392472307
 31
0.0
  0
LINE
  5
2E9
330
1F
100
AcDbEntity
  8
0
 62
   250
100
AcDbLine
 10
9.121889532646968
 20
-0.1925392749774134
 30
0.0
 11
9.12188953264697
 21
0.1049685608426007
 31
0.0
  0
LINE
  5
2EA
330
1F
100
AcDbEntity
  8
0
 62
   250
100
AcDbLine
 10
9.121889532646971
 20
0.6442345034272126
 30
0.0
 11
9.121889532646968
 21
0.9417423392472307
 31
0.0
  0
LINE
  5
2EB
330
1F
100
AcDbEntity
  8
0
 62
   250
100
AcDbLine
 10
7.585081568898083
 20
0.984883614653999
 30
0.0
 11
7.585081568898083
 21
1.445328239236434
 31
0.0
  0
LINE
  5
2EC
330
1F
100
AcDbEntity
  8
0
 62
   250
100
AcDbLine
 10
8.71936318312273
 20
0.984883614653999
 30
0.0
 11
8.71936318312273
 21
1.445328239236434
 31
0.0
  0
LINE
  5
2ED
330
1F
100
AcDbEntity
  8
0
 62
   250
100
AcDbLine
 10
7.585081568898083
 20
1.359045688422895
 30
0.0
 11
7.925730680124872
 21
1.359045688422895
 31
0.0
  0
LINE
  5
2EE
330
1F
100
AcDbEntity
  8
0
 62
   250
100
AcDbLine
 10
8.378714071895942
 20
1.359045688422895
 30
0.0
 11
8.71936318312273
 21
1.359045688422895
 31
0.0
  0
LINE
  5
2EF
330
1F
100
AcDbEntity
  8
0
100
AcDbLine
 10
2.216165423183847
 20
2.183774412299097
 30
0.0
 11
2.246946036981716
 21
2.182379201800308
 31
0.0
  0
LINE
  5
2F0
330
1F
100
AcDbEntity
  8
0
100
AcDbLine
 10
2.246946036981716
 20
2.182379201800308
 30
0.0
 11
2.277645429875297
 21
2.185013603833985
 31
0.0
  0
LINE
  5
2F1
330
1F
100
AcDbEntity
  8
0
100
AcDbLine
 10
2.209205336239588
 20
2.185013603833985
 30
0.0
 11
2.216165423183847
 21
2.183774412299097
 31
0.0
  0
LINE
  5
2F2
330
1F
100
AcDbEntity
  8
0
100
AcDbLine
 10
2.216165423183847
 20
-1.145960621725773
 30
0.0
 11
2.246946036981716
 21
-1.144565411226985
 31
0.0
  0
LINE
  5
2F3
330
1F
100
AcDbEntity
  8
0
100
AcDbLine
 10
2.209205336239588
 20
-1.147199813260662
 30
0.0
 11
2.216165423183847
 21
-1.145960621725773
 31
0.0
  0
LINE
  5
2F4
330
1F
100
AcDbEntity
  8
0
100
AcDbLine
 10
2.246946036981716
 20
-1.144565411226985
 30
0.0
 11
2.277645429875297
 21
-1.147199813260662
 31
0.0
  0
POLYLINE
  5
2F5
330
1F
100
AcDbEntity
  8
0
 62
   250
100
AcDbPolyFaceMesh
 66
     1
 10
0.0
 20
0.0
 30
0.0
 70
    64
 71
     3
 72
     1
  0
VERTEX
  5
2F6
330
2F5
100
AcDbEntity
  8
0
100
AcDbVertex
100
AcDbPolyFaceMeshVertex
 10
9.208172083460505
 20
0.0663083774632
 30
0.0
 70
   192
  0
VERTEX
  5
2F7
330
2F5
100
AcDbEntity
  8
0
100
AcDbVertex
100
AcDbPolyFaceMeshVertex
 10
9.121889532646968
 20
-0.1925392749774134
 30
0.0
 70
   192
  0
VERTEX
  5
2F8
330
2F5
100
AcDbEntity
  8
0
100
AcDbVertex
100
AcDbPolyFaceMeshVertex
 10
9.03560698183343
 20
0.0663083774632
 30
0.0
 70
   192
  0
VERTEX
  5
2F9
330
2F5
100
AcDbEntity
  8
0
 62
   250
100
AcDbFaceRecord
 10
0.0
 20
0.0
 30
0.0
 70
   128
 71
     1
 72
     2
 73
     3
  0
SEQEND
  5
2FA
330
2F5
100
AcDbEntity
  8
0
 62
   250
  0
POLYLINE
  5
2FB
330
1F
100
AcDbEntity
  8
0
 62
   250
100
AcDbPolyFaceMesh
 66
     1
 10
0.0
 20
0.0
 30
0.0
 70
    64
 71
     3
 72
     1
  0
VERTEX
  5
2FC
330
2FB
100
AcDbEntity
  8
0
100
AcDbVertex
100
AcDbPolyFaceMeshVertex
 10
9.208172083460505
 20
0.6828946868066174
 30
0.0
 70
   192
  0
VERTEX
  5
2FD
330
2FB
100
AcDbEntity
  8
0
100
AcDbVertex
100
AcDbPolyFaceMeshVertex
 10
9.03560698183343
 20
0.6828946868066174
 30
0.0
 70
   192
  0
VERTEX
  5
2FE
330
2FB
100
AcDbEntity
  8
0
100
AcDbVertex
100
AcDbPolyFaceMeshVertex
 10
9.121889532646968
 20
0.9417423392472307
 30
0.0
 70
   192
  0
VERTEX
  5
2FF
330
2FB
100
AcDbEntity
  8
0
 62
   250
100
AcDbFaceRecord
 10
0.0
 20
0.0
 30
0.0
 70
   128
 71
     1
 72
     2
 73
     3
  0
SEQEND
  5
300
330
2FB
100
AcDbEntity
  8
0
 62
   250
  0
POLYLINE
  5
301
330
1F
100
AcDbEntity
  8
0
 62
   250
100
AcDbPolyFaceMesh
 66
     1
 10
0.0
 20
0.0
 30
0.0
 70
    64
 71
     3
 72
     1
  0
VERTEX
  5
302
330
301
100
AcDbEntity
  8
0
100
AcDbVertex
100
AcDbPolyFaceMeshVertex
 10
7.843929221338697
 20
1.272763137609357
 30
0.0
 70
   192
  0
VERTEX
  5
303
330
301
100
AcDbEntity
  8
0
100
AcDbVertex
100
AcDbPolyFaceMeshVertex
 10
7.585081568898083
 20
1.359045688422895
 30
0.0
 70
   192
  0
VERTEX
  5
304
330
301
100
AcDbEntity
  8
0
100
AcDbVertex
100
AcDbPolyFaceMeshVertex
 10
7.843929221338697
 20
1.445328239236434
 30
0.0
 70
   192
  0
VERTEX
  5
305
330
301
100
AcDbEntity
  8
0
 62
   250
100
AcDbFaceRecord
 10
0.0
 20
0.0
 30
0.0
 70
   128
 71
     1
 72
     2
 73
     3
  0
SEQEND
  5
306
330
301
100
AcDbEntity
  8
0
 62
   250
  0
POLYLINE
  5
307
330
1F
100
AcDbEntity
  8
0
 62
   250
100
AcDbPolyFaceMesh
 66
     1
 10
0.0
 20
0.0
 30
0.0
 70
    64
 71
     3
 72
     1
  0
VERTEX
  5
308
330
307
100
AcDbEntity
  8
0
100
AcDbVertex
100
AcDbPolyFaceMeshVertex
 10
8.71936318312273
 20
1.359045688422895
 30
0.0
 70
   192
  0
VERTEX
  5
309
330
307
100
AcDbEntity
  8
0
100
AcDbVertex
100
AcDbPolyFaceMeshVertex
 10
8.460515530682118
 20
1.272763137609357
 30
0.0
 70
   192
  0
VERTEX
  5
30A
330
307
100
AcDbEntity
  8
0
100
AcDbVertex
100
AcDbPolyFaceMeshVertex
 10
8.460515530682118
 20
1.445328239236434
 30
0.0
 70
   192
  0
VERTEX
  5
30B
330
307
100
AcDbEntity
  8
0
 62
   250
100
AcDbFaceRecord
 10
0.0
 20
0.0
 30
0.0
 70
   128
 71
     1
 72
     2
 73
     3
  0
SEQEND
  5
30C
330
307
100
AcDbEntity
  8
0
 62
   250
  0
MTEXT
  5
30E
330
1F
100
AcDbEntity
  8
0
 62
   250
100
AcDbMText
 10
8.949324431019893
 20
0.2402311545677794
 30
0.0
 40
0.2687407551342583
 41
0.0
 71
     7
 72
     1
  1
1"
  7
TAHOMA
  0
MTEXT
  5
30F
330
1F
100
AcDbEntity
  8
0
 62
   250
100
AcDbMText
 10
7.979657274383332
 20
1.224675310855766
 30
0.0
 40
0.2687407551342582
 41
0.0
 71
     7
 72
     1
  1
1"
  7
TAHOMA
  0
ENDSEC
  0
SECTION
  2
OBJECTS
  0
DICTIONARY
  5
C
330
0
100
AcDbDictionary
  3
ACAD_GROUP
350
D
  3
ACAD_LAYOUT
350
1A
  3
ACAD_MLEADERSTYLE
350
331
  3
ACAD_MLINESTYLE
350
17
  3
ACAD_PLOTSETTINGS
350
19
  3
ACAD_TABLESTYLE
350
330
  3
ACAD_VISUALSTYLE
350
2A
  3
ACDBHEADERROUNDTRIPXREC
350
310
  0
DICTIONARY
  5
D
102
{ACAD_REACTORS
330
C
102
}
330
C
100
AcDbDictionary
  0
DICTIONARY
  5
1A
102
{ACAD_REACTORS
330
C
102
}
330
C
100
AcDbDictionary
  0
DICTIONARY
  5
331
102
{ACAD_REACTORS
330
C
102
}
330
C
100
AcDbDictionary
  0
DICTIONARY
  5
17
102
{ACAD_REACTORS
330
C
102
}
330
C
100
AcDbDictionary
  3
STANDARD
350
18
  0
DICTIONARY
  5
19
102
{ACAD_REACTORS
330
C
102
}
330
C
100
AcDbDictionary
  0
DICTIONARY
  5
330
102
{ACAD_REACTORS
330
C
102
}
330
C
100
AcDbDictionary
  0
DICTIONARY
  5
2A
102
{ACAD_REACTORS
330
C
102
}
330
C
100
AcDbDictionary
  3
2DWIREFRAME
350
2F
  3
3D_HIDDEN
350
31
  3
3DWIREFRAME
350
30
  3
BASIC
350
32
  3
BRIGHTEN
350
36
  3
COLORCHANGE
350
3A
  3
CONCEPTUAL
350
34
  3
DIM
350
35
  3
FACEPATTERN
350
39
  3
FLAT
350
2B
  3
FLATWITHEDGES
350
2C
  3
GOURAUD
350
2D
  3
GOURAUDWITHEDGES
350
2E
  3
LINEPATTERN
350
38
  3
REALISTIC
350
33
  3
THICKEN
350
37
  0
DICTIONARY
  5
310
102
{ACAD_REACTORS
330
C
102
}
330
C
100
AcDbDictionary
  3
CEPSNTYPE
350
319
  3
DIMSTYLEDATA
350
32F
  3
FINGERPRINTGUID
350
31A
  3
HYPERLINKBASE
350
313
  3
INSUNITS
350
318
  3
LAYOUTDICT
350
315
  3
LWETCUNION
350
317
  3
PLOTSETDICT
350
316
  3
PSVPSCALE
350
31C
  3
PUCSBASE
350
31F
  3
PUCSORGBACK
350
325
  3
PUCSORGBOTTOM
350
321
  3
PUCSORGFRONT
350
324
  3
PUCSORGLEFT
350
322
  3
PUCSORGRIGHT
350
323
  3
PUCSORGTOP
350
320
  3
PUCSORTHOREF
350
31D
  3
PUCSORTHOVIEW
350
31E
  3
STYLESHEET
350
314
  3
TSTACKALIGN
350
311
  3
TSTACKSIZE
350
312
  3
UCSBASE
350
328
  3
UCSORGBACK
350
32E
  3
UCSORGBOTTOM
350
32A
  3
UCSORGFRONT
350
32D
  3
UCSORGLEFT
350
32B
  3
UCSORGRIGHT
350
32C
  3
UCSORGTOP
350
329
  3
UCSORTHOREF
350
326
  3
UCSORTHOVIEW
350
327
  3
VERSIONGUID
350
31B
  0
MLINESTYLE
  5
18
102
{ACAD_REACTORS
330
17
102
}
330
17
100
AcDbMlineStyle
  2
Standard
 70
     0
  3

 62
   256
 51
90.0
 52
90.0
 71
     2
 49
0.5
 62
   256
  6
BYLAYER
 49
-0.5
 62
   256
  6
BYLAYER
  0
VISUALSTYLE
  5
2F
102
{ACAD_REACTORS
330
2A
102
}
330
2A
100
AcDbVisualStyle
  2
2dWireframe
 70
     4
 71
     0
 72
     2
 73
     0
 90
        0
 40
-0.6
 41
-30.0
 62
     5
 63
     7
 74
     1
 91
        4
 64
     7
 65
   257
 75
     1
175
     1
 42
1.0
 92
        0
 66
   257
 43
1.0
 76
     1
 77
     6
 78
     2
 67
     7
 79
     5
170
     0
171
     0
290
     0
174
     0
 93
        1
 44
0.0
173
     0
291
     0
 45
0.0
1001
ACAD
1000
AcDbSavedByObjectVersion
1070
     0
  0
VISUALSTYLE
  5
31
102
{ACAD_REACTORS
330
2A
102
}
330
2A
100
AcDbVisualStyle
  2
3D Hidden
 70
     6
 71
     1
 72
     2
 73
     2
 90
        0
 40
-0.6
 41
-30.0
 62
     5
 63
     7
 74
     2
 91
        2
 64
     7
 65
   257
 75
     2
175
     1
 42
40.0
 92
        0
 66
   257
 43
1.0
 76
     1
 77
     6
 78
     2
 67
     7
 79
     3
170
     0
171
     0
290
     0
174
     0
 93
        1
 44
0.0
173
     0
291
     0
 45
0.0
1001
ACAD
1000
AcDbSavedByObjectVersion
1070
     0
  0
VISUALSTYLE
  5
30
102
{ACAD_REACTORS
330
2A
102
}
330
2A
100
AcDbVisualStyle
  2
3dWireframe
 70
     5
 71
     0
 72
     2
 73
     0
 90
        0
 40
-0.6
 41
-30.0
 62
     5
 63
     7
 74
     1
 91
        4
 64
     7
 65
   257
 75
     1
175
     1
 42
1.0
 92
        0
 66
   257
 43
1.0
 76
     1
 77
     6
 78
     2
 67
     7
 79
     5
170
     0
171
     0
290
     0
174
     0
 93
        1
 44
0.0
173
     0
291
     0
 45
0.0
1001
ACAD
1000
AcDbSavedByObjectVersion
1070
     0
  0
VISUALSTYLE
  5
32
102
{ACAD_REACTORS
330
2A
102
}
330
2A
100
AcDbVisualStyle
  2
Basic
 70
     7
 71
     1
 72
     0
 73
     1
 90
        0
 40
-0.6
 41
-30.0
 62
     5
 63
     7
 74
     0
 91
        4
 64
     7
 65
   257
 75
     1
175
     1
 42
1.0
 92
        8
 66
     7
 43
1.0
 76
     1
 77
     6
 78
     2
 67
     7
 79
     5
170
     0
171
     0
290
     0
174
     0
 93
        1
 44
0.0
173
     0
291
     1
 45
0.0
1001
ACAD
1000
AcDbSavedByObjectVersion
1070
     0
  0
VISUALSTYLE
  5
36
102
{ACAD_REACTORS
330
2A
102
}
330
2A
100
AcDbVisualStyle
  2
Brighten
 70
    12
 71
     2
 72
     2
 73
     0
 90
        0
 40
-0.6
 41
-30.0
 62
     5
 63
     7
 74
     1
 91
        4
 64
     7
 65
   257
 75
     1
175
     1
 42
1.0
 92
        8
 66
     7
 43
1.0
 76
     1
 77
     6
 78
     2
 67
     7
 79
     5
170
     0
171
     0
290
     0
174
     0
 93
        1
 44
50.0
173
     0
291
     1
 45
0.0
1001
ACAD
1000
AcDbSavedByObjectVersion
1070
     0
  0
VISUALSTYLE
  5
3A
102
{ACAD_REACTORS
330
2A
102
}
330
2A
100
AcDbVisualStyle
  2
ColorChange
 70
    16
 71
     2
 72
     2
 73
     3
 90
        0
 40
-0.6
 41
-30.0
 62
     5
 63
     8
 74
     1
 91
        4
 64
     7
 65
   257
 75
     1
175
     1
 42
1.0
 92
        8
 66
     8
 43
1.0
 76
     1
 77
     6
 78
     2
 67
     7
 79
     5
170
     0
171
     0
290
     0
174
     0
 93
        1
 44
0.0
173
     0
291
     1
 45
0.0
1001
ACAD
1000
AcDbSavedByObjectVersion
1070
     0
  0
VISUALSTYLE
  5
34
102
{ACAD_REACTORS
330
2A
102
}
330
2A
100
AcDbVisualStyle
  2
Conceptual
 70
     9
 71
     3
 72
     2
 73
     0
 90
        0
 40
-0.6
 41
-30.0
 62
     5
 63
     7
 74
     2
 91
        2
 64
     7
 65
   257
 75
     1
175
     1
 42
40.0
 92
        8
 66
     7
 43
1.0
 76
     1
 77
     6
 78
     2
 67
     7
 79
     3
170
     0
171
     0
290
     0
174
     0
 93
        1
 44
0.0
173
     0
291
     0
 45
0.0
1001
ACAD
1000
AcDbSavedByObjectVersion
1070
     0
  0
VISUALSTYLE
  5
35
102
{ACAD_REACTORS
330
2A
102
}
330
2A
100
AcDbVisualStyle
  2
Dim
 70
    11
 71
     2
 72
     2
 73
     0
 90
        0
 40
-0.6
 41
-30.0
 62
     5
 63
     7
 74
     1
 91
        4
 64
     7
 65
   257
 75
     1
175
     1
 42
1.0
 92
        8
 66
     7
 43
1.0
 76
     1
 77
     6
 78
     2
 67
     7
 79
     5
170
     0
171
     0
290
     0
174
     0
 93
        1
 44
-50.0
173
     0
291
     1
 45
0.0
1001
ACAD
1000
AcDbSavedByObjectVersion
1070
     0
  0
VISUALSTYLE
  5
39
102
{ACAD_REACTORS
330
2A
102
}
330
2A
100
AcDbVisualStyle
  2
Facepattern
 70
    15
 71
     2
 72
     2
 73
     0
 90
        0
 40
-0.6
 41
-30.0
 62
     5
 63
     7
 74
     1
 91
        4
 64
     7
 65
   257
 75
     1
175
     1
 42
1.0
 92
        8
 66
     7
 43
1.0
 76
     1
 77
     6
 78
     2
 67
     7
 79
     5
170
     0
171
     0
290
     0
174
     0
 93
        1
 44
0.0
173
     0
291
     1
 45
0.0
1001
ACAD
1000
AcDbSavedByObjectVersion
1070
     0
  0
VISUALSTYLE
  5
2B
102
{ACAD_REACTORS
330
2A
102
}
330
2A
100
AcDbVisualStyle
  2
Flat
 70
     0
 71
     2
 72
     1
 73
     1
 90
        2
 40
-0.6
 41
30.0
 62
     5
 63
     7
 74
     0
 91
        4
 64
     7
 65
   257
 75
     1
175
     1
 42
1.0
 92
        8
 66
     7
 43
1.0
 76
     1
 77
     6
 78
     2
 67
     7
 79
     5
170
     0
171
     0
290
     0
174
     0
 93
       13
 44
0.0
173
     0
291
     1
 45
0.0
1001
ACAD
1000
AcDbSavedByObjectVersion
1070
     0
  0
VISUALSTYLE
  5
2C
102
{ACAD_REACTORS
330
2A
102
}
330
2A
100
AcDbVisualStyle
  2
FlatWithEdges
 70
     1
 71
     2
 72
     1
 73
     1
 90
        2
 40
-0.6
 41
30.0
 62
     5
 63
     7
 74
     1
 91
        4
 64
     7
 65
   257
 75
     1
175
     1
 42
1.0
 92
        0
 66
   257
 43
1.0
 76
     1
 77
     6
 78
     2
 67
     7
 79
     5
170
     0
171
     0
290
     0
174
     0
 93
       13
 44
0.0
173
     0
291
     1
 45
0.0
1001
ACAD
1000
AcDbSavedByObjectVersion
1070
     0
  0
VISUALSTYLE
  5
2D
102
{ACAD_REACTORS
330
2A
102
}
330
2A
100
AcDbVisualStyle
  2
Gouraud
 70
     2
 71
     2
 72
     2
 73
     1
 90
        2
 40
-0.6
 41
30.0
 62
     5
 63
     7
 74
     0
 91
        4
 64
     7
 65
   257
 75
     1
175
     1
 42
1.0
 92
        0
 66
     7
 43
1.0
 76
     1
 77
     6
 78
     2
 67
     7
 79
     5
170
     0
171
     0
290
     0
174
     0
 93
       13
 44
0.0
173
     0
291
     1
 45
0.0
1001
ACAD
1000
AcDbSavedByObjectVersion
1070
     0
  0
VISUALSTYLE
  5
2E
102
{ACAD_REACTORS
330
2A
102
}
330
2A
100
AcDbVisualStyle
  2
GouraudWithEdges
 70
     3
 71
     2
 72
     2
 73
     1
 90
        2
 40
-0.6
 41
30.0
 62
     5
 63
     7
 74
     1
 91
        4
 64
     7
 65
   257
 75
     1
175
     1
 42
1.0
 92
        0
 66
   257
 43
1.0
 76
     1
 77
     6
 78
     2
 67
     7
 79
     5
170
     0
171
     0
290
     0
174
     0
 93
       13
 44
0.0
173
     0
291
     1
 45
0.0
1001
ACAD
1000
AcDbSavedByObjectVersion
1070
     0
  0
VISUALSTYLE
  5
38
102
{ACAD_REACTORS
330
2A
102
}
330
2A
100
AcDbVisualStyle
  2
Linepattern
 70
    14
 71
     2
 72
     2
 73
     0
 90
        0
 40
-0.6
 41
-30.0
 62
     5
 63
     7
 74
     1
 91
        4
 64
     7
 65
   257
 75
     7
175
     7
 42
1.0
 92
        8
 66
     7
 43
1.0
 76
     1
 77
     6
 78
     2
 67
     7
 79
     5
170
     0
171
     0
290
     0
174
     0
 93
        1
 44
0.0
173
     0
291
     1
 45
0.0
1001
ACAD
1000
AcDbSavedByObjectVersion
1070
     0
  0
VISUALSTYLE
  5
33
102
{ACAD_REACTORS
330
2A
102
}
330
2A
100
AcDbVisualStyle
  2
Realistic
 70
     8
 71
     2
 72
     2
 73
     0
 90
        0
 40
-0.6
 41
-30.0
 62
     5
 63
     7
 74
     1
 91
        0
 64
     7
 65
   257
 75
     1
175
     1
 42
1.0
 92
        8
 66
     8
 43
1.0
 76
     1
 77
     6
 78
     2
 67
     7
 79
     5
170
     0
171
     0
290
     0
174
     0
 93
       13
 44
0.0
173
     0
291
     0
 45
0.0
1001
ACAD
1000
AcDbSavedByObjectVersion
1070
     0
  0
VISUALSTYLE
  5
37
102
{ACAD_REACTORS
330
2A
102
}
330
2A
100
AcDbVisualStyle
  2
Thicken
 70
    13
 71
     2
 72
     2
 73
     0
 90
        0
 40
-0.6
 41
-30.0
 62
     5
 63
     7
 74
     1
 91
        4
 64
     7
 65
   257
 75
     1
175
     1
 42
1.0
 92
       12
 66
     7
 43
1.0
 76
     1
 77
     6
 78
     2
 67
     7
 79
     5
170
     0
171
     0
290
     0
174
     0
 93
        1
 44
0.0
173
     0
291
     1
 45
0.0
1001
ACAD
1000
AcDbSavedByObjectVersion
1070
     0
  0
XRECORD
  5
319
102
{ACAD_REACTORS
330
310
102
}
330
310
100
AcDbXrecord
 90
        0
  0
XRECORD
  5
32F
102
{ACAD_REACTORS
330
310
102
}
330
310
100
AcDbXrecord
1000
DSTYLE
1002
{
1070
   340
340
11
1002
}
  0
XRECORD
  5
31A
102
{ACAD_REACTORS
330
310
102
}
330
310
100
AcDbXrecord
  1
{937EFFAA-1A50-4F1F-B912-C23DE543473A}
  0
XRECORD
  5
313
102
{ACAD_REACTORS
330
310
102
}
330
310
100
AcDbXrecord
  1

  0
XRECORD
  5
318
102
{ACAD_REACTORS
330
310
102
}
330
310
100
AcDbXrecord
 90
        1
  0
XRECORD
  5
315
102
{ACAD_REACTORS
330
310
102
}
330
310
100
AcDbXrecord
340
1A
  0
XRECORD
  5
317
102
{ACAD_REACTORS
330
310
102
}
330
310
100
AcDbXrecord
 90
    10781
  0
XRECORD
  5
316
102
{ACAD_REACTORS
330
310
102
}
330
310
100
AcDbXrecord
340
19
  0
XRECORD
  5
31C
102
{ACAD_REACTORS
330
310
102
}
330
310
100
AcDbXrecord
 40
0.0
  0
XRECORD
  5
31F
102
{ACAD_REACTORS
330
310
102
}
330
310
100
AcDbXrecord
340
0
  0
XRECORD
  5
325
102
{ACAD_REACTORS
330
310
102
}
330
310
100
AcDbXrecord
 10
0.0
 20
0.0
 30
0.0
  0
XRECORD
  5
321
102
{ACAD_REACTORS
330
310
102
}
330
310
100
AcDbXrecord
 10
0.0
 20
0.0
 30
0.0
  0
XRECORD
  5
324
102
{ACAD_REACTORS
330
310
102
}
330
310
100
AcDbXrecord
 10
0.0
 20
0.0
 30
0.0
  0
XRECORD
  5
322
102
{ACAD_REACTORS
330
310
102
}
330
310
100
AcDbXrecord
 10
0.0
 20
0.0
 30
0.0
  0
XRECORD
  5
323
102
{ACAD_REACTORS
330
310
102
}
330
310
100
AcDbXrecord
 10
0.0
 20
0.0
 30
0.0
  0
XRECORD
  5
320
102
{ACAD_REACTORS
330
310
102
}
330
310
100
AcDbXrecord
 10
0.0
 20
0.0
 30
0.0
  0
XRECORD
  5
31D
102
{ACAD_REACTORS
330
310
102
}
330
310
100
AcDbXrecord
340
0
  0
XRECORD
  5
31E
102
{ACAD_REACTORS
330
310
102
}
330
310
100
AcDbXrecord
 70
     0
  0
XRECORD
  5
314
102
{ACAD_REACTORS
330
310
102
}
330
310
100
AcDbXrecord
  1

  0
XRECORD
  5
311
102
{ACAD_REACTORS
330
310
102
}
330
310
100
AcDbXrecord
 90
        1
  0
XRECORD
  5
312
102
{ACAD_REACTORS
330
310
102
}
330
310
100
AcDbXrecord
 90
       70
  0
XRECORD
  5
328
102
{ACAD_REACTORS
330
310
102
}
330
310
100
AcDbXrecord
340
0
  0
XRECORD
  5
32E
102
{ACAD_REACTORS
330
310
102
}
330
310
100
AcDbXrecord
 10
0.0
 20
0.0
 30
0.0
  0
XRECORD
  5
32A
102
{ACAD_REACTORS
330
310
102
}
330
310
100
AcDbXrecord
 10
0.0
 20
0.0
 30
0.0
  0
XRECORD
  5
32D
102
{ACAD_REACTORS
330
310
102
}
330
310
100
AcDbXrecord
 10
0.0
 20
0.0
 30
0.0
  0
XRECORD
  5
32B
102
{ACAD_REACTORS
330
310
102
}
330
310
100
AcDbXrecord
 10
0.0
 20
0.0
 30
0.0
  0
XRECORD
  5
32C
102
{ACAD_REACTORS
330
310
102
}
330
310
100
AcDbXrecord
 10
0.0
 20
0.0
 30
0.0
  0
XRECORD
  5
329
102
{ACAD_REACTORS
330
310
102
}
330
310
100
AcDbXrecord
 10
0.0
 20
0.0
 30
0.0
  0
XRECORD
  5
326
102
{ACAD_REACTORS
330
310
102
}
330
310
100
AcDbXrecord
340
0
  0
XRECORD
  5
327
102
{ACAD_REACTORS
330
310
102
}
330
310
100
AcDbXrecord
 70
     0
  0
XRECORD
  5
31B
102
{ACAD_REACTORS
330
310
102
}
330
310
100
AcDbXrecord
  1
{FAEB1C32-E019-11D5-929B-00C0DF256EC4}
  0
ENDSEC
  0
EOF
