  0
SECTION
  2
HEADER
  9
$ACADVER
  1
AC1014
  9
$ACADMAINTVER
 70
     9
  9
$DWGCODEPAGE
  3
ANSI_1252
  9
$INSBASE
 10
0.0
 20
0.0
 30
0.0
  9
$EXTMIN
 10
1.000000000000000E+20
 20
1.000000000000000E+20
 30
1.000000000000000E+20
  9
$EXTMAX
 10
-1.000000000000000E+20
 20
-1.000000000000000E+20
 30
-1.000000000000000E+20
  9
$LIMMIN
 10
0.0
 20
0.0
  9
$LIMMAX
 10
12.0
 20
9.0
  9
$ORTHOMODE
 70
     0
  9
$REGENMODE
 70
     1
  9
$FILLMODE
 70
     1
  9
$QTEXTMODE
 70
     0
  9
$MIRRTEXT
 70
     1
  9
$DRAGMODE
 70
     2
  9
$LTSCALE
 40
1.0
  9
$OSMODE
 70
    37
  9
$ATTMODE
 70
     1
  9
$TEXTSIZE
 40
0.2
  9
$TRACEWID
 40
0.05
  9
$TEXTSTYLE
  7
STANDARD
  9
$CLAYER
  8
0
  9
$CELTYPE
  6
BYLAYER
  9
$CECOLOR
 62
   256
  9
$CELTSCALE
 40
1.0
  9
$DELOBJ
 70
     1
  9
$DISPSILH
 70
     0
  9
$DIMSCALE
 40
1.0
  9
$DIMASZ
 40
0.18
  9
$DIMEXO
 40
0.0625
  9
$DIMDLI
 40
0.38
  9
$DIMRND
 40
0.0
  9
$DIMDLE
 40
0.0
  9
$DIMEXE
 40
0.18
  9
$DIMTP
 40
0.0
  9
$DIMTM
 40
0.0
  9
$DIMTXT
 40
0.18
  9
$DIMCEN
 40
0.09
  9
$DIMTSZ
 40
0.0
  9
$DIMTOL
 70
     0
  9
$DIMLIM
 70
     0
  9
$DIMTIH
 70
     1
  9
$DIMTOH
 70
     1
  9
$DIMSE1
 70
     0
  9
$DIMSE2
 70
     0
  9
$DIMTAD
 70
     0
  9
$DIMZIN
 70
     0
  9
$DIMBLK
  1

  9
$DIMASO
 70
     1
  9
$DIMSHO
 70
     1
  9
$DIMPOST
  1

  9
$DIMAPOST
  1

  9
$DIMALT
 70
     0
  9
$DIMALTD
 70
     2
  9
$DIMALTF
 40
25.4
  9
$DIMLFAC
 40
1.0
  9
$DIMTOFL
 70
     0
  9
$DIMTVP
 40
0.0
  9
$DIMTIX
 70
     0
  9
$DIMSOXD
 70
     0
  9
$DIMSAH
 70
     0
  9
$DIMBLK1
  1

  9
$DIMBLK2
  1

  9
$DIMSTYLE
  2
STANDARD
  9
$DIMCLRD
 70
     0
  9
$DIMCLRE
 70
     0
  9
$DIMCLRT
 70
     0
  9
$DIMTFAC
 40
1.0
  9
$DIMGAP
 40
0.09
  9
$DIMJUST
 70
     0
  9
$DIMSD1
 70
     0
  9
$DIMSD2
 70
     0
  9
$DIMTOLJ
 70
     1
  9
$DIMTZIN
 70
     0
  9
$DIMALTZ
 70
     0
  9
$DIMALTTZ
 70
     0
  9
$DIMFIT
 70
     3
  9
$DIMUPT
 70
     0
  9
$DIMUNIT
 70
     2
  9
$DIMDEC
 70
     4
  9
$DIMTDEC
 70
     4
  9
$DIMALTU
 70
     2
  9
$DIMALTTD
 70
     2
  9
$DIMTXSTY
  7
STANDARD
  9
$DIMAUNIT
 70
     0
  9
$LUNITS
 70
     2
  9
$LUPREC
 70
     4
  9
$SKETCHINC
 40
0.1
  9
$FILLETRAD
 40
0.5
  9
$AUNITS
 70
     0
  9
$AUPREC
 70
     0
  9
$MENU
  1
.
  9
$ELEVATION
 40
0.0
  9
$PELEVATION
 40
0.0
  9
$THICKNESS
 40
0.0
  9
$LIMCHECK
 70
     0
  9
$CHAMFERA
 40
0.5
  9
$CHAMFERB
 40
0.5
  9
$CHAMFERC
 40
1.0
  9
$CHAMFERD
 40
0.0
  9
$SKPOLY
 70
     0
  9
$TDCREATE
 40
2455099.056481296
  9
$TDUPDATE
 40
2455099.056481308
  9
$TDINDWG
 40
0.0000000116
  9
$TDUSRTIMER
 40
0.0000000116
  9
$USRTIMER
 70
     1
  9
$ANGBASE
 50
0.0
  9
$ANGDIR
 70
     0
  9
$PDMODE
 70
     0
  9
$PDSIZE
 40
0.0
  9
$PLINEWID
 40
0.0
  9
$COORDS
 70
     1
  9
$SPLFRAME
 70
     0
  9
$SPLINETYPE
 70
     6
  9
$SPLINESEGS
 70
     8
  9
$ATTDIA
 70
     0
  9
$ATTREQ
 70
     1
  9
$HANDLING
 70
     1
  9
$HANDSEED
  5
32C
  9
$SURFTAB1
 70
     6
  9
$SURFTAB2
 70
     6
  9
$SURFTYPE
 70
     6
  9
$SURFU
 70
     6
  9
$SURFV
 70
     6
  9
$UCSNAME
  2

  9
$UCSORG
 10
0.0
 20
0.0
 30
0.0
  9
$UCSXDIR
 10
1.0
 20
0.0
 30
0.0
  9
$UCSYDIR
 10
0.0
 20
1.0
 30
0.0
  9
$PUCSNAME
  2

  9
$PUCSORG
 10
0.0
 20
0.0
 30
0.0
  9
$PUCSXDIR
 10
1.0
 20
0.0
 30
0.0
  9
$PUCSYDIR
 10
0.0
 20
1.0
 30
0.0
  9
$USERI1
 70
     0
  9
$USERI2
 70
     0
  9
$USERI3
 70
     0
  9
$USERI4
 70
     0
  9
$USERI5
 70
     0
  9
$USERR1
 40
0.0
  9
$USERR2
 40
0.0
  9
$USERR3
 40
0.0
  9
$USERR4
 40
0.0
  9
$USERR5
 40
0.0
  9
$WORLDVIEW
 70
     1
  9
$SHADEDGE
 70
     3
  9
$SHADEDIF
 70
    70
  9
$TILEMODE
 70
     1
  9
$MAXACTVP
 70
    64
  9
$PINSBASE
 10
0.0
 20
0.0
 30
0.0
  9
$PLIMCHECK
 70
     0
  9
$PEXTMIN
 10
1.000000000000000E+20
 20
1.000000000000000E+20
 30
1.000000000000000E+20
  9
$PEXTMAX
 10
-1.000000000000000E+20
 20
-1.000000000000000E+20
 30
-1.000000000000000E+20
  9
$PLIMMIN
 10
0.0
 20
0.0
  9
$PLIMMAX
 10
12.0
 20
9.0
  9
$UNITMODE
 70
     0
  9
$VISRETAIN
 70
     1
  9
$PLINEGEN
 70
     0
  9
$PSLTSCALE
 70
     1
  9
$TREEDEPTH
 70
  3020
  9
$PICKSTYLE
 70
     1
  9
$CMLSTYLE
  2
STANDARD
  9
$CMLJUST
 70
     0
  9
$CMLSCALE
 40
1.0
  9
$PROXYGRAPHICS
 70
     1
  9
$MEASUREMENT
 70
     0
  0
ENDSEC
  0
SECTION
  2
CLASSES
  0
CLASS
  1
ACDBDICTIONARYWDFLT
  2
AcDbDictionaryWithDefault
  3
ObjectDBX Classes
 90
        0
280
     0
281
     0
  0
CLASS
  1
VISUALSTYLE
  2
AcDbVisualStyle
  3
ObjectDBX Classes
 90
     4095
280
     0
281
     0
  0
CLASS
  1
XRECORD
  2
AcDbXrecord
  3
AutoCAD 2000
 90
        0
280
     0
281
     0
  0
CLASS
  1
LWPOLYLINE
  2
AcDbPolyline
  3
AutoCAD 2000
 90
        0
280
     0
281
     1
  0
CLASS
  1
HATCH
  2
AcDbHatch
  3
AutoCAD 2000
 90
        0
280
     0
281
     1
  0
CLASS
  1
ACDBPLACEHOLDER
  2
AcDbPlaceHolder
  3
ObjectDBX Classes
 90
        0
280
     0
281
     0
  0
CLASS
  1
LAYOUT
  2
AcDbLayout
  3
ObjectDBX Classes
 90
        0
280
     0
281
     0
  0
ENDSEC
  0
SECTION
  2
TABLES
  0
TABLE
  2
VPORT
  5
8
330
0
100
AcDbSymbolTable
 70
     1
  0
VPORT
  5
29
330
8
100
AcDbSymbolTableRecord
100
AcDbViewportTableRecord
  2
*ACTIVE
 70
     0
 10
0.0
 20
0.0
 11
1.0
 21
1.0
 12
0.0
 22
0.0
 13
0.0
 23
0.0
 14
0.5
 24
0.5
 15
0.5
 25
0.5
 16
0.0
 26
0.0
 36
1.0
 17
0.0
 27
0.0
 37
-1000.0
 40
12.36831052396237
 41
2.030075187969925
 42
50.0
 43
19.61363468590664
 44
25.42750178405816
 50
0.0
 51
0.0
 71
     0
 72
   100
 73
     1
 74
     3
 75
     0
 76
     0
 77
     0
 78
     0
  0
ENDTAB
  0
TABLE
  2
LTYPE
  5
5
330
0
100
AcDbSymbolTable
 70
     1
  0
LTYPE
  5
14
330
5
100
AcDbSymbolTableRecord
100
AcDbLinetypeTableRecord
  2
BYBLOCK
 70
     0
  3

 72
    65
 73
     0
 40
0.0
  0
LTYPE
  5
15
330
5
100
AcDbSymbolTableRecord
100
AcDbLinetypeTableRecord
  2
BYLAYER
 70
     0
  3

 72
    65
 73
     0
 40
0.0
  0
LTYPE
  5
16
330
5
100
AcDbSymbolTableRecord
100
AcDbLinetypeTableRecord
  2
CONTINUOUS
 70
     0
  3
Solid line
 72
    65
 73
     0
 40
0.0
  0
ENDTAB
  0
TABLE
  2
LAYER
  5
2
330
0
100
AcDbSymbolTable
 70
     3
  0
LAYER
  5
10
330
2
100
AcDbSymbolTableRecord
100
AcDbLayerTableRecord
  2
0
 70
     0
 62
     7
  6
CONTINUOUS
  0
LAYER
  5
3B
330
2
100
AcDbSymbolTableRecord
100
AcDbLayerTableRecord
  2
PROFILEEDGES
 70
     0
 62
     7
  6
CONTINUOUS
  0
LAYER
  5
3C
330
2
100
AcDbSymbolTableRecord
100
AcDbLayerTableRecord
  2
SECTIONCUTEDGES
 70
     0
 62
     7
  6
CONTINUOUS
  0
ENDTAB
  0
TABLE
  2
STYLE
  5
3
330
0
100
AcDbSymbolTable
 70
     2
  0
STYLE
  5
11
330
3
100
AcDbSymbolTableRecord
100
AcDbTextStyleTableRecord
  2
STANDARD
 70
     0
 40
0.0
 41
1.0
 50
0.0
 71
     0
 42
0.2
  3
txt
  4

  0
STYLE
  5
307
330
3
100
AcDbSymbolTableRecord
100
AcDbTextStyleTableRecord
  2
TAHOMA
 70
     0
 40
0.2
 41
1.0
 50
0.0
 71
     0
 42
0.2
  3
Tahoma
  4

1001
ACAD
1000
Tahoma
1071
       34
  0
ENDTAB
  0
TABLE
  2
VIEW
  5
6
330
0
100
AcDbSymbolTable
 70
     0
  0
ENDTAB
  0
TABLE
  2
UCS
  5
7
330
0
100
AcDbSymbolTable
 70
     0
  0
ENDTAB
  0
TABLE
  2
APPID
  5
9
330
0
100
AcDbSymbolTable
 70
     1
  0
APPID
  5
12
330
9
100
AcDbSymbolTableRecord
100
AcDbRegAppTableRecord
  2
ACAD
 70
     0
  0
ENDTAB
  0
TABLE
  2
DIMSTYLE
  5
A
330
0
100
AcDbSymbolTable
 70
     1
  0
DIMSTYLE
105
27
330
A
100
AcDbSymbolTableRecord
100
AcDbDimStyleTableRecord
  2
STANDARD
 70
     0
  3

  4

  5

  6

  7

 40
1.0
 41
0.18
 42
0.0625
 43
0.38
 44
0.18
 45
0.0
 46
0.0
 47
0.0
 48
0.0
140
0.18
141
0.09
142
0.0
143
25.4
144
1.0
145
0.0
146
1.0
147
0.09
 71
     0
 72
     0
 73
     1
 74
     1
 75
     0
 76
     0
 77
     0
 78
     0
170
     0
171
     2
172
     0
173
     0
174
     0
175
     0
176
     0
177
     0
178
     0
270
     2
271
     4
272
     4
273
     2
274
     2
340
11
275
     0
280
     0
281
     0
282
     0
283
     1
284
     0
285
     0
286
     0
287
     3
288
     0
  0
ENDTAB
  0
TABLE
  2
BLOCK_RECORD
  5
1
330
0
100
AcDbSymbolTable
 70
     1
  0
BLOCK_RECORD
  5
1F
330
1
100
AcDbSymbolTableRecord
100
AcDbBlockTableRecord
  2
*MODEL_SPACE
  0
BLOCK_RECORD
  5
1B
330
1
100
AcDbSymbolTableRecord
100
AcDbBlockTableRecord
  2
*PAPER_SPACE
  0
ENDTAB
  0
ENDSEC
  0
SECTION
  2
BLOCKS
  0
BLOCK
  5
20
330
1F
100
AcDbEntity
  8
0
100
AcDbBlockBegin
  2
*MODEL_SPACE
 70
     0
 10
0.0
 20
0.0
 30
0.0
  3
*MODEL_SPACE
  1

  0
ENDBLK
  5
21
330
1F
100
AcDbEntity
  8
0
100
AcDbBlockEnd
  0
BLOCK
  5
1C
330
1B
100
AcDbEntity
 67
     1
  8
0
100
AcDbBlockBegin
  2
*PAPER_SPACE
 70
     0
 10
0.0
 20
0.0
 30
0.0
  3
*PAPER_SPACE
  1

  0
ENDBLK
  5
1D
330
1B
100
AcDbEntity
 67
     1
  8
0
100
AcDbBlockEnd
  0
ENDSEC
  0
SECTION
  2
ENTITIES
  0
LINE
  5
3D
330
1F
100
AcDbEntity
  8
0
100
AcDbLine
 10
3.768322165613129
 20
1.348557710979638
 30
0.0
 11
2.919122451914485
 21
1.34855771097964
 31
0.0
  0
LINE
  5
3E
330
1F
100
AcDbEntity
  8
0
100
AcDbLine
 10
3.768322165613129
 20
1.348557710979638
 30
0.0
 11
3.768402456341652
 21
1.207050760096306
 31
0.0
  0
LINE
  5
3F
330
1F
100
AcDbEntity
  8
0
100
AcDbLine
 10
3.76928594448943
 20
-0.3500370411551937
 30
0.0
 11
3.769205616109167
 21
-0.2084637316288495
 31
0.0
  0
LINE
  5
40
330
1F
100
AcDbEntity
  8
0
100
AcDbLine
 10
2.352989309448722
 20
1.348557710979638
 30
0.0
 11
1.503789595750078
 21
1.348557710979636
 31
0.0
  0
LINE
  5
41
330
1F
100
AcDbEntity
  8
0
100
AcDbLine
 10
2.352989309448722
 20
1.348557710979638
 30
0.0
 11
2.353039444022561
 21
1.207050760096308
 31
0.0
  0
LINE
  5
42
330
1F
100
AcDbEntity
  8
0
100
AcDbLine
 10
2.353039444022561
 20
1.207050760096308
 30
0.0
 11
2.919184648950193
 21
1.207050760096308
 31
0.0
  0
LINE
  5
43
330
1F
100
AcDbEntity
  8
0
100
AcDbLine
 10
2.919184648950193
 20
1.207050760096308
 30
0.0
 11
2.919122451914485
 21
1.34855771097964
 31
0.0
  0
LINE
  5
44
330
1F
100
AcDbEntity
  8
0
100
AcDbLine
 10
2.91986904109472
 20
-0.3500370411551957
 30
0.0
 11
3.76928594448943
 21
-0.3500370411551937
 31
0.0
  0
LINE
  5
45
330
1F
100
AcDbEntity
  8
0
100
AcDbLine
 10
2.91986904109472
 20
-0.3500370411551957
 30
0.0
 11
2.919806814892171
 21
-0.2084637316288495
 31
0.0
  0
LINE
  5
46
330
1F
100
AcDbEntity
  8
0
100
AcDbLine
 10
2.919806814892171
 20
-0.2084637316288495
 30
0.0
 11
2.353540947414173
 21
-0.2084637316288495
 31
0.0
  0
LINE
  5
47
330
1F
100
AcDbEntity
  8
0
100
AcDbLine
 10
2.353540947414173
 20
-0.2084637316288495
 30
0.0
 11
2.35359110549825
 21
-0.3500370411551917
 31
0.0
  0
LINE
  5
48
330
1F
100
AcDbEntity
  8
0
100
AcDbLine
 10
-1.185368086775162
 20
1.207050760096306
 30
0.0
 11
-2.600731099094257
 21
1.207050760096306
 31
0.0
  0
LINE
  5
49
330
1F
100
AcDbEntity
  8
0
100
AcDbLine
 10
-1.185368086775162
 20
1.207050760096306
 30
0.0
 11
-1.185342830962293
 21
1.348557710979636
 31
0.0
  0
LINE
  5
4A
330
1F
100
AcDbEntity
  8
0
100
AcDbLine
 10
-1.185342830962293
 20
1.348557710979636
 30
0.0
 11
-0.3361431172636483
 21
1.34855771097964
 31
0.0
  0
LINE
  5
4B
330
1F
100
AcDbEntity
  8
0
100
AcDbLine
 10
-0.3361431172636483
 20
1.34855771097964
 30
0.0
 11
-0.3361502793837076
 21
1.207050760096308
 31
0.0
  0
LINE
  5
4C
330
1F
100
AcDbEntity
  8
0
100
AcDbLine
 10
-0.3362219231063109
 20
-0.2084637316288475
 30
0.0
 11
-0.3362290885849978
 21
-0.3500370411551937
 31
0.0
  0
LINE
  5
4D
330
1F
100
AcDbEntity
  8
0
100
AcDbLine
 10
-0.3362290885849978
 20
-0.3500370411551937
 30
0.0
 11
-1.185645991979704
 21
-0.3500370411551937
 31
0.0
  0
LINE
  5
4E
330
1F
100
AcDbEntity
  8
0
100
AcDbLine
 10
-1.185645991979704
 20
-0.3500370411551937
 30
0.0
 11
-1.185620724323307
 21
-0.2084637316288475
 31
0.0
  0
LINE
  5
4F
330
1F
100
AcDbEntity
  8
0
100
AcDbLine
 10
-3.449948906485709
 20
1.207050760096308
 30
0.0
 11
-4.865311918804802
 21
1.207050760096306
 31
0.0
  0
LINE
  5
50
330
1F
100
AcDbEntity
  8
0
100
AcDbLine
 10
-3.449948906485709
 20
1.207050760096308
 30
0.0
 11
-3.449875400825346
 21
1.348557710979638
 31
0.0
  0
LINE
  5
51
330
1F
100
AcDbEntity
  8
0
100
AcDbLine
 10
-3.449875400825346
 20
1.348557710979638
 30
0.0
 11
-2.600675687126704
 21
1.348557710979636
 31
0.0
  0
LINE
  5
52
330
1F
100
AcDbEntity
  8
0
100
AcDbLine
 10
-2.600675687126704
 20
1.348557710979636
 30
0.0
 11
-2.600731099094257
 21
1.207050760096306
 31
0.0
  0
LINE
  5
53
330
1F
100
AcDbEntity
  8
0
100
AcDbLine
 10
-2.601285393018303
 20
-0.2084637316288515
 30
0.0
 11
-1.185620724323307
 21
-0.2084637316288475
 31
0.0
  0
LINE
  5
54
330
1F
100
AcDbEntity
  8
0
100
AcDbLine
 10
-2.601285393018303
 20
-0.2084637316288515
 30
0.0
 11
-2.601340830970889
 21
-0.3500370411551917
 31
0.0
  0
LINE
  5
55
330
1F
100
AcDbEntity
  8
0
100
AcDbLine
 10
-2.601340830970889
 20
-0.3500370411551917
 30
0.0
 11
-3.450757734365599
 21
-0.3500370411551937
 31
0.0
  0
LINE
  5
56
330
1F
100
AcDbEntity
  8
0
100
AcDbLine
 10
-3.450757734365599
 20
-0.3500370411551937
 30
0.0
 11
-3.450684194235301
 21
-0.2084637316288515
 31
0.0
  0
LINE
  5
57
330
1F
100
AcDbEntity
  8
0
100
AcDbLine
 10
-5.714529726196255
 20
1.207050760096306
 30
0.0
 11
-6.139138629891982
 21
1.207050760096308
 31
0.0
  0
LINE
  5
58
330
1F
100
AcDbEntity
  8
0
100
AcDbLine
 10
-5.714529726196255
 20
1.207050760096306
 30
0.0
 11
-5.714407970688399
 21
1.348557710979638
 31
0.0
  0
LINE
  5
59
330
1F
100
AcDbEntity
  8
0
100
AcDbLine
 10
-5.714407970688399
 20
1.348557710979638
 30
0.0
 11
-4.865208256989756
 21
1.348557710979636
 31
0.0
  0
LINE
  5
5A
330
1F
100
AcDbEntity
  8
0
100
AcDbLine
 10
-4.865208256989756
 20
1.348557710979636
 30
0.0
 11
-4.865311918804802
 21
1.207050760096306
 31
0.0
  0
LINE
  5
5B
330
1F
100
AcDbEntity
  8
0
100
AcDbLine
 10
-4.866348862930293
 20
-0.2084637316288515
 30
0.0
 11
-3.450684194235301
 21
-0.2084637316288515
 31
0.0
  0
LINE
  5
5C
330
1F
100
AcDbEntity
  8
0
100
AcDbLine
 10
-4.866348862930293
 20
-0.2084637316288515
 30
0.0
 11
-4.866452573356782
 21
-0.3500370411551917
 31
0.0
  0
LINE
  5
5D
330
1F
100
AcDbEntity
  8
0
100
AcDbLine
 10
-4.866452573356782
 20
-0.3500370411551917
 30
0.0
 11
-5.715869476751492
 21
-0.3500370411551937
 31
0.0
  0
LINE
  5
5E
330
1F
100
AcDbEntity
  8
0
100
AcDbLine
 10
-5.715869476751492
 20
-0.3500370411551937
 30
0.0
 11
-5.715747664147289
 21
-0.2084637316288495
 31
0.0
  0
LINE
  5
5F
330
1F
100
AcDbEntity
  8
0
100
AcDbLine
 10
-8.971967606431216
 20
-0.3500370411551937
 30
0.0
 11
-8.969673539866536
 21
1.348557710979638
 31
0.0
  0
LINE
  5
60
330
1F
100
AcDbEntity
  8
0
100
AcDbLine
 10
-8.969673539866536
 20
1.348557710979638
 30
0.0
 11
-6.139007827537721
 21
1.348557710979636
 31
0.0
  0
LINE
  5
61
330
1F
100
AcDbEntity
  8
0
100
AcDbLine
 10
-6.139007827537721
 20
1.348557710979636
 30
0.0
 11
-6.139138629891982
 21
1.207050760096308
 31
0.0
  0
LINE
  5
62
330
1F
100
AcDbEntity
  8
0
100
AcDbLine
 10
-6.140447064755786
 20
-0.2084637316288515
 30
0.0
 11
-5.715747664147289
 21
-0.2084637316288495
 31
0.0
  0
LINE
  5
63
330
1F
100
AcDbEntity
  8
0
100
AcDbLine
 10
-6.140447064755786
 20
-0.2084637316288515
 30
0.0
 11
-6.140577928448847
 21
-0.3500370411551937
 31
0.0
  0
LINE
  5
64
330
1F
100
AcDbEntity
  8
0
100
AcDbLine
 10
-6.140577928448847
 20
-0.3500370411551937
 30
0.0
 11
-8.971967606431216
 21
-0.3500370411551937
 31
0.0
  0
LINE
  5
65
330
1F
100
AcDbEntity
  8
0
100
AcDbLine
 10
2.042390235501609
 20
1.006454477552924
 30
0.0
 11
2.049465483217282
 21
0.9893886485100296
 31
0.0
  0
LINE
  5
66
330
1F
100
AcDbEntity
  8
0
100
AcDbLine
 10
3.230504159380871
 20
-0.0444331331400817
 30
0.0
 11
3.232907064251838
 21
-0.0261135444571573
 31
0.0
  0
LINE
  5
67
330
1F
100
AcDbEntity
  8
0
100
AcDbLine
 10
3.100843898500831
 20
-0.0615043630788385
 30
0.0
 11
3.112099291416858
 21
-0.0761638305868231
 31
0.0
  0
LINE
  5
68
330
1F
100
AcDbEntity
  8
0
100
AcDbLine
 10
2.075377366039741
 20
0.9634887287671576
 30
0.0
 11
2.092448149130701
 21
0.9564197501061571
 31
0.0
  0
LINE
  5
69
330
1F
100
AcDbEntity
  8
0
100
AcDbLine
 10
2.060685728007098
 20
1.074801968082556
 30
0.0
 11
2.049443649001785
 21
1.060147515383077
 31
0.0
  0
LINE
  5
6A
330
1F
100
AcDbEntity
  8
0
100
AcDbLine
 10
2.572372252247393
 20
0.2601051022949598
 30
0.0
 11
2.636491250753834
 21
0.2516644736432085
 31
0.0
  0
LINE
  5
6B
330
1F
100
AcDbEntity
  8
0
100
AcDbLine
 10
3.23239562175168
 20
1.024768270406985
 30
0.0
 11
3.229975283065778
 21
1.043081962265399
 31
0.0
  0
LINE
  5
6C
330
1F
100
AcDbEntity
  8
0
100
AcDbLine
 10
2.110720777406947
 20
1.095526383444342
 30
0.0
 11
2.092405084244198
 21
1.093115384020015
 31
0.0
  0
LINE
  5
6D
330
1F
100
AcDbEntity
  8
0
100
AcDbLine
 10
3.229975283065778
 20
1.043081962265399
 30
0.0
 11
3.22289705928791
 21
1.060147515383079
 31
0.0
  0
LINE
  5
6E
330
1F
100
AcDbEntity
  8
0
100
AcDbLine
 10
2.388678014610748
 20
0.4993689283623998
 30
0.0
 11
2.397141831981081
 21
0.4352600699099287
 31
0.0
  0
LINE
  5
6F
330
1F
100
AcDbEntity
  8
0
100
AcDbLine
 10
2.421820365088427
 20
0.6232142280282839
 30
0.0
 11
2.397095560067428
 21
0.5634765493246573
 31
0.0
  0
LINE
  5
70
330
1F
100
AcDbEntity
  8
0
100
AcDbLine
 10
3.162159467762508
 20
-0.0968955588063452
 30
0.0
 11
3.180478054209092
 21
-0.0944836953302166
 31
0.0
  0
LINE
  5
71
330
1F
100
AcDbEntity
  8
0
100
AcDbLine
 10
3.111560075990285
 20
1.074801968082554
 30
0.0
 11
3.100320315671795
 21
1.060147515383079
 31
0.0
  0
LINE
  5
72
330
1F
100
AcDbEntity
  8
0
100
AcDbLine
 10
2.042378972269046
 20
1.043081962265401
 30
0.0
 11
2.039973171430726
 21
1.024768270406985
 31
0.0
  0
LINE
  5
73
330
1F
100
AcDbEntity
  8
0
100
AcDbLine
 10
3.126211638875989
 20
1.086046681284235
 30
0.0
 11
3.111560075990285
 21
1.074801968082554
 31
0.0
  0
LINE
  5
74
330
1F
100
AcDbEntity
  8
0
100
AcDbLine
 10
3.143341228027586
 20
0.9564197501061591
 30
0.0
 11
3.1616592121282
 21
0.9540086496861939
 31
0.0
  0
LINE
  5
75
330
1F
100
AcDbEntity
  8
0
100
AcDbLine
 10
3.21164334722678
 20
1.074801968082554
 30
0.0
 11
3.196981078834161
 21
1.086046681284239
 31
0.0
  0
LINE
  5
76
330
1F
100
AcDbEntity
  8
0
100
AcDbLine
 10
2.039973171430726
 20
1.024768270406985
 30
0.0
 11
2.042390235501609
 21
1.006454477552924
 31
0.0
  0
LINE
  5
77
330
1F
100
AcDbEntity
  8
0
100
AcDbLine
 10
3.143276534604587
 20
1.093115384020013
 30
0.0
 11
3.126211638875989
 21
1.086046681284235
 31
0.0
  0
LINE
  5
78
330
1F
100
AcDbEntity
  8
0
100
AcDbLine
 10
3.197545925384017
 20
-0.0874124795065385
 30
0.0
 11
3.212199906507393
 21
-0.0761638305868251
 31
0.0
  0
LINE
  5
79
330
1F
100
AcDbEntity
  8
0
100
AcDbLine
 10
3.180478054209092
 20
-0.0944836953302166
 30
0.0
 11
3.197545925384017
 21
-0.0874124795065385
 31
0.0
  0
LINE
  5
7A
330
1F
100
AcDbEntity
  8
0
100
AcDbLine
 10
3.22289705928791
 20
1.060147515383079
 30
0.0
 11
3.21164334722678
 21
1.074801968082554
 31
0.0
  0
LINE
  5
7B
330
1F
100
AcDbEntity
  8
0
100
AcDbLine
 10
3.143838585106074
 20
-0.0944836953302207
 30
0.0
 11
3.162159467762508
 21
-0.0968955588063452
 31
0.0
  0
LINE
  5
7C
330
1F
100
AcDbEntity
  8
0
100
AcDbLine
 10
2.572186944471968
 20
0.7386155184145958
 30
0.0
 11
2.512454335089454
 21
0.7138723518781576
 31
0.0
  0
LINE
  5
7D
330
1F
100
AcDbEntity
  8
0
100
AcDbLine
 10
3.126706275959346
 20
0.0351842592928131
 30
0.0
 11
3.112052395700098
 21
0.023935987472898
 31
0.0
  0
LINE
  5
7E
330
1F
100
AcDbEntity
  8
0
100
AcDbLine
 10
3.196981078834161
 20
1.086046681284239
 30
0.0
 11
3.17990945336113
 21
1.093115384020013
 31
0.0
  0
LINE
  5
7F
330
1F
100
AcDbEntity
  8
0
100
AcDbLine
 10
2.060716775699711
 20
0.974733818889692
 30
0.0
 11
2.075377366039741
 21
0.9634887287671576
 31
0.0
  0
LINE
  5
80
330
1F
100
AcDbEntity
  8
0
100
AcDbLine
 10
2.461167137189881
 20
0.6745112781558195
 30
0.0
 11
2.421820365088427
 21
0.6232142280282839
 31
0.0
  0
LINE
  5
81
330
1F
100
AcDbEntity
  8
0
100
AcDbLine
 10
3.161591846289245
 20
1.095526383444338
 30
0.0
 11
3.143276534604587
 21
1.093115384020013
 31
0.0
  0
LINE
  5
82
330
1F
100
AcDbEntity
  8
0
100
AcDbLine
 10
2.461296935564093
 20
0.3242173418162541
 30
0.0
 11
2.51261661864921
 21
0.2848516497175512
 31
0.0
  0
LINE
  5
83
330
1F
100
AcDbEntity
  8
0
100
AcDbLine
 10
2.049465483217282
 20
0.9893886485100296
 30
0.0
 11
2.060716775699711
 21
0.974733818889692
 31
0.0
  0
LINE
  5
84
330
1F
100
AcDbEntity
  8
0
100
AcDbLine
 10
2.049443649001785
 20
1.060147515383077
 30
0.0
 11
2.042378972269046
 21
1.043081962265401
 31
0.0
  0
LINE
  5
85
330
1F
100
AcDbEntity
  8
0
100
AcDbLine
 10
3.093764829395769
 20
-0.0444331331400837
 30
0.0
 11
3.100843898500831
 21
-0.0615043630788385
 31
0.0
  0
LINE
  5
86
330
1F
100
AcDbEntity
  8
0
100
AcDbLine
 10
2.092448149130701
 20
0.9564197501061571
 30
0.0
 11
2.110765751737247
 21
0.9540086496861979
 31
0.0
  0
LINE
  5
87
330
1F
100
AcDbEntity
  8
0
100
AcDbLine
 10
2.07533907007684
 20
1.086046681284239
 30
0.0
 11
2.060685728007098
 21
1.074801968082556
 31
0.0
  0
LINE
  5
88
330
1F
100
AcDbEntity
  8
0
100
AcDbLine
 10
3.211691736029637
 20
0.974733818889696
 30
0.0
 11
3.222931395157037
 21
0.9893886485100296
 31
0.0
  0
LINE
  5
89
330
1F
100
AcDbEntity
  8
0
100
AcDbLine
 10
2.512454335089454
 20
0.7138723518781576
 30
0.0
 11
2.461167137189881
 21
0.6745112781558195
 31
0.0
  0
LINE
  5
8A
330
1F
100
AcDbEntity
  8
0
100
AcDbLine
 10
3.223441342906437
 20
-0.0615043630788385
 30
0.0
 11
3.230504159380871
 21
-0.0444331331400817
 31
0.0
  0
LINE
  5
8B
330
1F
100
AcDbEntity
  8
0
100
AcDbLine
 10
3.093258339119945
 20
1.043081962265403
 30
0.0
 11
3.09085543594808
 21
1.024768270406983
 31
0.0
  0
LINE
  5
8C
330
1F
100
AcDbEntity
  8
0
100
AcDbLine
 10
3.126763981794134
 20
-0.0874124795065405
 30
0.0
 11
3.143838585106074
 21
-0.0944836953302207
 31
0.0
  0
LINE
  5
8D
330
1F
100
AcDbEntity
  8
0
100
AcDbLine
 10
3.112052395700098
 20
0.023935987472898
 30
0.0
 11
3.100810858077915
 21
0.0092768970647156
 31
0.0
  0
LINE
  5
8E
330
1F
100
AcDbEntity
  8
0
100
AcDbLine
 10
2.397141831981081
 20
0.4352600699099287
 30
0.0
 11
2.421910678390212
 21
0.3755190103201554
 31
0.0
  0
LINE
  5
8F
330
1F
100
AcDbEntity
  8
0
100
AcDbLine
 10
2.092405084244198
 20
1.093115384020015
 30
0.0
 11
2.07533907007684
 21
1.086046681284239
 31
0.0
  0
LINE
  5
90
330
1F
100
AcDbEntity
  8
0
100
AcDbLine
 10
3.17990945336113
 20
1.093115384020013
 30
0.0
 11
3.161591846289245
 21
1.095526383444338
 31
0.0
  0
LINE
  5
91
330
1F
100
AcDbEntity
  8
0
100
AcDbLine
 10
3.212199906507393
 20
-0.0761638305868251
 30
0.0
 11
3.223441342906437
 21
-0.0615043630788385
 31
0.0
  0
LINE
  5
92
330
1F
100
AcDbEntity
  8
0
100
AcDbLine
 10
2.636294624352524
 20
0.7470549095761301
 30
0.0
 11
2.572186944471968
 21
0.7386155184145958
 31
0.0
  0
LINE
  5
93
330
1F
100
AcDbEntity
  8
0
100
AcDbLine
 10
2.421910678390212
 20
0.3755190103201554
 30
0.0
 11
2.461296935564093
 21
0.3242173418162541
 31
0.0
  0
LINE
  5
94
330
1F
100
AcDbEntity
  8
0
100
AcDbLine
 10
3.1616592121282
 20
0.9540086496861939
 30
0.0
 11
3.179974900745447
 21
0.9564197501061611
 31
0.0
  0
LINE
  5
95
330
1F
100
AcDbEntity
  8
0
100
AcDbLine
 10
3.100320315671795
 20
1.060147515383079
 30
0.0
 11
3.093258339119945
 21
1.043081962265403
 31
0.0
  0
LINE
  5
96
330
1F
100
AcDbEntity
  8
0
100
AcDbLine
 10
3.100353345641618
 20
0.9893886485100316
 30
0.0
 11
3.111606956870512
 21
0.974733818889694
 31
0.0
  0
LINE
  5
97
330
1F
100
AcDbEntity
  8
0
100
AcDbLine
 10
2.51261661864921
 20
0.2848516497175512
 30
0.0
 11
2.572372252247393
 21
0.2601051022949598
 31
0.0
  0
LINE
  5
98
330
1F
100
AcDbEntity
  8
0
100
AcDbLine
 10
3.091344483396712
 20
-0.0261135444571613
 30
0.0
 11
3.093764829395769
 21
-0.0444331331400837
 31
0.0
  0
LINE
  5
99
330
1F
100
AcDbEntity
  8
0
100
AcDbLine
 10
2.760161254725289
 20
0.7138723518781556
 30
0.0
 11
2.700409003624085
 21
0.7386155184145978
 31
0.0
  0
LINE
  5
9A
330
1F
100
AcDbEntity
  8
0
100
AcDbLine
 10
3.112099291416858
 20
-0.0761638305868231
 30
0.0
 11
3.126763981794134
 21
-0.0874124795065405
 31
0.0
  0
LINE
  5
9B
330
1F
100
AcDbEntity
  8
0
100
AcDbLine
 10
3.100810858077915
 20
0.0092768970647156
 30
0.0
 11
3.093747765415737
 21
-0.0077940568178279
 31
0.0
  0
LINE
  5
9C
330
1F
100
AcDbEntity
  8
0
100
AcDbLine
 10
2.397095560067428
 20
0.5634765493246573
 30
0.0
 11
2.388678014610748
 21
0.4993689283623998
 31
0.0
  0
LINE
  5
9D
330
1F
100
AcDbEntity
  8
0
100
AcDbLine
 10
2.760339538082587
 20
0.2848516497175512
 30
0.0
 11
2.811627971737719
 21
0.3242173418162521
 31
0.0
  0
LINE
  5
9E
330
1F
100
AcDbEntity
  8
0
100
AcDbLine
 10
2.042702124707482
 20
-0.0077940568178299
 30
0.0
 11
2.040295944104968
 21
-0.0261135444571654
 31
0.0
  0
LINE
  5
9F
330
1F
100
AcDbEntity
  8
0
100
AcDbLine
 10
2.049789759530517
 20
-0.0615043630788426
 30
0.0
 11
2.061042832966254
 21
-0.0761638305868231
 31
0.0
  0
LINE
  5
A0
330
1F
100
AcDbEntity
  8
0
100
AcDbLine
 10
2.040295944104968
 20
-0.0261135444571654
 30
0.0
 11
2.042713391504555
 21
-0.0444331331400877
 31
0.0
  0
LINE
  5
A1
330
1F
100
AcDbEntity
  8
0
100
AcDbLine
 10
2.049767918405082
 20
0.0092768970647116
 30
0.0
 11
2.042702124707482
 21
-0.0077940568178299
 31
0.0
  0
LINE
  5
A2
330
1F
100
AcDbEntity
  8
0
100
AcDbLine
 10
2.092736149496945
 20
0.0422551990602759
 30
0.0
 11
2.075667435454228
 21
0.0351842592928131
 31
0.0
  0
LINE
  5
A3
330
1F
100
AcDbEntity
  8
0
100
AcDbLine
 10
2.06101177544788
 20
0.023935987472894
 30
0.0
 11
2.049767918405082
 21
0.0092768970647116
 31
0.0
  0
LINE
  5
A4
330
1F
100
AcDbEntity
  8
0
100
AcDbLine
 10
2.061042832966254
 20
-0.0761638305868231
 30
0.0
 11
2.075705743536771
 21
-0.0874124795065405
 31
0.0
  0
LINE
  5
A5
330
1F
100
AcDbEntity
  8
0
100
AcDbLine
 10
2.111054740490485
 20
0.0446669614928175
 30
0.0
 11
2.092736149496945
 21
0.0422551990602759
 31
0.0
  0
LINE
  5
A6
330
1F
100
AcDbEntity
  8
0
100
AcDbLine
 10
2.092779228012318
 20
-0.0944836953302247
 30
0.0
 11
2.111099729053946
 21
-0.0968955588063533
 31
0.0
  0
LINE
  5
A7
330
1F
100
AcDbEntity
  8
0
100
AcDbLine
 10
2.181858524960094
 20
-0.0261135444571654
 30
0.0
 11
2.17944070049266
 21
-0.0077940568178319
 31
0.0
  0
LINE
  5
A8
330
1F
100
AcDbEntity
  8
0
100
AcDbLine
 10
2.075667435454228
 20
0.0351842592928131
 30
0.0
 11
2.06101177544788
 21
0.023935987472894
 31
0.0
  0
LINE
  5
A9
330
1F
100
AcDbEntity
  8
0
100
AcDbLine
 10
2.075705743536771
 20
-0.0874124795065405
 30
0.0
 11
2.092779228012318
 21
-0.0944836953302247
 31
0.0
  0
LINE
  5
AA
330
1F
100
AcDbEntity
  8
0
100
AcDbLine
 10
2.042713391504555
 20
-0.0444331331400877
 30
0.0
 11
2.049789759530517
 21
-0.0615043630788426
 31
0.0
  0
LINE
  5
AB
330
1F
100
AcDbEntity
  8
0
100
AcDbLine
 10
3.09085543594808
 20
1.024768270406983
 30
0.0
 11
3.093275397701401
 21
1.006454477552924
 31
0.0
  0
LINE
  5
AC
330
1F
100
AcDbEntity
  8
0
100
AcDbLine
 10
3.093275397701401
 20
1.006454477552924
 30
0.0
 11
3.100353345641618
 21
0.9893886485100316
 31
0.0
  0
LINE
  5
AD
330
1F
100
AcDbEntity
  8
0
100
AcDbLine
 10
3.111606956870512
 20
0.974733818889694
 30
0.0
 11
3.126269326454213
 21
0.9634887287671556
 31
0.0
  0
LINE
  5
AE
330
1F
100
AcDbEntity
  8
0
100
AcDbLine
 10
3.126269326454213
 20
0.9634887287671556
 30
0.0
 11
3.143341228027586
 21
0.9564197501061591
 31
0.0
  0
LINE
  5
AF
330
1F
100
AcDbEntity
  8
0
100
AcDbLine
 10
3.179974900745447
 20
0.9564197501061611
 30
0.0
 11
3.197040072311689
 21
0.9634887287671576
 31
0.0
  0
LINE
  5
B0
330
1F
100
AcDbEntity
  8
0
100
AcDbLine
 10
3.197040072311689
 20
0.9634887287671576
 30
0.0
 11
3.211691736029637
 21
0.974733818889696
 31
0.0
  0
LINE
  5
B1
330
1F
100
AcDbEntity
  8
0
100
AcDbLine
 10
3.222931395157037
 20
0.9893886485100296
 30
0.0
 11
3.229993095608544
 21
1.006454477552922
 31
0.0
  0
LINE
  5
B2
330
1F
100
AcDbEntity
  8
0
100
AcDbLine
 10
3.229993095608544
 20
1.006454477552922
 30
0.0
 11
3.23239562175168
 21
1.024768270406985
 31
0.0
  0
LINE
  5
B3
330
1F
100
AcDbEntity
  8
0
100
AcDbLine
 10
3.091344483396712
 20
-0.0261135444571613
 30
0.0
 11
3.093747765415737
 21
-0.0077940568178279
 31
0.0
  0
LINE
  5
B4
330
1F
100
AcDbEntity
  8
0
100
AcDbLine
 10
3.126706275959346
 20
0.0351842592928131
 30
0.0
 11
3.143773871209359
 21
0.042255199060282
 31
0.0
  0
LINE
  5
B5
330
1F
100
AcDbEntity
  8
0
100
AcDbLine
 10
3.143773871209359
 20
0.042255199060282
 30
0.0
 11
3.162092080604077
 21
0.0446669614928216
 31
0.0
  0
LINE
  5
B6
330
1F
100
AcDbEntity
  8
0
100
AcDbLine
 10
3.162092080604077
 20
0.0446669614928216
 30
0.0
 11
3.180412586112446
 21
0.04225519906028
 31
0.0
  0
LINE
  5
B7
330
1F
100
AcDbEntity
  8
0
100
AcDbLine
 10
3.180412586112446
 20
0.04225519906028
 30
0.0
 11
3.197486913236647
 21
0.0351842592928131
 31
0.0
  0
LINE
  5
B8
330
1F
100
AcDbEntity
  8
0
100
AcDbLine
 10
3.197486913236647
 20
0.0351842592928131
 30
0.0
 11
3.212151502390787
 21
0.023935987472898
 31
0.0
  0
LINE
  5
B9
330
1F
100
AcDbEntity
  8
0
100
AcDbLine
 10
3.212151502390787
 20
0.023935987472898
 30
0.0
 11
3.223406996170931
 21
0.0092768970647156
 31
0.0
  0
LINE
  5
BA
330
1F
100
AcDbEntity
  8
0
100
AcDbLine
 10
3.223406996170931
 20
0.0092768970647156
 30
0.0
 11
3.230486341200915
 21
-0.0077940568178279
 31
0.0
  0
LINE
  5
BB
330
1F
100
AcDbEntity
  8
0
100
AcDbLine
 10
3.230486341200915
 20
-0.0077940568178279
 30
0.0
 11
3.232907064251838
 21
-0.0261135444571573
 31
0.0
  0
LINE
  5
BC
330
1F
100
AcDbEntity
  8
0
100
AcDbLine
 10
2.636294624352524
 20
0.7470549095761301
 30
0.0
 11
2.700409003624085
 21
0.7386155184145978
 31
0.0
  0
LINE
  5
BD
330
1F
100
AcDbEntity
  8
0
100
AcDbLine
 10
2.760161254725289
 20
0.7138723518781556
 30
0.0
 11
2.811479698388673
 21
0.6745112781558195
 31
0.0
  0
LINE
  5
BE
330
1F
100
AcDbEntity
  8
0
100
AcDbLine
 10
2.811479698388673
 20
0.6745112781558195
 30
0.0
 11
2.850867191318119
 21
0.6232142280282859
 31
0.0
  0
LINE
  5
BF
330
1F
100
AcDbEntity
  8
0
100
AcDbLine
 10
2.850867191318119
 20
0.6232142280282859
 30
0.0
 11
2.875639417540388
 21
0.5634765493246552
 31
0.0
  0
LINE
  5
C0
330
1F
100
AcDbEntity
  8
0
100
AcDbLine
 10
2.875639417540388
 20
0.5634765493246552
 30
0.0
 11
2.884107853163255
 21
0.4993689283623998
 31
0.0
  0
LINE
  5
C1
330
1F
100
AcDbEntity
  8
0
100
AcDbLine
 10
2.884107853163255
 20
0.4993689283623998
 30
0.0
 11
2.875694926941459
 21
0.4352600699099287
 31
0.0
  0
LINE
  5
C2
330
1F
100
AcDbEntity
  8
0
100
AcDbLine
 10
2.875694926941459
 20
0.4352600699099287
 30
0.0
 11
2.850973504417431
 21
0.3755190103201554
 31
0.0
  0
LINE
  5
C3
330
1F
100
AcDbEntity
  8
0
100
AcDbLine
 10
2.850973504417431
 20
0.3755190103201554
 30
0.0
 11
2.811627971737719
 21
0.3242173418162521
 31
0.0
  0
LINE
  5
C4
330
1F
100
AcDbEntity
  8
0
100
AcDbLine
 10
2.760339538082587
 20
0.2848516497175512
 30
0.0
 11
2.700603548886926
 21
0.2601051022949578
 31
0.0
  0
LINE
  5
C5
330
1F
100
AcDbEntity
  8
0
100
AcDbLine
 10
2.700603548886926
 20
0.2601051022949578
 30
0.0
 11
2.636491250753834
 21
0.2516644736432085
 31
0.0
  0
LINE
  5
C6
330
1F
100
AcDbEntity
  8
0
100
AcDbLine
 10
2.110720777406947
 20
1.095526383444342
 30
0.0
 11
2.12903800300074
 21
1.093115384020015
 31
0.0
  0
LINE
  5
C7
330
1F
100
AcDbEntity
  8
0
100
AcDbLine
 10
2.12903800300074
 20
1.093115384020015
 30
0.0
 11
2.146108510035012
 21
1.086046681284237
 31
0.0
  0
LINE
  5
C8
330
1F
100
AcDbEntity
  8
0
100
AcDbLine
 10
2.146108510035012
 20
1.086046681284237
 30
0.0
 11
2.160768999243589
 21
1.074801968082554
 31
0.0
  0
LINE
  5
C9
330
1F
100
AcDbEntity
  8
0
100
AcDbLine
 10
2.160768999243589
 20
1.074801968082554
 30
0.0
 11
2.1720203926179
 21
1.060147515383081
 31
0.0
  0
LINE
  5
CA
330
1F
100
AcDbEntity
  8
0
100
AcDbLine
 10
2.1720203926179
 20
1.060147515383081
 30
0.0
 11
2.179095916214878
 21
1.043081962265401
 31
0.0
  0
LINE
  5
CB
330
1F
100
AcDbEntity
  8
0
100
AcDbLine
 10
2.179095916214878
 20
1.043081962265401
 30
0.0
 11
2.181513357234326
 21
1.024768270406985
 31
0.0
  0
LINE
  5
CC
330
1F
100
AcDbEntity
  8
0
100
AcDbLine
 10
2.181513357234326
 20
1.024768270406985
 30
0.0
 11
2.179107933408761
 21
1.006454477552924
 31
0.0
  0
LINE
  5
CD
330
1F
100
AcDbEntity
  8
0
100
AcDbLine
 10
2.179107933408761
 20
1.006454477552924
 30
0.0
 11
2.172043532732705
 21
0.9893886485100316
 31
0.0
  0
LINE
  5
CE
330
1F
100
AcDbEntity
  8
0
100
AcDbLine
 10
2.172043532732705
 20
0.9893886485100316
 30
0.0
 11
2.160801554858836
 21
0.974733818889694
 31
0.0
  0
LINE
  5
CF
330
1F
100
AcDbEntity
  8
0
100
AcDbLine
 10
2.160801554858836
 20
0.974733818889694
 30
0.0
 11
2.146148111897217
 21
0.9634887287671536
 31
0.0
  0
LINE
  5
D0
330
1F
100
AcDbEntity
  8
0
100
AcDbLine
 10
2.146148111897217
 20
0.9634887287671536
 30
0.0
 11
2.129081821848553
 21
0.9564197501061591
 31
0.0
  0
LINE
  5
D1
330
1F
100
AcDbEntity
  8
0
100
AcDbLine
 10
2.129081821848553
 20
0.9564197501061591
 30
0.0
 11
2.110765751737247
 21
0.9540086496861979
 31
0.0
  0
LINE
  5
D2
330
1F
100
AcDbEntity
  8
0
100
AcDbLine
 10
2.111054740490485
 20
0.0446669614928175
 30
0.0
 11
2.129374864400039
 21
0.0422551990602759
 31
0.0
  0
LINE
  5
D3
330
1F
100
AcDbEntity
  8
0
100
AcDbLine
 10
2.129374864400039
 20
0.0422551990602759
 30
0.0
 11
2.146448072731525
 21
0.0351842592928111
 31
0.0
  0
LINE
  5
D4
330
1F
100
AcDbEntity
  8
0
100
AcDbLine
 10
2.146448072731525
 20
0.0351842592928111
 30
0.0
 11
2.161110882138573
 21
0.023935987472896
 31
0.0
  0
LINE
  5
D5
330
1F
100
AcDbEntity
  8
0
100
AcDbLine
 10
2.161110882138573
 20
0.023935987472896
 30
0.0
 11
2.172364056498097
 21
0.0092768970647156
 31
0.0
  0
LINE
  5
D6
330
1F
100
AcDbEntity
  8
0
100
AcDbLine
 10
2.172364056498097
 20
0.0092768970647156
 30
0.0
 11
2.17944070049266
 21
-0.0077940568178319
 31
0.0
  0
LINE
  5
D7
330
1F
100
AcDbEntity
  8
0
100
AcDbLine
 10
2.181858524960094
 20
-0.0261135444571654
 30
0.0
 11
2.179452721489656
 21
-0.0444331331400918
 31
0.0
  0
LINE
  5
D8
330
1F
100
AcDbEntity
  8
0
100
AcDbLine
 10
2.179452721489656
 20
-0.0444331331400918
 30
0.0
 11
2.172387203936119
 21
-0.0615043630788446
 31
0.0
  0
LINE
  5
D9
330
1F
100
AcDbEntity
  8
0
100
AcDbLine
 10
2.172387203936119
 20
-0.0615043630788446
 30
0.0
 11
2.161143448056789
 21
-0.0761638305868271
 31
0.0
  0
LINE
  5
DA
330
1F
100
AcDbEntity
  8
0
100
AcDbLine
 10
2.161143448056789
 20
-0.0761638305868271
 30
0.0
 11
2.146487687126654
 21
-0.0874124795065425
 31
0.0
  0
LINE
  5
DB
330
1F
100
AcDbEntity
  8
0
100
AcDbLine
 10
2.146487687126654
 20
-0.0874124795065425
 30
0.0
 11
2.129418697115331
 21
-0.0944836953302227
 31
0.0
  0
LINE
  5
DC
330
1F
100
AcDbEntity
  8
0
100
AcDbLine
 10
2.129418697115331
 20
-0.0944836953302227
 30
0.0
 11
2.111099729053946
 21
-0.0968955588063533
 31
0.0
  0
LINE
  5
DD
330
1F
100
AcDbEntity
  8
0
100
AcDbLine
 10
4.051460729317889
 20
1.207050760096308
 30
0.0
 11
4.052338549848165
 21
-0.2084637316288495
 31
0.0
  0
LINE
  5
DE
330
1F
100
AcDbEntity
  8
0
100
AcDbLine
 10
4.593030482243432
 20
1.025030883235621
 30
0.0
 11
4.593813537890941
 21
-0.1073039135295397
 31
0.0
  0
LINE
  5
DF
330
1F
100
AcDbEntity
  8
0
100
AcDbLine
 10
4.593813537890941
 20
-0.1073039135295397
 30
0.0
 11
5.726328026535835
 21
-0.1073039135295396
 31
0.0
  0
LINE
  5
E0
330
1F
100
AcDbEntity
  8
0
100
AcDbLine
 10
5.726328026535835
 20
-0.1073039135295396
 30
0.0
 11
5.72535192390048
 21
1.025030883235621
 31
0.0
  0
LINE
  5
E1
330
1F
100
AcDbEntity
  8
0
100
AcDbLine
 10
5.72535192390048
 20
1.025030883235621
 30
0.0
 11
4.593030482243432
 21
1.025030883235621
 31
0.0
  0
LINE
  5
E2
330
1F
100
AcDbEntity
  8
0
100
AcDbLine
 10
1.50417420210354
 20
-0.3500370411551937
 30
0.0
 11
2.35359110549825
 21
-0.3500370411551917
 31
0.0
  0
LINE
  5
E3
330
1F
100
AcDbEntity
  8
0
100
AcDbLine
 10
1.50417420210354
 20
-0.3500370411551937
 30
0.0
 11
1.504142146197177
 21
-0.2084637316288515
 31
0.0
  0
LINE
  5
E4
330
1F
100
AcDbEntity
  8
0
100
AcDbLine
 10
1.503821636631106
 20
1.207050760096306
 30
0.0
 11
1.503789595750078
 21
1.348557710979636
 31
0.0
  0
LINE
  5
E5
330
1F
100
AcDbEntity
  8
0
100
AcDbLine
 10
-7.050354830518818
 20
0.5368539844422299
 30
0.0
 11
-7.057443447242449
 21
0.5197857420562189
 31
0.0
  0
LINE
  5
E6
330
1F
100
AcDbEntity
  8
0
100
AcDbLine
 10
-6.920753900567315
 20
0.4831524853929385
 30
0.0
 11
-6.918323193528752
 21
0.5014691642343365
 31
0.0
  0
LINE
  5
E7
330
1F
100
AcDbEntity
  8
0
100
AcDbLine
 10
-6.970852511644924
 20
0.43310987316042
 30
0.0
 11
-6.953775190969493
 21
0.4401799657989555
 31
0.0
  0
LINE
  5
E8
330
1F
100
AcDbEntity
  8
0
100
AcDbLine
 10
-7.057482370425118
 20
0.4831524853929385
 30
0.0
 11
-7.050429949000661
 21
0.4660839670164816
 31
0.0
  0
LINE
  5
E9
330
1F
100
AcDbEntity
  8
0
100
AcDbLine
 10
-7.039091786103127
 20
0.5515107464522377
 30
0.0
 11
-7.050354830518818
 21
0.5368539844422299
 31
0.0
  0
LINE
  5
EA
330
1F
100
AcDbEntity
  8
0
100
AcDbLine
 10
-6.953775190969493
 20
0.4401799657989555
 30
0.0
 11
-6.939105185353667
 21
0.4514268279965222
 31
0.0
  0
LINE
  5
EB
330
1F
100
AcDbEntity
  8
0
100
AcDbLine
 10
-6.970709032522336
 20
0.569827048287937
 30
0.0
 11
-6.989024397735858
 21
0.5722384276461973
 31
0.0
  0
LINE
  5
EC
330
1F
100
AcDbEntity
  8
0
100
AcDbLine
 10
-6.989173328594459
 20
0.430698392782648
 30
0.0
 11
-6.970852511644924
 21
0.43310987316042
 31
0.0
  0
LINE
  5
ED
330
1F
100
AcDbEntity
  8
0
100
AcDbLine
 10
-6.927768429192117
 20
0.536853984442232
 30
0.0
 11
-6.939000629413755
 21
0.5515107464522357
 31
0.0
  0
LINE
  5
EE
330
1F
100
AcDbEntity
  8
0
100
AcDbLine
 10
-7.057443447242449
 20
0.5197857420562189
 30
0.0
 11
-7.059874531214781
 21
0.5014691642343345
 31
0.0
  0
LINE
  5
EF
330
1F
100
AcDbEntity
  8
0
100
AcDbLine
 10
-6.920715731464773
 20
0.5197857420562189
 30
0.0
 11
-6.927768429192117
 21
0.536853984442232
 31
0.0
  0
LINE
  5
F0
330
1F
100
AcDbEntity
  8
0
100
AcDbLine
 10
-6.918323193528752
 20
0.5014691642343365
 30
0.0
 11
-6.920715731464773
 21
0.5197857420562189
 31
0.0
  0
LINE
  5
F1
330
1F
100
AcDbEntity
  8
0
100
AcDbLine
 10
-6.927842241568865
 20
0.4660839670164816
 30
0.0
 11
-6.920753900567315
 21
0.4831524853929385
 31
0.0
  0
LINE
  5
F2
330
1F
100
AcDbEntity
  8
0
100
AcDbLine
 10
-7.039197850203295
 20
0.4514268279965222
 30
0.0
 11
-7.02455151287108
 21
0.4401799657989555
 31
0.0
  0
LINE
  5
F3
330
1F
100
AcDbEntity
  8
0
100
AcDbLine
 10
-7.02455151287108
 20
0.4401799657989555
 30
0.0
 11
-7.007489070741752
 21
0.43310987316042
 31
0.0
  0
LINE
  5
F4
330
1F
100
AcDbEntity
  8
0
100
AcDbLine
 10
-7.02442188191158
 20
0.5627572316398451
 30
0.0
 11
-7.039091786103127
 21
0.5515107464522377
 31
0.0
  0
LINE
  5
F5
330
1F
100
AcDbEntity
  8
0
100
AcDbLine
 10
-6.953646866115088
 20
0.5627572316398431
 30
0.0
 11
-6.970709032522336
 21
0.569827048287937
 31
0.0
  0
LINE
  5
F6
330
1F
100
AcDbEntity
  8
0
100
AcDbLine
 10
-7.050429949000661
 20
0.4660839670164816
 30
0.0
 11
-7.039197850203295
 21
0.4514268279965222
 31
0.0
  0
LINE
  5
F7
330
1F
100
AcDbEntity
  8
0
100
AcDbLine
 10
-7.007344837539036
 20
0.569827048287937
 30
0.0
 11
-7.02442188191158
 21
0.5627572316398451
 31
0.0
  0
LINE
  5
F8
330
1F
100
AcDbEntity
  8
0
100
AcDbLine
 10
-7.059874531214781
 20
0.5014691642343345
 30
0.0
 11
-7.057482370425118
 21
0.4831524853929385
 31
0.0
  0
LINE
  5
F9
330
1F
100
AcDbEntity
  8
0
100
AcDbLine
 10
-6.939000629413755
 20
0.5515107464522357
 30
0.0
 11
-6.953646866115088
 21
0.5627572316398431
 31
0.0
  0
LINE
  5
FA
330
1F
100
AcDbEntity
  8
0
100
AcDbLine
 10
-7.007489070741752
 20
0.43310987316042
 30
0.0
 11
-6.989173328594459
 21
0.430698392782648
 31
0.0
  0
LINE
  5
FB
330
1F
100
AcDbEntity
  8
0
100
AcDbLine
 10
-6.939105185353667
 20
0.4514268279965222
 30
0.0
 11
-6.927842241568865
 21
0.4660839670164816
 31
0.0
  0
LINE
  5
FC
330
1F
100
AcDbEntity
  8
0
100
AcDbLine
 10
-6.989024397735858
 20
0.5722384276461973
 30
0.0
 11
-7.007344837539036
 21
0.569827048287937
 31
0.0
  0
LINE
  5
FD
330
1F
100
AcDbEntity
  8
0
100
AcDbLine
 10
-8.61937463707669
 20
0.4831524853929385
 30
0.0
 11
-8.616939245938044
 21
0.5014691642343365
 31
0.0
  0
LINE
  5
FE
330
1F
100
AcDbEntity
  8
0
100
AcDbLine
 10
-8.65224724540786
 20
0.5627572316398431
 30
0.0
 11
-8.669307603860236
 21
0.569827048287937
 31
0.0
  0
LINE
  5
FF
330
1F
100
AcDbEntity
  8
0
100
AcDbLine
 10
-8.6876223524149
 20
0.5722384276461973
 30
0.0
 11
-8.705943408876935
 21
0.569827048287937
 31
0.0
  0
LINE
  5
100
330
1F
100
AcDbEntity
  8
0
100
AcDbLine
 10
-8.756054815577489
 20
0.5197857420562189
 30
0.0
 11
-8.758490583624072
 21
0.5014691642343345
 31
0.0
  0
LINE
  5
101
330
1F
100
AcDbEntity
  8
0
100
AcDbLine
 10
-8.687807479119646
 20
0.430698392782648
 30
0.0
 11
-8.66948604548542
 21
0.43310987316042
 31
0.0
  0
LINE
  5
102
330
1F
100
AcDbEntity
  8
0
100
AcDbLine
 10
-8.626375432688077
 20
0.536853984442232
 30
0.0
 11
-8.637603884755327
 21
0.5515107464522357
 31
0.0
  0
LINE
  5
103
330
1F
100
AcDbEntity
  8
0
100
AcDbLine
 10
-8.7376950414447
 20
0.5515107464522377
 30
0.0
 11
-8.748961834014779
 21
0.5368539844422299
 31
0.0
  0
LINE
  5
104
330
1F
100
AcDbEntity
  8
0
100
AcDbLine
 10
-8.758490583624072
 20
0.5014691642343345
 30
0.0
 11
-8.756103106934491
 21
0.4831524853929385
 31
0.0
  0
LINE
  5
105
330
1F
100
AcDbEntity
  8
0
100
AcDbLine
 10
-8.705943408876935
 20
0.569827048287937
 30
0.0
 11
-8.723022261204353
 21
0.5627572316398451
 31
0.0
  0
LINE
  5
106
330
1F
100
AcDbEntity
  8
0
100
AcDbLine
 10
-8.652406916784539
 20
0.4401799657989555
 30
0.0
 11
-8.637734035023499
 21
0.4514268279965222
 31
0.0
  0
LINE
  5
107
330
1F
100
AcDbEntity
  8
0
100
AcDbLine
 10
-8.619327099799813
 20
0.5197857420562189
 30
0.0
 11
-8.626375432688077
 21
0.536853984442232
 31
0.0
  0
LINE
  5
108
330
1F
100
AcDbEntity
  8
0
100
AcDbLine
 10
-8.706122604582248
 20
0.43310987316042
 30
0.0
 11
-8.687807479119646
 21
0.430698392782648
 31
0.0
  0
LINE
  5
109
330
1F
100
AcDbEntity
  8
0
100
AcDbLine
 10
-8.737826699873127
 20
0.4514268279965222
 30
0.0
 11
-8.723183238686126
 21
0.4401799657989555
 31
0.0
  0
LINE
  5
10A
330
1F
100
AcDbEntity
  8
0
100
AcDbLine
 10
-8.669307603860236
 20
0.569827048287937
 30
0.0
 11
-8.6876223524149
 21
0.5722384276461973
 31
0.0
  0
LINE
  5
10B
330
1F
100
AcDbEntity
  8
0
100
AcDbLine
 10
-8.748961834014779
 20
0.5368539844422299
 30
0.0
 11
-8.756054815577489
 21
0.5197857420562189
 31
0.0
  0
LINE
  5
10C
330
1F
100
AcDbEntity
  8
0
100
AcDbLine
 10
-8.723022261204353
 20
0.5627572316398451
 30
0.0
 11
-8.7376950414447
 21
0.5515107464522377
 31
0.0
  0
LINE
  5
10D
330
1F
100
AcDbEntity
  8
0
100
AcDbLine
 10
-8.749055050419694
 20
0.4660839670164816
 30
0.0
 11
-8.737826699873127
 21
0.4514268279965222
 31
0.0
  0
LINE
  5
10E
330
1F
100
AcDbEntity
  8
0
100
AcDbLine
 10
-8.637603884755327
 20
0.5515107464522357
 30
0.0
 11
-8.65224724540786
 21
0.5627572316398431
 31
0.0
  0
LINE
  5
10F
330
1F
100
AcDbEntity
  8
0
100
AcDbLine
 10
-8.756103106934491
 20
0.4831524853929385
 30
0.0
 11
-8.749055050419694
 21
0.4660839670164816
 31
0.0
  0
LINE
  5
110
330
1F
100
AcDbEntity
  8
0
100
AcDbLine
 10
-8.616939245938044
 20
0.5014691642343365
 30
0.0
 11
-8.619327099799813
 21
0.5197857420562189
 31
0.0
  0
LINE
  5
111
330
1F
100
AcDbEntity
  8
0
100
AcDbLine
 10
-8.723183238686126
 20
0.4401799657989555
 30
0.0
 11
-8.706122604582248
 21
0.43310987316042
 31
0.0
  0
LINE
  5
112
330
1F
100
AcDbEntity
  8
0
100
AcDbLine
 10
-8.66948604548542
 20
0.43310987316042
 30
0.0
 11
-8.652406916784539
 21
0.4401799657989555
 31
0.0
  0
LINE
  5
113
330
1F
100
AcDbEntity
  8
0
100
AcDbLine
 10
-8.637734035023499
 20
0.4514268279965222
 30
0.0
 11
-8.626467342987898
 21
0.4660839670164816
 31
0.0
  0
LINE
  5
114
330
1F
100
AcDbEntity
  8
0
100
AcDbLine
 10
-8.626467342987898
 20
0.4660839670164816
 30
0.0
 11
-8.61937463707669
 21
0.4831524853929385
 31
0.0
  0
LINE
  5
115
330
1F
100
AcDbEntity
  8
0
100
AcDbLine
 10
-8.2591037314688
 20
3.682439004506414
 30
0.0
 11
-8.277410046361101
 21
3.684848124390675
 31
0.0
  0
LINE
  5
116
330
1F
100
AcDbEntity
  8
0
100
AcDbLine
 10
-3.873154961816712
 20
3.611736001261855
 30
0.0
 11
-3.873237458070017
 21
3.470325476957476
 31
0.0
  0
LINE
  5
117
330
1F
100
AcDbEntity
  8
0
100
AcDbLine
 10
2.35243801019156
 20
2.904623135145872
 30
0.0
 11
1.503437261770601
 21
2.904623135145872
 31
0.0
  0
LINE
  5
118
330
1F
100
AcDbEntity
  8
0
100
AcDbLine
 10
3.746385771716764
 20
3.491697232689919
 30
0.0
 11
3.731740565323911
 21
3.480460663812627
 31
0.0
  0
LINE
  5
119
330
1F
100
AcDbEntity
  8
0
100
AcDbLine
 10
3.628011755404176
 20
3.523393854316976
 30
0.0
 11
3.625591236801015
 21
3.54169376953852
 31
0.0
  0
LINE
  5
11A
330
1F
100
AcDbEntity
  8
0
100
AcDbLine
 10
-5.264492310513339
 20
2.485246481907459
 30
0.0
 11
-5.279154989675179
 21
2.474006506052453
 31
0.0
  0
LINE
  5
11B
330
1F
100
AcDbEntity
  8
0
100
AcDbLine
 10
-5.279154989675179
 20
2.474006506052453
 30
0.0
 11
-5.296225299480987
 21
2.466940742367722
 31
0.0
  0
LINE
  5
11C
330
1F
100
AcDbEntity
  8
0
100
AcDbLine
 10
-8.190662623134997
 20
3.771439150607608
 30
0.0
 11
-8.188274756728067
 21
3.753140501876705
 31
0.0
  0
LINE
  5
11D
330
1F
100
AcDbEntity
  8
0
100
AcDbLine
 10
3.731671731364233
 20
3.602925745786876
 30
0.0
 11
3.746329348361218
 21
3.591689553402093
 31
0.0
  0
LINE
  5
11E
330
1F
100
AcDbEntity
  8
0
100
AcDbLine
 10
-8.308974665424392
 20
3.803133101257957
 30
0.0
 11
-8.294309793622169
 21
3.814368577956571
 31
0.0
  0
LINE
  5
11F
330
1F
100
AcDbEntity
  8
0
100
AcDbLine
 10
-8.327369309335673
 20
3.734841752274578
 30
0.0
 11
-8.329756798946118
 21
3.753140501876707
 31
0.0
  0
LINE
  5
120
330
1F
100
AcDbEntity
  8
0
100
AcDbLine
 10
-8.309099802660606
 20
3.703147149582369
 30
0.0
 11
-8.320323601997243
 21
3.717789941422839
 31
0.0
  0
LINE
  5
121
330
1F
100
AcDbEntity
  8
0
100
AcDbLine
 10
-8.25892782607865
 20
3.82384049342083
 30
0.0
 11
-8.240621887731868
 21
3.821431474407798
 31
0.0
  0
LINE
  5
122
330
1F
100
AcDbEntity
  8
0
100
AcDbLine
 10
-8.208932507292213
 20
3.803133101257957
 30
0.0
 11
-8.197708606558567
 21
3.788490685874033
 31
0.0
  0
LINE
  5
123
330
1F
100
AcDbEntity
  8
0
100
AcDbLine
 10
0.6190078561743958
 20
3.479798374152678
 30
0.0
 11
0.6019464071176123
 21
3.47273475078329
 31
0.0
  0
LINE
  5
124
330
1F
100
AcDbEntity
  8
0
100
AcDbLine
 10
-5.715177923713489
 20
2.31286269655348
 30
0.0
 11
-5.646023034834518
 21
2.29107241390531
 31
0.0
  0
LINE
  5
125
330
1F
100
AcDbEntity
  8
0
100
AcDbLine
 10
-8.223721111043655
 20
3.691911296427217
 30
0.0
 11
-8.240791422620195
 21
3.684848124390675
 31
0.0
  0
LINE
  5
126
330
1F
100
AcDbEntity
  8
0
100
AcDbLine
 10
-8.223569424920436
 20
3.814368577956571
 30
0.0
 11
-8.208932507292213
 21
3.803133101257957
 31
0.0
  0
LINE
  5
127
330
1F
100
AcDbEntity
  8
0
100
AcDbLine
 10
-8.197795906840327
 20
3.717789941422838
 30
0.0
 11
-8.209056137844428
 21
3.70314714958237
 31
0.0
  0
LINE
  5
128
330
1F
100
AcDbEntity
  8
0
100
AcDbLine
 10
-8.277410046361101
 20
3.684848124390675
 30
0.0
 11
-8.294462784572007
 21
3.691911296427215
 31
0.0
  0
LINE
  5
129
330
1F
100
AcDbEntity
  8
0
100
AcDbLine
 10
3.635088394570992
 20
3.506340957272188
 30
0.0
 11
3.628011755404176
 21
3.523393854316976
 31
0.0
  0
LINE
  5
12A
330
1F
100
AcDbEntity
  8
0
100
AcDbLine
 10
3.714682429648636
 20
3.47339704185248
 30
0.0
 11
3.696373875980814
 21
3.470987768507332
 31
0.0
  0
LINE
  5
12B
330
1F
100
AcDbEntity
  8
0
100
AcDbLine
 10
0.633658332135582
 20
3.491034945271737
 30
0.0
 11
0.6190078561743958
 21
3.479798374152678
 31
0.0
  0
LINE
  5
12C
330
1F
100
AcDbEntity
  8
0
100
AcDbLine
 10
0.5836367220694916
 20
3.470325476957472
 30
0.0
 11
0.5653266134397198
 21
3.47273475078329
 31
0.0
  0
LINE
  5
12D
330
1F
100
AcDbEntity
  8
0
100
AcDbLine
 10
-8.188274756728067
 20
3.753140501876705
 30
0.0
 11
-8.190707774129098
 21
3.734841752274578
 31
0.0
  0
LINE
  5
12E
330
1F
100
AcDbEntity
  8
0
100
AcDbLine
 10
-5.845819788952433
 20
2.375388067273764
 30
0.0
 11
-5.781973735278655
 21
2.341051036198647
 31
0.0
  0
LINE
  5
12F
330
1F
100
AcDbEntity
  8
0
100
AcDbLine
 10
-8.240791422620195
 20
3.684848124390675
 30
0.0
 11
-8.2591037314688
 21
3.682439004506414
 31
0.0
  0
LINE
  5
130
330
1F
100
AcDbEntity
  8
0
100
AcDbLine
 10
-5.503097749971676
 20
2.267398795697368
 30
0.0
 11
-5.430591340828751
 21
2.265724895635388
 31
0.0
  0
LINE
  5
131
330
1F
100
AcDbEntity
  8
0
100
AcDbLine
 10
3.678544508077646
 20
2.603574207621458
 30
0.0
 11
3.696855460201522
 21
2.605984110543795
 31
0.0
  0
LINE
  5
132
330
1F
100
AcDbEntity
  8
0
100
AcDbLine
 10
3.714606006366462
 20
3.609989092135374
 30
0.0
 11
3.731671731364233
 21
3.602925745786876
 31
0.0
  0
LINE
  5
133
330
1F
100
AcDbEntity
  8
0
100
AcDbLine
 10
-5.253180556235951
 20
2.57062133253013
 30
0.0
 11
-5.246125716163164
 21
2.553563540730455
 31
0.0
  0
LINE
  5
134
330
1F
100
AcDbEntity
  8
0
100
AcDbLine
 10
2.918438509138863
 20
2.90462313514587
 30
0.0
 11
2.918376343893713
 21
3.046057758057843
 31
0.0
  0
LINE
  5
135
330
1F
100
AcDbEntity
  8
0
100
AcDbLine
 10
3.767359007870035
 20
3.046057758057839
 30
0.0
 11
3.767439257559822
 21
2.904623135145872
 31
0.0
  0
LINE
  5
136
330
1F
100
AcDbEntity
  8
0
100
AcDbLine
 10
2.918376343893713
 20
3.046057758057843
 30
0.0
 11
3.767359007870035
 21
3.046057758057839
 31
0.0
  0
LINE
  5
137
330
1F
100
AcDbEntity
  8
0
100
AcDbLine
 10
3.696295146760499
 20
3.61239826459966
 30
0.0
 11
3.714606006366462
 21
3.609989092135374
 31
0.0
  0
LINE
  5
138
330
1F
100
AcDbEntity
  8
0
100
AcDbLine
 10
3.764656889859872
 20
3.559993583879197
 30
0.0
 11
3.767077785101861
 21
3.54169376953852
 31
0.0
  0
LINE
  5
139
330
1F
100
AcDbEntity
  8
0
100
AcDbLine
 10
0.6336487887689578
 20
3.591027285932839
 30
0.0
 11
0.6448925512886395
 21
3.57638393492169
 31
0.0
  0
LINE
  5
13A
330
1F
100
AcDbEntity
  8
0
100
AcDbLine
 10
0.5836242911655298
 20
3.611736001261855
 30
0.0
 11
0.601934023091365
 21
3.609326828316933
 31
0.0
  0
LINE
  5
13B
330
1F
100
AcDbEntity
  8
0
100
AcDbLine
 10
-4.438954948695307
 20
3.821473738918527
 30
0.0
 11
-6.13613168980379
 21
4.460072663077606
 31
0.0
  0
LINE
  5
13C
330
1F
100
AcDbEntity
  8
0
100
AcDbLine
 10
-8.209056137844428
 20
3.70314714958237
 30
0.0
 11
-8.223721111043655
 21
3.691911296427217
 31
0.0
  0
LINE
  5
13D
330
1F
100
AcDbEntity
  8
0
100
AcDbLine
 10
-8.32732340499957
 20
3.771439150607608
 30
0.0
 11
-8.320234996888866
 21
3.788490685874033
 31
0.0
  0
LINE
  5
13E
330
1F
100
AcDbEntity
  8
0
100
AcDbLine
 10
3.76467764317649
 20
3.523393854316974
 30
0.0
 11
3.757619992151642
 21
3.506340957272188
 31
0.0
  0
LINE
  5
13F
330
1F
100
AcDbEntity
  8
0
100
AcDbLine
 10
-5.646023034834518
 20
2.29107241390531
 30
0.0
 11
-5.575120632347492
 21
2.275872958333761
 31
0.0
  0
LINE
  5
140
330
1F
100
AcDbEntity
  8
0
100
AcDbLine
 10
-8.320323601997243
 20
3.717789941422839
 30
0.0
 11
-8.327369309335673
 21
3.734841752274578
 31
0.0
  0
LINE
  5
141
330
1F
100
AcDbEntity
  8
0
100
AcDbLine
 10
-5.430591340828751
 20
2.265724895635388
 30
0.0
 11
-5.147563860587963
 21
2.265724895635388
 31
0.0
  0
LINE
  5
142
330
1F
100
AcDbEntity
  8
0
100
AcDbLine
 10
-5.349909640419497
 20
2.474006506052451
 30
0.0
 11
-5.364554327822214
 21
2.485246481907457
 31
0.0
  0
LINE
  5
143
330
1F
100
AcDbEntity
  8
0
100
AcDbLine
 10
-5.364554327822214
 20
2.485246481907457
 30
0.0
 11
-5.375786681644521
 21
2.499894646523569
 31
0.0
  0
LINE
  5
144
330
1F
100
AcDbEntity
  8
0
100
AcDbLine
 10
-8.329756798946118
 20
3.753140501876707
 30
0.0
 11
-8.32732340499957
 21
3.771439150607608
 31
0.0
  0
LINE
  5
145
330
1F
100
AcDbEntity
  8
0
100
AcDbLine
 10
-8.277239758130772
 20
3.821431474407798
 30
0.0
 11
-8.25892782607865
 21
3.82384049342083
 31
0.0
  0
LINE
  5
146
330
1F
100
AcDbEntity
  8
0
100
AcDbLine
 10
0.5653149828036097
 20
3.609326828316933
 30
0.0
 11
0.5836242911655298
 21
3.611736001261855
 31
0.0
  0
LINE
  5
147
330
1F
100
AcDbEntity
  8
0
100
AcDbLine
 10
1.503437261770601
 20
2.904623135145872
 30
0.0
 11
1.50340523726652
 21
3.046057758057843
 31
0.0
  0
LINE
  5
148
330
1F
100
AcDbEntity
  8
0
100
AcDbLine
 10
0.6543737877585472
 20
3.541031492094913
 30
0.0
 11
0.6519650659356442
 21
3.522731573222448
 31
0.0
  0
LINE
  5
149
330
1F
100
AcDbEntity
  8
0
100
AcDbLine
 10
3.767648834413301
 20
2.535258177858724
 30
0.0
 11
3.765248330224933
 21
2.516952714060246
 31
0.0
  0
LINE
  5
14A
330
1F
100
AcDbEntity
  8
0
100
AcDbLine
 10
3.765248330224933
 20
2.516952714060246
 30
0.0
 11
3.75818961079487
 21
2.499894646523567
 31
0.0
  0
LINE
  5
14B
330
1F
100
AcDbEntity
  8
0
100
AcDbLine
 10
-5.575120632347492
 20
2.275872958333761
 30
0.0
 11
-5.503097749971676
 21
2.267398795697368
 31
0.0
  0
LINE
  5
14C
330
1F
100
AcDbEntity
  8
0
100
AcDbLine
 10
-5.781973735278655
 20
2.341051036198647
 30
0.0
 11
-5.715177923713489
 21
2.31286269655348
 31
0.0
  0
LINE
  5
14D
330
1F
100
AcDbEntity
  8
0
100
AcDbLine
 10
-5.906151514820659
 20
2.415570038928127
 30
0.0
 11
-5.845819788952433
 21
2.375388067273764
 31
0.0
  0
LINE
  5
14E
330
1F
100
AcDbEntity
  8
0
100
AcDbLine
 10
-5.962435449179917
 20
2.461241506962754
 30
0.0
 11
-5.906151514820659
 21
2.415570038928127
 31
0.0
  0
LINE
  5
14F
330
1F
100
AcDbEntity
  8
0
100
AcDbLine
 10
-6.014173953780017
 20
2.511998483467402
 30
0.0
 11
-5.962435449179917
 21
2.461241506962754
 31
0.0
  0
LINE
  5
150
330
1F
100
AcDbEntity
  8
0
100
AcDbLine
 10
-6.060909616933411
 20
2.567392016058395
 30
0.0
 11
-6.014173953780017
 21
2.511998483467402
 31
0.0
  0
LINE
  5
151
330
1F
100
AcDbEntity
  8
0
100
AcDbLine
 10
-6.10222929752569
 20
2.626932164802933
 30
0.0
 11
-6.060909616933411
 21
2.567392016058395
 31
0.0
  0
LINE
  5
152
330
1F
100
AcDbEntity
  8
0
100
AcDbLine
 10
-6.137767776170039
 20
2.690092341393963
 30
0.0
 11
-6.10222929752569
 21
2.626932164802933
 31
0.0
  0
LINE
  5
153
330
1F
100
AcDbEntity
  8
0
100
AcDbLine
 10
-6.137438738520341
 20
3.046057758057842
 30
0.0
 11
-6.137767776170039
 21
2.690092341393963
 31
0.0
  0
LINE
  5
154
330
1F
100
AcDbEntity
  8
0
100
AcDbLine
 10
-8.967380951774736
 20
3.046057758057842
 30
0.0
 11
-6.137438738520341
 21
3.046057758057842
 31
0.0
  0
LINE
  5
155
330
1F
100
AcDbEntity
  8
0
100
AcDbLine
 10
-8.965471229451923
 20
4.460072663077606
 30
0.0
 11
-8.967380951774736
 21
3.046057758057842
 31
0.0
  0
LINE
  5
156
330
1F
100
AcDbEntity
  8
0
100
AcDbLine
 10
-6.13613168980379
 20
4.460072663077606
 30
0.0
 11
-8.965471229451923
 21
4.460072663077606
 31
0.0
  0
LINE
  5
157
330
1F
100
AcDbEntity
  8
0
100
AcDbLine
 10
-4.438954948695307
 20
3.821473738918527
 30
0.0
 11
3.766919038570845
 21
3.821473738918535
 31
0.0
  0
LINE
  5
158
330
1F
100
AcDbEntity
  8
0
100
AcDbLine
 10
-4.439711417651627
 20
2.690092341393963
 30
0.0
 11
-4.475350509006746
 21
2.626932164802933
 31
0.0
  0
LINE
  5
159
330
1F
100
AcDbEntity
  8
0
100
AcDbLine
 10
-4.475350509006746
 20
2.626932164802933
 30
0.0
 11
-4.516765035688575
 21
2.567392016058395
 31
0.0
  0
LINE
  5
15A
330
1F
100
AcDbEntity
  8
0
100
AcDbLine
 10
-4.516765035688575
 20
2.567392016058395
 30
0.0
 11
-4.563588939467214
 21
2.511998483467402
 31
0.0
  0
LINE
  5
15B
330
1F
100
AcDbEntity
  8
0
100
AcDbLine
 10
-4.563588939467214
 20
2.511998483467402
 30
0.0
 11
-4.615408298765197
 21
2.461241506962754
 31
0.0
  0
LINE
  5
15C
330
1F
100
AcDbEntity
  8
0
100
AcDbLine
 10
-4.615408298765197
 20
2.461241506962754
 30
0.0
 11
-4.671764986724142
 21
2.415570038928127
 31
0.0
  0
LINE
  5
15D
330
1F
100
AcDbEntity
  8
0
100
AcDbLine
 10
-4.671764986724142
 20
2.415570038928127
 30
0.0
 11
-4.73216072155039
 21
2.375388067273764
 31
0.0
  0
LINE
  5
15E
330
1F
100
AcDbEntity
  8
0
100
AcDbLine
 10
-4.73216072155039
 20
2.375388067273764
 30
0.0
 11
-4.796061473326085
 21
2.341051036198647
 31
0.0
  0
LINE
  5
15F
330
1F
100
AcDbEntity
  8
0
100
AcDbLine
 10
-4.796061473326085
 20
2.341051036198647
 30
0.0
 11
-4.86290218826893
 21
2.31286269655348
 31
0.0
  0
LINE
  5
160
330
1F
100
AcDbEntity
  8
0
100
AcDbLine
 10
-4.86290218826893
 20
2.31286269655348
 30
0.0
 11
-4.932091788567725
 21
2.29107241390531
 31
0.0
  0
LINE
  5
161
330
1F
100
AcDbEntity
  8
0
100
AcDbLine
 10
-4.932091788567725
 20
2.29107241390531
 30
0.0
 11
-5.003018403438403
 21
2.275872958333761
 31
0.0
  0
LINE
  5
162
330
1F
100
AcDbEntity
  8
0
100
AcDbLine
 10
-5.003018403438403
 20
2.275872958333761
 30
0.0
 11
-5.075054784960682
 21
2.267398795697368
 31
0.0
  0
LINE
  5
163
330
1F
100
AcDbEntity
  8
0
100
AcDbLine
 10
-5.075054784960682
 20
2.267398795697368
 30
0.0
 11
-5.147563860587963
 21
2.265724895635388
 31
0.0
  0
LINE
  5
164
330
1F
100
AcDbEntity
  8
0
100
AcDbLine
 10
-5.712947406532183
 20
3.046057758057843
 30
0.0
 11
-4.863964742555864
 21
3.046057758057842
 31
0.0
  0
LINE
  5
165
330
1F
100
AcDbEntity
  8
0
100
AcDbLine
 10
-5.713069099807554
 20
2.90462313514587
 30
0.0
 11
-5.712947406532183
 21
3.046057758057843
 31
0.0
  0
LINE
  5
166
330
1F
100
AcDbEntity
  8
0
100
AcDbLine
 10
-4.864068351386594
 20
2.904623135145874
 30
0.0
 11
-5.713069099807554
 21
2.90462313514587
 31
0.0
  0
LINE
  5
167
330
1F
100
AcDbEntity
  8
0
100
AcDbLine
 10
-4.863964742555864
 20
3.046057758057842
 30
0.0
 11
-4.864068351386594
 21
2.904623135145874
 31
0.0
  0
LINE
  5
168
330
1F
100
AcDbEntity
  8
0
100
AcDbLine
 10
2.352387901242838
 20
3.046057758057839
 30
0.0
 11
2.35243801019156
 21
2.904623135145872
 31
0.0
  0
LINE
  5
169
330
1F
100
AcDbEntity
  8
0
100
AcDbLine
 10
1.50340523726652
 20
3.046057758057843
 30
0.0
 11
2.352387901242838
 21
3.046057758057839
 31
0.0
  0
LINE
  5
16A
330
1F
100
AcDbEntity
  8
0
100
AcDbLine
 10
-0.336057201348832
 20
3.046057758057842
 30
0.0
 11
-0.3360643598081411
 21
2.90462313514587
 31
0.0
  0
LINE
  5
16B
330
1F
100
AcDbEntity
  8
0
100
AcDbLine
 10
-1.18503986532515
 20
3.046057758057839
 30
0.0
 11
-0.336057201348832
 21
3.046057758057842
 31
0.0
  0
LINE
  5
16C
330
1F
100
AcDbEntity
  8
0
100
AcDbLine
 10
-1.185065108229101
 20
2.90462313514587
 30
0.0
 11
-1.18503986532515
 21
3.046057758057839
 31
0.0
  0
LINE
  5
16D
330
1F
100
AcDbEntity
  8
0
100
AcDbLine
 10
-0.3360643598081411
 20
2.90462313514587
 30
0.0
 11
-1.185065108229101
 21
2.90462313514587
 31
0.0
  0
LINE
  5
16E
330
1F
100
AcDbEntity
  8
0
100
AcDbLine
 10
-3.449067104018329
 20
2.904623135145872
 30
0.0
 11
-3.448993635928667
 21
3.046057758057842
 31
0.0
  0
LINE
  5
16F
330
1F
100
AcDbEntity
  8
0
100
AcDbLine
 10
-2.600066355597371
 20
2.904623135145872
 30
0.0
 11
-3.449067104018329
 21
2.904623135145872
 31
0.0
  0
LINE
  5
170
330
1F
100
AcDbEntity
  8
0
100
AcDbLine
 10
-2.600010971952349
 20
3.046057758057843
 30
0.0
 11
-2.600066355597371
 21
2.904623135145872
 31
0.0
  0
LINE
  5
171
330
1F
100
AcDbEntity
  8
0
100
AcDbLine
 10
-3.448993635928667
 20
3.046057758057842
 30
0.0
 11
-2.600010971952349
 21
3.046057758057843
 31
0.0
  0
LINE
  5
172
330
1F
100
AcDbEntity
  8
0
100
AcDbLine
 10
-8.197708606558567
 20
3.788490685874033
 30
0.0
 11
-8.190662623134997
 21
3.771439150607608
 31
0.0
  0
LINE
  5
173
330
1F
100
AcDbEntity
  8
0
100
AcDbLine
 10
-8.240621887731868
 20
3.821431474407798
 30
0.0
 11
-8.223569424920436
 21
3.814368577956571
 31
0.0
  0
LINE
  5
174
330
1F
100
AcDbEntity
  8
0
100
AcDbLine
 10
-8.294309793622169
 20
3.814368577956571
 30
0.0
 11
-8.277239758130772
 21
3.821431474407798
 31
0.0
  0
LINE
  5
175
330
1F
100
AcDbEntity
  8
0
100
AcDbLine
 10
-8.320234996888866
 20
3.788490685874033
 30
0.0
 11
-8.308974665424392
 21
3.803133101257957
 31
0.0
  0
LINE
  5
176
330
1F
100
AcDbEntity
  8
0
100
AcDbLine
 10
-8.294462784572007
 20
3.691911296427215
 30
0.0
 11
-8.309099802660606
 21
3.703147149582369
 31
0.0
  0
LINE
  5
177
330
1F
100
AcDbEntity
  8
0
100
AcDbLine
 10
-8.190707774129098
 20
3.734841752274578
 30
0.0
 11
-8.197795906840327
 21
3.717789941422838
 31
0.0
  0
LINE
  5
178
330
1F
100
AcDbEntity
  8
0
100
AcDbLine
 10
3.767439257559822
 20
2.904623135145872
 30
0.0
 11
2.918438509138863
 21
2.90462313514587
 31
0.0
  0
LINE
  5
179
330
1F
100
AcDbEntity
  8
0
100
AcDbLine
 10
3.677986969731501
 20
3.609989092135372
 30
0.0
 11
3.696295146760499
 21
3.61239826459966
 31
0.0
  0
LINE
  5
17A
330
1F
100
AcDbEntity
  8
0
100
AcDbLine
 10
3.660929109662664
 20
3.602925745786874
 30
0.0
 11
3.677986969731501
 21
3.609989092135372
 31
0.0
  0
LINE
  5
17B
330
1F
100
AcDbEntity
  8
0
100
AcDbLine
 10
3.646284003995321
 20
3.591689553402091
 30
0.0
 11
3.660929109662664
 21
3.602925745786874
 31
0.0
  0
LINE
  5
17C
330
1F
100
AcDbEntity
  8
0
100
AcDbLine
 10
3.635049682415707
 20
3.577046205312338
 30
0.0
 11
3.646284003995321
 21
3.591689553402091
 31
0.0
  0
LINE
  5
17D
330
1F
100
AcDbEntity
  8
0
100
AcDbLine
 10
3.627991755477544
 20
3.559993583879195
 30
0.0
 11
3.635049682415707
 21
3.577046205312338
 31
0.0
  0
LINE
  5
17E
330
1F
100
AcDbEntity
  8
0
100
AcDbLine
 10
3.625591236801015
 20
3.54169376953852
 30
0.0
 11
3.627991755477544
 21
3.559993583879195
 31
0.0
  0
LINE
  5
17F
330
1F
100
AcDbEntity
  8
0
100
AcDbLine
 10
3.646338920570893
 20
3.491697232689921
 30
0.0
 11
3.635088394570992
 21
3.506340957272188
 31
0.0
  0
LINE
  5
180
330
1F
100
AcDbEntity
  8
0
100
AcDbLine
 10
3.660996638712603
 20
3.480460663812627
 30
0.0
 11
3.646338920570893
 21
3.491697232689921
 31
0.0
  0
LINE
  5
181
330
1F
100
AcDbEntity
  8
0
100
AcDbLine
 10
3.678062639623693
 20
3.473397041852482
 30
0.0
 11
3.660996638712603
 21
3.480460663812627
 31
0.0
  0
LINE
  5
182
330
1F
100
AcDbEntity
  8
0
100
AcDbLine
 10
3.696373875980814
 20
3.470987768507332
 30
0.0
 11
3.678062639623693
 21
3.473397041852482
 31
0.0
  0
LINE
  5
183
330
1F
100
AcDbEntity
  8
0
100
AcDbLine
 10
3.731740565323911
 20
3.480460663812627
 30
0.0
 11
3.714682429648636
 21
3.47339704185248
 31
0.0
  0
LINE
  5
184
330
1F
100
AcDbEntity
  8
0
100
AcDbLine
 10
3.757619992151642
 20
3.506340957272188
 30
0.0
 11
3.746385771716764
 21
3.491697232689919
 31
0.0
  0
LINE
  5
185
330
1F
100
AcDbEntity
  8
0
100
AcDbLine
 10
3.767077785101861
 20
3.54169376953852
 30
0.0
 11
3.76467764317649
 21
3.523393854316974
 31
0.0
  0
LINE
  5
186
330
1F
100
AcDbEntity
  8
0
100
AcDbLine
 10
3.757579975086625
 20
3.577046205312339
 30
0.0
 11
3.764656889859872
 21
3.559993583879197
 31
0.0
  0
LINE
  5
187
330
1F
100
AcDbEntity
  8
0
100
AcDbLine
 10
3.746329348361218
 20
3.591689553402093
 30
0.0
 11
3.757579975086625
 21
3.577046205312339
 31
0.0
  0
LINE
  5
188
330
1F
100
AcDbEntity
  8
0
100
AcDbLine
 10
-4.439095184417631
 20
3.611736001261856
 30
0.0
 11
-3.873154961816712
 21
3.611736001261855
 31
0.0
  0
LINE
  5
189
330
1F
100
AcDbEntity
  8
0
100
AcDbLine
 10
-4.439189734913129
 20
3.470325476957472
 30
0.0
 11
-4.439095184417631
 21
3.611736001261856
 31
0.0
  0
LINE
  5
18A
330
1F
100
AcDbEntity
  8
0
100
AcDbLine
 10
-3.873237458070017
 20
3.470325476957476
 30
0.0
 11
-4.439189734913129
 21
3.470325476957472
 31
0.0
  0
LINE
  5
18B
330
1F
100
AcDbEntity
  8
0
100
AcDbLine
 10
-1.609394071413033
 20
3.611736001261855
 30
0.0
 11
-1.609428350697568
 21
3.470325476957476
 31
0.0
  0
LINE
  5
18C
330
1F
100
AcDbEntity
  8
0
100
AcDbLine
 10
-2.175334294013953
 20
3.611736001261856
 30
0.0
 11
-1.609394071413033
 21
3.611736001261855
 31
0.0
  0
LINE
  5
18D
330
1F
100
AcDbEntity
  8
0
100
AcDbLine
 10
-2.17538062754068
 20
3.470325476957472
 30
0.0
 11
-2.175334294013953
 21
3.611736001261856
 31
0.0
  0
LINE
  5
18E
330
1F
100
AcDbEntity
  8
0
100
AcDbLine
 10
-1.609428350697568
 20
3.470325476957476
 30
0.0
 11
-2.17538062754068
 21
3.470325476957472
 31
0.0
  0
LINE
  5
18F
330
1F
100
AcDbEntity
  8
0
100
AcDbLine
 10
0.651961471885881
 20
3.559331310086483
 30
0.0
 11
0.6543737877585472
 21
3.541031492094913
 31
0.0
  0
LINE
  5
190
330
1F
100
AcDbEntity
  8
0
100
AcDbLine
 10
0.6448925512886395
 20
3.57638393492169
 30
0.0
 11
0.651961471885881
 21
3.559331310086483
 31
0.0
  0
LINE
  5
191
330
1F
100
AcDbEntity
  8
0
100
AcDbLine
 10
0.6189964382407757
 20
3.602263480559276
 30
0.0
 11
0.6336487887689578
 21
3.591027285932839
 31
0.0
  0
LINE
  5
192
330
1F
100
AcDbEntity
  8
0
100
AcDbLine
 10
0.601934023091365
 20
3.609326828316933
 30
0.0
 11
0.6189964382407757
 21
3.602263480559276
 31
0.0
  0
LINE
  5
193
330
1F
100
AcDbEntity
  8
0
100
AcDbLine
 10
0.5482538094825271
 20
3.602263480559276
 30
0.0
 11
0.5653149828036097
 21
3.609326828316933
 31
0.0
  0
LINE
  5
194
330
1F
100
AcDbEntity
  8
0
100
AcDbLine
 10
0.5336034344233842
 20
3.591027285932839
 30
0.0
 11
0.5482538094825271
 21
3.602263480559276
 31
0.0
  0
LINE
  5
195
330
1F
100
AcDbEntity
  8
0
100
AcDbLine
 10
0.522362246395111
 20
3.57638393492169
 30
0.0
 11
0.5336034344233842
 21
3.591027285932839
 31
0.0
  0
LINE
  5
196
330
1F
100
AcDbEntity
  8
0
100
AcDbLine
 10
0.515296323870929
 20
3.559331310086483
 30
0.0
 11
0.522362246395111
 21
3.57638393492169
 31
0.0
  0
LINE
  5
197
330
1F
100
AcDbEntity
  8
0
100
AcDbLine
 10
0.5128872253440898
 20
3.541031492094914
 30
0.0
 11
0.515296323870929
 21
3.559331310086483
 31
0.0
  0
LINE
  5
198
330
1F
100
AcDbEntity
  8
0
100
AcDbLine
 10
0.5152991645305532
 20
3.522731573222448
 30
0.0
 11
0.5128872253440898
 21
3.541031492094914
 31
0.0
  0
LINE
  5
199
330
1F
100
AcDbEntity
  8
0
100
AcDbLine
 10
0.5223678093920958
 20
3.505678672775514
 30
0.0
 11
0.5152991645305532
 21
3.522731573222448
 31
0.0
  0
LINE
  5
19A
330
1F
100
AcDbEntity
  8
0
100
AcDbLine
 10
0.5336114710097343
 20
3.491034945271735
 30
0.0
 11
0.5223678093920958
 21
3.505678672775514
 31
0.0
  0
LINE
  5
19B
330
1F
100
AcDbEntity
  8
0
100
AcDbLine
 10
0.548263922506152
 20
3.479798374152676
 30
0.0
 11
0.5336114710097343
 21
3.491034945271735
 31
0.0
  0
LINE
  5
19C
330
1F
100
AcDbEntity
  8
0
100
AcDbLine
 10
0.5653266134397198
 20
3.47273475078329
 30
0.0
 11
0.548263922506152
 21
3.479798374152676
 31
0.0
  0
LINE
  5
19D
330
1F
100
AcDbEntity
  8
0
100
AcDbLine
 10
0.6019464071176123
 20
3.47273475078329
 30
0.0
 11
0.5836367220694916
 21
3.470325476957472
 31
0.0
  0
LINE
  5
19E
330
1F
100
AcDbEntity
  8
0
100
AcDbLine
 10
0.6448994191956176
 20
3.505678672775512
 30
0.0
 11
0.633658332135582
 21
3.491034945271737
 31
0.0
  0
LINE
  5
19F
330
1F
100
AcDbEntity
  8
0
100
AcDbLine
 10
0.6519650659356442
 20
3.522731573222448
 30
0.0
 11
0.6448994191956176
 21
3.505678672775512
 31
0.0
  0
LINE
  5
1A0
330
1F
100
AcDbEntity
  8
0
100
AcDbLine
 10
-5.243729294377554
 20
2.535258177858724
 30
0.0
 11
-5.246154640714708
 21
2.516952714060246
 31
0.0
  0
LINE
  5
1A1
330
1F
100
AcDbEntity
  8
0
100
AcDbLine
 10
-5.246125716163164
 20
2.553563540730455
 30
0.0
 11
-5.243729294377554
 21
2.535258177858724
 31
0.0
  0
LINE
  5
1A2
330
1F
100
AcDbEntity
  8
0
100
AcDbLine
 10
-5.264413011325442
 20
2.58526912048248
 30
0.0
 11
-5.253180556235951
 21
2.57062133253013
 31
0.0
  0
LINE
  5
1A3
330
1F
100
AcDbEntity
  8
0
100
AcDbLine
 10
-5.279057598063897
 20
2.596508719673736
 30
0.0
 11
-5.264413011325442
 21
2.58526912048248
 31
0.0
  0
LINE
  5
1A4
330
1F
100
AcDbEntity
  8
0
100
AcDbLine
 10
-5.296116322123119
 20
2.603574207621458
 30
0.0
 11
-5.279057598063897
 21
2.596508719673736
 31
0.0
  0
LINE
  5
1A5
330
1F
100
AcDbEntity
  8
0
100
AcDbLine
 10
-5.314426687183881
 20
2.605984110543795
 30
0.0
 11
-5.296116322123119
 21
2.603574207621458
 31
0.0
  0
LINE
  5
1A6
330
1F
100
AcDbEntity
  8
0
100
AcDbLine
 10
-5.332740909761192
 20
2.603574207621458
 30
0.0
 11
-5.314426687183881
 21
2.605984110543795
 31
0.0
  0
LINE
  5
1A7
330
1F
100
AcDbEntity
  8
0
100
AcDbLine
 10
-5.349810943502828
 20
2.596508719673736
 30
0.0
 11
-5.332740909761192
 21
2.603574207621458
 31
0.0
  0
LINE
  5
1A8
330
1F
100
AcDbEntity
  8
0
100
AcDbLine
 10
-5.364473521397485
 20
2.58526912048248
 30
0.0
 11
-5.349810943502828
 21
2.596508719673736
 31
0.0
  0
LINE
  5
1A9
330
1F
100
AcDbEntity
  8
0
100
AcDbLine
 10
-5.375729423109632
 20
2.57062133253013
 30
0.0
 11
-5.364473521397485
 21
2.58526912048248
 31
0.0
  0
LINE
  5
1AA
330
1F
100
AcDbEntity
  8
0
100
AcDbLine
 10
-5.382811567483178
 20
2.553563540730455
 30
0.0
 11
-5.375729423109632
 21
2.57062133253013
 31
0.0
  0
LINE
  5
1AB
330
1F
100
AcDbEntity
  8
0
100
AcDbLine
 10
-5.385237290548763
 20
2.535258177858727
 30
0.0
 11
-5.382811567483178
 21
2.553563540730455
 31
0.0
  0
LINE
  5
1AC
330
1F
100
AcDbEntity
  8
0
100
AcDbLine
 10
-5.38284124565314
 20
2.516952714060246
 30
0.0
 11
-5.385237290548763
 21
2.535258177858727
 31
0.0
  0
LINE
  5
1AD
330
1F
100
AcDbEntity
  8
0
100
AcDbLine
 10
-5.375786681644521
 20
2.499894646523569
 30
0.0
 11
-5.38284124565314
 21
2.516952714060246
 31
0.0
  0
LINE
  5
1AE
330
1F
100
AcDbEntity
  8
0
100
AcDbLine
 10
-5.332850640737476
 20
2.466940742367722
 30
0.0
 11
-5.349909640419497
 21
2.474006506052451
 31
0.0
  0
LINE
  5
1AF
330
1F
100
AcDbEntity
  8
0
100
AcDbLine
 10
-5.314539898948282
 20
2.464530738518635
 30
0.0
 11
-5.332850640737476
 21
2.466940742367722
 31
0.0
  0
LINE
  5
1B0
330
1F
100
AcDbEntity
  8
0
100
AcDbLine
 10
-5.296225299480987
 20
2.466940742367722
 30
0.0
 11
-5.314539898948282
 21
2.464530738518635
 31
0.0
  0
LINE
  5
1B1
330
1F
100
AcDbEntity
  8
0
100
AcDbLine
 10
-5.253236509465454
 20
2.499894646523567
 30
0.0
 11
-5.264492310513339
 21
2.485246481907459
 31
0.0
  0
LINE
  5
1B2
330
1F
100
AcDbEntity
  8
0
100
AcDbLine
 10
-5.246154640714708
 20
2.516952714060246
 30
0.0
 11
-5.253236509465454
 21
2.499894646523567
 31
0.0
  0
LINE
  5
1B3
330
1F
100
AcDbEntity
  8
0
100
AcDbLine
 10
3.765227570615871
 20
2.553563540730455
 30
0.0
 11
3.767648834413301
 21
2.535258177858724
 31
0.0
  0
LINE
  5
1B4
330
1F
100
AcDbEntity
  8
0
100
AcDbLine
 10
3.758149581596597
 20
2.57062133253013
 30
0.0
 11
3.765227570615871
 21
2.553563540730455
 31
0.0
  0
LINE
  5
1B5
330
1F
100
AcDbEntity
  8
0
100
AcDbLine
 10
3.746897248151023
 20
2.58526912048248
 30
0.0
 11
3.758149581596597
 21
2.57062133253013
 31
0.0
  0
LINE
  5
1B6
330
1F
100
AcDbEntity
  8
0
100
AcDbLine
 10
3.732237408272932
 20
2.596508719673736
 30
0.0
 11
3.746897248151023
 21
2.58526912048248
 31
0.0
  0
LINE
  5
1B7
330
1F
100
AcDbEntity
  8
0
100
AcDbLine
 10
3.71516909571572
 20
2.603574207621458
 30
0.0
 11
3.732237408272932
 21
2.596508719673736
 31
0.0
  0
LINE
  5
1B8
330
1F
100
AcDbEntity
  8
0
100
AcDbLine
 10
3.696855460201522
 20
2.605984110543795
 30
0.0
 11
3.71516909571572
 21
2.603574207621458
 31
0.0
  0
LINE
  5
1B9
330
1F
100
AcDbEntity
  8
0
100
AcDbLine
 10
3.661484062834
 20
2.596508719673736
 30
0.0
 11
3.678544508077646
 21
2.603574207621458
 31
0.0
  0
LINE
  5
1BA
330
1F
100
AcDbEntity
  8
0
100
AcDbLine
 10
3.64683673807898
 20
2.58526912048248
 30
0.0
 11
3.661484062834
 21
2.596508719673736
 31
0.0
  0
LINE
  5
1BB
330
1F
100
AcDbEntity
  8
0
100
AcDbLine
 10
3.635600714722916
 20
2.57062133253013
 30
0.0
 11
3.64683673807898
 21
2.58526912048248
 31
0.0
  0
LINE
  5
1BC
330
1F
100
AcDbEntity
  8
0
100
AcDbLine
 10
3.628541719295856
 20
2.553563540730455
 30
0.0
 11
3.635600714722916
 21
2.57062133253013
 31
0.0
  0
LINE
  5
1BD
330
1F
100
AcDbEntity
  8
0
100
AcDbLine
 10
3.626140838242091
 20
2.535258177858727
 30
0.0
 11
3.628541719295856
 21
2.553563540730455
 31
0.0
  0
LINE
  5
1BE
330
1F
100
AcDbEntity
  8
0
100
AcDbLine
 10
3.628561725286501
 20
2.516952714060246
 30
0.0
 11
3.626140838242091
 21
2.535258177858727
 31
0.0
  0
LINE
  5
1BF
330
1F
100
AcDbEntity
  8
0
100
AcDbLine
 10
3.635639438615805
 20
2.499894646523569
 30
0.0
 11
3.628561725286501
 21
2.516952714060246
 31
0.0
  0
LINE
  5
1C0
330
1F
100
AcDbEntity
  8
0
100
AcDbLine
 10
3.646891671305362
 20
2.485246481907457
 30
0.0
 11
3.635639438615805
 21
2.499894646523569
 31
0.0
  0
LINE
  5
1C1
330
1F
100
AcDbEntity
  8
0
100
AcDbLine
 10
3.66155161235888
 20
2.474006506052451
 30
0.0
 11
3.646891671305362
 21
2.485246481907457
 31
0.0
  0
LINE
  5
1C2
330
1F
100
AcDbEntity
  8
0
100
AcDbLine
 10
3.678620200913092
 20
2.466940742367722
 30
0.0
 11
3.66155161235888
 21
2.474006506052451
 31
0.0
  0
LINE
  5
1C3
330
1F
100
AcDbEntity
  8
0
100
AcDbLine
 10
3.696934213292687
 20
2.464530738518635
 30
0.0
 11
3.678620200913092
 21
2.466940742367722
 31
0.0
  0
LINE
  5
1C4
330
1F
100
AcDbEntity
  8
0
100
AcDbLine
 10
3.715245542169582
 20
2.466940742367722
 30
0.0
 11
3.696934213292687
 21
2.464530738518635
 31
0.0
  0
LINE
  5
1C5
330
1F
100
AcDbEntity
  8
0
100
AcDbLine
 10
3.732306263103198
 20
2.474006506052453
 30
0.0
 11
3.715245542169582
 21
2.466940742367722
 31
0.0
  0
LINE
  5
1C6
330
1F
100
AcDbEntity
  8
0
100
AcDbLine
 10
3.746953688614237
 20
2.485246481907459
 30
0.0
 11
3.732306263103198
 21
2.474006506052453
 31
0.0
  0
LINE
  5
1C7
330
1F
100
AcDbEntity
  8
0
100
AcDbLine
 10
3.75818961079487
 20
2.499894646523567
 30
0.0
 11
3.746953688614237
 21
2.485246481907459
 31
0.0
  0
LINE
  5
1C8
330
1F
100
AcDbEntity
  8
0
100
AcDbLine
 10
4.049993426304876
 20
3.61239826459966
 30
0.0
 11
4.039195473431146
 21
3.641860986074119
 31
0.0
  0
LINE
  5
1C9
330
1F
100
AcDbEntity
  8
0
100
AcDbLine
 10
4.039195473431146
 20
3.641860986074119
 30
0.0
 11
4.025337032483113
 21
3.670016718377843
 31
0.0
  0
LINE
  5
1CA
330
1F
100
AcDbEntity
  8
0
100
AcDbLine
 10
4.025337032483113
 20
3.670016718377843
 30
0.0
 11
4.008574010378158
 21
3.696548806003288
 31
0.0
  0
LINE
  5
1CB
330
1F
100
AcDbEntity
  8
0
100
AcDbLine
 10
4.008574010378158
 20
3.696548806003288
 30
0.0
 11
3.989094975976621
 21
3.721158861228425
 31
0.0
  0
LINE
  5
1CC
330
1F
100
AcDbEntity
  8
0
100
AcDbLine
 10
3.989094975976621
 20
3.721158861228425
 30
0.0
 11
3.967119038173926
 21
3.743570118449863
 31
0.0
  0
LINE
  5
1CD
330
1F
100
AcDbEntity
  8
0
100
AcDbLine
 10
3.967119038173926
 20
3.743570118449863
 30
0.0
 11
3.94289338090249
 21
3.763530545164523
 31
0.0
  0
LINE
  5
1CE
330
1F
100
AcDbEntity
  8
0
100
AcDbLine
 10
3.94289338090249
 20
3.763530545164523
 30
0.0
 11
3.916690482791128
 21
3.780815674699707
 31
0.0
  0
LINE
  5
1CF
330
1F
100
AcDbEntity
  8
0
100
AcDbLine
 10
3.916690482791128
 20
3.780815674699707
 30
0.0
 11
3.888805052756823
 21
3.795231128923774
 31
0.0
  0
LINE
  5
1D0
330
1F
100
AcDbEntity
  8
0
100
AcDbLine
 10
3.888805052756823
 20
3.795231128923774
 30
0.0
 11
3.859550715978957
 21
3.80661480265489
 31
0.0
  0
LINE
  5
1D1
330
1F
100
AcDbEntity
  8
0
100
AcDbLine
 10
3.859550715978957
 20
3.80661480265489
 30
0.0
 11
3.829256487494603
 21
3.81483868528469
 31
0.0
  0
LINE
  5
1D2
330
1F
100
AcDbEntity
  8
0
100
AcDbLine
 10
3.829256487494603
 20
3.81483868528469
 30
0.0
 11
3.798263073024911
 21
3.819810299204478
 31
0.0
  0
LINE
  5
1D3
330
1F
100
AcDbEntity
  8
0
100
AcDbLine
 10
3.798263073024911
 20
3.819810299204478
 30
0.0
 11
3.766919038570845
 21
3.821473738918535
 31
0.0
  0
LINE
  5
1D4
330
1F
100
AcDbEntity
  8
0
100
AcDbLine
 10
4.049993426304876
 20
3.61239826459966
 30
0.0
 11
4.05070562377383
 21
2.444894082113336
 31
0.0
  0
LINE
  5
1D5
330
1F
100
AcDbEntity
  8
0
100
AcDbLine
 10
3.765390785115189
 20
2.265724895635393
 30
0.0
 11
3.794960768545506
 21
2.26710718644798
 31
0.0
  0
LINE
  5
1D6
330
1F
100
AcDbEntity
  8
0
100
AcDbLine
 10
3.794960768545506
 20
2.26710718644798
 30
0.0
 11
3.824271078469789
 21
2.271241991638298
 31
0.0
  0
LINE
  5
1D7
330
1F
100
AcDbEntity
  8
0
100
AcDbLine
 10
3.824271078469789
 20
2.271241991638298
 30
0.0
 11
3.853065876552778
 21
2.278093214899446
 31
0.0
  0
LINE
  5
1D8
330
1F
100
AcDbEntity
  8
0
100
AcDbLine
 10
3.853065876552778
 20
2.278093214899446
 30
0.0
 11
3.881093826053716
 21
2.287601046247072
 31
0.0
  0
LINE
  5
1D9
330
1F
100
AcDbEntity
  8
0
100
AcDbLine
 10
3.881093826053716
 20
2.287601046247072
 30
0.0
 11
3.908110286488967
 21
2.299682484583036
 31
0.0
  0
LINE
  5
1DA
330
1F
100
AcDbEntity
  8
0
100
AcDbLine
 10
3.908110286488967
 20
2.299682484583036
 30
0.0
 11
3.933879449726195
 21
2.314232062860065
 31
0.0
  0
LINE
  5
1DB
330
1F
100
AcDbEntity
  8
0
100
AcDbLine
 10
3.933879449726195
 20
2.314232062860065
 30
0.0
 11
3.958176398832129
 21
2.331122769491338
 31
0.0
  0
LINE
  5
1DC
330
1F
100
AcDbEntity
  8
0
100
AcDbLine
 10
3.958176398832129
 20
2.331122769491338
 30
0.0
 11
3.980789071675686
 21
2.350207157930192
 31
0.0
  0
LINE
  5
1DD
330
1F
100
AcDbEntity
  8
0
100
AcDbLine
 10
3.980789071675686
 20
2.350207157930192
 30
0.0
 11
4.00152011212629
 21
2.371318634697952
 31
0.0
  0
LINE
  5
1DE
330
1F
100
AcDbEntity
  8
0
100
AcDbLine
 10
4.00152011212629
 20
2.371318634697952
 30
0.0
 11
4.020188592675658
 21
2.394272914576847
 31
0.0
  0
LINE
  5
1DF
330
1F
100
AcDbEntity
  8
0
100
AcDbLine
 10
4.020188592675658
 20
2.394272914576847
 30
0.0
 11
4.036631593441564
 21
2.418869630223886
 31
0.0
  0
LINE
  5
1E0
330
1F
100
AcDbEntity
  8
0
100
AcDbLine
 10
4.036631593441564
 20
2.418869630223886
 30
0.0
 11
4.05070562377383
 21
2.444894082113336
 31
0.0
  0
LINE
  5
1E1
330
1F
100
AcDbEntity
  8
0
100
AcDbLine
 10
3.343159241378409
 20
2.466940742367722
 30
0.0
 11
3.346138562601364
 21
2.440309187421048
 31
0.0
  0
LINE
  5
1E2
330
1F
100
AcDbEntity
  8
0
100
AcDbLine
 10
3.346138562601364
 20
2.440309187421048
 30
0.0
 11
3.352466828094734
 21
2.414267110696662
 31
0.0
  0
LINE
  5
1E3
330
1F
100
AcDbEntity
  8
0
100
AcDbLine
 10
3.352466828094734
 20
2.414267110696662
 30
0.0
 11
3.362042222655578
 21
2.389233670269796
 31
0.0
  0
LINE
  5
1E4
330
1F
100
AcDbEntity
  8
0
100
AcDbLine
 10
3.362042222655578
 20
2.389233670269796
 30
0.0
 11
3.374710663648827
 21
2.365611799041698
 31
0.0
  0
LINE
  5
1E5
330
1F
100
AcDbEntity
  8
0
100
AcDbLine
 10
3.374710663648827
 20
2.365611799041698
 30
0.0
 11
3.390268278968024
 21
2.343781717910391
 31
0.0
  0
LINE
  5
1E6
330
1F
100
AcDbEntity
  8
0
100
AcDbLine
 10
3.390268278968024
 20
2.343781717910391
 30
0.0
 11
3.408464686844101
 21
2.324094814049658
 31
0.0
  0
LINE
  5
1E7
330
1F
100
AcDbEntity
  8
0
100
AcDbLine
 10
3.408464686844101
 20
2.324094814049658
 30
0.0
 11
3.42900702480777
 21
2.306867982963291
 31
0.0
  0
LINE
  5
1E8
330
1F
100
AcDbEntity
  8
0
100
AcDbLine
 10
3.42900702480777
 20
2.306867982963291
 30
0.0
 11
3.451564663015493
 21
2.292378525536223
 31
0.0
  0
LINE
  5
1E9
330
1F
100
AcDbEntity
  8
0
100
AcDbLine
 10
3.451564663015493
 20
2.292378525536223
 30
0.0
 11
3.475774526092846
 21
2.280859682380469
 31
0.0
  0
LINE
  5
1EA
330
1F
100
AcDbEntity
  8
0
100
AcDbLine
 10
3.475774526092846
 20
2.280859682380469
 30
0.0
 11
3.501246937812556
 21
2.272496877514633
 31
0.0
  0
LINE
  5
1EB
330
1F
100
AcDbEntity
  8
0
100
AcDbLine
 10
3.501246937812556
 20
2.272496877514633
 30
0.0
 11
3.527571894469047
 21
2.26742473198671
 31
0.0
  0
LINE
  5
1EC
330
1F
100
AcDbEntity
  8
0
100
AcDbLine
 10
3.527571894469047
 20
2.26742473198671
 30
0.0
 11
3.554325665875433
 21
2.265724895635392
 31
0.0
  0
LINE
  5
1ED
330
1F
100
AcDbEntity
  8
0
100
AcDbLine
 10
3.554325665875433
 20
2.265724895635392
 30
0.0
 11
3.765390785115189
 21
2.265724895635393
 31
0.0
  0
LINE
  5
1EE
330
1F
100
AcDbEntity
  8
0
100
AcDbLine
 10
3.342066614570831
 20
2.555378670695339
 30
0.0
 11
3.338366504011617
 21
2.575190335952138
 31
0.0
  0
LINE
  5
1EF
330
1F
100
AcDbEntity
  8
0
100
AcDbLine
 10
3.338366504011617
 20
2.575190335952138
 30
0.0
 11
3.33208898248196
 21
2.594343616934857
 31
0.0
  0
LINE
  5
1F0
330
1F
100
AcDbEntity
  8
0
100
AcDbLine
 10
3.33208898248196
 20
2.594343616934857
 30
0.0
 11
3.323343402825639
 21
2.61250494163142
 31
0.0
  0
LINE
  5
1F1
330
1F
100
AcDbEntity
  8
0
100
AcDbLine
 10
3.323343402825639
 20
2.61250494163142
 30
0.0
 11
3.31228209883664
 21
2.62935801916267
 31
0.0
  0
LINE
  5
1F2
330
1F
100
AcDbEntity
  8
0
100
AcDbLine
 10
3.31228209883664
 20
2.62935801916267
 30
0.0
 11
3.299097731073063
 21
2.644609347211985
 31
0.0
  0
LINE
  5
1F3
330
1F
100
AcDbEntity
  8
0
100
AcDbLine
 10
3.299097731073063
 20
2.644609347211985
 30
0.0
 11
3.284019930689559
 21
2.657993322327829
 31
0.0
  0
LINE
  5
1F4
330
1F
100
AcDbEntity
  8
0
100
AcDbLine
 10
3.284019930689559
 20
2.657993322327829
 30
0.0
 11
3.267311299787569
 21
2.669276864200787
 31
0.0
  0
LINE
  5
1F5
330
1F
100
AcDbEntity
  8
0
100
AcDbLine
 10
3.267311299787569
 20
2.669276864200787
 30
0.0
 11
3.249262837960639
 21
2.678263473489924
 31
0.0
  0
LINE
  5
1F6
330
1F
100
AcDbEntity
  8
0
100
AcDbLine
 10
3.249262837960639
 20
2.678263473489924
 30
0.0
 11
3.230188874675446
 21
2.684796652639461
 31
0.0
  0
LINE
  5
1F7
330
1F
100
AcDbEntity
  8
0
100
AcDbLine
 10
3.230188874675446
 20
2.684796652639461
 30
0.0
 11
3.210421595706396
 21
2.688762630213749
 31
0.0
  0
LINE
  5
1F8
330
1F
100
AcDbEntity
  8
0
100
AcDbLine
 10
3.210421595706396
 20
2.688762630213749
 30
0.0
 11
3.19030525888529
 21
2.690092341393963
 31
0.0
  0
LINE
  5
1F9
330
1F
100
AcDbEntity
  8
0
100
AcDbLine
 10
3.19030525888529
 20
2.690092341393963
 30
0.0
 11
-4.439711417651627
 21
2.690092341393963
 31
0.0
  0
LINE
  5
1FA
330
1F
100
AcDbEntity
  8
0
100
AcDbLine
 10
3.342066614570831
 20
2.555378670695339
 30
0.0
 11
3.343124848171447
 21
2.535253665583466
 31
0.0
  0
LINE
  5
1FB
330
1F
100
AcDbEntity
  8
0
100
AcDbLine
 10
3.343124848171447
 20
2.535253665583466
 30
0.0
 11
3.343159241378409
 21
2.466940742367722
 31
0.0
  0
LINE
  5
1FC
330
1F
100
AcDbEntity
  8
0
100
AcDbLine
 10
0.5228412841717515
 20
-2.5121492207822
 30
0.0
 11
0.5340951381248913
 21
-2.526819506528752
 31
0.0
  0
LINE
  5
1FD
330
1F
100
AcDbEntity
  8
0
100
AcDbLine
 10
3.767498361036425
 20
-1.451112763683214
 30
0.0
 11
3.760416097490526
 21
-1.434034390763265
 31
0.0
  0
LINE
  5
1FE
330
1F
100
AcDbEntity
  8
0
100
AcDbLine
 10
3.340420050673881
 20
-1.509421032533339
 30
0.0
 11
3.334157907958674
 21
-1.528597995141174
 31
0.0
  0
LINE
  5
1FF
330
1F
100
AcDbEntity
  8
0
100
AcDbLine
 10
3.631280869537982
 20
-2.459062753193276
 30
0.0
 11
3.628878183634704
 21
-2.477395763609264
 31
0.0
  0
LINE
  5
200
330
1F
100
AcDbEntity
  8
0
100
AcDbLine
 10
3.718050180883927
 20
-2.545816383159949
 30
0.0
 11
3.735123777954796
 21
-2.538739947564853
 31
0.0
  0
LINE
  5
201
330
1F
100
AcDbEntity
  8
0
100
AcDbLine
 10
-4.67441395247994
 20
-1.349611984504621
 30
0.0
 11
-4.734786614247042
 21
-1.309384919266377
 31
0.0
  0
LINE
  5
202
330
1F
100
AcDbEntity
  8
0
100
AcDbLine
 10
-5.378971491024811
 20
-1.434034390763267
 30
0.0
 11
-5.386057914938633
 21
-1.451112763683214
 31
0.0
  0
LINE
  5
203
330
1F
100
AcDbEntity
  8
0
100
AcDbLine
 10
3.301196167273599
 20
-1.578926927940893
 30
0.0
 11
3.28612202783374
 21
-1.592327988632344
 31
0.0
  0
LINE
  5
204
330
1F
100
AcDbEntity
  8
0
100
AcDbLine
 10
-5.379028818645403
 20
-1.504846412570402
 30
0.0
 11
-5.367789697731787
 21
-1.519512251150439
 31
0.0
  0
LINE
  5
205
330
1F
100
AcDbEntity
  8
0
100
AcDbLine
 10
-5.24689177071446
 20
-1.469440212994003
 30
0.0
 11
-5.249289629047005
 21
-1.451112763683214
 31
0.0
  0
LINE
  5
206
330
1F
100
AcDbEntity
  8
0
100
AcDbLine
 10
-3.876665537771558
 20
-2.405899545733891
 30
0.0
 11
-4.443118721035536
 21
-2.405899545733887
 31
0.0
  0
LINE
  5
207
330
1F
100
AcDbEntity
  8
0
100
AcDbLine
 10
-4.478173265873647
 20
-1.56122734502205
 30
0.0
 11
-4.519532837875703
 21
-1.501613133992075
 31
0.0
  0
LINE
  5
208
330
1F
100
AcDbEntity
  8
0
100
AcDbLine
 10
-2.601924000534858
 20
-1.839291988963331
 30
0.0
 11
-3.45153132652982
 21
-1.839291988963331
 31
0.0
  0
LINE
  5
209
330
1F
100
AcDbEntity
  8
0
100
AcDbLine
 10
-2.601979465710766
 20
-1.980934819382215
 30
0.0
 11
-2.601924000534858
 21
-1.839291988963331
 31
0.0
  0
LINE
  5
20A
330
1F
100
AcDbEntity
  8
0
100
AcDbLine
 10
-3.451604902772687
 20
-1.980934819382213
 30
0.0
 11
-2.601979465710766
 21
-1.980934819382215
 31
0.0
  0
LINE
  5
20B
330
1F
100
AcDbEntity
  8
0
100
AcDbLine
 10
-0.336311633545643
 20
-1.980934819382213
 30
0.0
 11
-0.336304464548285
 21
-1.839291988963329
 31
0.0
  0
LINE
  5
20C
330
1F
100
AcDbEntity
  8
0
100
AcDbLine
 10
-8.328397546199675
 20
-2.724658764172065
 30
0.0
 11
-8.317162873220903
 21
-2.739329988218463
 31
0.0
  0
LINE
  5
20D
330
1F
100
AcDbEntity
  8
0
100
AcDbLine
 10
0.5340951381248913
 20
-2.526819506528752
 30
0.0
 11
0.5487608714912345
 21
-2.538076456623458
 31
0.0
  0
LINE
  5
20E
330
1F
100
AcDbEntity
  8
0
100
AcDbLine
 10
3.325425094283889
 20
-1.546781979414896
 30
0.0
 11
3.314373691075375
 21
-1.563656262261019
 31
0.0
  0
LINE
  5
20F
330
1F
100
AcDbEntity
  8
0
100
AcDbLine
 10
-8.198655920222054
 20
-2.707573843552465
 30
0.0
 11
-8.19622051993386
 21
-2.689239563076728
 31
0.0
  0
LINE
  5
210
330
1F
100
AcDbEntity
  8
0
100
AcDbLine
 10
-5.717150862516389
 20
-1.839291988963329
 30
0.0
 11
-5.717272734937808
 21
-1.980934819382215
 31
0.0
  0
LINE
  5
211
330
1F
100
AcDbEntity
  8
0
100
AcDbLine
 10
3.768069903654753
 20
-2.459062753193273
 30
0.0
 11
3.760986564238253
 21
-2.441979198189685
 31
0.0
  0
LINE
  5
212
330
1F
100
AcDbEntity
  8
0
100
AcDbLine
 10
-5.299310360027527
 20
-1.401041756450026
 30
0.0
 11
-5.317631766733194
 21
-1.398628945872152
 31
0.0
  0
LINE
  5
213
330
1F
100
AcDbEntity
  8
0
100
AcDbLine
 10
-6.142085453468768
 20
-1.980934819382213
 30
0.0
 11
-6.141755952738678
 21
-1.624468424776639
 31
0.0
  0
LINE
  5
214
330
1F
100
AcDbEntity
  8
0
100
AcDbLine
 10
-8.285271768766973
 20
-2.620815990115569
 30
0.0
 11
-8.30235837713214
 21
-2.627892600513854
 31
0.0
  0
LINE
  5
215
330
1F
100
AcDbEntity
  8
0
100
AcDbLine
 10
0.6342326820402387
 20
-2.526819506528752
 30
0.0
 11
0.6454839567664895
 21
-2.5121492207822
 31
0.0
  0
LINE
  5
216
330
1F
100
AcDbEntity
  8
0
100
AcDbLine
 10
-8.216898256387642
 20
-2.639149893042046
 30
0.0
 11
-8.231549363807865
 21
-2.627892600513857
 31
0.0
  0
LINE
  5
217
330
1F
100
AcDbEntity
  8
0
100
AcDbLine
 10
-8.302511665145696
 20
-2.750587658300178
 30
0.0
 11
-8.285442387647281
 21
-2.757664545086829
 31
0.0
  0
LINE
  5
218
330
1F
100
AcDbEntity
  8
0
100
AcDbLine
 10
0.5841657338811075
 20
-2.547566534170273
 30
0.0
 11
0.6024920147389717
 21
-2.545152890805481
 31
0.0
  0
LINE
  5
219
330
1F
100
AcDbEntity
  8
0
100
AcDbLine
 10
3.529414558077003
 20
-1.201305247685963
 30
0.0
 11
3.556180483491273
 21
-1.199603635888069
 31
0.0
  0
LINE
  5
21A
330
1F
100
AcDbEntity
  8
0
100
AcDbLine
 10
3.749213481408922
 20
-1.519512251150439
 30
0.0
 11
3.76045617498632
 21
-1.504846412570402
 31
0.0
  0
LINE
  5
21B
330
1F
100
AcDbEntity
  8
0
100
AcDbLine
 10
3.735054819129345
 20
-2.416052712205935
 30
0.0
 11
3.717973618968834
 21
-2.408976552972767
 31
0.0
  0
LINE
  5
21C
330
1F
100
AcDbEntity
  8
0
100
AcDbLine
 10
3.749725730295179
 20
-2.427309287031088
 30
0.0
 11
3.735054819129345
 21
-2.416052712205935
 31
0.0
  0
LINE
  5
21D
330
1F
100
AcDbEntity
  8
0
100
AcDbLine
 10
3.760986564238253
 20
-2.441979198189685
 30
0.0
 11
3.749725730295179
 21
-2.427309287031088
 31
0.0
  0
LINE
  5
21E
330
1F
100
AcDbEntity
  8
0
100
AcDbLine
 10
-5.267587938019166
 20
-1.419368929528884
 30
0.0
 11
-5.282241351402114
 21
-1.408115769230694
 31
0.0
  0
LINE
  5
21F
330
1F
100
AcDbEntity
  8
0
100
AcDbLine
 10
-5.965898334496523
 20
-1.395335889279302
 30
0.0
 11
-5.909500397556792
 21
-1.349611984504621
 31
0.0
  0
LINE
  5
220
330
1F
100
AcDbEntity
  8
0
100
AcDbLine
 10
-5.909500397556792
 20
-1.349611984504621
 30
0.0
 11
-5.849063654998623
 21
-1.309384919266377
 31
0.0
  0
LINE
  5
221
330
1F
100
AcDbEntity
  8
0
100
AcDbLine
 10
-4.566309225520228
 20
-1.44615261764318
 30
0.0
 11
-4.618088852670418
 21
-1.395335889279302
 31
0.0
  0
LINE
  5
222
330
1F
100
AcDbEntity
  8
0
100
AcDbLine
 10
4.012395425264296
 20
-2.632538949781557
 30
0.0
 11
3.992927437825602
 21
-2.657196132298907
 31
0.0
  0
LINE
  5
223
330
1F
100
AcDbEntity
  8
0
100
AcDbLine
 10
-8.335404076365828
 20
-2.670905383766157
 30
0.0
 11
-8.33783985393055
 21
-2.689239563076729
 31
0.0
  0
LINE
  5
224
330
1F
100
AcDbEntity
  8
0
100
AcDbLine
 10
-5.849063654998623
 20
-1.309384919266377
 30
0.0
 11
-5.785122327284298
 21
-1.275010125737273
 31
0.0
  0
LINE
  5
225
330
1F
100
AcDbEntity
  8
0
100
AcDbLine
 10
-8.976083674120726
 20
-3.397695328183193
 30
0.0
 11
-8.97417024367517
 21
-1.980934819382213
 31
0.0
  0
LINE
  5
226
330
1F
100
AcDbEntity
  8
0
100
AcDbLine
 10
-4.443118721035536
 20
-2.405899545733887
 30
0.0
 11
-4.443213443009155
 21
-2.547566534170275
 31
0.0
  0
LINE
  5
227
330
1F
100
AcDbEntity
  8
0
100
AcDbLine
 10
-5.649012537557576
 20
-1.22497780992514
 30
0.0
 11
-5.578047050994989
 21
-1.209762323899045
 31
0.0
  0
LINE
  5
228
330
1F
100
AcDbEntity
  8
0
100
AcDbLine
 10
0.5157662310816779
 20
-2.495065392828082
 30
0.0
 11
0.5228412841717515
 21
-2.5121492207822
 31
0.0
  0
LINE
  5
229
330
1F
100
AcDbEntity
  8
0
100
AcDbLine
 10
0.6024920147389717
 20
-2.545152890805481
 30
0.0
 11
0.6195689277920159
 21
-2.538076456623458
 31
0.0
  0
LINE
  5
22A
330
1F
100
AcDbEntity
  8
0
100
AcDbLine
 10
3.50308120315678
 20
-1.20638270133162
 30
0.0
 11
3.529414558077003
 21
-1.201305247685963
 31
0.0
  0
LINE
  5
22B
330
1F
100
AcDbEntity
  8
0
100
AcDbLine
 10
3.663692271759804
 20
-1.408115769230692
 30
0.0
 11
3.649036117056744
 21
-1.419368929528882
 31
0.0
  0
LINE
  5
22C
330
1F
100
AcDbEntity
  8
0
100
AcDbLine
 10
3.770130944427364
 20
-1.839291988963331
 30
0.0
 11
2.920523618432401
 21
-1.839291988963329
 31
0.0
  0
LINE
  5
22D
330
1F
100
AcDbEntity
  8
0
100
AcDbLine
 10
3.681397191158755
 20
-2.545816383159947
 30
0.0
 11
3.699725029799232
 21
-2.548230027006716
 31
0.0
  0
LINE
  5
22E
330
1F
100
AcDbEntity
  8
0
100
AcDbLine
 10
3.749782256003487
 20
-2.527482995222276
 30
0.0
 11
3.761026653894798
 21
-2.512812706546263
 31
0.0
  0
LINE
  5
22F
330
1F
100
AcDbEntity
  8
0
100
AcDbLine
 10
-5.249318588497681
 20
-1.487767763414257
 30
0.0
 11
-5.24689177071446
 21
-1.469440212994003
 31
0.0
  0
LINE
  5
230
330
1F
100
AcDbEntity
  8
0
100
AcDbLine
 10
2.354118734435762
 20
-1.839291988963331
 30
0.0
 11
1.504511408440799
 21
-1.839291988963331
 31
0.0
  0
LINE
  5
231
330
1F
100
AcDbEntity
  8
0
100
AcDbLine
 10
-8.23170134446121
 20
-2.750587658300178
 30
0.0
 11
-8.217022126994262
 21
-2.739329988218463
 31
0.0
  0
LINE
  5
232
330
1F
100
AcDbEntity
  8
0
100
AcDbLine
 10
-5.005644521744193
 20
-1.209762323899045
 30
0.0
 11
-5.077705752562045
 21
-1.201279284293569
 31
0.0
  0
LINE
  5
233
330
1F
100
AcDbEntity
  8
0
100
AcDbLine
 10
-5.505972306889868
 20
-1.201279284293569
 30
0.0
 11
-5.433425283868946
 21
-1.199603635888064
 31
0.0
  0
LINE
  5
234
330
1F
100
AcDbEntity
  8
0
100
AcDbLine
 10
-8.19622051993386
 20
-2.689239563076728
 30
0.0
 11
-8.198610681557911
 21
-2.670905383766157
 31
0.0
  0
LINE
  5
235
330
1F
100
AcDbEntity
  8
0
100
AcDbLine
 10
-5.249289629047005
 20
-1.451112763683214
 30
0.0
 11
-5.256348715716002
 21
-1.434034390763265
 31
0.0
  0
LINE
  5
236
330
1F
100
AcDbEntity
  8
0
100
AcDbLine
 10
-6.143395040092017
 20
-3.397695328183193
 30
0.0
 11
-8.976083674120726
 21
-3.397695328183193
 31
0.0
  0
LINE
  5
237
330
1F
100
AcDbEntity
  8
0
100
AcDbLine
 10
3.631300905744755
 20
-2.495728875180736
 30
0.0
 11
3.638383969055007
 21
-2.51281270654626
 31
0.0
  0
LINE
  5
238
330
1F
100
AcDbEntity
  8
0
100
AcDbLine
 10
-5.386087628917007
 20
-1.487767763414257
 30
0.0
 11
-5.379028818645403
 21
-1.504846412570402
 31
0.0
  0
LINE
  5
239
330
1F
100
AcDbEntity
  8
0
100
AcDbLine
 10
-5.785122327284298
 20
-1.275010125737273
 30
0.0
 11
-5.718241581173
 21
-1.246791317275822
 31
0.0
  0
LINE
  5
23A
330
1F
100
AcDbEntity
  8
0
100
AcDbLine
 10
-4.867647297875887
 20
-1.980934819382213
 30
0.0
 11
-4.867543536521426
 21
-1.839291988963333
 31
0.0
  0
LINE
  5
23B
330
1F
100
AcDbEntity
  8
0
100
AcDbLine
 10
2.354168917150435
 20
-1.980934819382211
 30
0.0
 11
2.354118734435762
 21
-1.839291988963331
 31
0.0
  0
LINE
  5
23C
330
1F
100
AcDbEntity
  8
0
100
AcDbLine
 10
3.232282617738633
 20
-1.619165860219949
 30
0.0
 11
3.212506364788217
 21
-1.623136985538586
 31
0.0
  0
LINE
  5
23D
330
1F
100
AcDbEntity
  8
0
100
AcDbLine
 10
-6.017758911527937
 20
-1.44615261764318
 30
0.0
 11
-5.965898334496523
 21
-1.395335889279302
 31
0.0
  0
LINE
  5
23E
330
1F
100
AcDbEntity
  8
0
100
AcDbLine
 10
-6.10607818257242
 20
-1.56122734502205
 30
0.0
 11
-6.064623646501295
 21
-1.501613133992075
 31
0.0
  0
LINE
  5
23F
330
1F
100
AcDbEntity
  8
0
100
AcDbLine
 10
3.453393584720585
 20
-1.226285305578172
 30
0.0
 11
3.477604208164353
 21
-1.214754291949789
 31
0.0
  0
LINE
  5
240
330
1F
100
AcDbEntity
  8
0
100
AcDbLine
 10
3.430838969731436
 20
-1.240790185792389
 30
0.0
 11
3.453393584720585
 21
-1.226285305578172
 31
0.0
  0
LINE
  5
241
330
1F
100
AcDbEntity
  8
0
100
AcDbLine
 10
-5.353136183563304
 20
-1.530765788794292
 30
0.0
 11
-5.336066898982669
 21
-1.537840077811151
 31
0.0
  0
LINE
  5
242
330
1F
100
AcDbEntity
  8
0
100
AcDbLine
 10
-5.367789697731787
 20
-1.519512251150439
 30
0.0
 11
-5.353136183563304
 21
-1.530765788794292
 31
0.0
  0
LINE
  5
243
330
1F
100
AcDbEntity
  8
0
100
AcDbLine
 10
-8.32830876904607
 20
-2.65382073953492
 30
0.0
 11
-8.335404076365828
 21
-2.670905383766157
 31
0.0
  0
LINE
  5
244
330
1F
100
AcDbEntity
  8
0
100
AcDbLine
 10
3.314373691075375
 20
-1.563656262261019
 30
0.0
 11
3.301196167273599
 21
-1.578926927940893
 31
0.0
  0
LINE
  5
245
330
1F
100
AcDbEntity
  8
0
100
AcDbLine
 10
3.638383969055007
 20
-2.51281270654626
 30
0.0
 11
3.649644702090052
 21
-2.527482995222274
 31
0.0
  0
LINE
  5
246
330
1F
100
AcDbEntity
  8
0
100
AcDbLine
 10
3.344102476226148
 20
-1.489585104477053
 30
0.0
 11
3.345141071508585
 21
-1.469435695274431
 31
0.0
  0
LINE
  5
247
330
1F
100
AcDbEntity
  8
0
100
AcDbLine
 10
4.029142208576216
 20
-2.605956463986624
 30
0.0
 11
4.012395425264296
 21
-2.632538949781557
 31
0.0
  0
LINE
  5
248
330
1F
100
AcDbEntity
  8
0
100
AcDbLine
 10
3.192378243909209
 20
-1.624468424776639
 30
0.0
 11
-4.44259623729504
 21
-1.624468424776639
 31
0.0
  0
LINE
  5
249
330
1F
100
AcDbEntity
  8
0
100
AcDbLine
 10
3.768090694618173
 20
-2.495728875180738
 30
0.0
 11
3.770493003086811
 21
-2.477395763609264
 31
0.0
  0
LINE
  5
24A
330
1F
100
AcDbEntity
  8
0
100
AcDbLine
 10
3.863358224176564
 20
-2.742818558850632
 30
0.0
 11
3.833043610863508
 21
-2.751058695890894
 31
0.0
  0
LINE
  5
24B
330
1F
100
AcDbEntity
  8
0
100
AcDbLine
 10
3.92052387475434
 20
-2.716968704292227
 30
0.0
 11
3.892628065024049
 21
-2.731412452825119
 31
0.0
  0
LINE
  5
24C
330
1F
100
AcDbEntity
  8
0
100
AcDbLine
 10
-4.618088852670418
 20
-1.395335889279302
 30
0.0
 11
-4.67441395247994
 21
-1.349611984504621
 31
0.0
  0
LINE
  5
24D
330
1F
100
AcDbEntity
  8
0
100
AcDbLine
 10
0.5658273769437734
 20
-2.408313087943225
 30
0.0
 11
0.5487507401264866
 21
-2.415389245763397
 31
0.0
  0
LINE
  5
24E
330
1F
100
AcDbEntity
  8
0
100
AcDbLine
 10
0.584153280432282
 20
-2.405899545733887
 30
0.0
 11
0.5658273769437734
 21
-2.408313087943225
 31
0.0
  0
LINE
  5
24F
330
1F
100
AcDbEntity
  8
0
100
AcDbLine
 10
0.6342231213656296
 20
-2.426645818340798
 30
0.0
 11
0.6195574891506694
 21
-2.415389245763399
 31
0.0
  0
LINE
  5
250
330
1F
100
AcDbEntity
  8
0
100
AcDbLine
 10
3.892628065024049
 20
-2.731412452825119
 30
0.0
 11
3.863358224176564
 21
-2.742818558850632
 31
0.0
  0
LINE
  5
251
330
1F
100
AcDbEntity
  8
0
100
AcDbLine
 10
-5.718241581173
 20
-1.246791317275822
 30
0.0
 11
-5.649012537557576
 21
-1.22497780992514
 31
0.0
  0
LINE
  5
252
330
1F
100
AcDbEntity
  8
0
100
AcDbLine
 10
3.663759902787057
 20
-1.530765788794292
 30
0.0
 11
3.680838787809519
 21
-1.537840077811151
 31
0.0
  0
LINE
  5
253
330
1F
100
AcDbEntity
  8
0
100
AcDbLine
 10
-2.177352405537492
 20
-2.547566534170275
 30
0.0
 11
-1.610887146169576
 21
-2.547566534170273
 31
0.0
  0
LINE
  5
254
330
1F
100
AcDbEntity
  8
0
100
AcDbLine
 10
3.628878183634704
 20
-2.477395763609264
 30
0.0
 11
3.631300905744755
 21
-2.495728875180736
 31
0.0
  0
LINE
  5
255
330
1F
100
AcDbEntity
  8
0
100
AcDbLine
 10
3.649589685895038
 20
-2.427309287031089
 30
0.0
 11
3.638345186675326
 21
-2.441979198189685
 31
0.0
  0
LINE
  5
256
330
1F
100
AcDbEntity
  8
0
100
AcDbLine
 10
0.6549669097467704
 20
-2.476732284917467
 30
0.0
 11
0.6525524057296108
 21
-2.458399278162313
 31
0.0
  0
LINE
  5
257
330
1F
100
AcDbEntity
  8
0
100
AcDbLine
 10
3.770211312253636
 20
-1.980934819382211
 30
0.0
 11
3.770130944427364
 21
-1.839291988963331
 31
0.0
  0
LINE
  5
258
330
1F
100
AcDbEntity
  8
0
100
AcDbLine
 10
-8.317037493004744
 20
-2.639149893042044
 30
0.0
 11
-8.32830876904607
 21
-2.65382073953492
 31
0.0
  0
LINE
  5
259
330
1F
100
AcDbEntity
  8
0
100
AcDbLine
 10
3.699163846234709
 20
-1.540252989498489
 30
0.0
 11
3.717486217919369
 21
-1.537840077811151
 31
0.0
  0
LINE
  5
25A
330
1F
100
AcDbEntity
  8
0
100
AcDbLine
 10
3.946731857151761
 20
-2.699649813392375
 30
0.0
 11
3.92052387475434
 21
-2.716968704292227
 31
0.0
  0
LINE
  5
25B
330
1F
100
AcDbEntity
  8
0
100
AcDbLine
 10
-5.267667332886079
 20
-1.519512251150439
 30
0.0
 11
-5.256404736456282
 21
-1.504846412570402
 31
0.0
  0
LINE
  5
25C
330
1F
100
AcDbEntity
  8
0
100
AcDbLine
 10
0.6195689277920159
 20
-2.538076456623458
 30
0.0
 11
0.6342326820402387
 21
-2.526819506528752
 31
0.0
  0
LINE
  5
25D
330
1F
100
AcDbEntity
  8
0
100
AcDbLine
 10
2.920523618432401
 20
-1.839291988963329
 30
0.0
 11
2.920585875191711
 21
-1.980934819382215
 31
0.0
  0
LINE
  5
25E
330
1F
100
AcDbEntity
  8
0
100
AcDbLine
 10
-1.185937070607564
 20
-1.980934819382211
 30
0.0
 11
-0.336311633545643
 21
-1.980934819382213
 31
0.0
  0
LINE
  5
25F
330
1F
100
AcDbEntity
  8
0
100
AcDbLine
 10
3.649644702090052
 20
-2.527482995222274
 30
0.0
 11
3.664315714584283
 21
-2.538739947564851
 31
0.0
  0
LINE
  5
260
330
1F
100
AcDbEntity
  8
0
100
AcDbLine
 10
3.761026653894798
 20
-2.512812706546263
 30
0.0
 11
3.768090694618173
 21
-2.495728875180738
 31
0.0
  0
LINE
  5
261
330
1F
100
AcDbEntity
  8
0
100
AcDbLine
 10
-5.353037367563149
 20
-1.408115769230692
 30
0.0
 11
-5.367708793809475
 21
-1.419368929528882
 31
0.0
  0
LINE
  5
262
330
1F
100
AcDbEntity
  8
0
100
AcDbLine
 10
2.920585875191711
 20
-1.980934819382215
 30
0.0
 11
3.770211312253636
 21
-1.980934819382211
 31
0.0
  0
LINE
  5
263
330
1F
100
AcDbEntity
  8
0
100
AcDbLine
 10
-8.198610681557911
 20
-2.670905383766157
 30
0.0
 11
-8.205663481814526
 21
-2.653820739534918
 31
0.0
  0
LINE
  5
264
330
1F
100
AcDbEntity
  8
0
100
AcDbLine
 10
-4.865508977902224
 20
-1.246791317275822
 30
0.0
 11
-4.934703273101409
 21
-1.22497780992514
 31
0.0
  0
LINE
  5
265
330
1F
100
AcDbEntity
  8
0
100
AcDbLine
 10
3.344102476226148
 20
-1.489585104477053
 30
0.0
 11
3.340420050673881
 21
-1.509421032533339
 31
0.0
  0
LINE
  5
266
330
1F
100
AcDbEntity
  8
0
100
AcDbLine
 10
3.680838787809519
 20
-1.537840077811151
 30
0.0
 11
3.699163846234709
 21
-1.540252989498489
 31
0.0
  0
LINE
  5
267
330
1F
100
AcDbEntity
  8
0
100
AcDbLine
 10
3.637832092797199
 20
-1.504846412570402
 30
0.0
 11
3.649091116563213
 21
-1.519512251150439
 31
0.0
  0
LINE
  5
268
330
1F
100
AcDbEntity
  8
0
100
AcDbLine
 10
3.630750105273815
 20
-1.487767763414257
 30
0.0
 11
3.637832092797199
 21
-1.504846412570402
 31
0.0
  0
LINE
  5
269
330
1F
100
AcDbEntity
  8
0
100
AcDbLine
 10
0.5487608714912345
 20
-2.538076456623458
 30
0.0
 11
0.5658390286733741
 21
-2.545152890805481
 31
0.0
  0
LINE
  5
26A
330
1F
100
AcDbEntity
  8
0
100
AcDbLine
 10
3.734488287920839
 20
-1.408115769230694
 30
0.0
 11
3.717409679228475
 21
-1.401041756450026
 31
0.0
  0
LINE
  5
26B
330
1F
100
AcDbEntity
  8
0
100
AcDbLine
 10
3.982967809697333
 20
-1.284176247458043
 30
0.0
 11
4.003735661181558
 21
-1.305310974147161
 31
0.0
  0
LINE
  5
26C
330
1F
100
AcDbEntity
  8
0
100
AcDbLine
 10
3.348060830913902
 20
-1.374379380538403
 30
0.0
 11
3.354366413892227
 21
-1.34830757880383
 31
0.0
  0
LINE
  5
26D
330
1F
100
AcDbEntity
  8
0
100
AcDbLine
 10
3.354366413892227
 20
-1.34830757880383
 30
0.0
 11
3.363921863610617
 21
-1.323245950291928
 31
0.0
  0
LINE
  5
26E
330
1F
100
AcDbEntity
  8
0
100
AcDbLine
 10
3.363921863610617
 20
-1.323245950291928
 30
0.0
 11
3.376573357474542
 21
-1.299597827078461
 31
0.0
  0
LINE
  5
26F
330
1F
100
AcDbEntity
  8
0
100
AcDbLine
 10
3.376573357474542
 20
-1.299597827078461
 30
0.0
 11
3.392117250816925
 21
-1.277743784510308
 31
0.0
  0
LINE
  5
270
330
1F
100
AcDbEntity
  8
0
100
AcDbLine
 10
-1.185911790543249
 20
-1.839291988963329
 30
0.0
 11
-1.185937070607564
 21
-1.980934819382211
 31
0.0
  0
LINE
  5
271
330
1F
100
AcDbEntity
  8
0
100
AcDbLine
 10
-5.282241351402114
 20
-1.408115769230694
 30
0.0
 11
-5.299310360027527
 21
-1.401041756450026
 31
0.0
  0
LINE
  5
272
330
1F
100
AcDbEntity
  8
0
100
AcDbLine
 10
3.769921091354059
 20
-1.469440212994003
 30
0.0
 11
3.767498361036425
 21
-1.451112763683214
 31
0.0
  0
LINE
  5
273
330
1F
100
AcDbEntity
  8
0
100
AcDbLine
 10
0.5487507401264866
 20
-2.415389245763397
 30
0.0
 11
0.5340870869632743
 21
-2.426645818340796
 31
0.0
  0
LINE
  5
274
330
1F
100
AcDbEntity
  8
0
100
AcDbLine
 10
3.410303355952223
 20
-1.258035518144256
 30
0.0
 11
3.430838969731436
 21
-1.240790185792389
 31
0.0
  0
LINE
  5
275
330
1F
100
AcDbEntity
  8
0
100
AcDbLine
 10
-5.282338860521958
 20
-1.530765788794292
 30
0.0
 11
-5.267667332886079
 21
-1.519512251150439
 31
0.0
  0
LINE
  5
276
330
1F
100
AcDbEntity
  8
0
100
AcDbLine
 10
-5.336066898982669
 20
-1.537840077811151
 30
0.0
 11
-5.317745115094077
 21
-1.540252989498489
 31
0.0
  0
LINE
  5
277
330
1F
100
AcDbEntity
  8
0
100
AcDbLine
 10
3.680763003646324
 20
-1.401041756450026
 30
0.0
 11
3.663692271759804
 21
-1.408115769230692
 31
0.0
  0
LINE
  5
278
330
1F
100
AcDbEntity
  8
0
100
AcDbLine
 10
1.504543480088514
 20
-1.980934819382215
 30
0.0
 11
2.354168917150435
 21
-1.980934819382211
 31
0.0
  0
LINE
  5
279
330
1F
100
AcDbEntity
  8
0
100
AcDbLine
 10
-8.217022126994262
 20
-2.739329988218463
 30
0.0
 11
-8.20575095160792
 21
-2.724658764172065
 31
0.0
  0
LINE
  5
27A
330
1F
100
AcDbEntity
  8
0
100
AcDbLine
 10
-1.610852804715645
 20
-2.405899545733891
 30
0.0
 11
-2.177305987979623
 21
-2.405899545733887
 31
0.0
  0
LINE
  5
27B
330
1F
100
AcDbEntity
  8
0
100
AcDbLine
 10
0.6525560062975897
 20
-2.495065392828082
 30
0.0
 11
0.6549669097467704
 21
-2.476732284917467
 31
0.0
  0
LINE
  5
27C
330
1F
100
AcDbEntity
  8
0
100
AcDbLine
 10
-8.97417024367517
 20
-1.980934819382213
 30
0.0
 11
-6.142085453468768
 21
-1.980934819382213
 31
0.0
  0
LINE
  5
27D
330
1F
100
AcDbEntity
  8
0
100
AcDbLine
 10
3.556180483491273
 20
-1.199603635888069
 30
0.0
 11
3.767355746633995
 21
-1.199603635888071
 31
0.0
  0
LINE
  5
27E
330
1F
100
AcDbEntity
  8
0
100
AcDbLine
 10
3.628327752163739
 20
-1.469440212994005
 30
0.0
 11
3.630750105273815
 21
-1.487767763414257
 31
0.0
  0
LINE
  5
27F
330
1F
100
AcDbEntity
  8
0
100
AcDbLine
 10
3.681321384000313
 20
-2.408976552972769
 30
0.0
 11
3.664248063035688
 21
-2.416052712205935
 31
0.0
  0
LINE
  5
280
330
1F
100
AcDbEntity
  8
0
100
AcDbLine
 10
3.833043610863508
 20
-2.751058695890894
 30
0.0
 11
3.802025241152839
 21
-2.756040155960974
 31
0.0
  0
LINE
  5
281
330
1F
100
AcDbEntity
  8
0
100
AcDbLine
 10
3.664315714584283
 20
-2.538739947564851
 30
0.0
 11
3.681397191158755
 21
-2.545816383159947
 31
0.0
  0
LINE
  5
282
330
1F
100
AcDbEntity
  8
0
100
AcDbLine
 10
-5.299419468872819
 20
-1.537840077811151
 30
0.0
 11
-5.282338860521958
 21
-1.530765788794292
 31
0.0
  0
LINE
  5
283
330
1F
100
AcDbEntity
  8
0
100
AcDbLine
 10
3.477604208164353
 20
-1.214754291949789
 30
0.0
 11
3.50308120315678
 21
-1.20638270133162
 31
0.0
  0
LINE
  5
284
330
1F
100
AcDbEntity
  8
0
100
AcDbLine
 10
3.749156972847053
 20
-1.419368929528884
 30
0.0
 11
3.734488287920839
 21
-1.408115769230694
 31
0.0
  0
LINE
  5
285
330
1F
100
AcDbEntity
  8
0
100
AcDbLine
 10
-3.45153132652982
 20
-1.839291988963331
 30
0.0
 11
-3.451604902772687
 21
-1.980934819382213
 31
0.0
  0
LINE
  5
286
330
1F
100
AcDbEntity
  8
0
100
AcDbLine
 10
3.883144758564574
 20
-1.221502768831252
 30
0.0
 11
3.910189727506942
 21
-1.233597023236233
 31
0.0
  0
LINE
  5
287
330
1F
100
AcDbEntity
  8
0
100
AcDbLine
 10
3.910189727506942
 20
-1.233597023236233
 30
0.0
 11
3.9359898545774
 21
-1.24816215265646
 31
0.0
  0
LINE
  5
288
330
1F
100
AcDbEntity
  8
0
100
AcDbLine
 10
3.9359898545774
 20
-1.24816215265646
 30
0.0
 11
3.960319990671663
 21
-1.265071072876428
 31
0.0
  0
LINE
  5
289
330
1F
100
AcDbEntity
  8
0
100
AcDbLine
 10
3.960319990671663
 20
-1.265071072876428
 30
0.0
 11
3.982967809697333
 21
-1.284176247458043
 31
0.0
  0
LINE
  5
28A
330
1F
100
AcDbEntity
  8
0
100
AcDbLine
 10
-2.177305987979623
 20
-2.405899545733887
 30
0.0
 11
-2.177352405537492
 21
-2.547566534170275
 31
0.0
  0
LINE
  5
28B
330
1F
100
AcDbEntity
  8
0
100
AcDbLine
 10
0.5340870869632743
 20
-2.426645818340796
 30
0.0
 11
0.5228357110856405
 21
-2.441315726570045
 31
0.0
  0
LINE
  5
28C
330
1F
100
AcDbEntity
  8
0
100
AcDbLine
 10
-4.867543536521426
 20
-1.839291988963333
 30
0.0
 11
-5.717150862516389
 21
-1.839291988963329
 31
0.0
  0
LINE
  5
28D
330
1F
100
AcDbEntity
  8
0
100
AcDbLine
 10
-8.231549363807865
 20
-2.627892600513857
 30
0.0
 11
-8.248618365372392
 21
-2.620815990115569
 31
0.0
  0
LINE
  5
28E
330
1F
100
AcDbEntity
  8
0
100
AcDbLine
 10
3.699646157763002
 20
-2.40656301028149
 30
0.0
 11
3.681321384000313
 21
-2.408976552972769
 31
0.0
  0
LINE
  5
28F
330
1F
100
AcDbEntity
  8
0
100
AcDbLine
 10
-8.30235837713214
 20
-2.627892600513854
 30
0.0
 11
-8.317037493004744
 21
-2.639149893042044
 31
0.0
  0
LINE
  5
290
330
1F
100
AcDbEntity
  8
0
100
AcDbLine
 10
-5.317631766733194
 20
-1.398628945872152
 30
0.0
 11
-5.335957035609677
 21
-1.401041756450026
 31
0.0
  0
LINE
  5
291
330
1F
100
AcDbEntity
  8
0
100
AcDbLine
 10
-5.256348715716002
 20
-1.434034390763265
 30
0.0
 11
-5.267587938019166
 21
-1.419368929528884
 31
0.0
  0
LINE
  5
292
330
1F
100
AcDbEntity
  8
0
100
AcDbLine
 10
3.212506364788217
 20
-1.623136985538586
 30
0.0
 11
3.192378243909209
 21
-1.624468424776639
 31
0.0
  0
LINE
  5
293
330
1F
100
AcDbEntity
  8
0
100
AcDbLine
 10
-4.443353947934002
 20
-2.757706893406688
 30
0.0
 11
3.770652050997063
 21
-2.757706893406696
 31
0.0
  0
LINE
  5
294
330
1F
100
AcDbEntity
  8
0
100
AcDbLine
 10
-4.44259623729504
 20
-1.624468424776639
 30
0.0
 11
-4.478173265873647
 21
-1.56122734502205
 31
0.0
  0
LINE
  5
295
330
1F
100
AcDbEntity
  8
0
100
AcDbLine
 10
3.638345186675326
 20
-2.441979198189685
 30
0.0
 11
3.631280869537982
 21
-2.459062753193276
 31
0.0
  0
LINE
  5
296
330
1F
100
AcDbEntity
  8
0
100
AcDbLine
 10
3.76045617498632
 20
-1.504846412570402
 30
0.0
 11
3.767519145693141
 21
-1.487767763414257
 31
0.0
  0
LINE
  5
297
330
1F
100
AcDbEntity
  8
0
100
AcDbLine
 10
0.602479608252875
 20
-2.408313087943225
 30
0.0
 11
0.584153280432282
 21
-2.405899545733887
 31
0.0
  0
LINE
  5
298
330
1F
100
AcDbEntity
  8
0
100
AcDbLine
 10
0.6454770764037782
 20
-2.441315726570043
 30
0.0
 11
0.6342231213656296
 21
-2.426645818340798
 31
0.0
  0
LINE
  5
299
330
1F
100
AcDbEntity
  8
0
100
AcDbLine
 10
-8.20575095160792
 20
-2.724658764172065
 30
0.0
 11
-8.198655920222054
 21
-2.707573843552465
 31
0.0
  0
LINE
  5
29A
330
1F
100
AcDbEntity
  8
0
100
AcDbLine
 10
-8.248788229447932
 20
-2.757664545086829
 30
0.0
 11
-8.23170134446121
 21
-2.750587658300178
 31
0.0
  0
LINE
  5
29B
330
1F
100
AcDbEntity
  8
0
100
AcDbLine
 10
0.5228357110856405
 20
-2.441315726570045
 30
0.0
 11
0.5157633852701929
 21
-2.458399278162313
 31
0.0
  0
LINE
  5
29C
330
1F
100
AcDbEntity
  8
0
100
AcDbLine
 10
3.760416097490526
 20
-1.434034390763265
 30
0.0
 11
3.749156972847053
 21
-1.419368929528884
 31
0.0
  0
LINE
  5
29D
330
1F
100
AcDbEntity
  8
0
100
AcDbLine
 10
4.038924443391882
 20
-1.352915321987498
 30
0.0
 11
4.053038245825133
 21
-1.37896955088635
 31
0.0
  0
LINE
  5
29E
330
1F
100
AcDbEntity
  8
0
100
AcDbLine
 10
-5.38848510990478
 20
-1.469440212994005
 30
0.0
 11
-5.386087628917007
 21
-1.487767763414257
 31
0.0
  0
LINE
  5
29F
330
1F
100
AcDbEntity
  8
0
100
AcDbLine
 10
-8.33783985393055
 20
-2.689239563076729
 30
0.0
 11
-8.335450069834737
 21
-2.707573843552465
 31
0.0
  0
LINE
  5
2A0
330
1F
100
AcDbEntity
  8
0
100
AcDbLine
 10
-8.285442387647281
 20
-2.757664545086829
 30
0.0
 11
-8.267118311345078
 21
-2.760078342826962
 31
0.0
  0
LINE
  5
2A1
330
1F
100
AcDbEntity
  8
0
100
AcDbLine
 10
4.003735661181558
 20
-1.305310974147161
 30
0.0
 11
4.022442295029981
 21
-1.328290838485754
 31
0.0
  0
LINE
  5
2A2
330
1F
100
AcDbEntity
  8
0
100
AcDbLine
 10
4.022442295029981
 20
-1.328290838485754
 30
0.0
 11
4.038924443391882
 21
-1.352915321987498
 31
0.0
  0
LINE
  5
2A3
330
1F
100
AcDbEntity
  8
0
100
AcDbLine
 10
-8.248618365372392
 20
-2.620815990115569
 30
0.0
 11
-8.26694206439806
 21
-2.618402293540595
 31
0.0
  0
LINE
  5
2A4
330
1F
100
AcDbEntity
  8
0
100
AcDbLine
 10
3.767355746633995
 20
-1.199603635888071
 30
0.0
 11
3.796942742261918
 21
-1.200987370344614
 31
0.0
  0
LINE
  5
2A5
330
1F
100
AcDbEntity
  8
0
100
AcDbLine
 10
3.796942742261918
 20
-1.200987370344614
 30
0.0
 11
3.826273126143811
 21
-1.205126500743538
 31
0.0
  0
LINE
  5
2A6
330
1F
100
AcDbEntity
  8
0
100
AcDbLine
 10
3.826273126143811
 20
-1.205126500743538
 30
0.0
 11
3.855090955562944
 21
-1.211984913418586
 31
0.0
  0
LINE
  5
2A7
330
1F
100
AcDbEntity
  8
0
100
AcDbLine
 10
3.855090955562944
 20
-1.211984913418586
 30
0.0
 11
3.883144758564574
 21
-1.221502768831252
 31
0.0
  0
LINE
  5
2A8
330
1F
100
AcDbEntity
  8
0
100
AcDbLine
 10
-8.26694206439806
 20
-2.618402293540595
 30
0.0
 11
-8.285271768766973
 21
-2.620815990115569
 31
0.0
  0
LINE
  5
2A9
330
1F
100
AcDbEntity
  8
0
100
AcDbLine
 10
3.345141071508585
 20
-1.469435695274431
 30
0.0
 11
3.345106637513046
 21
-1.401041756450026
 31
0.0
  0
LINE
  5
2AA
330
1F
100
AcDbEntity
  8
0
100
AcDbLine
 10
3.699725029799232
 20
-2.548230027006716
 30
0.0
 11
3.718050180883927
 21
-2.545816383159949
 31
0.0
  0
LINE
  5
2AB
330
1F
100
AcDbEntity
  8
0
100
AcDbLine
 10
3.630730075144797
 20
-1.451112763683214
 30
0.0
 11
3.628327752163739
 21
-1.469440212994005
 31
0.0
  0
LINE
  5
2AC
330
1F
100
AcDbEntity
  8
0
100
AcDbLine
 10
-4.443353947934002
 20
-2.757706893406688
 30
0.0
 11
-6.143395040092017
 21
-3.397695328183193
 31
0.0
  0
LINE
  5
2AD
330
1F
100
AcDbEntity
  8
0
100
AcDbLine
 10
3.649036117056744
 20
-1.419368929528882
 30
0.0
 11
3.637793322181719
 21
-1.434034390763267
 31
0.0
  0
LINE
  5
2AE
330
1F
100
AcDbEntity
  8
0
100
AcDbLine
 10
-4.519532837875703
 20
-1.501613133992075
 30
0.0
 11
-4.566309225520228
 21
-1.44615261764318
 31
0.0
  0
LINE
  5
2AF
330
1F
100
AcDbEntity
  8
0
100
AcDbLine
 10
3.770493003086811
 20
-2.477395763609264
 30
0.0
 11
3.768069903654753
 21
-2.459062753193273
 31
0.0
  0
LINE
  5
2B0
330
1F
100
AcDbEntity
  8
0
100
AcDbLine
 10
-5.433425283868946
 20
-1.199603635888064
 30
0.0
 11
-5.150250106313543
 21
-1.199603635888064
 31
0.0
  0
LINE
  5
2B1
330
1F
100
AcDbEntity
  8
0
100
AcDbLine
 10
0.6195574891506694
 20
-2.415389245763399
 30
0.0
 11
0.602479608252875
 21
-2.408313087943225
 31
0.0
  0
LINE
  5
2B2
330
1F
100
AcDbEntity
  8
0
100
AcDbLine
 10
-6.064623646501295
 20
-1.501613133992075
 30
0.0
 11
-6.017758911527937
 21
-1.44615261764318
 31
0.0
  0
LINE
  5
2B3
330
1F
100
AcDbEntity
  8
0
100
AcDbLine
 10
0.6454839567664895
 20
-2.5121492207822
 30
0.0
 11
0.6525560062975897
 21
-2.495065392828082
 31
0.0
  0
LINE
  5
2B4
330
1F
100
AcDbEntity
  8
0
100
AcDbLine
 10
-4.934703273101409
 20
-1.22497780992514
 30
0.0
 11
-5.005644521744193
 21
-1.209762323899045
 31
0.0
  0
LINE
  5
2B5
330
1F
100
AcDbEntity
  8
0
100
AcDbLine
 10
-5.335957035609677
 20
-1.401041756450026
 30
0.0
 11
-5.353037367563149
 21
-1.408115769230692
 31
0.0
  0
LINE
  5
2B6
330
1F
100
AcDbEntity
  8
0
100
AcDbLine
 10
-0.336304464548285
 20
-1.839291988963329
 30
0.0
 11
-1.185911790543249
 21
-1.839291988963329
 31
0.0
  0
LINE
  5
2B7
330
1F
100
AcDbEntity
  8
0
100
AcDbLine
 10
-5.578047050994989
 20
-1.209762323899045
 30
0.0
 11
-5.505972306889868
 21
-1.201279284293569
 31
0.0
  0
LINE
  5
2B8
330
1F
100
AcDbEntity
  8
0
100
AcDbLine
 10
-8.205663481814526
 20
-2.653820739534918
 30
0.0
 11
-8.216898256387642
 21
-2.639149893042046
 31
0.0
  0
LINE
  5
2B9
330
1F
100
AcDbEntity
  8
0
100
AcDbLine
 10
3.637793322181719
 20
-1.434034390763267
 30
0.0
 11
3.630730075144797
 21
-1.451112763683214
 31
0.0
  0
LINE
  5
2BA
330
1F
100
AcDbEntity
  8
0
100
AcDbLine
 10
-8.317162873220903
 20
-2.739329988218463
 30
0.0
 11
-8.302511665145696
 21
-2.750587658300178
 31
0.0
  0
LINE
  5
2BB
330
1F
100
AcDbEntity
  8
0
100
AcDbLine
 10
-4.734786614247042
 20
-1.309384919266377
 30
0.0
 11
-4.798673183704731
 21
-1.275010125737273
 31
0.0
  0
LINE
  5
2BC
330
1F
100
AcDbEntity
  8
0
100
AcDbLine
 10
3.649091116563213
 20
-1.519512251150439
 30
0.0
 11
3.663759902787057
 21
-1.530765788794292
 31
0.0
  0
LINE
  5
2BD
330
1F
100
AcDbEntity
  8
0
100
AcDbLine
 10
3.767519145693141
 20
-1.487767763414257
 30
0.0
 11
3.769921091354059
 21
-1.469440212994003
 31
0.0
  0
LINE
  5
2BE
330
1F
100
AcDbEntity
  8
0
100
AcDbLine
 10
3.251362544267327
 20
-1.612624221853365
 30
0.0
 11
3.232282617738633
 21
-1.619165860219949
 31
0.0
  0
LINE
  5
2BF
330
1F
100
AcDbEntity
  8
0
100
AcDbLine
 10
-6.141755952738678
 20
-1.624468424776639
 30
0.0
 11
-6.10607818257242
 21
-1.56122734502205
 31
0.0
  0
LINE
  5
2C0
330
1F
100
AcDbEntity
  8
0
100
AcDbLine
 10
3.717409679228475
 20
-1.401041756450026
 30
0.0
 11
3.699084998123427
 21
-1.398628945872152
 31
0.0
  0
LINE
  5
2C1
330
1F
100
AcDbEntity
  8
0
100
AcDbLine
 10
-8.335450069834737
 20
-2.707573843552465
 30
0.0
 11
-8.328397546199675
 21
-2.724658764172065
 31
0.0
  0
LINE
  5
2C2
330
1F
100
AcDbEntity
  8
0
100
AcDbLine
 10
-8.267118311345078
 20
-2.760078342826962
 30
0.0
 11
-8.248788229447932
 21
-2.757664545086829
 31
0.0
  0
LINE
  5
2C3
330
1F
100
AcDbEntity
  8
0
100
AcDbLine
 10
-5.317745115094077
 20
-1.540252989498489
 30
0.0
 11
-5.299419468872819
 21
-1.537840077811151
 31
0.0
  0
LINE
  5
2C4
330
1F
100
AcDbEntity
  8
0
100
AcDbLine
 10
3.699084998123427
 20
-1.398628945872152
 30
0.0
 11
3.680763003646324
 21
-1.401041756450026
 31
0.0
  0
LINE
  5
2C5
330
1F
100
AcDbEntity
  8
0
100
AcDbLine
 10
3.970957209200656
 20
-2.679650624420935
 30
0.0
 11
3.946731857151761
 21
-2.699649813392375
 31
0.0
  0
LINE
  5
2C6
330
1F
100
AcDbEntity
  8
0
100
AcDbLine
 10
3.992927437825602
 20
-2.657196132298907
 30
0.0
 11
3.970957209200656
 21
-2.679650624420935
 31
0.0
  0
LINE
  5
2C7
330
1F
100
AcDbEntity
  8
0
100
AcDbLine
 10
3.717973618968834
 20
-2.408976552972767
 30
0.0
 11
3.699646157763002
 21
-2.40656301028149
 31
0.0
  0
LINE
  5
2C8
330
1F
100
AcDbEntity
  8
0
100
AcDbLine
 10
4.053751514663171
 20
-2.548230027006716
 30
0.0
 11
4.042979442025465
 21
-2.577747714319842
 31
0.0
  0
LINE
  5
2C9
330
1F
100
AcDbEntity
  8
0
100
AcDbLine
 10
4.042979442025465
 20
-2.577747714319842
 30
0.0
 11
4.029142208576216
 21
-2.605956463986624
 31
0.0
  0
LINE
  5
2CA
330
1F
100
AcDbEntity
  8
0
100
AcDbLine
 10
3.664248063035688
 20
-2.416052712205935
 30
0.0
 11
3.649589685895038
 21
-2.427309287031089
 31
0.0
  0
LINE
  5
2CB
330
1F
100
AcDbEntity
  8
0
100
AcDbLine
 10
-3.876748183641239
 20
-2.547566534170273
 30
0.0
 11
-3.876665537771558
 21
-2.405899545733891
 31
0.0
  0
LINE
  5
2CC
330
1F
100
AcDbEntity
  8
0
100
AcDbLine
 10
3.392117250816925
 20
-1.277743784510308
 30
0.0
 11
3.410303355952223
 21
-1.258035518144256
 31
0.0
  0
LINE
  5
2CD
330
1F
100
AcDbEntity
  8
0
100
AcDbLine
 10
3.345106637513046
 20
-1.401041756450026
 30
0.0
 11
3.348060830913902
 21
-1.374379380538403
 31
0.0
  0
LINE
  5
2CE
330
1F
100
AcDbEntity
  8
0
100
AcDbLine
 10
3.802025241152839
 20
-2.756040155960974
 30
0.0
 11
3.770652050997063
 21
-2.757706893406696
 31
0.0
  0
LINE
  5
2CF
330
1F
100
AcDbEntity
  8
0
100
AcDbLine
 10
3.735123777954796
 20
-2.538739947564853
 30
0.0
 11
3.749782256003487
 21
-2.527482995222276
 31
0.0
  0
LINE
  5
2D0
330
1F
100
AcDbEntity
  8
0
100
AcDbLine
 10
-4.798673183704731
 20
-1.275010125737273
 30
0.0
 11
-4.865508977902224
 21
-1.246791317275822
 31
0.0
  0
LINE
  5
2D1
330
1F
100
AcDbEntity
  8
0
100
AcDbLine
 10
-5.367708793809475
 20
-1.419368929528882
 30
0.0
 11
-5.378971491024811
 21
-1.434034390763267
 31
0.0
  0
LINE
  5
2D2
330
1F
100
AcDbEntity
  8
0
100
AcDbLine
 10
0.5157633852701929
 20
-2.458399278162313
 30
0.0
 11
0.513352104433874
 21
-2.476732284917469
 31
0.0
  0
LINE
  5
2D3
330
1F
100
AcDbEntity
  8
0
100
AcDbLine
 10
0.5658390286733741
 20
-2.545152890805481
 30
0.0
 11
0.5841657338811075
 21
-2.547566534170273
 31
0.0
  0
LINE
  5
2D4
330
1F
100
AcDbEntity
  8
0
100
AcDbLine
 10
1.504511408440799
 20
-1.839291988963331
 30
0.0
 11
1.504543480088514
 21
-1.980934819382215
 31
0.0
  0
LINE
  5
2D5
330
1F
100
AcDbEntity
  8
0
100
AcDbLine
 10
4.053751514663171
 20
-2.548230027006716
 30
0.0
 11
4.053038245825133
 21
-1.37896955088635
 31
0.0
  0
LINE
  5
2D6
330
1F
100
AcDbEntity
  8
0
100
AcDbLine
 10
-5.077705752562045
 20
-1.201279284293569
 30
0.0
 11
-5.150250106313543
 21
-1.199603635888064
 31
0.0
  0
LINE
  5
2D7
330
1F
100
AcDbEntity
  8
0
100
AcDbLine
 10
-5.717272734937808
 20
-1.980934819382215
 30
0.0
 11
-4.867647297875887
 21
-1.980934819382213
 31
0.0
  0
LINE
  5
2D8
330
1F
100
AcDbEntity
  8
0
100
AcDbLine
 10
3.734557225828404
 20
-1.530765788794292
 30
0.0
 11
3.749213481408922
 21
-1.519512251150439
 31
0.0
  0
LINE
  5
2D9
330
1F
100
AcDbEntity
  8
0
100
AcDbLine
 10
-5.386057914938633
 20
-1.451112763683214
 30
0.0
 11
-5.38848510990478
 21
-1.469440212994005
 31
0.0
  0
LINE
  5
2DA
330
1F
100
AcDbEntity
  8
0
100
AcDbLine
 10
-5.256404736456282
 20
-1.504846412570402
 30
0.0
 11
-5.249318588497681
 21
-1.487767763414257
 31
0.0
  0
LINE
  5
2DB
330
1F
100
AcDbEntity
  8
0
100
AcDbLine
 10
3.717486217919369
 20
-1.537840077811151
 30
0.0
 11
3.734557225828404
 21
-1.530765788794292
 31
0.0
  0
LINE
  5
2DC
330
1F
100
AcDbEntity
  8
0
100
AcDbLine
 10
3.269413816759475
 20
-1.603626018701021
 30
0.0
 11
3.251362544267327
 21
-1.612624221853365
 31
0.0
  0
LINE
  5
2DD
330
1F
100
AcDbEntity
  8
0
100
AcDbLine
 10
3.28612202783374
 20
-1.592327988632344
 30
0.0
 11
3.269413816759475
 21
-1.603626018701021
 31
0.0
  0
LINE
  5
2DE
330
1F
100
AcDbEntity
  8
0
100
AcDbLine
 10
3.334157907958674
 20
-1.528597995141174
 30
0.0
 11
3.325425094283889
 21
-1.546781979414896
 31
0.0
  0
LINE
  5
2DF
330
1F
100
AcDbEntity
  8
0
100
AcDbLine
 10
0.6525524057296108
 20
-2.458399278162313
 30
0.0
 11
0.6454770764037782
 21
-2.441315726570043
 31
0.0
  0
LINE
  5
2E0
330
1F
100
AcDbEntity
  8
0
100
AcDbLine
 10
0.513352104433874
 20
-2.476732284917469
 30
0.0
 11
0.5157662310816779
 21
-2.495065392828082
 31
0.0
  0
LINE
  5
2E1
330
1F
100
AcDbEntity
  8
0
100
AcDbLine
 10
-1.610887146169576
 20
-2.547566534170273
 30
0.0
 11
-1.610852804715645
 21
-2.405899545733891
 31
0.0
  0
LINE
  5
2E2
330
1F
100
AcDbEntity
  8
0
100
AcDbLine
 10
-4.443213443009155
 20
-2.547566534170275
 30
0.0
 11
-3.876748183641239
 21
-2.547566534170273
 31
0.0
  0
LINE
  5
2E3
330
1F
100
AcDbEntity
  8
0
100
AcDbLine
 10
3.768402456341652
 20
1.207050760096306
 30
0.0
 11
4.051460729317889
 21
1.207050760096308
 31
0.0
  0
LINE
  5
2E4
330
1F
100
AcDbEntity
  8
0
100
AcDbLine
 10
3.769205616109167
 20
-0.2084637316288495
 30
0.0
 11
4.052338549848165
 21
-0.2084637316288495
 31
0.0
  0
LINE
  5
2E5
330
1F
100
AcDbEntity
  8
0
100
AcDbLine
 10
-0.3362219231063109
 20
-0.2084637316288475
 30
0.0
 11
1.504142146197177
 21
-0.2084637316288515
 31
0.0
  0
LINE
  5
2E6
330
1F
100
AcDbEntity
  8
0
100
AcDbLine
 10
-0.3361502793837076
 20
1.207050760096308
 30
0.0
 11
1.503821636631106
 21
1.207050760096306
 31
0.0
  0
LINE
  5
2E7
330
1F
100
AcDbEntity
  8
0
 62
   250
100
AcDbLine
 10
5.772829398140978
 20
-0.1073039135295396
 30
0.0
 11
6.221230013444213
 21
-0.1073039135295396
 31
0.0
  0
LINE
  5
2E8
330
1F
100
AcDbEntity
  8
0
 62
   250
100
AcDbLine
 10
5.771845368940614
 20
1.025030883235621
 30
0.0
 11
6.220169550441896
 21
1.025030883235621
 31
0.0
  0
LINE
  5
2E9
330
1F
100
AcDbEntity
  8
0
 62
   250
100
AcDbLine
 10
6.128227270233927
 20
-0.1073039135295396
 30
0.0
 11
6.127973015357909
 21
0.1683029431503752
 31
0.0
  0
LINE
  5
2EA
330
1F
100
AcDbEntity
  8
0
 62
   250
100
AcDbLine
 10
6.127436826198618
 20
0.7495205429606382
 30
0.0
 11
6.12718266036163
 21
1.025030883235621
 31
0.0
  0
LINE
  5
2EB
330
1F
100
AcDbEntity
  8
0
 62
   250
100
AcDbLine
 10
4.592998330702116
 20
1.071523503675004
 30
0.0
 11
4.59267816788241
 21
1.534493795168357
 31
0.0
  0
LINE
  5
2EC
330
1F
100
AcDbEntity
  8
0
 62
   250
100
AcDbLine
 10
5.725311846028224
 20
1.071523503675004
 30
0.0
 11
5.724912753354477
 21
1.534493795168357
 31
0.0
  0
LINE
  5
2ED
330
1F
100
AcDbEntity
  8
0
 62
   250
100
AcDbLine
 10
4.592742462450651
 20
1.441520866497939
 30
0.0
 11
4.914756288547781
 21
1.441520866497937
 31
0.0
  0
LINE
  5
2EE
330
1F
100
AcDbEntity
  8
0
 62
   250
100
AcDbLine
 10
5.402979072388402
 20
1.441520866497937
 30
0.0
 11
5.724992898485539
 21
1.441520866497939
 31
0.0
  0
POLYLINE
  5
2EF
330
1F
100
AcDbEntity
  8
0
 62
   250
100
AcDbPolyFaceMesh
 66
     1
 10
0.0
 20
0.0
 30
0.0
 70
    64
 71
     3
 72
     1
  0
VERTEX
  5
2F0
330
2EF
100
AcDbEntity
  8
0
100
AcDbVertex
100
AcDbPolyFaceMeshVertex
 10
6.220960817739814
 20
0.1716721083876903
 30
0.0
 70
   192
  0
VERTEX
  5
2F1
330
2EF
100
AcDbEntity
  8
0
100
AcDbVertex
100
AcDbPolyFaceMeshVertex
 10
6.128227270233927
 20
-0.1073039135295396
 30
0.0
 70
   192
  0
VERTEX
  5
2F2
330
2EF
100
AcDbEntity
  8
0
100
AcDbVertex
100
AcDbPolyFaceMeshVertex
 10
6.034978996681535
 20
0.1716721083876903
 30
0.0
 70
   192
  0
VERTEX
  5
2F3
330
2EF
100
AcDbEntity
  8
0
 62
   250
100
AcDbFaceRecord
 10
0.0
 20
0.0
 30
0.0
 70
   128
 71
     1
 72
     2
 73
     3
  0
SEQEND
  5
2F4
330
2EF
100
AcDbEntity
  8
0
 62
   250
  0
POLYLINE
  5
2F5
330
1F
100
AcDbEntity
  8
0
 62
   250
100
AcDbPolyFaceMesh
 66
     1
 10
0.0
 20
0.0
 30
0.0
 70
    64
 71
     3
 72
     1
  0
VERTEX
  5
2F6
330
2F5
100
AcDbEntity
  8
0
100
AcDbVertex
100
AcDbPolyFaceMeshVertex
 10
6.220438722868038
 20
0.7460789853093149
 30
0.0
 70
   192
  0
VERTEX
  5
2F7
330
2F5
100
AcDbEntity
  8
0
100
AcDbVertex
100
AcDbPolyFaceMeshVertex
 10
6.034441279391638
 20
0.7460789853093149
 30
0.0
 70
   192
  0
VERTEX
  5
2F8
330
2F5
100
AcDbEntity
  8
0
100
AcDbVertex
100
AcDbPolyFaceMeshVertex
 10
6.12718266036163
 20
1.025030883235621
 30
0.0
 70
   192
  0
VERTEX
  5
2F9
330
2F5
100
AcDbEntity
  8
0
 62
   250
100
AcDbFaceRecord
 10
0.0
 20
0.0
 30
0.0
 70
   128
 71
     1
 72
     2
 73
     3
  0
SEQEND
  5
2FA
330
2F5
100
AcDbEntity
  8
0
 62
   250
  0
POLYLINE
  5
2FB
330
1F
100
AcDbEntity
  8
0
 62
   250
100
AcDbPolyFaceMesh
 66
     1
 10
0.0
 20
0.0
 30
0.0
 70
    64
 71
     3
 72
     1
  0
VERTEX
  5
2FC
330
2FB
100
AcDbEntity
  8
0
100
AcDbVertex
100
AcDbPolyFaceMeshVertex
 10
4.871795112387206
 20
1.348545334667549
 30
0.0
 70
   192
  0
VERTEX
  5
2FD
330
2FB
100
AcDbEntity
  8
0
100
AcDbVertex
100
AcDbPolyFaceMeshVertex
 10
4.592742462450651
 20
1.441520866497939
 30
0.0
 70
   192
  0
VERTEX
  5
2FE
330
2FB
100
AcDbEntity
  8
0
100
AcDbVertex
100
AcDbPolyFaceMeshVertex
 10
4.871658710241488
 20
1.534493795168357
 30
0.0
 70
   192
  0
VERTEX
  5
2FF
330
2FB
100
AcDbEntity
  8
0
 62
   250
100
AcDbFaceRecord
 10
0.0
 20
0.0
 30
0.0
 70
   128
 71
     1
 72
     2
 73
     3
  0
SEQEND
  5
300
330
2FB
100
AcDbEntity
  8
0
 62
   250
  0
POLYLINE
  5
301
330
1F
100
AcDbEntity
  8
0
 62
   250
100
AcDbPolyFaceMesh
 66
     1
 10
0.0
 20
0.0
 30
0.0
 70
    64
 71
     3
 72
     1
  0
VERTEX
  5
302
330
301
100
AcDbEntity
  8
0
100
AcDbVertex
100
AcDbPolyFaceMeshVertex
 10
5.724992898485539
 20
1.441520866497939
 30
0.0
 70
   192
  0
VERTEX
  5
303
330
301
100
AcDbEntity
  8
0
100
AcDbVertex
100
AcDbPolyFaceMeshVertex
 10
5.446084692292468
 20
1.348545334667549
 30
0.0
 70
   192
  0
VERTEX
  5
304
330
301
100
AcDbEntity
  8
0
100
AcDbVertex
100
AcDbPolyFaceMeshVertex
 10
5.445932210995399
 20
1.534493795168357
 30
0.0
 70
   192
  0
VERTEX
  5
305
330
301
100
AcDbEntity
  8
0
 62
   250
100
AcDbFaceRecord
 10
0.0
 20
0.0
 30
0.0
 70
   128
 71
     1
 72
     2
 73
     3
  0
SEQEND
  5
306
330
301
100
AcDbEntity
  8
0
 62
   250
  0
MTEXT
  5
308
330
1F
100
AcDbEntity
  8
0
 62
   250
100
AcDbMText
 10
5.941715288838981
 20
0.31408815571592
 30
0.0
 40
0.2896471746791676
 41
0.0
 71
     7
 72
     1
  1
1"
  7
TAHOMA
  0
MTEXT
  5
309
330
1F
100
AcDbEntity
  8
0
 62
   250
100
AcDbMText
 10
4.972878048528809
 20
1.296697279158357
 30
0.0
 40
0.2896471746791674
 41
0.0
 71
     7
 72
     1
  1
1"
  7
TAHOMA
  0
ENDSEC
  0
SECTION
  2
OBJECTS
  0
DICTIONARY
  5
C
330
0
100
AcDbDictionary
  3
ACAD_GROUP
350
D
  3
ACAD_LAYOUT
350
1A
  3
ACAD_MLEADERSTYLE
350
32B
  3
ACAD_MLINESTYLE
350
17
  3
ACAD_PLOTSETTINGS
350
19
  3
ACAD_TABLESTYLE
350
32A
  3
ACAD_VISUALSTYLE
350
2A
  3
ACDBHEADERROUNDTRIPXREC
350
30A
  0
DICTIONARY
  5
D
102
{ACAD_REACTORS
330
C
102
}
330
C
100
AcDbDictionary
  0
DICTIONARY
  5
1A
102
{ACAD_REACTORS
330
C
102
}
330
C
100
AcDbDictionary
  0
DICTIONARY
  5
32B
102
{ACAD_REACTORS
330
C
102
}
330
C
100
AcDbDictionary
  0
DICTIONARY
  5
17
102
{ACAD_REACTORS
330
C
102
}
330
C
100
AcDbDictionary
  3
STANDARD
350
18
  0
DICTIONARY
  5
19
102
{ACAD_REACTORS
330
C
102
}
330
C
100
AcDbDictionary
  0
DICTIONARY
  5
32A
102
{ACAD_REACTORS
330
C
102
}
330
C
100
AcDbDictionary
  0
DICTIONARY
  5
2A
102
{ACAD_REACTORS
330
C
102
}
330
C
100
AcDbDictionary
  3
2DWIREFRAME
350
2F
  3
3D_HIDDEN
350
31
  3
3DWIREFRAME
350
30
  3
BASIC
350
32
  3
BRIGHTEN
350
36
  3
COLORCHANGE
350
3A
  3
CONCEPTUAL
350
34
  3
DIM
350
35
  3
FACEPATTERN
350
39
  3
FLAT
350
2B
  3
FLATWITHEDGES
350
2C
  3
GOURAUD
350
2D
  3
GOURAUDWITHEDGES
350
2E
  3
LINEPATTERN
350
38
  3
REALISTIC
350
33
  3
THICKEN
350
37
  0
DICTIONARY
  5
30A
102
{ACAD_REACTORS
330
C
102
}
330
C
100
AcDbDictionary
  3
CEPSNTYPE
350
313
  3
DIMSTYLEDATA
350
329
  3
FINGERPRINTGUID
350
314
  3
HYPERLINKBASE
350
30D
  3
INSUNITS
350
312
  3
LAYOUTDICT
350
30F
  3
LWETCUNION
350
311
  3
PLOTSETDICT
350
310
  3
PSVPSCALE
350
316
  3
PUCSBASE
350
319
  3
PUCSORGBACK
350
31F
  3
PUCSORGBOTTOM
350
31B
  3
PUCSORGFRONT
350
31E
  3
PUCSORGLEFT
350
31C
  3
PUCSORGRIGHT
350
31D
  3
PUCSORGTOP
350
31A
  3
PUCSORTHOREF
350
317
  3
PUCSORTHOVIEW
350
318
  3
STYLESHEET
350
30E
  3
TSTACKALIGN
350
30B
  3
TSTACKSIZE
350
30C
  3
UCSBASE
350
322
  3
UCSORGBACK
350
328
  3
UCSORGBOTTOM
350
324
  3
UCSORGFRONT
350
327
  3
UCSORGLEFT
350
325
  3
UCSORGRIGHT
350
326
  3
UCSORGTOP
350
323
  3
UCSORTHOREF
350
320
  3
UCSORTHOVIEW
350
321
  3
VERSIONGUID
350
315
  0
MLINESTYLE
  5
18
102
{ACAD_REACTORS
330
17
102
}
330
17
100
AcDbMlineStyle
  2
Standard
 70
     0
  3

 62
   256
 51
90.0
 52
90.0
 71
     2
 49
0.5
 62
   256
  6
BYLAYER
 49
-0.5
 62
   256
  6
BYLAYER
  0
VISUALSTYLE
  5
2F
102
{ACAD_REACTORS
330
2A
102
}
330
2A
100
AcDbVisualStyle
  2
2dWireframe
 70
     4
 71
     0
 72
     2
 73
     0
 90
        0
 40
-0.6
 41
-30.0
 62
     5
 63
     7
 74
     1
 91
        4
 64
     7
 65
   257
 75
     1
175
     1
 42
1.0
 92
        0
 66
   257
 43
1.0
 76
     1
 77
     6
 78
     2
 67
     7
 79
     5
170
     0
171
     0
290
     0
174
     0
 93
        1
 44
0.0
173
     0
291
     0
 45
0.0
1001
ACAD
1000
AcDbSavedByObjectVersion
1070
     0
  0
VISUALSTYLE
  5
31
102
{ACAD_REACTORS
330
2A
102
}
330
2A
100
AcDbVisualStyle
  2
3D Hidden
 70
     6
 71
     1
 72
     2
 73
     2
 90
        0
 40
-0.6
 41
-30.0
 62
     5
 63
     7
 74
     2
 91
        2
 64
     7
 65
   257
 75
     2
175
     1
 42
40.0
 92
        0
 66
   257
 43
1.0
 76
     1
 77
     6
 78
     2
 67
     7
 79
     3
170
     0
171
     0
290
     0
174
     0
 93
        1
 44
0.0
173
     0
291
     0
 45
0.0
1001
ACAD
1000
AcDbSavedByObjectVersion
1070
     0
  0
VISUALSTYLE
  5
30
102
{ACAD_REACTORS
330
2A
102
}
330
2A
100
AcDbVisualStyle
  2
3dWireframe
 70
     5
 71
     0
 72
     2
 73
     0
 90
        0
 40
-0.6
 41
-30.0
 62
     5
 63
     7
 74
     1
 91
        4
 64
     7
 65
   257
 75
     1
175
     1
 42
1.0
 92
        0
 66
   257
 43
1.0
 76
     1
 77
     6
 78
     2
 67
     7
 79
     5
170
     0
171
     0
290
     0
174
     0
 93
        1
 44
0.0
173
     0
291
     0
 45
0.0
1001
ACAD
1000
AcDbSavedByObjectVersion
1070
     0
  0
VISUALSTYLE
  5
32
102
{ACAD_REACTORS
330
2A
102
}
330
2A
100
AcDbVisualStyle
  2
Basic
 70
     7
 71
     1
 72
     0
 73
     1
 90
        0
 40
-0.6
 41
-30.0
 62
     5
 63
     7
 74
     0
 91
        4
 64
     7
 65
   257
 75
     1
175
     1
 42
1.0
 92
        8
 66
     7
 43
1.0
 76
     1
 77
     6
 78
     2
 67
     7
 79
     5
170
     0
171
     0
290
     0
174
     0
 93
        1
 44
0.0
173
     0
291
     1
 45
0.0
1001
ACAD
1000
AcDbSavedByObjectVersion
1070
     0
  0
VISUALSTYLE
  5
36
102
{ACAD_REACTORS
330
2A
102
}
330
2A
100
AcDbVisualStyle
  2
Brighten
 70
    12
 71
     2
 72
     2
 73
     0
 90
        0
 40
-0.6
 41
-30.0
 62
     5
 63
     7
 74
     1
 91
        4
 64
     7
 65
   257
 75
     1
175
     1
 42
1.0
 92
        8
 66
     7
 43
1.0
 76
     1
 77
     6
 78
     2
 67
     7
 79
     5
170
     0
171
     0
290
     0
174
     0
 93
        1
 44
50.0
173
     0
291
     1
 45
0.0
1001
ACAD
1000
AcDbSavedByObjectVersion
1070
     0
  0
VISUALSTYLE
  5
3A
102
{ACAD_REACTORS
330
2A
102
}
330
2A
100
AcDbVisualStyle
  2
ColorChange
 70
    16
 71
     2
 72
     2
 73
     3
 90
        0
 40
-0.6
 41
-30.0
 62
     5
 63
     8
 74
     1
 91
        4
 64
     7
 65
   257
 75
     1
175
     1
 42
1.0
 92
        8
 66
     8
 43
1.0
 76
     1
 77
     6
 78
     2
 67
     7
 79
     5
170
     0
171
     0
290
     0
174
     0
 93
        1
 44
0.0
173
     0
291
     1
 45
0.0
1001
ACAD
1000
AcDbSavedByObjectVersion
1070
     0
  0
VISUALSTYLE
  5
34
102
{ACAD_REACTORS
330
2A
102
}
330
2A
100
AcDbVisualStyle
  2
Conceptual
 70
     9
 71
     3
 72
     2
 73
     0
 90
        0
 40
-0.6
 41
-30.0
 62
     5
 63
     7
 74
     2
 91
        2
 64
     7
 65
   257
 75
     1
175
     1
 42
40.0
 92
        8
 66
     7
 43
1.0
 76
     1
 77
     6
 78
     2
 67
     7
 79
     3
170
     0
171
     0
290
     0
174
     0
 93
        1
 44
0.0
173
     0
291
     0
 45
0.0
1001
ACAD
1000
AcDbSavedByObjectVersion
1070
     0
  0
VISUALSTYLE
  5
35
102
{ACAD_REACTORS
330
2A
102
}
330
2A
100
AcDbVisualStyle
  2
Dim
 70
    11
 71
     2
 72
     2
 73
     0
 90
        0
 40
-0.6
 41
-30.0
 62
     5
 63
     7
 74
     1
 91
        4
 64
     7
 65
   257
 75
     1
175
     1
 42
1.0
 92
        8
 66
     7
 43
1.0
 76
     1
 77
     6
 78
     2
 67
     7
 79
     5
170
     0
171
     0
290
     0
174
     0
 93
        1
 44
-50.0
173
     0
291
     1
 45
0.0
1001
ACAD
1000
AcDbSavedByObjectVersion
1070
     0
  0
VISUALSTYLE
  5
39
102
{ACAD_REACTORS
330
2A
102
}
330
2A
100
AcDbVisualStyle
  2
Facepattern
 70
    15
 71
     2
 72
     2
 73
     0
 90
        0
 40
-0.6
 41
-30.0
 62
     5
 63
     7
 74
     1
 91
        4
 64
     7
 65
   257
 75
     1
175
     1
 42
1.0
 92
        8
 66
     7
 43
1.0
 76
     1
 77
     6
 78
     2
 67
     7
 79
     5
170
     0
171
     0
290
     0
174
     0
 93
        1
 44
0.0
173
     0
291
     1
 45
0.0
1001
ACAD
1000
AcDbSavedByObjectVersion
1070
     0
  0
VISUALSTYLE
  5
2B
102
{ACAD_REACTORS
330
2A
102
}
330
2A
100
AcDbVisualStyle
  2
Flat
 70
     0
 71
     2
 72
     1
 73
     1
 90
        2
 40
-0.6
 41
30.0
 62
     5
 63
     7
 74
     0
 91
        4
 64
     7
 65
   257
 75
     1
175
     1
 42
1.0
 92
        8
 66
     7
 43
1.0
 76
     1
 77
     6
 78
     2
 67
     7
 79
     5
170
     0
171
     0
290
     0
174
     0
 93
       13
 44
0.0
173
     0
291
     1
 45
0.0
1001
ACAD
1000
AcDbSavedByObjectVersion
1070
     0
  0
VISUALSTYLE
  5
2C
102
{ACAD_REACTORS
330
2A
102
}
330
2A
100
AcDbVisualStyle
  2
FlatWithEdges
 70
     1
 71
     2
 72
     1
 73
     1
 90
        2
 40
-0.6
 41
30.0
 62
     5
 63
     7
 74
     1
 91
        4
 64
     7
 65
   257
 75
     1
175
     1
 42
1.0
 92
        0
 66
   257
 43
1.0
 76
     1
 77
     6
 78
     2
 67
     7
 79
     5
170
     0
171
     0
290
     0
174
     0
 93
       13
 44
0.0
173
     0
291
     1
 45
0.0
1001
ACAD
1000
AcDbSavedByObjectVersion
1070
     0
  0
VISUALSTYLE
  5
2D
102
{ACAD_REACTORS
330
2A
102
}
330
2A
100
AcDbVisualStyle
  2
Gouraud
 70
     2
 71
     2
 72
     2
 73
     1
 90
        2
 40
-0.6
 41
30.0
 62
     5
 63
     7
 74
     0
 91
        4
 64
     7
 65
   257
 75
     1
175
     1
 42
1.0
 92
        0
 66
     7
 43
1.0
 76
     1
 77
     6
 78
     2
 67
     7
 79
     5
170
     0
171
     0
290
     0
174
     0
 93
       13
 44
0.0
173
     0
291
     1
 45
0.0
1001
ACAD
1000
AcDbSavedByObjectVersion
1070
     0
  0
VISUALSTYLE
  5
2E
102
{ACAD_REACTORS
330
2A
102
}
330
2A
100
AcDbVisualStyle
  2
GouraudWithEdges
 70
     3
 71
     2
 72
     2
 73
     1
 90
        2
 40
-0.6
 41
30.0
 62
     5
 63
     7
 74
     1
 91
        4
 64
     7
 65
   257
 75
     1
175
     1
 42
1.0
 92
        0
 66
   257
 43
1.0
 76
     1
 77
     6
 78
     2
 67
     7
 79
     5
170
     0
171
     0
290
     0
174
     0
 93
       13
 44
0.0
173
     0
291
     1
 45
0.0
1001
ACAD
1000
AcDbSavedByObjectVersion
1070
     0
  0
VISUALSTYLE
  5
38
102
{ACAD_REACTORS
330
2A
102
}
330
2A
100
AcDbVisualStyle
  2
Linepattern
 70
    14
 71
     2
 72
     2
 73
     0
 90
        0
 40
-0.6
 41
-30.0
 62
     5
 63
     7
 74
     1
 91
        4
 64
     7
 65
   257
 75
     7
175
     7
 42
1.0
 92
        8
 66
     7
 43
1.0
 76
     1
 77
     6
 78
     2
 67
     7
 79
     5
170
     0
171
     0
290
     0
174
     0
 93
        1
 44
0.0
173
     0
291
     1
 45
0.0
1001
ACAD
1000
AcDbSavedByObjectVersion
1070
     0
  0
VISUALSTYLE
  5
33
102
{ACAD_REACTORS
330
2A
102
}
330
2A
100
AcDbVisualStyle
  2
Realistic
 70
     8
 71
     2
 72
     2
 73
     0
 90
        0
 40
-0.6
 41
-30.0
 62
     5
 63
     7
 74
     1
 91
        0
 64
     7
 65
   257
 75
     1
175
     1
 42
1.0
 92
        8
 66
     8
 43
1.0
 76
     1
 77
     6
 78
     2
 67
     7
 79
     5
170
     0
171
     0
290
     0
174
     0
 93
       13
 44
0.0
173
     0
291
     0
 45
0.0
1001
ACAD
1000
AcDbSavedByObjectVersion
1070
     0
  0
VISUALSTYLE
  5
37
102
{ACAD_REACTORS
330
2A
102
}
330
2A
100
AcDbVisualStyle
  2
Thicken
 70
    13
 71
     2
 72
     2
 73
     0
 90
        0
 40
-0.6
 41
-30.0
 62
     5
 63
     7
 74
     1
 91
        4
 64
     7
 65
   257
 75
     1
175
     1
 42
1.0
 92
       12
 66
     7
 43
1.0
 76
     1
 77
     6
 78
     2
 67
     7
 79
     5
170
     0
171
     0
290
     0
174
     0
 93
        1
 44
0.0
173
     0
291
     1
 45
0.0
1001
ACAD
1000
AcDbSavedByObjectVersion
1070
     0
  0
XRECORD
  5
313
102
{ACAD_REACTORS
330
30A
102
}
330
30A
100
AcDbXrecord
 90
        0
  0
XRECORD
  5
329
102
{ACAD_REACTORS
330
30A
102
}
330
30A
100
AcDbXrecord
1000
DSTYLE
1002
{
1070
   340
340
11
1002
}
  0
XRECORD
  5
314
102
{ACAD_REACTORS
330
30A
102
}
330
30A
100
AcDbXrecord
  1
{4591B768-72BE-4262-A65A-CF5496B7FAD1}
  0
XRECORD
  5
30D
102
{ACAD_REACTORS
330
30A
102
}
330
30A
100
AcDbXrecord
  1

  0
XRECORD
  5
312
102
{ACAD_REACTORS
330
30A
102
}
330
30A
100
AcDbXrecord
 90
        1
  0
XRECORD
  5
30F
102
{ACAD_REACTORS
330
30A
102
}
330
30A
100
AcDbXrecord
340
1A
  0
XRECORD
  5
311
102
{ACAD_REACTORS
330
30A
102
}
330
30A
100
AcDbXrecord
 90
    10781
  0
XRECORD
  5
310
102
{ACAD_REACTORS
330
30A
102
}
330
30A
100
AcDbXrecord
340
19
  0
XRECORD
  5
316
102
{ACAD_REACTORS
330
30A
102
}
330
30A
100
AcDbXrecord
 40
0.0
  0
XRECORD
  5
319
102
{ACAD_REACTORS
330
30A
102
}
330
30A
100
AcDbXrecord
340
0
  0
XRECORD
  5
31F
102
{ACAD_REACTORS
330
30A
102
}
330
30A
100
AcDbXrecord
 10
0.0
 20
0.0
 30
0.0
  0
XRECORD
  5
31B
102
{ACAD_REACTORS
330
30A
102
}
330
30A
100
AcDbXrecord
 10
0.0
 20
0.0
 30
0.0
  0
XRECORD
  5
31E
102
{ACAD_REACTORS
330
30A
102
}
330
30A
100
AcDbXrecord
 10
0.0
 20
0.0
 30
0.0
  0
XRECORD
  5
31C
102
{ACAD_REACTORS
330
30A
102
}
330
30A
100
AcDbXrecord
 10
0.0
 20
0.0
 30
0.0
  0
XRECORD
  5
31D
102
{ACAD_REACTORS
330
30A
102
}
330
30A
100
AcDbXrecord
 10
0.0
 20
0.0
 30
0.0
  0
XRECORD
  5
31A
102
{ACAD_REACTORS
330
30A
102
}
330
30A
100
AcDbXrecord
 10
0.0
 20
0.0
 30
0.0
  0
XRECORD
  5
317
102
{ACAD_REACTORS
330
30A
102
}
330
30A
100
AcDbXrecord
340
0
  0
XRECORD
  5
318
102
{ACAD_REACTORS
330
30A
102
}
330
30A
100
AcDbXrecord
 70
     0
  0
XRECORD
  5
30E
102
{ACAD_REACTORS
330
30A
102
}
330
30A
100
AcDbXrecord
  1

  0
XRECORD
  5
30B
102
{ACAD_REACTORS
330
30A
102
}
330
30A
100
AcDbXrecord
 90
        1
  0
XRECORD
  5
30C
102
{ACAD_REACTORS
330
30A
102
}
330
30A
100
AcDbXrecord
 90
       70
  0
XRECORD
  5
322
102
{ACAD_REACTORS
330
30A
102
}
330
30A
100
AcDbXrecord
340
0
  0
XRECORD
  5
328
102
{ACAD_REACTORS
330
30A
102
}
330
30A
100
AcDbXrecord
 10
0.0
 20
0.0
 30
0.0
  0
XRECORD
  5
324
102
{ACAD_REACTORS
330
30A
102
}
330
30A
100
AcDbXrecord
 10
0.0
 20
0.0
 30
0.0
  0
XRECORD
  5
327
102
{ACAD_REACTORS
330
30A
102
}
330
30A
100
AcDbXrecord
 10
0.0
 20
0.0
 30
0.0
  0
XRECORD
  5
325
102
{ACAD_REACTORS
330
30A
102
}
330
30A
100
AcDbXrecord
 10
0.0
 20
0.0
 30
0.0
  0
XRECORD
  5
326
102
{ACAD_REACTORS
330
30A
102
}
330
30A
100
AcDbXrecord
 10
0.0
 20
0.0
 30
0.0
  0
XRECORD
  5
323
102
{ACAD_REACTORS
330
30A
102
}
330
30A
100
AcDbXrecord
 10
0.0
 20
0.0
 30
0.0
  0
XRECORD
  5
320
102
{ACAD_REACTORS
330
30A
102
}
330
30A
100
AcDbXrecord
340
0
  0
XRECORD
  5
321
102
{ACAD_REACTORS
330
30A
102
}
330
30A
100
AcDbXrecord
 70
     0
  0
XRECORD
  5
315
102
{ACAD_REACTORS
330
30A
102
}
330
30A
100
AcDbXrecord
  1
{FAEB1C32-E019-11D5-929B-00C0DF256EC4}
  0
ENDSEC
  0
EOF
